<svg width="22" height="22" viewBox="0 0 22 22" fill="none" xmlns="http://www.w3.org/2000/svg">
<circle cx="11" cy="11" r="11" fill="white"/>
<g clip-path="url(#clip0_61_907)">
<path d="M12.8747 7.25C12.1497 7.25 11.4538 7.5875 10.9997 8.12083C10.5455 7.5875 9.84967 7.25 9.12467 7.25C7.84134 7.25 6.83301 8.25833 6.83301 9.54167C6.83301 11.1167 8.24967 12.4 10.3955 14.35L10.9997 14.8958L11.6038 14.3458C13.7497 12.4 15.1663 11.1167 15.1663 9.54167C15.1663 8.25833 14.158 7.25 12.8747 7.25ZM11.0413 13.7292L10.9997 13.7708L10.958 13.7292C8.97467 11.9333 7.66634 10.7458 7.66634 9.54167C7.66634 8.70833 8.29134 8.08333 9.12467 8.08333C9.76634 8.08333 10.3913 8.49583 10.6122 9.06667H11.3913C11.608 8.49583 12.233 8.08333 12.8747 8.08333C13.708 8.08333 14.333 8.70833 14.333 9.54167C14.333 10.7458 13.0247 11.9333 11.0413 13.7292Z" fill="#65ADC3"/>
</g>
<defs>
<clipPath id="clip0_61_907">
<rect width="10" height="10" fill="white" transform="translate(6 6)"/>
</clipPath>
</defs>
</svg>
