<svg width="20" height="20" viewBox="0 0 20 20" fill="none" xmlns="http://www.w3.org/2000/svg">
<g clip-path="url(#clip0_92_1296)">
<path d="M9.99935 18.3333C14.6017 18.3333 18.3327 14.6024 18.3327 10C18.3327 5.39763 14.6017 1.66667 9.99935 1.66667C5.39698 1.66667 1.66602 5.39763 1.66602 10C1.66602 14.6024 5.39698 18.3333 9.99935 18.3333Z" stroke="#485BE8" stroke-width="2" stroke-linecap="round" stroke-linejoin="round"/>
<path d="M7.57422 7.5C7.77014 6.94306 8.15685 6.47342 8.66585 6.17428C9.17485 5.87513 9.7733 5.76578 10.3552 5.86559C10.9371 5.96541 11.4649 6.26794 11.8451 6.71961C12.2253 7.17128 12.4334 7.74294 12.4326 8.33334C12.4326 10 9.93255 10.8333 9.93255 10.8333" stroke="#485BE8" stroke-width="2" stroke-linecap="round" stroke-linejoin="round"/>
<path d="M10 14.1667H10.0083" stroke="#485BE8" stroke-width="2" stroke-linecap="round" stroke-linejoin="round"/>
</g>
<defs>
<clipPath id="clip0_92_1296">
<rect width="20" height="20" fill="white"/>
</clipPath>
</defs>
</svg>
