<svg width="20" height="20" viewBox="0 0 20 20" fill="none" xmlns="http://www.w3.org/2000/svg">
<g clip-path="url(#clip0_92_1231)">
<path d="M0.833984 3.33333V8.33333H5.83398" stroke="#485BE8" stroke-width="2" stroke-linecap="round" stroke-linejoin="round"/>
<path d="M2.92565 12.5C3.46598 14.0336 4.4901 15.3501 5.8437 16.2511C7.1973 17.1521 8.80705 17.5888 10.4304 17.4954C12.0538 17.402 13.6028 16.7835 14.8441 15.7331C16.0854 14.6828 16.9517 13.2575 17.3125 11.672C17.6733 10.0864 17.5091 8.42662 16.8445 6.94258C16.1799 5.45853 15.0511 4.23065 13.628 3.44396C12.2049 2.65727 10.5647 2.35438 8.95455 2.58092C7.34436 2.80747 5.85141 3.55118 4.70065 4.69999L0.833984 8.33333" stroke="#485BE8" stroke-width="2" stroke-linecap="round" stroke-linejoin="round"/>
</g>
<defs>
<clipPath id="clip0_92_1231">
<rect width="20" height="20" fill="white"/>
</clipPath>
</defs>
</svg>
