<svg width="279" height="278" viewBox="0 0 279 278" fill="none" xmlns="http://www.w3.org/2000/svg">
<path d="M276.998 26.0135C257.798 26.0135 272.043 60.6981 239.836 57.6013" stroke="#77BBF3" stroke-width="3.71622" stroke-linecap="round"/>
<circle cx="267.71" cy="129.448" r="8.0518" stroke="#485BE8" stroke-width="2.47748"/>
<circle cx="43.4956" cy="99.7184" r="8.0518" stroke="#84C4FB" stroke-width="2.47748"/>
<circle cx="63.3164" cy="239.696" r="9.29054" stroke="#84C4FB" stroke-width="2.47748"/>
<circle cx="127.732" cy="9.29048" r="9.29054" fill="#485BE8"/>
<circle cx="185.953" cy="268.187" r="9.29054" fill="#15195A"/>
<circle cx="154.986" cy="25.3941" r="5.57432" fill="#212121"/>
<circle cx="157.463" cy="258.277" r="5.57432" fill="#212121"/>
<path d="M226.213 224.831C244.148 231.343 249.211 238.531 250.368 257.038" stroke="#77BBF3" stroke-width="3.71622" stroke-linecap="round"/>
<path d="M2 210.586C16.5935 216.017 24.3138 216.32 35.4459 201.295C25.6552 198.477 23.981 195.05 26.1554 186.43C34.0134 187.765 36.5681 190.592 36.0653 201.295C45.3635 200.17 48.9549 197.354 54.6464 191.385" stroke="#E1332B" stroke-width="3.71622" stroke-linecap="round"/>
<circle cx="159.94" cy="134.403" r="92.286" fill="#485BE8"/>
<circle cx="159.942" cy="134.403" r="78.6599" stroke="white" stroke-width="2.47748"/>
<path d="M149.019 140.621L133.535 125.756C122.658 117.394 112.087 128.543 119.909 138.763L144.683 163.538C148.555 166.661 150.722 166.163 154.593 163.538L199.807 118.324C208.662 106.277 193.422 98.5886 186.8 105.317L149.019 140.621Z" fill="white"/>
</svg>
