<svg width="35" height="14" viewBox="0 0 35 14" fill="none" xmlns="http://www.w3.org/2000/svg">
<path fill-rule="evenodd" clip-rule="evenodd" d="M16.4354 10.4327V6.59907V6.59831H18.5068C19.3608 6.59881 20.0785 6.33015 20.66 5.7923C21.2476 5.28186 21.5761 4.54794 21.5594 3.78295C21.571 3.02221 21.2431 2.29373 20.66 1.78493C20.0836 1.24415 19.3085 0.949084 18.5068 0.965328H15.1816V10.4327H16.4354ZM16.4348 5.43572V2.13086V2.13011H18.5373C19.0059 2.11733 19.4577 2.30026 19.7778 2.63244C20.0999 2.93624 20.2817 3.35352 20.2817 3.78933C20.2817 4.22515 20.0999 4.64242 19.7778 4.94622C19.4537 5.27142 19.0034 5.44912 18.5373 5.43572H16.4348Z" fill="#5F6368"/>
<path fill-rule="evenodd" clip-rule="evenodd" d="M26.6424 4.4643C26.1061 3.98387 25.3746 3.74365 24.4479 3.74365C23.2575 3.74365 22.3586 4.16667 21.7512 5.01272L22.8554 5.68728C23.2635 5.11419 23.8177 4.82764 24.518 4.82764C24.9645 4.82257 25.3966 4.9809 25.7281 5.27106C26.0587 5.53618 26.2489 5.93144 26.246 6.3475V6.62549C25.7642 6.3611 25.1511 6.2289 24.4066 6.2289C23.5345 6.22991 22.8373 6.42833 22.315 6.82415C21.7927 7.21998 21.5316 7.75304 21.5316 8.42333C21.5202 9.03367 21.7931 9.61645 22.2745 10.0097C22.7698 10.4327 23.3852 10.6442 24.1208 10.6442C24.9826 10.6442 25.6731 10.274 26.1923 9.53376H26.2468V10.4327H27.446V6.44041C27.4465 5.60344 27.1786 4.94473 26.6424 4.4643ZM23.2415 9.24294C22.9789 9.0593 22.824 8.76383 22.8257 8.44978C22.8257 8.09701 22.9962 7.80316 23.3397 7.56143C23.6797 7.32323 24.1044 7.20413 24.6137 7.20413C25.3129 7.20413 25.8581 7.35521 26.249 7.65737C26.249 8.16802 26.0413 8.61294 25.626 8.99215C25.2519 9.35508 24.7448 9.55935 24.2157 9.56021C23.863 9.56661 23.5188 9.45452 23.2415 9.24294Z" fill="#5F6368"/>
<path fill-rule="evenodd" clip-rule="evenodd" d="M34.3283 3.9552L30.1419 13.2881H28.8477L30.4012 10.0225L27.6484 3.9552H29.0112L31.0008 8.60843H31.0281L32.9632 3.9552L34.3283 3.9552Z" fill="#5F6368"/>
<path fill-rule="evenodd" clip-rule="evenodd" d="M11.3665 5.77265C11.367 5.40201 11.3347 5.03202 11.27 4.66675H5.98242V6.76146H9.01088C8.88565 7.4375 8.48113 8.03457 7.89107 8.41426V9.77398H9.69849C10.7568 8.82747 11.3665 7.42772 11.3665 5.77265Z" fill="#4285F4"/>
<path fill-rule="evenodd" clip-rule="evenodd" d="M5.98414 11.0876C7.4972 11.0876 8.7712 10.6057 9.70021 9.77476L7.89279 8.41505C7.38974 8.74591 6.74184 8.93476 5.98414 8.93476C4.5217 8.93476 3.28041 7.97843 2.83654 6.68973H0.974609V8.09099C1.92633 9.92808 3.86463 11.0875 5.98414 11.0876Z" fill="#34A853"/>
<path fill-rule="evenodd" clip-rule="evenodd" d="M2.83591 6.68976C2.60125 6.01447 2.60125 5.28318 2.83591 4.60789V3.20663H0.973979C0.177944 4.74321 0.177944 6.55445 0.973979 8.09102L2.83591 6.68976Z" fill="#FBBC04"/>
<path fill-rule="evenodd" clip-rule="evenodd" d="M5.98414 2.36283C6.78373 2.35016 7.55634 2.64321 8.13498 3.17866L9.73526 1.62632C8.72051 0.701771 7.3762 0.19418 5.98414 0.209952C3.86463 0.210045 1.92633 1.36952 0.974609 3.20661L2.83654 4.60786C3.28041 3.31916 4.5217 2.36283 5.98414 2.36283Z" fill="#EA4335"/>
</svg>
