<svg width="34" height="27" viewBox="0 0 34 27" fill="none" xmlns="http://www.w3.org/2000/svg">
<path fill-rule="evenodd" clip-rule="evenodd" d="M9.61497 23.7392V25.1229V26.5066H9.00924V26.1706C8.81712 26.4197 8.52559 26.5761 8.12934 26.5761C7.34816 26.5761 6.73576 25.9685 6.73576 25.1229C6.73576 24.278 7.34816 23.6696 8.12934 23.6696C8.52559 23.6696 8.81712 23.826 9.00924 24.0752V23.7392H9.61497ZM8.20372 24.2369C7.67938 24.2369 7.3585 24.6365 7.3585 25.1229C7.3585 25.6093 7.67938 26.0089 8.20372 26.0089C8.70471 26.0089 9.04293 25.6265 9.04293 25.1229C9.04293 24.6193 8.70471 24.2369 8.20372 24.2369ZM30.0827 25.1229C30.0827 24.6365 30.4036 24.2369 30.9279 24.2369C31.4296 24.2369 31.7671 24.6193 31.7671 25.1229C31.7671 25.6265 31.4296 26.0089 30.9279 26.0089C30.4036 26.0089 30.0827 25.6093 30.0827 25.1229ZM32.3398 22.6279V25.1229V26.5066H31.7334V26.1706C31.5413 26.4197 31.2498 26.5761 30.8535 26.5761C30.0723 26.5761 29.4599 25.9685 29.4599 25.1229C29.4599 24.278 30.0723 23.6696 30.8535 23.6696C31.2498 23.6696 31.5413 23.826 31.7334 24.0752V22.6279H32.3398ZM17.1327 24.2084C17.5229 24.2084 17.7737 24.4516 17.8378 24.8797L16.3922 24.8797C16.4569 24.4801 16.701 24.2084 17.1327 24.2084ZM15.7577 25.1229C15.7577 24.2601 16.3287 23.6696 17.1452 23.6696C17.9258 23.6696 18.4621 24.2601 18.4681 25.1229C18.4681 25.2037 18.4621 25.2793 18.4561 25.3542L16.3874 25.3542C16.4748 25.8525 16.8304 26.0321 17.2206 26.0321C17.5001 26.0321 17.7977 25.9274 18.0312 25.7425L18.328 26.1885C17.9898 26.4721 17.6055 26.5761 17.1859 26.5761C16.3521 26.5761 15.7577 26.0029 15.7577 25.1229ZM24.4604 25.1229C24.4604 24.6365 24.7813 24.2369 25.3056 24.2369C25.8066 24.2369 26.1448 24.6193 26.1448 25.1229C26.1448 25.6265 25.8066 26.0089 25.3056 26.0089C24.7813 26.0089 24.4604 25.6093 24.4604 25.1229ZM26.7169 23.7392V25.1229V26.5066H26.1111V26.1706C25.9183 26.4197 25.6275 26.5761 25.2312 26.5761C24.45 26.5761 23.8376 25.9685 23.8376 25.1229C23.8376 24.278 24.45 23.6696 25.2312 23.6696C25.6275 23.6696 25.9183 23.826 26.1111 24.0752V23.7392H26.7169ZM21.0392 25.1229C21.0392 25.9625 21.6276 26.5761 22.5255 26.5761C22.9451 26.5761 23.2247 26.4834 23.5275 26.2461L23.2367 25.7597C23.0092 25.9221 22.7704 26.0089 22.5075 26.0089C22.0239 26.0029 21.6683 25.6557 21.6683 25.1229C21.6683 24.5901 22.0239 24.2428 22.5075 24.2369C22.7704 24.2369 23.0092 24.3237 23.2367 24.486L23.5275 23.9996C23.2247 23.7624 22.9451 23.6696 22.5255 23.6696C21.6276 23.6696 21.0392 24.2833 21.0392 25.1229ZM28.1138 24.0752C28.2712 23.832 28.4987 23.6696 28.8483 23.6696C28.971 23.6696 29.1458 23.6928 29.2799 23.7452L29.0931 24.3124C28.965 24.2601 28.8369 24.2429 28.7142 24.2429C28.3179 24.2429 28.1198 24.4973 28.1198 24.9553V26.5066H27.5134V23.7392H28.1138V24.0752ZM12.6108 23.9592C12.3193 23.7684 11.9177 23.6696 11.4747 23.6696C10.769 23.6696 10.3147 24.0056 10.3147 24.5556C10.3147 25.0069 10.6529 25.2852 11.276 25.372L11.5621 25.4125C11.8944 25.4589 12.0511 25.5457 12.0511 25.7021C12.0511 25.9161 11.8296 26.038 11.416 26.038C10.9964 26.038 10.6936 25.9048 10.4894 25.7485L10.2039 26.217C10.5361 26.4602 10.9557 26.5761 11.41 26.5761C12.2146 26.5761 12.6809 26.1997 12.6809 25.6729C12.6809 25.1865 12.314 24.932 11.7076 24.8452L11.422 24.8041C11.1599 24.7697 10.9497 24.718 10.9497 24.5324C10.9497 24.3296 11.1479 24.2084 11.4801 24.2084C11.8356 24.2084 12.1799 24.3416 12.3486 24.4456L12.6108 23.9592ZM19.6911 24.0752C19.8479 23.832 20.0754 23.6696 20.4249 23.6696C20.5477 23.6696 20.7224 23.6928 20.8565 23.7452L20.6697 24.3124C20.5417 24.2601 20.4136 24.2429 20.2908 24.2429C19.8946 24.2429 19.6964 24.4973 19.6964 24.9553V26.5066H19.0907V23.7392H19.6911V24.0752ZM15.2585 23.7392H14.2679V22.8996H13.6555V23.7392H13.0905V24.2892H13.6555V25.5516C13.6555 26.1938 13.9063 26.5761 14.6228 26.5761C14.8856 26.5761 15.1885 26.4953 15.3806 26.3621L15.2058 25.8465C15.0251 25.9506 14.8269 26.0029 14.6695 26.0029C14.3666 26.0029 14.2679 25.8174 14.2679 25.5397V24.2892H15.2585V23.7392ZM6.19946 24.7697V26.5066H5.58706V24.9665C5.58706 24.4973 5.38893 24.2369 4.97533 24.2369C4.57307 24.2369 4.29355 24.492 4.29355 24.9725V26.5066H3.68115V24.9665C3.68115 24.4973 3.47769 24.2369 3.07542 24.2369C2.66116 24.2369 2.39298 24.492 2.39298 24.9725V26.5066H1.78125L1.78125 23.7392H2.38764V24.0805C2.61513 23.7565 2.90598 23.6696 3.20351 23.6696C3.62912 23.6696 3.93198 23.8552 4.12411 24.162C4.38094 23.7737 4.74785 23.6637 5.10341 23.6696C5.77985 23.6756 6.19946 24.1156 6.19946 24.7697Z" fill="#231F20"/>
<path d="M21.5888 19.0369H12.4082V2.64743H21.5888V19.0369Z" fill="#FF5F00"/>
<path d="M12.9919 10.8425C12.9919 7.51783 14.5589 4.5563 16.9991 2.64777C15.2147 1.25216 12.9625 0.419168 10.5149 0.419168C4.72049 0.419168 0.0234375 5.08578 0.0234375 10.8425C0.0234375 16.5992 4.72049 21.2658 10.5149 21.2658C12.9625 21.2658 15.2147 20.4328 16.9991 19.0372C14.5589 17.1287 12.9919 14.1672 12.9919 10.8425Z" fill="#EB001B"/>
<path d="M33.9764 10.8425C33.9764 16.5992 29.2793 21.2658 23.4849 21.2658C21.0373 21.2658 18.7852 20.4328 17 19.0372C19.4409 17.1287 21.0079 14.1672 21.0079 10.8425C21.0079 7.51783 19.4409 4.5563 17 2.64777C18.7852 1.25216 21.0373 0.419168 23.4849 0.419168C29.2793 0.419168 33.9764 5.08578 33.9764 10.8425Z" fill="#F79E1B"/>
</svg>
