<svg width="35" height="24" viewBox="0 0 35 24" fill="none" xmlns="http://www.w3.org/2000/svg">
<path fill-rule="evenodd" clip-rule="evenodd" d="M14.7512 12.1873L14.9647 10.9419L14.4892 10.9317H12.2188L13.7966 1.74185C13.8016 1.71403 13.8174 1.68819 13.8406 1.66982C13.864 1.65144 13.8937 1.64136 13.9248 1.64136H17.7531C19.0242 1.64136 19.9012 1.88425 20.3591 2.36373C20.5738 2.58867 20.7105 2.82379 20.7767 3.08243C20.8461 3.35389 20.8473 3.67816 20.7796 4.07374L20.7747 4.10251V4.35601L20.9894 4.46774C21.1701 4.55585 21.3138 4.65666 21.424 4.77207C21.6076 4.96445 21.7264 5.20892 21.7766 5.49864C21.8285 5.79667 21.8114 6.1514 21.7264 6.55296C21.6284 7.0148 21.4701 7.4171 21.2562 7.74621C21.0596 8.04948 20.809 8.30109 20.5114 8.49599C20.2273 8.68123 19.8898 8.82184 19.5082 8.91184C19.1384 9.00026 18.7167 9.04489 18.2543 9.04489H17.9564C17.7434 9.04489 17.5365 9.11535 17.374 9.24168C17.2111 9.37063 17.1034 9.54684 17.0704 9.73954L17.0479 9.85169L16.6707 12.0467L16.6537 12.1273C16.6491 12.1528 16.6413 12.1655 16.6299 12.1741C16.6197 12.182 16.6051 12.1873 16.5908 12.1873H14.7512Z" fill="#28356A"/>
<path fill-rule="evenodd" clip-rule="evenodd" d="M21.7671 3.55875C21.7562 3.62736 21.7434 3.69747 21.7293 3.76951C21.2399 6.20402 19.5657 7.04505 17.4276 7.04505H16.3389C16.0774 7.04505 15.857 7.22897 15.8163 7.47893L15.1011 11.8752C15.0746 12.0394 15.2051 12.1872 15.376 12.1872H17.3069C17.5355 12.1872 17.7298 12.0263 17.7658 11.8078L17.7847 11.7127L18.1483 9.47719L18.1717 9.35457C18.2072 9.13532 18.4019 8.97427 18.6305 8.97427H18.9193C20.79 8.97427 22.2546 8.23836 22.6826 6.10857C22.8614 5.2189 22.7688 4.47601 22.2957 3.95355C22.1525 3.79603 21.9749 3.66526 21.7671 3.55875Z" fill="#298FC2"/>
<path fill-rule="evenodd" clip-rule="evenodd" d="M20.3552 2.79028C20.2829 2.76663 20.2084 2.74527 20.1319 2.72594C20.055 2.7071 19.9763 2.69042 19.8952 2.67577C19.6114 2.6244 19.3005 2.60004 18.9675 2.60004H16.1561C16.0868 2.60004 16.0211 2.61756 15.9623 2.64925C15.8325 2.7191 15.7363 2.85665 15.7129 3.02505L15.1148 7.26988L15.0977 7.39363C15.137 7.11421 15.35 6.9086 15.6028 6.9086H16.6552C18.722 6.9086 20.3403 5.96796 20.8133 3.24698C20.8275 3.16644 20.8394 3.08806 20.85 3.01136C20.7303 2.94019 20.6007 2.87934 20.4611 2.82749C20.4267 2.81464 20.3911 2.80228 20.3552 2.79028Z" fill="#22284F"/>
<path fill-rule="evenodd" clip-rule="evenodd" d="M15.7968 3.43374C15.8195 3.29331 15.9132 3.17861 16.0395 3.12075C16.0971 3.09423 16.1607 3.07962 16.2282 3.07962H18.9644C19.2885 3.07962 19.5911 3.10004 19.8673 3.14287C19.9462 3.15499 20.0228 3.169 20.0976 3.18471C20.1721 3.20073 20.2446 3.21864 20.315 3.23826C20.3499 3.24827 20.3845 3.25868 20.4184 3.26899C20.5542 3.31223 20.6805 3.36337 20.7969 3.42233C20.9339 2.58367 20.7958 2.01265 20.3235 1.49558C19.8028 0.926268 18.8631 0.682648 17.6606 0.682648H14.1696C13.924 0.682648 13.7145 0.854103 13.6765 1.08751L12.2225 9.93682C12.1938 10.1119 12.3344 10.2698 12.5183 10.2698H14.6735L15.7968 3.43374Z" fill="#28356A"/>
<path fill-rule="evenodd" clip-rule="evenodd" d="M4.39744 14.3937H1.75353C1.57258 14.3937 1.41871 14.5257 1.39045 14.7051L0.321125 21.5121C0.299901 21.6465 0.403531 21.7675 0.539213 21.7675H1.80139C1.98234 21.7675 2.13621 21.6356 2.16447 21.4559L2.45284 19.6199C2.48067 19.4402 2.63487 19.3082 2.81549 19.3082H3.65243C5.39399 19.3082 6.3991 18.462 6.66169 16.7852C6.77994 16.0515 6.66667 15.4752 6.32449 15.0715C5.94874 14.6282 5.28224 14.3937 4.39744 14.3937ZM4.70223 16.8799C4.55767 17.8324 3.83281 17.8324 3.13198 17.8324H2.73295L3.01287 16.0535C3.02955 15.9459 3.12224 15.8668 3.23052 15.8668H3.41342C3.89085 15.8668 4.34121 15.8668 4.57392 16.14C4.71274 16.303 4.75519 16.5452 4.70223 16.8799Z" fill="#28356A"/>
<path fill-rule="evenodd" clip-rule="evenodd" d="M12.3652 16.7978H11.0991C10.9913 16.7978 10.8981 16.877 10.8815 16.9845L10.8254 17.34L10.7369 17.2112C10.4629 16.8117 9.85159 16.6782 9.24161 16.6782C7.84245 16.6782 6.64752 17.7422 6.41481 19.2347C6.29386 19.9791 6.46581 20.691 6.8865 21.1875C7.27233 21.6439 7.82437 21.8342 8.48112 21.8342C9.60848 21.8342 10.2335 21.1064 10.2335 21.1064L10.1771 21.4596C10.1559 21.5946 10.2595 21.7158 10.3944 21.7158H11.5348C11.7162 21.7158 11.8693 21.5838 11.8979 21.404L12.5821 17.0532C12.6038 16.9193 12.5005 16.7978 12.3652 16.7978ZM10.6019 19.272C10.4798 19.9981 9.90575 20.4856 9.17352 20.4856C8.80589 20.4856 8.51211 20.3672 8.32337 20.1429C8.13625 19.9202 8.06522 19.603 8.12467 19.2498C8.2388 18.5298 8.82246 18.0263 9.54353 18.0263C9.90304 18.0263 10.1953 18.1463 10.3878 18.3725C10.5807 18.6011 10.6573 18.9202 10.6019 19.272Z" fill="#28356A"/>
<path fill-rule="evenodd" clip-rule="evenodd" d="M18.7227 16.9809H17.5267C17.4126 16.9809 17.3054 17.0421 17.2407 17.1446L15.5913 19.768L14.8921 17.2469C14.8481 17.0892 14.7133 16.9809 14.5607 16.9809H13.3855C13.2426 16.9809 13.1435 17.1316 13.1889 17.2768L14.5062 21.451L13.2677 23.3388C13.1703 23.4875 13.2685 23.6919 13.4367 23.6919H14.6312C14.7446 23.6919 14.8507 23.6322 14.915 23.5319L18.8927 17.3321C18.9879 17.1838 18.8901 16.9809 18.7227 16.9809Z" fill="#28356A"/>
<path fill-rule="evenodd" clip-rule="evenodd" d="M23.2547 14.3937H20.6105C20.43 14.3937 20.2761 14.5257 20.2479 14.7051L19.1785 21.5121C19.1573 21.6465 19.261 21.7675 19.3959 21.7675H20.7528C20.8787 21.7675 20.9866 21.6752 21.0063 21.5494L21.3098 19.6199C21.3377 19.4402 21.492 19.3082 21.6725 19.3082H22.5091C24.251 19.3082 25.2558 18.462 25.5187 16.7852C25.6374 16.0515 25.5233 15.4752 25.1812 15.0715C24.8057 14.6282 24.1397 14.3937 23.2547 14.3937ZM23.5612 16.8799C23.4169 17.8325 22.6921 17.8325 21.9908 17.8325H21.5923L21.8726 16.0535C21.8891 15.946 21.9812 15.8668 22.0898 15.8668H22.2727C22.7497 15.8668 23.2005 15.8668 23.4332 16.1401C23.572 16.303 23.6141 16.5453 23.5612 16.8799Z" fill="#298FC2"/>
<path fill-rule="evenodd" clip-rule="evenodd" d="M31.2229 16.7978H29.9576C29.849 16.7978 29.7566 16.877 29.7404 16.9845L29.6843 17.34L29.5954 17.2112C29.3213 16.8117 28.7104 16.6782 28.1004 16.6782C26.7013 16.6782 25.5068 17.7422 25.2741 19.2347C25.1535 19.9791 25.3247 20.691 25.7453 21.1875C26.1319 21.6439 26.6831 21.8342 27.34 21.8342C28.4672 21.8342 29.0924 21.1064 29.0924 21.1064L29.036 21.4596C29.0147 21.5946 29.1183 21.7158 29.254 21.7158H30.3941C30.5746 21.7158 30.7285 21.5838 30.7567 21.404L31.4413 17.0532C31.4622 16.9193 31.3586 16.7978 31.2229 16.7978ZM29.4573 19.2719C29.3359 19.9981 28.761 20.4856 28.0288 20.4856C27.6619 20.4856 27.3674 20.3672 27.1787 20.1429C26.9917 19.9202 26.9213 19.603 26.98 19.2498C27.0949 18.5298 27.6778 18.0263 28.3988 18.0263C28.7583 18.0263 29.0506 18.1463 29.2431 18.3725C29.4367 18.6011 29.5133 18.9202 29.4573 19.2719Z" fill="#298FC2"/>
<path fill-rule="evenodd" clip-rule="evenodd" d="M32.5337 15.2337L31.3974 21.542C31.3752 21.6643 31.4836 21.7744 31.6249 21.7744H32.7672C32.9571 21.7744 33.1182 21.6544 33.1473 21.4908L34.2678 15.2962C34.2901 15.1739 34.1816 15.0634 34.0403 15.0634H32.7612C32.6483 15.0637 32.5511 15.1358 32.5337 15.2337Z" fill="#298FC2"/>
</svg>
