<svg width="35" height="11" viewBox="0 0 35 11" fill="none" xmlns="http://www.w3.org/2000/svg">
<path d="M15.3832 10.5062H12.6328L14.3531 0.522308H17.1033L15.3832 10.5062Z" fill="#15195A"/>
<path d="M25.3519 0.766364C24.8094 0.564353 23.949 0.341309 22.885 0.341309C20.169 0.341309 18.2563 1.70075 18.2446 3.64435C18.222 5.07832 19.614 5.87479 20.6551 6.35293C21.7191 6.84151 22.0808 7.1604 22.0808 7.5959C22.07 8.26476 21.221 8.57307 20.4292 8.57307C19.3311 8.57307 18.7427 8.41411 17.8486 8.04199L17.4864 7.88247L17.1016 10.1237C17.7466 10.3995 18.9351 10.6443 20.169 10.655C23.0548 10.655 24.9336 9.3166 24.9559 7.24539C24.9669 6.10885 24.2319 5.23798 22.6472 4.52636C21.6853 4.06954 21.0962 3.76151 21.0962 3.29411C21.1075 2.86919 21.5944 2.43398 22.6803 2.43398C23.5745 2.41266 24.2314 2.61439 24.7291 2.81626L24.9778 2.92227L25.3519 0.766364Z" fill="#15195A"/>
<path fill-rule="evenodd" clip-rule="evenodd" d="M30.2728 0.522308H32.4002L34.6191 10.5061H32.0725C32.0725 10.5061 31.8233 9.35897 31.7443 9.00845H28.2131C28.111 9.27384 27.6359 10.5061 27.6359 10.5061H24.75L28.8353 1.35068C29.1184 0.70272 29.6168 0.522308 30.2728 0.522308ZM30.1035 4.17587C30.1035 4.17587 29.2319 6.39573 29.0054 6.96929H31.2915C31.1784 6.47012 30.6575 4.0803 30.6575 4.0803L30.4653 3.22003C30.3844 3.44155 30.2673 3.7461 30.1884 3.95152C30.1349 4.09078 30.0988 4.18448 30.1035 4.17587Z" fill="#15195A"/>
<path fill-rule="evenodd" clip-rule="evenodd" d="M0.715192 0.522308H5.14025C5.74004 0.543342 6.22673 0.723895 6.38511 1.36155L7.34706 5.95005C7.34435 5.94311 7.34162 5.93618 7.33888 5.92925C7.34104 5.93604 7.34319 5.94284 7.34531 5.94963L7.63964 7.33039L10.3331 0.522308H13.2414L8.91834 10.4956H6.00991L3.55819 1.81936C2.71289 1.35575 1.74829 0.982869 0.669922 0.724037L0.715192 0.522308Z" fill="#15195A"/>
</svg>
