<svg width="23" height="23" viewBox="0 0 23 23" fill="none" xmlns="http://www.w3.org/2000/svg">
<g clip-path="url(#clip0_417_1944)">
<path d="M11.5 23C17.8513 23 23 17.8513 23 11.5C23 5.14873 17.8513 0 11.5 0C5.14873 0 0 5.14873 0 11.5C0 17.8513 5.14873 23 11.5 23Z" fill="#F0F0F0"/>
<path d="M11.5001 -0.000694275C6.94083 -0.000694275 3.00136 2.65262 1.14124 6.49932H21.859C19.9989 2.65262 16.0594 -0.000694275 11.5001 -0.000694275Z" fill="#D80027"/>
<path d="M11.5003 22.9994C16.0596 22.9994 19.9991 20.3461 21.8592 16.4994H1.14142C3.00154 20.3461 6.94101 22.9994 11.5003 22.9994Z" fill="#D80027"/>
<path d="M14.5001 13.4993L11.5001 7.99927L8.50006 13.4993H10.7501V14.9993H12.2501V13.4993H14.5001Z" fill="#6DA544"/>
</g>
<defs>
<clipPath id="clip0_417_1944">
<rect width="23" height="23" fill="white"/>
</clipPath>
</defs>
</svg>
