<svg width="23" height="23" viewBox="0 0 23 23" fill="none" xmlns="http://www.w3.org/2000/svg">
<g clip-path="url(#clip0_417_1909)">
<path d="M11.5 23C17.8513 23 23 17.8513 23 11.5C23 5.14873 17.8513 0 11.5 0C5.14873 0 0 5.14873 0 11.5C0 17.8513 5.14873 23 11.5 23Z" fill="#F0F0F0"/>
<path d="M2.37734 4.49745C1.47401 5.67274 0.792855 7.02736 0.39624 8.49896H6.37884L2.37734 4.49745Z" fill="#0052B4"/>
<path d="M22.6042 8.49911C22.2076 7.02756 21.5264 5.67294 20.6231 4.49765L16.6217 8.49911H22.6042Z" fill="#0052B4"/>
<path d="M0.39624 14.4998C0.792901 15.9714 1.47405 17.326 2.37734 18.5012L6.37871 14.4998H0.39624Z" fill="#0052B4"/>
<path d="M18.5012 2.37646C17.3259 1.47312 15.9713 0.79197 14.4997 0.395309V6.37787L18.5012 2.37646Z" fill="#0052B4"/>
<path d="M4.49841 20.6211C5.67371 21.5245 7.02833 22.2056 8.49988 22.6023V16.6198L4.49841 20.6211Z" fill="#0052B4"/>
<path d="M8.49983 0.395309C7.02828 0.791969 5.67366 1.47312 4.49841 2.37641L8.49983 6.37782V0.395309Z" fill="#0052B4"/>
<path d="M14.4997 22.6023C15.9712 22.2056 17.3259 21.5245 18.5011 20.6212L14.4997 16.6198V22.6023Z" fill="#0052B4"/>
<path d="M16.6217 14.4998L20.6231 18.5013C21.5264 17.326 22.2076 15.9713 22.6042 14.4998H16.6217Z" fill="#0052B4"/>
<path d="M22.9027 10H13.0001H13V0.0973457C12.509 0.0334219 12.0084 0 11.5 0C10.9915 0 10.491 0.0334219 10 0.0973457V9.99992V9.99997H0.0973457C0.0334219 10.491 0 10.9916 0 11.5C0 12.0085 0.0334219 12.509 0.0973457 13H9.99992H9.99997V22.9027C10.491 22.9666 10.9915 23 11.5 23C12.0084 23 12.509 22.9666 13 22.9027V13.0001V13H22.9027C22.9666 12.509 23 12.0085 23 11.5C23 10.9916 22.9666 10.491 22.9027 10Z" fill="#D80027"/>
<path d="M14.5 14.5008L19.6317 19.6325C19.8677 19.3965 20.0929 19.1499 20.3077 18.8942L15.9142 14.5007H14.5V14.5008Z" fill="#D80027"/>
<path d="M8.49996 14.5007H8.49987L3.36823 19.6324C3.60415 19.8684 3.85082 20.0936 4.10652 20.3084L8.49996 15.9148V14.5007Z" fill="#D80027"/>
<path d="M8.49982 8.49958V8.49949L3.36812 3.36775C3.1321 3.60368 2.90696 3.85035 2.69214 4.10604L7.08563 8.49954H8.49982V8.49958Z" fill="#D80027"/>
<path d="M14.5 8.5006L19.6317 3.36881C19.3958 3.13279 19.1491 2.90764 18.8935 2.69287L14.5 7.08637V8.5006Z" fill="#D80027"/>
</g>
<defs>
<clipPath id="clip0_417_1909">
<rect width="23" height="23" fill="white"/>
</clipPath>
</defs>
</svg>
