<svg width="229" height="116" viewBox="0 0 229 116" fill="none" xmlns="http://www.w3.org/2000/svg">
<path d="M16.7175 82C16.2344 78.2313 16.1377 74.1727 16.1377 64.6061V35.2296L38.3633 82H47.93C47.3502 77.4582 47.1569 73.5929 47.1569 67.3118V34.5532C47.1569 30.3013 47.5435 22.2808 47.93 17.5458H37.2037C37.5903 21.2178 37.7835 25.2764 37.7835 34.5532V55.3293L19.8098 17.5458H6.18451C6.57105 22.474 6.76431 28.0788 6.76431 39.9646V64.6061C6.76431 73.1098 6.57105 77.6515 6.18451 82H16.7175ZM90.4229 82C88.9734 77.8448 88.4902 74.0761 88.4902 65.669V56.3922C88.4902 52.237 88.3936 49.8212 88.2003 48.4683C87.7171 45.2794 86.2676 42.4771 84.1417 40.3512C80.373 36.8724 73.802 34.6498 66.8444 34.6498C64.5252 34.6498 62.8824 34.8431 60.37 35.3262V45.8592C64.3319 43.1535 66.8444 42.1872 69.84 42.1872C74.9616 42.1872 78.2471 45.3761 78.537 50.4976C73.802 51.464 70.6131 52.5269 67.7141 53.8798C59.8868 57.5518 55.635 63.1566 55.635 69.9209C55.635 77.265 60.9498 82.9663 68.004 82.9663C71.8693 82.9663 74.7683 81.6135 78.537 78.038C79.2134 80.2606 79.6 80.937 80.5663 82H90.4229ZM78.537 72.2401C76.6043 73.9795 74.2851 75.0424 72.0626 75.0424C68.6804 75.0424 66.2646 72.3367 66.2646 68.4714C66.2646 62.8667 70.9996 58.9047 78.537 58.1316V72.2401ZM111.191 82C110.805 79.4875 110.708 74.9458 110.708 64.4128V43.54H119.309V36.2926H110.708V33.1037C110.708 26.9192 112.448 24.2134 116.41 24.2134C117.859 24.2134 118.632 24.4067 119.888 25.1798V17.5458C118.632 17.1592 118.052 17.0626 116.893 17.0626C110.032 17.0626 103.751 21.9909 101.721 29.0451C100.948 31.4609 100.755 33.3936 100.755 36.2926H94.2806V43.54H100.755V64.4128C100.755 71.3704 100.465 76.5885 99.6921 82H111.191ZM122.549 80.5505C126.221 82.2899 130.666 83.2562 134.821 83.2562C144.871 83.2562 152.698 76.3953 152.698 67.505C152.698 63.833 151.345 60.5475 148.833 58.1316C147.094 56.4889 145.064 55.2326 139.943 53.0101C134.241 50.4976 132.695 49.1448 132.695 46.7289C132.695 44.1198 135.304 42.3805 139.46 42.3805C142.648 42.3805 145.451 43.0569 149.026 44.6996L148.35 34.8431C146.514 34.6498 145.547 34.5532 144.388 34.5532C132.019 34.5532 123.129 40.931 123.129 49.7246C123.129 52.8168 124.095 55.4259 126.221 57.5518C127.67 59.098 129.313 60.1609 134.531 62.77C141.875 66.3454 143.132 67.6017 143.132 70.6939C143.132 73.8828 140.426 76.202 136.657 76.202C132.019 76.202 126.801 73.0131 122.549 67.505V80.5505Z" fill="url(#paint0_linear_237_1622)"/>
<path d="M194.282 84.7918C213.456 84.7918 229 69.248 229 50.0737C229 30.8994 213.456 15.3555 194.282 15.3555C175.108 15.3555 159.564 30.8994 159.564 50.0737C159.564 69.248 175.108 84.7918 194.282 84.7918Z" fill="#8BCADD"/>
<path d="M196.417 31.9993H192.144V84.7891H196.417V31.9993Z" fill="white"/>
<path d="M168.644 31.9993C169.737 32.3286 171.316 32.9953 172.48 34.4583C173.743 36.0455 173.835 37.7137 174.043 40.0647C174.167 41.4522 174.731 47.6038 175.789 52.5165C176.453 55.6045 176.785 57.1485 177.857 59.0866C179.889 62.7657 182.813 64.7523 184.243 65.7025C187.229 67.6838 190.133 68.5421 192.147 68.9416V66.461C191.064 66.2801 189.661 65.886 188.287 64.9683C183.868 62.0126 183.055 55.8177 182.543 51.92C182.305 50.1061 182.486 50.3193 182.038 45.6252C181.579 40.8124 181.287 39.506 180.901 38.2967C180.124 35.8485 179.511 33.9212 177.835 32.5985C174.474 29.9478 169.394 31.7294 168.644 32.002V31.9993Z" fill="white"/>
<path d="M219.92 31.9993C218.827 32.3286 217.248 32.9953 216.084 34.4583C214.821 36.0455 214.729 37.7137 214.521 40.0647C214.397 41.4522 213.833 47.6038 212.775 52.5165C212.111 55.6045 211.779 57.1485 210.707 59.0866C208.675 62.7657 205.751 64.7523 204.321 65.7025C201.335 67.6838 198.431 68.5421 196.417 68.9416C196.417 68.1157 196.417 67.287 196.417 66.461C197.5 66.2801 198.903 65.886 200.277 64.9683C204.696 62.0126 205.508 55.8177 206.021 51.92C206.259 50.1061 206.078 50.3193 206.526 45.6252C206.985 40.8124 207.276 39.506 207.662 38.2967C208.44 35.8485 209.053 33.9212 210.729 32.5985C214.089 29.9478 219.169 31.7294 219.92 32.002V31.9993Z" fill="white"/>
<defs>
<linearGradient id="paint0_linear_237_1622" x1="77.5" y1="0" x2="77.5" y2="116" gradientUnits="userSpaceOnUse">
<stop stop-color="#9FE2E2"/>
<stop offset="0.523958" stop-color="#87CCD5"/>
<stop offset="1" stop-color="#63ABC2"/>
</linearGradient>
</defs>
</svg>
