<svg width="214" height="80" viewBox="0 0 214 80" fill="none" xmlns="http://www.w3.org/2000/svg">
<path d="M54.8155 32.1701C53.2109 36.0431 54.3 43.7183 51.6063 48.2101C48.9125 52.7018 41.2115 52.3151 41.2115 52.3151V31.7577C41.2115 29.9597 41.2115 26.5249 41.856 24.83C42.9386 21.9752 49.0414 22.1363 49.0414 22.1363V20.9827H26.9438V22.1363C26.9438 22.1363 33.0466 21.9816 34.1292 24.83C34.7736 26.5249 34.7736 29.9597 34.7736 31.7577V52.3151C34.7736 52.3151 27.0727 52.7018 24.3789 48.2101C21.6852 43.7183 22.7743 36.0431 21.1696 32.1701C19.7003 28.6193 17.8895 25.8289 10.7749 25.8289V27.2982C10.7749 27.2982 12.8307 27.4271 13.5976 28.7095C14.3644 29.9919 14.4933 34.7414 14.4933 37.564C14.4933 40.3866 14.9509 47.7396 19.3717 51.2196C24.5465 55.2988 31.5515 55.4148 34.7672 55.2924C34.7672 62.4585 33.5879 67.2402 31.6739 71.5321C30.9264 73.2141 28.9157 75.9851 27.7687 77.506C27.2273 78.2278 26.9373 79.1042 26.9373 80H49.035C49.035 79.1042 48.7385 78.2278 48.1843 77.5189C46.9986 75.998 44.917 73.2141 44.1695 71.5321C42.262 67.2402 41.2051 62.4585 41.2051 55.2924C44.4273 55.4213 51.4323 55.3053 56.6006 51.2196C61.0214 47.7332 61.479 40.3866 61.479 37.564C61.479 34.7414 61.6079 29.9919 62.3747 28.7095C63.1416 27.4271 65.1974 27.2982 65.1974 27.2982V25.8289C58.0893 25.8289 56.2719 28.6193 54.8026 32.1701H54.8155Z" fill="#485BE8"/>
<path d="M8.33252 17.9604C8.33252 17.9604 11.4 20.5703 12.9596 24.2694C13.3591 22.8065 13.7264 20.2868 12.5278 17.8766C11.1229 15.054 5.23924 12.6309 5.23924 12.6309C5.23924 12.6309 4.91702 18.6886 5.79345 20.6348C7.14032 23.5927 9.07362 24.424 11.4967 25.2038C10.6203 23.9858 8.91896 21.2921 8.32608 17.9604H8.33252Z" fill="#34A853"/>
<path d="M4.44659 27.6205C4.44659 27.6205 7.66232 28.0072 10.356 29.7987C9.97583 28.6387 9.10585 26.7827 7.2241 25.7001C5.02658 24.4306 0 25.4165 0 25.4165C0 25.4165 2.47463 29.6311 3.9246 30.5398C6.14145 31.9253 7.81054 31.6224 9.7825 31.0747C8.65474 30.6493 6.31545 29.5989 4.44015 27.6205H4.44659Z" fill="#34A853"/>
<path d="M5.81924 37.8025C5.81924 37.8025 6.52811 34.7414 8.5323 32.3377C7.37877 32.5826 5.49702 33.2334 4.25971 34.9283C2.80973 36.9132 3.23506 41.856 3.23506 41.856C3.23506 41.856 7.55276 39.9098 8.57741 38.608C10.1434 36.6167 10.0274 34.9799 9.69873 33.0208C9.17029 34.0648 7.91365 36.2107 5.81279 37.8089L5.81924 37.8025Z" fill="#34A853"/>
<path d="M18.753 19.8486C18.753 19.8486 21.2276 23.0256 22.0074 26.9631C22.697 25.6098 23.5669 23.219 22.8774 20.6155C22.0719 17.5673 16.8004 14.0036 16.8004 14.0036C16.8004 14.0036 15.2537 19.8744 15.7242 21.9494C16.4395 25.1201 18.173 26.3251 20.3899 27.5818C19.7777 26.2156 18.6564 23.2319 18.753 19.8486Z" fill="#34A853"/>
<path d="M28.1166 28.5741C28.1166 28.5741 26.8664 32.4021 24.0309 35.2505C25.5325 35.0636 28.0071 34.4514 29.7857 32.4278C31.8672 30.0563 31.8801 23.6958 31.8801 23.6958C31.8801 23.6958 26.1447 25.6935 24.6883 27.2402C22.4585 29.6052 22.4263 31.7125 22.6196 34.2516C23.4123 32.9756 25.2618 30.385 28.1231 28.5741H28.1166Z" fill="#34A853"/>
<path d="M29.1864 39.4974C29.1864 39.4974 27.5624 42.0042 24.9911 43.5122C26.106 43.6669 27.9942 43.6926 29.6504 42.5778C31.5901 41.2696 32.8017 36.707 32.8017 36.707C32.8017 36.707 28.31 37.055 26.9696 37.8927C24.9203 39.1687 24.5014 40.6767 24.1598 42.5327C24.9718 41.7658 26.7827 40.2578 29.18 39.4974H29.1864Z" fill="#34A853"/>
<path d="M24.5078 11.0521C24.5078 11.0521 27.5753 13.662 29.1349 17.3611C29.5344 15.8982 29.9017 13.3785 28.7031 10.9683C27.2982 8.14567 21.4145 5.7226 21.4145 5.7226C21.4145 5.7226 21.0923 11.7803 21.9687 13.7265C23.3156 16.6844 25.2489 17.5157 27.6784 18.2955C26.802 17.0775 25.1007 14.3838 24.5078 11.0521Z" fill="#34A853"/>
<path d="M10.1563 46.6119C10.1563 46.6119 11.4323 44.2211 13.6491 42.6616C12.6309 42.61 10.9167 42.726 9.49896 43.8602C7.84276 45.1877 7.08878 49.4088 7.08878 49.4088C7.08878 49.4088 11.1294 48.7579 12.2765 47.9008C14.0358 46.5926 14.3064 45.1942 14.474 43.4864C13.7973 44.2404 12.27 45.742 10.1563 46.6119Z" fill="#34A853"/>
<path d="M34.1356 8.56449C34.1356 8.56449 34.5674 12.3215 33.2657 15.8595C34.4772 15.1119 36.3461 13.6233 37.0678 11.2002C37.912 8.36471 35.431 2.92569 35.431 2.92569C35.431 2.92569 31.3195 6.87607 30.6815 8.7707C29.7084 11.6642 30.501 13.4751 31.661 15.563C31.835 14.1646 32.3957 11.226 34.1292 8.56449H34.1356Z" fill="#34A853"/>
<path d="M27.382 3.62172C27.382 3.62172 28.7482 5.64524 29.0575 8.06831C29.528 7.27566 30.1595 5.86435 29.8502 4.25971C29.4893 2.37796 26.4411 0 26.4411 0C26.4411 0 25.2618 3.49283 25.4616 4.76881C25.7645 6.72144 26.7633 7.52054 28.0522 8.37119C27.7364 7.5141 27.1822 5.66457 27.382 3.61527V3.62172Z" fill="#34A853"/>
<path d="M67.6526 17.9604C67.6526 17.9604 64.5851 20.5703 63.0256 24.2694C62.6261 22.8065 62.2587 20.2868 63.4574 17.8766C64.8622 15.054 70.7459 12.6309 70.7459 12.6309C70.7459 12.6309 71.0681 18.6886 70.1917 20.6348C68.8449 23.5927 66.9116 24.424 64.482 25.2038C65.3585 23.9858 67.0598 21.2921 67.6526 17.9604Z" fill="#34A853"/>
<path d="M71.5386 27.6205C71.5386 27.6205 68.3229 28.0072 65.6291 29.7987C66.0094 28.6387 66.8793 26.7827 68.7611 25.7001C70.9586 24.4306 75.9852 25.4165 75.9852 25.4165C75.9852 25.4165 73.5106 29.6311 72.0606 30.5398C69.8437 31.9253 68.1746 31.6224 66.2027 31.0747C67.3304 30.6493 69.6697 29.5989 71.545 27.6205H71.5386Z" fill="#34A853"/>
<path d="M70.1724 37.8025C70.1724 37.8025 69.4635 34.7414 67.4593 32.3377C68.6129 32.5826 70.4946 33.2334 71.7319 34.9283C73.1819 36.9132 72.7566 41.856 72.7566 41.856C72.7566 41.856 68.4389 39.9098 67.4142 38.608C65.8482 36.6167 65.9642 34.9799 66.2929 33.0208C66.8213 34.0648 68.078 36.2107 70.1788 37.8089L70.1724 37.8025Z" fill="#34A853"/>
<path d="M57.2322 19.8486C57.2322 19.8486 54.7575 23.0256 53.9778 26.9631C53.2882 25.6098 52.4182 23.219 53.1078 20.6155C53.9133 17.5673 59.1848 14.0036 59.1848 14.0036C59.1848 14.0036 60.7314 19.8744 60.261 21.9494C59.5457 25.1201 57.8121 26.3251 55.5953 27.5818C56.2075 26.2156 57.3288 23.2319 57.2322 19.8486Z" fill="#34A853"/>
<path d="M47.8685 28.5741C47.8685 28.5741 49.1187 32.4021 51.9542 35.2505C50.4527 35.0636 47.9781 34.4514 46.1995 32.4278C44.1179 30.0563 44.105 23.6958 44.105 23.6958C44.105 23.6958 49.8405 25.6935 51.2969 27.2402C53.5267 29.6052 53.5589 31.7125 53.3656 34.2516C52.5729 32.9756 50.7234 30.385 47.8621 28.5741H47.8685Z" fill="#34A853"/>
<path d="M46.8052 39.4974C46.8052 39.4974 48.4292 42.0042 51.0005 43.5122C49.8856 43.6669 47.9974 43.6926 46.3412 42.5778C44.4015 41.2696 43.19 36.707 43.19 36.707C43.19 36.707 47.6817 37.055 49.0221 37.8927C51.0714 39.1687 51.4903 40.6767 51.8318 42.5327C51.0198 41.7658 49.209 40.2578 46.8117 39.4974H46.8052Z" fill="#34A853"/>
<path d="M51.4774 11.0521C51.4774 11.0521 48.4099 13.662 46.8503 17.3611C46.4508 15.8982 46.0835 13.3785 47.2821 10.9683C48.687 8.14567 54.5706 5.7226 54.5706 5.7226C54.5706 5.7226 54.8929 11.7803 54.0164 13.7265C52.6696 16.6844 50.7363 17.5157 48.3132 18.2955C49.1896 17.0775 50.8909 14.3838 51.4838 11.0521H51.4774Z" fill="#34A853"/>
<path d="M65.8354 46.6119C65.8354 46.6119 64.5594 44.2211 62.3425 42.6616C63.3607 42.61 65.0749 42.726 66.4927 43.8602C68.1489 45.1877 68.9029 49.4088 68.9029 49.4088C68.9029 49.4088 64.8623 48.7579 63.7152 47.9008C61.9559 46.5926 61.6852 45.1942 61.5176 43.4864C62.1943 44.2404 63.7216 45.742 65.8354 46.6119Z" fill="#34A853"/>
<path d="M41.8689 8.64833C41.8689 8.64833 41.4435 12.3667 42.7324 15.8724C41.5337 15.1313 39.6842 13.6556 38.9689 11.2583C38.1311 8.44856 40.5864 3.06754 40.5864 3.06754C40.5864 3.06754 44.6528 6.9728 45.2844 8.85455C46.251 11.7158 45.4583 13.5138 44.3113 15.5824C44.1373 14.1969 43.583 11.2905 41.8689 8.65478V8.64833Z" fill="#34A853"/>
<path d="M48.6096 3.62172C48.6096 3.62172 47.2434 5.64524 46.9341 8.06831C46.4637 7.27566 45.8321 5.86435 46.1415 4.25971C46.5023 2.37796 49.5505 0 49.5505 0C49.5505 0 50.7298 3.49283 50.5301 4.76881C50.2272 6.72144 49.2283 7.52054 47.9394 8.37119C48.2552 7.5141 48.8094 5.66457 48.6096 3.61527V3.62172Z" fill="#34A853"/>
<path d="M38.0087 16.1752C38.0087 16.1752 37.2289 18.4888 37.5705 20.9054C36.9067 20.2674 35.9272 19.0688 35.7983 17.4448C35.6501 15.5373 37.9571 12.4375 37.9571 12.4375C37.9571 12.4375 40.0193 15.4921 40.1676 16.7746C40.3931 18.7336 39.6456 19.7712 38.6274 20.9376C38.7047 20.029 38.7498 18.0957 38.0151 16.1752H38.0087Z" fill="#34A853"/>
<path d="M110.86 15.029C111.454 15.029 111.936 15.2269 112.307 15.6226C112.678 16.0184 112.863 16.513 112.863 17.1067V38.7368C112.863 39.3799 112.641 39.9241 112.196 40.3693C111.775 40.7898 111.243 41 110.6 41C110.279 41 109.945 40.9505 109.599 40.8516C109.277 40.7279 109.03 40.5671 108.856 40.3693L94.2756 21.8557L95.2402 21.262V38.9223C95.2402 39.5159 95.0424 40.0106 94.6466 40.4064C94.2756 40.8021 93.7809 41 93.1626 41C92.5689 41 92.0866 40.8021 91.7156 40.4064C91.3446 40.0106 91.1591 39.5159 91.1591 38.9223V17.2922C91.1591 16.6491 91.3693 16.1173 91.7898 15.6968C92.235 15.2516 92.7792 15.029 93.4223 15.029C93.7686 15.029 94.1272 15.1032 94.4982 15.2516C94.8692 15.3753 95.1413 15.5731 95.3145 15.8452L109.45 33.8765L108.819 34.3217V17.1067C108.819 16.513 109.005 16.0184 109.376 15.6226C109.747 15.2269 110.242 15.029 110.86 15.029ZM134.321 20.7797C134.964 20.7797 135.496 20.99 135.916 21.4104C136.337 21.8309 136.547 22.3751 136.547 23.0429V38.7368C136.547 39.3799 136.337 39.9241 135.916 40.3693C135.496 40.7898 134.964 41 134.321 41C133.678 41 133.146 40.7898 132.726 40.3693C132.305 39.9241 132.095 39.3799 132.095 38.7368V36.9188L132.911 37.2528C132.911 37.5743 132.738 37.97 132.392 38.44C132.046 38.8852 131.576 39.3304 130.982 39.7757C130.388 40.2209 129.683 40.6043 128.867 40.9258C128.076 41.2226 127.21 41.371 126.27 41.371C124.563 41.371 123.018 40.9382 121.632 40.0725C120.247 39.182 119.147 37.97 118.33 36.4365C117.539 34.8783 117.143 33.0974 117.143 31.0939C117.143 29.0657 117.539 27.2848 118.33 25.7513C119.147 24.193 120.235 22.9811 121.595 22.1154C122.956 21.2249 124.464 20.7797 126.122 20.7797C127.185 20.7797 128.162 20.9405 129.053 21.262C129.943 21.5836 130.71 21.9917 131.353 22.4864C132.021 22.9811 132.528 23.4881 132.874 24.0075C133.245 24.5022 133.431 24.9227 133.431 25.269L132.095 25.7513V23.0429C132.095 22.3998 132.305 21.868 132.726 21.4475C133.146 21.0023 133.678 20.7797 134.321 20.7797ZM126.827 37.2899C127.915 37.2899 128.867 37.0178 129.683 36.4736C130.5 35.9295 131.13 35.1874 131.576 34.2475C132.046 33.3076 132.281 32.2564 132.281 31.0939C132.281 29.9067 132.046 28.8431 131.576 27.9032C131.13 26.9633 130.5 26.2213 129.683 25.6771C128.867 25.1329 127.915 24.8609 126.827 24.8609C125.763 24.8609 124.823 25.1329 124.007 25.6771C123.191 26.2213 122.548 26.9633 122.078 27.9032C121.632 28.8431 121.41 29.9067 121.41 31.0939C121.41 32.2564 121.632 33.3076 122.078 34.2475C122.548 35.1874 123.191 35.9295 124.007 36.4736C124.823 37.0178 125.763 37.2899 126.827 37.2899ZM151.571 13.5449C152.115 13.5449 152.647 13.6191 153.166 13.7675C153.685 13.9159 154.118 14.1633 154.465 14.5096C154.811 14.8311 154.984 15.264 154.984 15.8081C154.984 16.4265 154.799 16.9212 154.427 17.2922C154.081 17.6385 153.673 17.8116 153.203 17.8116C152.981 17.8116 152.647 17.7621 152.201 17.6632C151.756 17.5395 151.323 17.4777 150.903 17.4777C150.284 17.4777 149.802 17.6137 149.456 17.8858C149.134 18.1579 148.912 18.4794 148.788 18.8504C148.664 19.1967 148.603 19.5059 148.603 19.778V38.7368C148.603 39.3799 148.392 39.9241 147.972 40.3693C147.551 40.7898 147.02 41 146.376 41C145.733 41 145.202 40.7898 144.781 40.3693C144.361 39.9241 144.15 39.3799 144.15 38.7368V19.8151C144.15 18.0589 144.769 16.5749 146.005 15.3629C147.242 14.1509 149.097 13.5449 151.571 13.5449ZM151.979 21.5217C152.572 21.5217 153.067 21.7196 153.463 22.1154C153.859 22.4864 154.056 22.9687 154.056 23.5623C154.056 24.1559 153.859 24.6506 153.463 25.0464C153.067 25.4174 152.572 25.6029 151.979 25.6029H142.147C141.553 25.6029 141.059 25.4174 140.663 25.0464C140.267 24.6506 140.069 24.1559 140.069 23.5623C140.069 22.9687 140.267 22.4864 140.663 22.1154C141.059 21.7196 141.553 21.5217 142.147 21.5217H151.979ZM156.413 37.9206C156.166 37.5743 156.055 37.1291 156.079 36.5849C156.104 36.0408 156.426 35.5708 157.044 35.1751C157.44 34.9277 157.86 34.8288 158.305 34.8783C158.751 34.903 159.184 35.1256 159.604 35.5461C160.321 36.2634 161.076 36.8199 161.867 37.2157C162.659 37.6114 163.648 37.8093 164.835 37.8093C165.206 37.7845 165.614 37.7351 166.06 37.6609C166.505 37.5619 166.888 37.3641 167.21 37.0672C167.556 36.7457 167.729 36.2634 167.729 35.6203C167.729 35.0761 167.544 34.6433 167.173 34.3217C166.802 34.0002 166.307 33.7281 165.689 33.5055C165.095 33.2829 164.427 33.0727 163.685 32.8748C162.918 32.6522 162.127 32.4048 161.311 32.1328C160.519 31.8607 159.79 31.5144 159.122 31.0939C158.454 30.6487 157.91 30.0674 157.489 29.3501C157.069 28.6328 156.859 27.73 156.859 26.6417C156.859 25.405 157.205 24.3538 157.897 23.4881C158.59 22.6224 159.48 21.9546 160.569 21.4846C161.682 21.0147 162.844 20.7797 164.056 20.7797C164.823 20.7797 165.627 20.8786 166.468 21.0765C167.309 21.2497 168.113 21.5465 168.879 21.967C169.646 22.3627 170.289 22.8945 170.809 23.5623C171.081 23.9333 171.242 24.3786 171.291 24.898C171.34 25.4174 171.105 25.8873 170.586 26.3078C170.215 26.6046 169.782 26.7407 169.287 26.7159C168.793 26.6665 168.385 26.4933 168.063 26.1965C167.643 25.6524 167.074 25.2195 166.356 24.898C165.664 24.5764 164.86 24.4157 163.945 24.4157C163.574 24.4157 163.166 24.4651 162.721 24.5641C162.3 24.6383 161.929 24.8238 161.607 25.1206C161.286 25.3927 161.125 25.8379 161.125 26.4562C161.125 27.0251 161.311 27.4827 161.682 27.829C162.053 28.1505 162.547 28.4226 163.166 28.6452C163.809 28.8431 164.489 29.041 165.206 29.2388C165.948 29.4367 166.703 29.6717 167.47 29.9438C168.236 30.2158 168.941 30.5745 169.584 31.0197C170.227 31.4649 170.747 32.0462 171.143 32.7635C171.538 33.456 171.736 34.3465 171.736 35.4348C171.736 36.6962 171.365 37.7722 170.623 38.6626C169.881 39.553 168.954 40.2332 167.841 40.7032C166.727 41.1484 165.59 41.371 164.427 41.371C162.968 41.371 161.509 41.1237 160.049 40.629C158.59 40.1096 157.378 39.2068 156.413 37.9206ZM179.654 38.7368C179.654 39.3799 179.444 39.9241 179.024 40.3693C178.603 40.7898 178.071 41 177.428 41C176.785 41 176.253 40.7898 175.833 40.3693C175.413 39.9241 175.202 39.3799 175.202 38.7368V23.4139C175.202 22.7708 175.413 22.239 175.833 21.8186C176.253 21.3733 176.785 21.1507 177.428 21.1507C178.071 21.1507 178.603 21.3733 179.024 21.8186C179.444 22.239 179.654 22.7708 179.654 23.4139V38.7368ZM177.391 18.7391C176.55 18.7391 175.957 18.6031 175.61 18.331C175.264 18.0589 175.091 17.5766 175.091 16.8841V16.1791C175.091 15.4618 175.276 14.9795 175.647 14.7322C176.043 14.4601 176.637 14.3241 177.428 14.3241C178.294 14.3241 178.9 14.4601 179.246 14.7322C179.593 15.0043 179.766 15.4866 179.766 16.1791V16.8841C179.766 17.6014 179.58 18.096 179.209 18.3681C178.838 18.6155 178.232 18.7391 177.391 18.7391Z" fill="#485BE8"/>
<path d="M89.1695 56.0811L89.1904 55.7681H91.9452L96.933 66.349L101.837 55.7681H104.592C104.592 55.7959 104.599 55.8446 104.613 55.9142C104.627 55.9838 104.627 56.0394 104.613 56.0811L103.507 56.2064C103.368 56.2203 103.284 56.3107 103.256 56.4777V69.9803L104.801 70.0638C104.801 70.0777 104.794 70.182 104.78 70.3768L100.585 70.3977L100.606 70.1055L101.691 69.9594C101.83 69.9455 101.914 69.862 101.942 69.709V56.5194L97.1834 66.8081L96.766 67.6429H96.286L91.006 56.4985V69.9385L93.3852 70.0638C93.3852 70.0777 93.3782 70.182 93.3643 70.3768L89.1695 70.3977L89.1904 70.1055L90.2756 69.9594C90.4147 69.9455 90.4982 69.8551 90.526 69.6881V56.4777C90.4982 56.3107 90.4147 56.2203 90.2756 56.2064L89.1695 56.0811ZM106.997 65.5768C106.997 68.582 108.166 70.0846 110.503 70.0846C111.115 70.0846 111.769 70.022 112.465 69.8968C113.16 69.7577 113.606 69.6325 113.8 69.5211L113.946 69.7298C113.626 69.9385 113.098 70.1125 112.36 70.2516C111.637 70.3907 110.969 70.4603 110.357 70.4603C109.759 70.4603 109.216 70.3977 108.729 70.2725C108.256 70.1472 107.769 69.9246 107.268 69.6046C106.767 69.2846 106.371 68.7838 106.079 68.102C105.786 67.4203 105.64 66.5855 105.64 65.5977C105.64 63.7611 106.113 62.3559 107.059 61.382C108.047 60.3664 109.195 59.8585 110.503 59.8585C111.811 59.8585 112.806 60.2203 113.487 60.9438C114.183 61.6672 114.531 62.6829 114.531 63.9907C114.531 64.269 114.51 64.5681 114.468 64.8881H107.018C107.004 65.0411 106.997 65.2707 106.997 65.5768ZM113.299 63.8446C113.299 62.8011 113.07 61.9525 112.611 61.2985C112.152 60.6307 111.526 60.2968 110.733 60.2968C109.703 60.2968 108.833 60.749 108.124 61.6533C107.553 62.3629 107.199 63.309 107.059 64.4916H113.279C113.293 64.3385 113.299 64.1229 113.299 63.8446ZM115.998 70.3977L116.019 70.1055L117.105 69.9594C117.23 69.9455 117.292 69.8481 117.292 69.6672V60.6307C117.265 60.5194 117.223 60.4638 117.167 60.4638L115.894 60.422L115.915 60.1298C116.792 60.0046 117.383 59.942 117.689 59.942C118.245 59.942 118.558 60.1855 118.628 60.6725H118.649V61.1107C119.79 60.3316 120.882 59.9211 121.925 59.8794C122.941 59.8794 123.713 60.0811 124.242 60.4846C124.478 60.6655 124.687 60.9507 124.868 61.3403C125.063 61.7159 125.16 62.1681 125.16 62.6968V69.9594L126.725 70.0638C126.725 70.0777 126.718 70.182 126.705 70.3768L122.531 70.3977C122.531 70.2725 122.538 70.1751 122.552 70.1055L123.637 69.9594C123.748 69.9455 123.804 69.8481 123.804 69.6672V63.2185C123.804 62.662 123.727 62.189 123.574 61.7994C123.435 61.4098 123.275 61.1246 123.094 60.9438C122.913 60.7629 122.691 60.6238 122.426 60.5264C122.12 60.4151 121.8 60.3594 121.466 60.3594C120.632 60.3733 119.692 60.7003 118.649 61.3403V69.9594L120.214 70.0638C120.214 70.0777 120.207 70.182 120.193 70.3768L115.998 70.3977ZM132.346 69.9803L133.16 69.9385L133.222 70.1472C133.208 70.1472 133.111 70.1681 132.93 70.2098C132.513 70.3072 132.047 70.3559 131.532 70.3559C131.059 70.3281 130.628 70.2516 130.238 70.1264C129.848 69.9872 129.487 69.709 129.153 69.2916C128.819 68.8603 128.652 68.3107 128.652 67.6429V60.3177H127.588L127.755 60.1507L128.673 59.9629L128.84 57.9594L130.008 57.8551V59.942H132.534V60.3177H130.008V67.2881C130.008 68.3455 130.231 69.062 130.676 69.4377C131.122 69.7994 131.678 69.9803 132.346 69.9803ZM141.053 69.5838H140.99C139.738 70.1681 138.52 70.4603 137.338 70.4603C135.487 70.4603 134.506 69.7298 134.395 68.269C134.381 68.1716 134.374 68.0811 134.374 67.9977C134.374 66.9264 135.077 66.2098 136.482 65.8481C137.317 65.6672 138.82 65.4516 140.99 65.2011V63.3646C140.99 62.7803 140.92 62.2794 140.781 61.862C140.642 61.4446 140.489 61.1385 140.322 60.9438C140.155 60.7351 139.94 60.5751 139.675 60.4638C139.341 60.3246 138.966 60.2551 138.548 60.2551C138.145 60.2551 137.679 60.3594 137.15 60.5681C136.385 60.8881 135.703 61.2916 135.105 61.7785L135.021 63.4064L134.625 63.5107V60.9855L134.833 60.902C135.919 60.429 136.746 60.1438 137.317 60.0464C137.887 59.949 138.305 59.9003 138.569 59.9003C138.833 59.8864 139.084 59.8864 139.32 59.9003C139.571 59.9142 139.891 59.9768 140.28 60.0881C140.67 60.1994 141.004 60.3594 141.282 60.5681C141.574 60.7629 141.825 61.062 142.033 61.4655C142.242 61.869 142.346 62.349 142.346 62.9055V69.2916C142.346 69.7229 142.458 69.9385 142.68 69.9385L143.953 70.0011L143.933 70.3142C143.153 70.4255 142.458 70.4811 141.846 70.4811C141.679 70.4672 141.505 70.3838 141.324 70.2307C141.143 70.0638 141.053 69.8481 141.053 69.5838ZM137.713 70.1264C138.743 70.1264 139.835 69.7646 140.99 69.0411V65.5977C138.903 65.6672 137.588 65.7925 137.046 65.9733C136.517 66.1403 136.148 66.4116 135.94 66.7872C135.745 67.149 135.647 67.5107 135.647 67.8725C135.647 67.942 135.647 68.0116 135.647 68.0811C135.689 68.8046 135.905 69.3264 136.294 69.6464C136.684 69.9664 137.157 70.1264 137.713 70.1264ZM144.903 70.3977L144.924 70.1055L146.009 69.9594C146.106 69.9455 146.169 69.8759 146.197 69.7507V55.4759C146.197 55.3229 146.155 55.2464 146.072 55.2464L144.798 55.2046L144.819 54.9125C145.696 54.7872 146.294 54.7246 146.614 54.7246C146.948 54.7246 147.185 54.8151 147.324 54.9959C147.477 55.1768 147.553 55.3716 147.553 55.5803V69.9594L149.118 70.0638C149.118 70.0777 149.112 70.182 149.098 70.3768L144.903 70.3977ZM160.168 55.5803V61.2359C161.991 59.9838 163.64 59.5942 165.114 60.0672C165.448 60.1646 165.733 60.3107 165.97 60.5055C166.22 60.6864 166.436 60.9646 166.617 61.3403C166.798 61.7159 166.888 62.1681 166.888 62.6968V69.9594L168.453 70.0638C168.453 70.0777 168.447 70.182 168.433 70.3768L164.259 70.3977C164.259 70.2725 164.266 70.1751 164.28 70.1055L165.365 69.9594C165.448 69.9594 165.504 69.8968 165.532 69.7716V63.2394C165.532 62.6968 165.455 62.2307 165.302 61.8411C165.163 61.4377 164.996 61.1455 164.801 60.9646C164.607 60.7838 164.377 60.6446 164.113 60.5472C163.751 60.4081 163.431 60.3525 163.153 60.3803C162.248 60.4081 161.253 60.7768 160.168 61.4864V69.9594L161.733 70.0638C161.733 70.0777 161.727 70.182 161.713 70.3768L157.539 70.3977C157.539 70.2725 157.546 70.1751 157.56 70.1055L158.645 69.9594C158.756 69.9455 158.812 69.8481 158.812 69.6672V55.4759C158.812 55.3229 158.77 55.2464 158.687 55.2464L157.434 55.2046L157.455 54.9125C158.207 54.7872 158.777 54.7246 159.167 54.7246C159.556 54.7246 159.82 54.8151 159.96 54.9959C160.099 55.1768 160.168 55.3716 160.168 55.5803ZM170.339 65.5768C170.339 68.582 171.508 70.0846 173.845 70.0846C174.458 70.0846 175.111 70.022 175.807 69.8968C176.503 69.7577 176.948 69.6325 177.143 69.5211L177.289 69.7298C176.969 69.9385 176.44 70.1125 175.703 70.2516C174.979 70.3907 174.311 70.4603 173.699 70.4603C173.101 70.4603 172.558 70.3977 172.071 70.2725C171.598 70.1472 171.111 69.9246 170.611 69.6046C170.11 69.2846 169.713 68.7838 169.421 68.102C169.129 67.4203 168.983 66.5855 168.983 65.5977C168.983 63.7611 169.456 62.3559 170.402 61.382C171.39 60.3664 172.538 59.8585 173.845 59.8585C175.153 59.8585 176.148 60.2203 176.83 60.9438C177.525 61.6672 177.873 62.6829 177.873 63.9907C177.873 64.269 177.852 64.5681 177.811 64.8881H170.36C170.346 65.0411 170.339 65.2707 170.339 65.5768ZM176.642 63.8446C176.642 62.8011 176.412 61.9525 175.953 61.2985C175.494 60.6307 174.868 60.2968 174.075 60.2968C173.045 60.2968 172.176 60.749 171.466 61.6533C170.896 62.3629 170.541 63.309 170.402 64.4916H176.621C176.635 64.3385 176.642 64.1229 176.642 63.8446ZM186.114 69.5838H186.051C184.799 70.1681 183.582 70.4603 182.399 70.4603C180.548 70.4603 179.568 69.7298 179.456 68.269C179.442 68.1716 179.435 68.0811 179.435 67.9977C179.435 66.9264 180.138 66.2098 181.543 65.8481C182.378 65.6672 183.881 65.4516 186.051 65.2011V63.3646C186.051 62.7803 185.982 62.2794 185.842 61.862C185.703 61.4446 185.55 61.1385 185.383 60.9438C185.216 60.7351 185.001 60.5751 184.736 60.4638C184.402 60.3246 184.027 60.2551 183.609 60.2551C183.206 60.2551 182.74 60.3594 182.211 60.5681C181.446 60.8881 180.764 61.2916 180.166 61.7785L180.082 63.4064L179.686 63.5107V60.9855L179.895 60.902C180.98 60.429 181.808 60.1438 182.378 60.0464C182.948 59.949 183.366 59.9003 183.63 59.9003C183.895 59.8864 184.145 59.8864 184.382 59.9003C184.632 59.9142 184.952 59.9768 185.342 60.0881C185.731 60.1994 186.065 60.3594 186.343 60.5681C186.635 60.7629 186.886 61.062 187.095 61.4655C187.303 61.869 187.408 62.349 187.408 62.9055V69.2916C187.408 69.7229 187.519 69.9385 187.742 69.9385L189.015 70.0011L188.994 70.3142C188.215 70.4255 187.519 70.4811 186.907 70.4811C186.74 70.4672 186.566 70.3838 186.385 70.2307C186.204 70.0638 186.114 69.8481 186.114 69.5838ZM182.775 70.1264C183.804 70.1264 184.896 69.7646 186.051 69.0411V65.5977C183.964 65.6672 182.649 65.7925 182.107 65.9733C181.578 66.1403 181.209 66.4116 181.001 66.7872C180.806 67.149 180.708 67.5107 180.708 67.8725C180.708 67.942 180.708 68.0116 180.708 68.0811C180.75 68.8046 180.966 69.3264 181.355 69.6464C181.745 69.9664 182.218 70.1264 182.775 70.1264ZM189.964 70.3977L189.985 70.1055L191.07 69.9594C191.167 69.9455 191.23 69.8759 191.258 69.7507V55.4759C191.258 55.3229 191.216 55.2464 191.133 55.2464L189.86 55.2046L189.881 54.9125C190.757 54.7872 191.355 54.7246 191.675 54.7246C192.009 54.7246 192.246 54.8151 192.385 54.9959C192.538 55.1768 192.614 55.3716 192.614 55.5803V69.9594L194.18 70.0638C194.18 70.0777 194.173 70.182 194.159 70.3768L189.964 70.3977ZM199.357 69.9803L200.171 69.9385L200.233 70.1472C200.219 70.1472 200.122 70.1681 199.941 70.2098C199.524 70.3072 199.058 70.3559 198.543 70.3559C198.07 70.3281 197.638 70.2516 197.249 70.1264C196.859 69.9872 196.498 69.709 196.164 69.2916C195.83 68.8603 195.663 68.3107 195.663 67.6429V60.3177H194.598L194.765 60.1507L195.684 59.9629L195.851 57.9594L197.019 57.8551V59.942H199.545V60.3177H197.019V67.2881C197.019 68.3455 197.242 69.062 197.687 69.4377C198.132 69.7994 198.689 69.9803 199.357 69.9803ZM204.007 55.5803V61.2359C205.829 59.9838 207.478 59.5942 208.953 60.0672C209.287 60.1646 209.572 60.3107 209.808 60.5055C210.059 60.6864 210.274 60.9646 210.455 61.3403C210.636 61.7159 210.727 62.1681 210.727 62.6968V69.9594L212.292 70.0638C212.292 70.0777 212.285 70.182 212.271 70.3768L208.097 70.3977C208.097 70.2725 208.104 70.1751 208.118 70.1055L209.203 69.9594C209.287 69.9594 209.342 69.8968 209.37 69.7716V63.2394C209.37 62.6968 209.294 62.2307 209.141 61.8411C209.001 61.4377 208.834 61.1455 208.64 60.9646C208.445 60.7838 208.215 60.6446 207.951 60.5472C207.589 60.4081 207.269 60.3525 206.991 60.3803C206.087 60.4081 205.092 60.7768 204.007 61.4864V69.9594L205.572 70.0638C205.572 70.0777 205.565 70.182 205.551 70.3768L201.377 70.3977C201.377 70.2725 201.384 70.1751 201.398 70.1055L202.483 69.9594C202.594 69.9455 202.65 69.8481 202.65 69.6672V55.4759C202.65 55.3229 202.608 55.2464 202.525 55.2464L201.273 55.2046L201.294 54.9125C202.045 54.7872 202.615 54.7246 203.005 54.7246C203.394 54.7246 203.659 54.8151 203.798 54.9959C203.937 55.1768 204.007 55.3716 204.007 55.5803Z" fill="#34A853"/>
</svg>
