<svg width="283" height="246" viewBox="0 0 283 246" fill="none" xmlns="http://www.w3.org/2000/svg">
<path d="M44.6489 95.2357C44.6718 94.8302 44.6947 94.4246 44.6947 93.9966C44.6947 75.3189 44.6947 56.6413 44.6947 37.9636C44.6947 35.9359 45.3364 34.3137 47.1698 33.2548C47.8344 32.8717 48.5448 32.714 49.2781 32.5563C49.7365 32.4211 50.1948 32.4887 50.6532 32.4887C78.6352 32.4887 106.617 32.4887 134.599 32.4887C134.897 32.4211 135.149 32.2634 135.47 32.286C138.541 32.2184 141.612 32.2184 144.683 32.286C144.958 32.286 145.256 32.3085 145.531 32.286C147.891 32.2634 150.252 32.2634 152.612 32.286C155.637 32.3085 157.7 34.0884 158.25 36.9948C158.479 38.1889 158.456 39.383 158.456 40.5771C158.456 43.3934 158.479 46.1872 158.433 49.0035C158.41 49.2062 158.387 49.409 158.364 49.6118C158.341 49.747 158.319 49.8822 158.273 49.9948C158.135 52.3154 158.181 54.6586 158.273 56.9792C158.181 57.6101 158.204 58.2409 158.204 58.8943C158.204 70.7002 158.204 82.5061 158.204 94.2895C158.204 94.8978 158.456 95.7089 157.837 96.0694C157.196 96.4298 156.646 95.7765 156.118 95.461C154.789 94.7175 153.552 93.8388 152.108 93.3207C151.787 93.208 151.489 93.0052 151.329 92.7123C151.031 92.0364 151.122 91.3154 151.122 90.5945C151.122 74.4177 151.122 58.2409 151.122 42.0641C151.122 39.9688 151.123 39.9688 148.991 39.9688C117.297 39.9688 85.602 39.9688 53.9074 39.9688C51.7532 39.9688 51.7532 39.9688 51.7532 42.0641C51.7532 90.9775 51.7532 139.891 51.7532 188.804C51.7532 190.832 51.7532 190.832 53.8387 190.832C85.5791 190.832 117.297 190.832 149.037 190.832C151.145 190.832 151.145 190.832 151.145 188.692C151.145 161.813 151.145 134.934 151.145 108.055C151.145 107.312 150.985 106.546 151.443 105.87C151.948 105.6 152.337 105.938 152.727 106.14C154.262 106.974 155.775 107.875 157.287 108.731C157.814 109.024 158.089 109.407 158.089 110.083C158.044 137.48 158.066 164.854 158.066 192.251C158.066 192.702 158.112 193.153 158.021 193.603C157.516 196.555 155.018 198.222 152.291 198.154C148.441 198.064 144.591 198.132 140.741 198.132C140.374 198.132 139.985 198.177 139.618 198.222C139.526 198.289 139.412 198.357 139.297 198.425C139.114 198.492 138.93 198.515 138.747 198.515C137.876 198.537 137.005 198.537 136.135 198.515C135.951 198.515 135.768 198.492 135.585 198.425C135.47 198.38 135.378 198.289 135.264 198.222C132.491 198.199 129.695 198.154 126.922 198.154C123.759 198.132 120.574 198.177 117.411 198.132C116.495 198.109 116.403 198.335 116.609 199.213C118.145 205.837 119.588 212.461 121.078 219.108C122.247 224.402 123.438 229.697 124.607 234.991C125.318 238.236 126.051 241.458 126.761 244.725C126.83 245.04 127.105 245.581 126.486 245.738C125.753 245.941 125.982 245.265 125.913 244.972C125.432 243.035 125.02 241.075 124.561 239.137C123.645 235.059 122.751 230.958 121.811 226.881C120.94 223.05 120.138 219.198 119.267 215.368C118.282 210.997 117.457 206.626 116.311 202.3C116.036 201.241 115.692 200.16 115.647 199.056C115.601 198.267 115.165 198.177 114.524 198.177C110.467 198.199 106.434 198.177 102.377 198.177C97.6336 198.177 92.9126 198.177 88.1687 198.177C87.55 198.177 87.2292 198.222 87.0458 199.01C85.9 204.305 84.6624 209.577 83.4707 214.872C81.6373 223.05 79.8269 231.206 77.9935 239.385C77.581 241.255 77.1914 243.147 76.8247 245.04C76.7559 245.423 76.733 245.806 76.183 245.806C75.8851 245.806 75.6559 245.874 75.7705 245.333C76.5726 241.548 77.4206 237.763 78.2456 233.978C78.9331 230.801 79.6664 227.624 80.354 224.425C81.3165 220.009 82.3936 215.615 83.2645 211.177C83.952 207.707 84.8457 204.283 85.7395 200.858C86.427 198.222 86.4729 198.222 83.654 198.222C72.1725 198.222 60.668 198.244 49.1865 198.199C47.1239 198.199 44.9238 196.239 44.8322 194.099C44.6718 189.863 44.7405 185.627 44.7176 181.392C44.7176 179.589 44.6947 177.787 44.6947 175.984C44.4884 175.737 44.4197 175.466 44.3967 175.151C44.2822 173.889 44.3509 172.605 44.3509 171.343C44.3738 162.444 44.3051 153.522 44.3738 144.622C44.3738 144.329 44.3509 144.059 44.3738 143.766C44.3509 142.504 44.3509 141.243 44.3738 140.004C44.3738 139.778 44.3738 139.575 44.3738 139.35C44.3051 132.839 44.3051 126.305 44.3738 119.794C44.3738 119.568 44.3738 119.366 44.3738 119.14C44.328 114.026 44.3051 108.934 44.3738 103.82C44.3738 103.617 44.3738 103.392 44.3738 103.189C44.328 100.891 44.3509 98.5928 44.3738 96.2947C44.3967 96.0919 44.4197 95.8891 44.4655 95.6863C44.5113 95.461 44.5801 95.3484 44.6489 95.2357Z" fill="black"/>
<path d="M178.325 147.506C178.394 147.191 178.257 146.853 178.532 146.582C178.761 145.929 178.761 145.231 179.013 144.577C179.54 142.211 180.044 139.823 180.617 137.458C181.19 135.069 181.855 132.704 182.451 130.315C183.023 128.017 183.551 125.697 184.101 123.399C184.559 123.173 185.063 123.263 185.567 123.263C191.869 123.241 198.172 123.556 204.497 123.534C206.33 123.534 208.209 123.534 210.043 123.894C210.593 124.345 210.478 124.953 210.41 125.562C210.066 126.463 209.31 127.071 208.668 127.747C205.918 130.698 203.191 133.672 200.418 136.601C198.905 138.201 197.438 139.823 195.972 141.423C195.032 142.459 195.032 143.631 196.086 144.622C198.034 146.47 200.074 148.205 202.068 150.007C204.291 151.99 206.514 153.995 208.737 155.978C209.562 156.721 210.432 157.352 211.212 158.14C211.601 158.546 212.014 158.952 212.06 159.56C212.426 162.511 212.426 165.463 212.564 168.414C212.747 171.974 213.022 175.511 213.045 179.071C213.045 179.432 213.137 179.815 212.93 180.175C212.472 180.536 211.922 180.468 211.418 180.491C209.974 180.513 208.53 180.445 207.109 180.626C202.182 180.378 197.232 180.581 192.305 180.513C191.388 180.491 190.472 180.536 189.578 180.491C186.919 180.468 184.284 180.243 181.626 180.153C179.242 180.062 176.859 179.837 174.452 179.837C173.696 179.837 172.94 179.792 172.184 179.679C171.382 179.567 170.923 179.206 171.084 178.35C171.679 174.362 172.802 170.465 173.742 166.544C175.186 160.461 176.584 154.378 178.142 148.34C178.234 148.069 178.073 147.754 178.325 147.506Z" fill="#8F3600"/>
<path d="M210.158 125.832C210.158 125.246 210.135 124.638 210.135 124.052C209.837 123.692 209.951 123.263 209.974 122.858C210.479 116.617 211.029 110.376 211.556 104.135C211.968 99.2011 212.381 94.2669 212.793 89.3328C213.137 85.1872 213.458 81.0416 213.916 76.896C213.962 76.513 213.962 76.1525 214.237 75.8371C215.131 75.3414 216.047 75.409 216.964 75.747C217.216 75.9723 217.17 76.2877 217.17 76.5806C217.125 80.929 217.147 85.2773 217.17 89.6482C217.17 90.7297 216.872 91.383 215.727 91.6985C214.604 91.9914 214.008 92.87 213.962 94.0642C213.962 94.2219 213.962 94.0191 213.962 94.1768C213.687 98.0746 215.497 98.2548 218.637 97.9619C219.027 97.9169 219.347 97.6915 219.645 97.4437C221.387 95.9567 220.86 92.487 218.706 91.6759C217.766 91.338 217.4 90.8198 217.4 89.851C217.422 85.5702 217.4 81.2895 217.4 77.0087C217.4 76.6257 217.4 76.2652 217.583 75.9047C217.766 75.6343 218.064 75.5442 218.385 75.5442C221.227 75.5893 224.091 75.2063 226.91 75.9498C230.485 76.896 233.235 78.8111 234.748 82.2357C234.954 82.7314 235.137 83.2045 235.092 83.7453C234.954 85.6829 234.839 87.6205 234.725 89.5581C234.244 97.2635 233.762 104.969 233.281 112.652C232.983 117.586 232.662 122.52 232.342 127.454C232.204 129.347 232.204 129.347 230.187 129.121C227.735 128.828 225.26 128.603 222.785 128.288C221.914 128.175 221.525 128.355 221.433 129.279C221.341 130.315 221.204 131.374 220.516 132.253C220.058 132.636 219.737 132.298 219.439 132.028C217.766 130.608 216.139 129.144 214.512 127.657C214.122 127.296 213.71 126.958 213.343 126.575C212.426 125.742 211.304 125.742 210.158 125.832Z" fill="#6DB5DE"/>
<path d="M171.197 178.125C171.06 178.958 171.312 179.341 172.297 179.387C176.262 179.522 180.227 179.747 184.191 179.95C185.933 180.04 187.698 180.13 189.44 180.22C190.104 180.716 190.173 181.504 190.448 182.203C192.808 188.263 195.146 194.324 197.529 200.362C198.538 203.021 199.5 205.679 200.669 208.293C200.829 208.766 200.99 209.262 201.173 209.735C202.984 214.421 204.84 219.062 206.627 223.749C206.719 223.952 206.788 224.154 206.879 224.357C207.292 225.596 207.796 226.79 208.255 227.985C208.346 228.345 208.552 228.683 208.461 229.066C208.461 229.156 208.461 229.224 208.461 229.314C208.048 229.674 207.544 229.652 207.063 229.652C201.723 229.674 196.383 229.652 191.044 229.652C190.517 229.652 189.967 229.719 189.554 229.269C187.79 224.808 186.025 220.369 184.26 215.908C181.762 209.667 179.241 203.449 176.721 197.208C175.185 193.423 173.672 189.615 172.16 185.83C171.633 184.523 171.266 183.149 171.175 181.73C170.968 181.302 171.243 180.806 170.991 180.378C170.991 179.657 170.991 178.913 170.991 178.192C171.037 178.035 171.106 178.012 171.197 178.125Z" fill="#FD9993"/>
<path d="M214.26 75.8596C213.939 79.9827 213.618 84.0832 213.274 88.1837C212.77 94.0867 212.266 99.9896 211.762 105.893C211.235 111.953 210.685 117.991 210.158 124.052C204.635 123.962 199.089 123.962 193.566 123.782C190.793 123.692 187.997 123.692 185.224 123.624C184.834 123.624 184.467 123.624 184.124 123.399C184.009 123.173 184.078 123.016 184.284 122.88C185.544 118.104 187.63 113.643 189.601 109.137C193.543 100.147 197.92 91.338 201.564 82.2132C202.274 80.4333 202.893 78.6083 203.603 76.8285C203.787 76.3778 203.878 75.8822 204.383 75.6343C205.185 75.409 205.987 75.5217 206.812 75.4992C208.874 75.4541 210.96 75.4766 213.022 75.4766C213.389 75.4766 213.779 75.4766 214.122 75.6794C214.168 75.7695 214.214 75.8146 214.26 75.8596Z" fill="black"/>
<path d="M204.199 75.9272C200.417 86.877 195.215 97.2184 190.517 107.763C188.431 112.426 186.438 117.113 184.719 121.912C184.604 122.25 184.604 122.655 184.261 122.903C184.467 121.168 184.673 119.411 184.925 117.383C183.55 118.87 182.29 120.199 180.365 120.492C179.608 120.605 178.852 120.605 178.096 120.492C177.294 120.425 176.583 120.154 175.873 119.794C172.206 117.901 168.516 116.031 164.85 114.139C164.047 113.733 163.291 113.237 162.466 112.877C161.916 112.629 161.664 112.314 161.847 111.728C163.681 108.416 165.514 105.127 167.37 101.837C168.241 100.508 168.425 100.44 169.823 101.206C171.381 102.085 172.985 102.874 174.498 103.797C175.3 104.293 175.758 104.158 176.262 103.392C179.356 98.7054 182.381 93.974 185.475 89.2877C186.598 87.5754 187.675 85.8631 188.821 84.1733C189.486 83.1595 190.036 82.1005 190.563 81.0191C192.144 77.5945 195.032 75.9272 198.767 75.5893C200.28 75.4541 201.815 75.5442 203.351 75.5667C203.626 75.5893 203.992 75.5667 204.199 75.9272Z" fill="#6DB5DE"/>
<path d="M207.224 180.355C209.08 180.062 210.936 180.4 212.793 180.175C213.343 180.468 213.251 181.009 213.251 181.459C213.365 186.934 213.778 192.387 214.007 197.839C214.099 199.957 214.076 202.097 214.351 204.238C214.465 205.229 214.878 205.499 215.795 205.477C218.27 205.454 220.745 205.454 223.243 205.477C223.816 205.477 224.389 205.409 224.893 205.792C225.168 206.153 225.168 206.558 225.168 206.964C225.168 212.529 225.214 218.094 225.145 223.659C225.145 223.861 225.122 224.087 225.145 224.29C225.168 225.529 225.191 226.745 225.122 227.985C225.099 228.255 225.053 228.525 224.801 228.728C224.778 228.908 224.778 229.066 224.755 229.246C224.366 229.629 223.861 229.607 223.357 229.607C219.095 229.629 214.855 229.629 210.592 229.607C210.134 229.607 209.676 229.629 209.286 229.291C209.172 229.066 208.942 229.021 208.713 228.976C208.484 228.705 208.438 228.368 208.415 228.052C208.438 226.79 208.049 225.574 208.163 224.312C208.163 224.109 208.163 223.907 208.163 223.681C208.095 220.076 207.957 216.494 207.842 212.889C207.705 209.082 207.705 205.251 207.453 201.421C207.43 201.083 207.453 200.745 207.476 200.407C207.476 197.118 207.292 193.829 207.155 190.539C207.04 187.52 207.155 184.478 206.88 181.459C206.88 181.099 206.88 180.693 207.224 180.355Z" fill="#FD9993"/>
<path d="M189.555 229.246C195.857 229.269 202.182 229.269 208.484 229.291C207.292 234.428 206.101 239.588 204.909 244.725C204.84 245.017 204.886 245.31 204.863 245.626C204.634 246.009 204.244 245.829 203.947 245.829C193.748 245.851 183.55 245.851 173.352 245.829C173.031 245.829 172.665 245.986 172.39 245.648L172.435 245.603L172.39 245.558C172.619 245.198 172.39 244.77 172.573 244.387C173.031 241.683 174.544 239.678 176.79 238.146C179.884 236.028 182.954 233.887 186.025 231.747C187.171 230.913 188.363 230.08 189.555 229.246Z" fill="black"/>
<path d="M216.964 75.9047C216.07 75.8822 215.176 75.8822 214.26 75.8596L214.283 75.8822C213.962 75.5442 213.916 75.1387 213.962 74.7331C214.351 70.5425 213.045 66.7574 211.28 63.0399C210.272 60.8995 209.333 58.7141 208.508 56.5061C208.049 55.2894 207.27 54.7487 206.032 54.7938C204.084 54.8614 202.159 54.4784 200.211 54.5234C199.501 54.5459 198.722 54.5009 198.47 53.5997C198.607 51.4142 199.845 49.8371 202.228 49.409C206.101 48.6881 209.974 48.3726 213.893 49.364C217.72 50.3328 219.92 52.5182 220.31 56.416C220.333 56.6863 220.264 56.9342 220.081 57.1369C220.195 59.2323 220.081 61.3276 219.645 63.4004C219.577 63.7158 219.324 64.0988 220.035 64.1889C225.031 64.8648 226.589 66.5771 226.75 71.5113C226.75 71.5789 226.773 71.6465 226.796 71.7141C232.387 70.5875 235.298 71.3761 236.925 74.5529C238.254 77.1439 238.025 81.6499 235.137 83.7678C234.587 83.1144 234.564 82.2583 234.152 81.5373C232.021 78.0225 228.766 76.2427 224.733 75.9272C222.441 75.747 220.104 75.9047 217.789 75.9272C217.445 76.0849 217.193 76.1075 216.964 75.9047Z" fill="black"/>
<path d="M209.332 229.336C214.488 229.314 219.622 229.314 224.778 229.291C227.001 234.541 229.247 239.79 231.47 245.04C231.539 245.198 231.653 245.355 231.768 245.513C231.676 245.964 231.309 245.829 231.034 245.829C222.715 245.829 214.396 245.829 206.077 245.829C205.894 245.829 205.688 245.851 205.619 245.626C206.421 242.111 207.223 238.596 208.048 235.082C208.461 233.166 208.896 231.251 209.332 229.336Z" fill="black"/>
<path d="M167.507 101.972C165.812 105.036 164.139 108.101 162.443 111.165C162.305 111.413 162.191 111.728 161.801 111.75C160.632 111.142 159.487 110.556 158.134 109.858C158.134 110.376 158.134 110.804 158.134 111.232C158.134 138.224 158.134 165.192 158.134 192.184C158.134 192.657 158.295 193.153 157.974 193.603C157.974 166.049 157.974 138.517 157.997 110.962C157.997 109.948 157.768 109.34 156.805 108.867C155.018 107.965 153.299 106.906 151.557 105.915C150.434 105.938 149.655 105.194 148.807 104.676C144.659 102.107 140.878 99.0659 137.417 95.6413C135.745 93.974 135.928 90.5269 137.67 89.0399C138.105 88.9272 138.403 89.1525 138.701 89.4004C139.824 90.3692 141.038 91.2479 142.161 92.442C141.497 90.955 141.978 90.0312 143.536 89.4454C143.926 89.3553 144.293 89.4229 144.636 89.5806C146.653 90.4368 148.67 91.2929 150.709 92.1265C151.03 92.2617 151.305 92.4645 151.466 92.7574C152.611 93.1629 153.734 93.5685 154.766 94.2444C155.728 94.8978 156.759 95.461 157.768 96.0694C158.066 95.6188 157.951 95.1907 157.951 94.8077C157.951 82.6413 157.951 70.4974 157.951 58.331C157.951 57.8804 157.997 57.4298 158.02 56.9792C158.089 57.0243 158.134 57.0468 158.203 57.0919C158.57 57.6776 158.455 58.331 158.455 58.9619C158.455 70.6326 158.501 82.2808 158.432 93.9515C158.432 95.5512 158.914 96.52 160.334 97.2635C162.443 98.39 164.459 99.6967 166.476 100.958C166.912 101.229 167.37 101.432 167.507 101.972Z" fill="#FD9993"/>
<path d="M44.6719 95.4385C44.6719 95.5962 44.6719 95.7765 44.6719 95.9342C43.9156 96.4749 43.0448 96.2271 42.2427 96.2496C41.4864 96.2721 41.1197 96.5425 41.1426 97.3085C41.1884 98.7279 41.0968 100.147 41.2114 101.567C41.2801 102.423 41.6697 102.828 42.5864 102.806C43.2969 102.783 44.0302 102.626 44.6719 103.121C44.6719 103.279 44.6719 103.459 44.649 103.617C44.0531 104.068 43.3198 103.932 42.6552 103.91C41.7385 103.887 41.326 104.248 41.2572 105.127C41.2114 105.6 41.1426 106.095 41.1426 106.568C41.1426 110.151 41.1426 113.756 41.1426 117.338C41.1426 118.667 41.2343 118.712 42.5635 118.757C43.2739 118.78 44.0302 118.6 44.649 119.095C44.649 119.253 44.649 119.433 44.626 119.591C43.8927 120.087 43.0677 119.861 42.2885 119.884C41.4635 119.906 41.1197 120.222 41.1197 121.033C41.1197 125.832 41.0739 130.608 41.1426 135.407C41.1655 137.097 42.0364 138.314 43.7552 138.832C44.099 138.945 44.3969 139.057 44.626 139.328C44.626 139.485 44.6261 139.666 44.649 139.823C44.0302 140.341 43.2739 140.184 42.5635 140.184C29.661 140.184 16.7815 140.184 3.87897 140.184C3.58104 140.184 3.2602 140.184 2.96228 140.184C1.1518 140.184 0.624709 140.882 1.10597 142.64C1.22056 143.023 1.44973 143.203 1.81641 143.248C2.32059 143.315 2.80185 143.293 3.30604 143.293C16.3919 143.293 29.4777 143.293 42.5635 143.293C43.2739 143.293 44.0302 143.135 44.649 143.653C44.649 143.879 44.649 144.104 44.649 144.329C44.099 144.825 43.4343 144.712 42.7927 144.712C35.6883 144.712 28.5839 144.712 21.4795 144.712C21.0899 144.712 20.7232 144.735 20.3336 144.735C19.6461 144.735 19.3711 145.073 19.3711 145.704C19.3711 145.997 19.3711 146.312 19.3711 146.605C19.3711 155.392 19.3711 164.179 19.3711 172.965C19.3711 174.858 19.3711 174.858 21.2503 174.858C28.4005 174.858 35.5278 174.858 42.6781 174.858C43.3427 174.858 44.076 174.723 44.649 175.241C44.649 175.466 44.649 175.692 44.649 175.894C36.1696 175.894 27.713 175.917 19.2336 175.917C19.0044 176.345 19.119 176.796 19.119 177.246C19.119 199.551 19.119 221.879 19.0961 244.184C19.0961 244.612 19.2336 245.085 18.9815 245.513L19.0044 245.491C17.7211 245.738 16.4148 245.626 15.1314 245.536C14.8335 245.085 14.971 244.589 14.971 244.116C14.971 211.357 14.971 178.598 14.971 145.839C14.971 144.104 15.1543 144.307 13.3668 144.284C9.28748 144.284 5.20818 144.239 1.10597 144.307C0.166362 144.329 -0.0399061 144.014 0.00592864 143.18C0.0746808 141.941 0.0288404 140.702 0.0288404 139.463C0.395518 139.125 0.830965 139.305 1.22056 139.305C9.90625 139.283 18.569 139.305 27.2547 139.283C27.6214 139.283 28.1714 139.62 28.4235 138.99C27.2318 138.088 26.8422 136.894 26.8651 135.407C26.9109 125.967 26.888 116.527 26.888 107.064C26.888 106.411 26.9109 105.87 26.063 105.645C25.0546 105.374 25.7422 104.383 25.3984 103.82C22.9004 103.572 20.4253 103.775 17.9273 103.685C17.5377 103.662 17.1023 103.865 16.7585 103.527C16.9419 102.919 17.446 103.166 17.8127 103.166C20.0586 103.144 22.3045 103.144 24.5504 103.166C25.1463 103.166 25.6276 103.144 25.513 102.355C25.4671 101.995 25.6275 101.544 25.9484 101.522C27.2088 101.387 26.8422 100.508 26.888 99.7869C26.9797 98.3449 26.6588 96.8804 27.0713 95.461C29.7298 95.3709 32.4111 95.2808 35.0695 95.5061L35.0466 95.4836C35.3445 96.8804 35.0924 98.2773 35.1841 99.6742C35.2299 100.215 35.0466 100.778 35.2987 101.319C36.032 101.409 36.5362 101.724 36.4446 102.558C36.3987 103.076 36.6737 103.189 37.1321 103.166C38.0259 103.121 39.2405 103.549 39.0342 101.905C39.0113 101.679 39.2405 101.544 39.4009 101.544C40.5926 101.499 40.3405 100.643 40.3405 99.9446C40.3405 98.4801 40.3405 97.0156 40.3405 95.5512C41.7843 95.2132 43.2281 95.3484 44.6719 95.4385Z" fill="#5983AF"/>
<path d="M220.195 132.411C220.837 131.307 221.112 130.113 221.089 128.874C221.066 127.95 221.478 127.815 222.258 127.927C224.962 128.243 227.689 128.536 230.393 128.851C232.02 129.031 232.02 129.054 232.295 127.499C232.158 130.653 232.043 133.808 231.906 136.962C231.883 137.413 231.906 137.863 231.906 138.291C232.089 138.494 232.181 138.742 232.181 139.035C232.249 140.274 231.86 141.513 231.974 142.752C231.997 144.6 231.745 146.425 231.676 148.25C231.608 150.3 230.851 152.08 228.812 153.026C227.551 153.612 227.116 153.364 226.956 152.012C226.956 150.097 226.887 148.205 227.116 146.289C226.841 147.979 226.658 149.669 226.703 151.404C226.726 152.035 226.841 152.688 226.383 153.229C225.718 153.544 225.031 153.544 224.366 153.251C223.724 152.418 223.976 151.449 224.091 150.548C224.274 149.061 224.16 147.574 224.114 146.087C223.885 148.34 224.183 150.638 223.518 152.846C222.533 153.296 221.96 152.643 221.433 152.012C220.997 151.494 220.768 150.841 220.63 150.165C220.355 148.723 219.989 147.303 219.989 145.839C220.241 145.163 220.355 144.465 220.333 143.744C220.241 141.986 220.47 140.229 220.447 138.471C220.401 139.778 220.081 141.062 220.081 142.369C220.081 142.932 220.172 143.496 219.874 144.014C219.278 144.329 219.233 143.766 219.118 143.496C217.903 140.927 217.445 138.269 218.637 135.565C219.141 134.529 219.256 133.267 220.195 132.411Z" fill="#FD9993"/>
<path d="M231.929 138.877C231.929 138.674 231.929 138.471 231.929 138.291C248.246 138.291 264.54 138.291 280.857 138.314C282.53 138.314 282.324 138.156 282.324 139.756C282.324 141.288 282.324 142.842 282.324 144.374C281.292 144.6 280.261 144.419 279.207 144.487C278.817 144.51 278.382 144.374 278.015 144.6C277.992 145.073 277.924 145.569 277.924 146.042C277.924 173.101 277.924 200.137 277.924 227.196C277.924 228.796 277.924 228.796 276.319 228.796C275.563 228.796 274.784 228.841 274.028 228.773C273.157 228.705 272.859 228.976 272.859 229.877C272.905 234.631 272.882 239.407 272.882 244.161C272.882 244.612 272.928 245.062 272.698 245.468C270.109 245.716 267.519 245.603 264.93 245.536C264.655 245.175 264.769 244.747 264.769 244.342C264.769 239.588 264.723 234.811 264.792 230.057C264.792 229.043 264.54 228.751 263.486 228.751C250.606 228.796 237.704 228.773 224.824 228.773C224.824 228.57 224.824 228.39 224.824 228.187C225.443 227.624 226.199 227.782 226.91 227.782C241.623 227.782 256.313 227.782 271.026 227.782C272.584 227.782 274.165 227.759 275.724 227.782C276.594 227.782 277.007 227.444 276.938 226.588C276.915 226.25 276.938 225.912 276.938 225.574C276.938 199.371 276.938 173.168 276.938 146.965C276.938 144.712 276.938 144.712 274.601 144.712C261.492 144.712 248.406 144.712 235.297 144.712C234.839 144.712 234.381 144.667 233.922 144.69C233.395 144.555 232.799 144.51 233.235 143.721C233.877 143.428 234.587 143.518 235.275 143.518C249.85 143.518 264.425 143.518 279.001 143.518C279.39 143.518 279.757 143.518 280.147 143.518C281.407 143.496 281.522 143.383 281.522 142.144C281.522 138.945 281.82 139.305 278.657 139.305C263.784 139.305 248.887 139.305 234.014 139.283C233.281 139.305 232.524 139.485 231.929 138.877Z" fill="#5D86B1"/>
<path d="M220.034 57.1595C220.034 56.9342 220.011 56.7089 220.011 56.4836C220.607 55.9879 221.318 56.1231 221.982 56.1231C230.072 56.1231 238.162 56.1231 246.274 56.1231C246.458 56.1231 246.664 56.1231 246.847 56.1231C248.727 56.1231 248.727 56.1231 248.727 54.2305C248.727 37.1075 248.727 20.0069 248.727 2.88388C248.727 2.54593 248.727 2.20797 248.704 1.87002C248.681 1.32929 248.406 1.05892 247.856 1.03639C247.466 1.01386 247.099 1.01387 246.71 1.01387C210.409 1.01387 174.085 1.01387 137.784 1.01387C137.67 1.01387 137.555 1.01387 137.44 1.01387C135.905 1.0364 135.836 1.08145 135.836 2.61352C135.836 11.9636 135.836 21.3137 135.836 30.6413C135.836 31.2946 135.997 32.0156 135.493 32.5789C135.263 32.5789 135.034 32.5789 134.805 32.5789C134.713 32.5338 134.69 32.5113 134.713 32.4662C134.736 32.4212 134.759 32.3986 134.782 32.3986C134.805 31.948 134.874 31.4974 134.874 31.0693C134.874 21.1335 134.897 11.175 134.851 1.23917C134.851 0.270364 135.057 0 136.088 0C173.535 0.0225303 210.982 0.0225283 248.429 0.0225283C248.841 0.0225283 249.277 -0.0901227 249.643 0.202772C249.781 0.563257 249.712 0.946275 249.712 1.30676C249.712 19.4887 249.712 37.6707 249.712 55.8527C249.712 56.2132 249.804 56.5962 249.597 56.9567C249.208 57.1595 248.772 57.0468 248.36 57.0468C239.399 57.0468 230.462 57.0468 221.501 57.0468C221.088 57.0468 220.653 56.9342 220.263 57.1595H220.172H220.034Z" fill="#6289B3"/>
<path d="M134.737 32.3986C134.76 32.4662 134.76 32.5338 134.76 32.5789C134.026 32.5789 133.316 32.6014 132.583 32.6014C105.197 32.6014 77.8104 32.6014 50.4242 32.6014C50.0346 32.6014 49.6679 32.5789 49.2783 32.5789C49.6908 32.2409 50.1492 32.3986 50.6075 32.3986C78.6583 32.3761 106.709 32.3986 134.737 32.3986Z" fill="#FCFCFC"/>
<path d="M19.0272 245.491C19.0272 244.995 19.0501 244.522 19.0501 244.026C19.0501 221.744 19.0501 199.439 19.0731 177.156C19.0731 176.75 18.8667 176.255 19.2795 175.894C19.2795 198.627 19.2795 221.361 19.2795 244.094C19.2565 244.567 19.4629 245.108 19.0272 245.491Z" fill="#FCFCFC"/>
<path d="M249.575 56.9342C249.575 40.2392 249.575 23.5217 249.598 6.82669C249.598 4.61871 249.598 2.38821 249.598 0.180237C249.942 0.540722 249.782 0.968798 249.782 1.35181C249.782 19.4887 249.782 37.6257 249.782 55.7626C249.782 56.1681 249.942 56.6187 249.575 56.9342Z" fill="#FCFCFC"/>
<path d="M171.198 178.125C171.129 178.147 171.038 178.147 170.969 178.17C171.083 177.246 171.106 176.3 171.313 175.421C173.123 167.964 174.979 160.529 176.813 153.071C177.271 151.201 177.569 149.286 178.302 147.506C177.844 150.503 176.996 153.409 176.309 156.361C174.658 163.615 172.917 170.87 171.198 178.125Z" fill="#FCFCFC"/>
<path d="M139.366 198.199C139.435 198.154 139.504 198.154 139.572 198.199C139.572 213.543 139.572 228.886 139.572 244.229C139.572 244.657 139.733 245.13 139.366 245.513C139.32 245.468 139.252 245.4 139.206 245.355C138.954 244.905 139.022 244.409 139.022 243.913C139.022 229.201 139.022 214.489 139.022 199.799C139.022 199.258 138.908 198.65 139.366 198.199Z" fill="#FCFCFC"/>
<path d="M135.217 198.199C135.286 198.154 135.355 198.154 135.424 198.199C135.813 198.582 135.767 199.101 135.767 199.574C135.767 214.421 135.767 229.269 135.767 244.139C135.767 244.544 135.813 244.972 135.607 245.355C135.561 245.4 135.492 245.468 135.447 245.513C135.057 245.13 135.24 244.657 135.24 244.229C135.217 228.886 135.217 213.543 135.217 198.199Z" fill="#FCFCFC"/>
<path d="M172.367 245.648C172.734 245.693 173.123 245.761 173.49 245.761C183.574 245.761 193.634 245.761 203.718 245.761C204.107 245.761 204.474 245.829 204.841 245.626C204.635 246.099 204.199 245.941 203.855 245.941C193.703 245.941 183.528 245.941 173.376 245.941C173.032 245.941 172.596 246.099 172.367 245.648Z" fill="#FCFCFC"/>
<path d="M220.241 57.1595C220.608 56.844 221.043 57.0017 221.456 57.0017C230.325 57.0017 239.217 57.0017 248.085 57.0017C248.59 57.0017 249.071 56.9567 249.575 56.9567C249.231 57.3172 248.796 57.182 248.383 57.182C238.987 57.182 229.614 57.1595 220.241 57.1595Z" fill="#FCFCFC"/>
<path d="M28.4233 138.967C28.6524 139.125 28.6525 139.283 28.3774 139.305C28.0337 139.35 27.6899 139.328 27.3462 139.328C18.7293 139.328 10.1124 139.328 1.51846 139.328C1.0372 139.328 0.533019 139.395 0.0517578 139.44C0.372599 138.967 0.876777 139.17 1.3122 139.17C9.90616 139.147 18.5231 139.17 27.117 139.147C27.5524 139.147 28.0108 139.305 28.4233 138.967Z" fill="#FCFCFC"/>
<path d="M205.597 245.626C205.986 245.851 206.422 245.761 206.834 245.761C214.764 245.761 222.693 245.761 230.622 245.761C230.989 245.761 231.47 246.009 231.745 245.513C231.883 246.234 231.31 245.941 231.058 245.941C228.858 245.964 226.635 245.964 224.435 245.964C218.568 245.964 212.701 245.964 206.834 245.964C206.399 245.941 205.872 246.166 205.597 245.626Z" fill="#FCFCFC"/>
<path d="M103.087 24.2426C103.133 25.1438 102.469 25.2565 102.125 25.5945C101.139 26.5182 100.108 27.3969 99.054 28.2756C98.9165 28.3882 98.6873 28.636 98.4582 28.4333C98.2978 28.2981 98.3436 28.0277 98.4811 27.9376C100.039 26.7886 101.254 25.2565 103.087 24.2426Z" fill="#668CB5"/>
<path d="M259.063 108.055C259.2 108.168 259.315 108.236 259.406 108.348C260.506 109.588 261.606 110.827 262.684 112.088C262.844 112.269 263.142 112.471 262.775 112.719C262.5 112.9 262.34 112.674 262.225 112.517C261.263 111.277 260.209 110.128 259.109 109.002C258.925 108.822 258.742 108.596 258.811 108.303C258.834 108.213 258.948 108.146 259.063 108.055Z" fill="#658BB5"/>
<path d="M34.3818 77.3917C35.7797 75.9498 37.1776 74.7331 38.6671 73.6291C38.8505 73.494 38.965 73.2912 39.2171 73.539C39.3546 73.6742 39.3546 73.8094 39.2171 73.922C37.7505 75.0711 36.513 76.4905 34.886 77.4593C34.7714 77.4818 34.6339 77.4142 34.3818 77.3917Z" fill="#668CB5"/>
<path d="M35.1158 30.7088C34.3824 30.8891 34.2679 30.4835 34.0387 30.2808C32.8699 29.2444 31.9074 28.0052 30.9219 26.8111C30.7615 26.6083 30.6927 26.4055 30.8761 26.2478C30.9219 26.2028 31.174 26.2704 31.2657 26.3605C32.5261 27.7574 33.7637 29.1768 35.1158 30.7088Z" fill="#648BB4"/>
<path d="M16.7588 103.504C19.2339 103.775 21.732 103.549 24.23 103.64C24.6196 103.662 25.0551 103.482 25.4217 103.797C22.9237 103.797 20.4027 103.797 17.9047 103.797C17.5151 103.797 17.0338 103.978 16.7588 103.504Z" fill="#FCFCFC"/>
<path d="M35.0693 95.4836C32.411 95.461 29.7297 95.461 27.0713 95.4385C27.7359 95.033 28.4692 95.2808 29.1567 95.2583C30.7838 95.2132 32.3881 95.2357 34.0152 95.2583C34.3818 95.2357 34.7943 95.1231 35.0693 95.4836Z" fill="#FCFCFC"/>
<path d="M264.93 245.536C267.519 245.513 270.109 245.491 272.699 245.468C272.516 245.716 272.241 245.716 271.988 245.716C269.857 245.716 267.703 245.716 265.571 245.716C265.342 245.716 265.113 245.716 264.93 245.536Z" fill="#FCFCFC"/>
<path d="M35.2985 101.296C34.8404 100.553 35.1381 99.7193 35.0923 98.9307C35.0236 97.7817 35.0465 96.6101 35.0465 95.461C35.5275 95.9792 35.2527 96.5876 35.2756 97.1733C35.3443 98.5477 35.2985 99.922 35.2985 101.296Z" fill="#FCFCFC"/>
<path d="M278.016 144.577C279.437 144.149 280.903 144.577 282.324 144.352C280.926 144.848 279.459 144.442 278.016 144.577Z" fill="#FCFCFC"/>
<path d="M44.672 95.4385C43.2281 95.461 41.8071 95.4836 40.3633 95.5286C41.0967 94.9428 41.9447 95.3484 42.7468 95.2583C43.3885 95.1907 44.0302 95.2357 44.672 95.2357C44.6949 95.3033 44.6949 95.3709 44.672 95.4385Z" fill="#FCFCFC"/>
<path d="M15.1543 245.536C16.4377 245.513 17.744 245.491 19.0274 245.491C17.744 245.919 16.4606 245.806 15.1543 245.536Z" fill="#FCFCFC"/>
<path d="M139.366 245.513C138.06 245.829 136.754 245.851 135.447 245.513L135.47 245.491C136.754 245.017 138.06 244.995 139.366 245.513Z" fill="#FCFCFC"/>
<path d="M179.012 144.577C179.012 145.276 178.898 145.951 178.531 146.582C178.508 145.861 178.577 145.163 179.012 144.577Z" fill="#FCFCFC"/>
<path d="M208.713 228.142C208.736 228.435 208.736 228.728 208.759 229.021C208.667 229.043 208.576 229.066 208.484 229.066C208.255 228.818 208.118 228.525 208.095 228.165C208.301 227.962 208.507 227.962 208.713 228.142Z" fill="#8D9AB7"/>
<path d="M178.073 120.515C178.829 120.515 179.586 120.515 180.342 120.515C179.586 120.808 178.829 120.808 178.073 120.515Z" fill="#FCFCFC"/>
<path d="M170.968 180.378C171.266 180.806 171.151 181.279 171.151 181.73C170.808 181.324 171.037 180.828 170.968 180.378Z" fill="#FCFCFC"/>
<path d="M172.527 244.364C172.458 244.747 172.412 245.153 172.343 245.536C172.366 245.153 172.206 244.725 172.527 244.364Z" fill="#FCFCFC"/>
<path d="M137.785 89.085C136.02 91.2479 136.089 94.0416 138.105 95.9117C142.185 99.7418 146.539 103.257 151.558 105.893C151.535 106.388 151.512 106.861 151.512 107.357C151.512 134.844 151.512 162.331 151.535 189.796C151.535 190.854 151.375 191.215 150.16 191.215C117.663 191.17 85.1666 191.17 52.6699 191.215C51.524 191.215 51.249 190.967 51.249 189.818C51.2719 140.184 51.2719 90.5494 51.2719 40.9151C51.2719 39.2704 51.0657 39.4732 52.7157 39.4732C85.1666 39.4732 117.64 39.4732 150.091 39.4281C151.329 39.4281 151.535 39.7886 151.535 40.8926C151.489 58.1733 151.512 75.4316 151.512 92.7123C149.22 91.7435 146.929 90.7747 144.637 89.8059C144.247 89.6257 143.835 89.5806 143.422 89.6257C142.345 89.3103 141.703 88.4316 140.856 87.8007C139.091 86.4264 137.395 84.9619 135.676 83.5425C134.462 82.5286 134.439 82.3033 134.943 80.8389C135.378 79.5772 135.241 79.3744 133.934 79.3293C133.407 79.3068 132.812 79.1941 132.353 79.3744C131.207 79.825 130.474 79.2617 129.695 78.6084C128.205 77.3692 126.738 76.1075 125.226 74.9134C124.997 74.7331 124.768 74.5304 124.47 74.3952C123.897 74.1699 123.415 74.2825 123.026 74.7331C122.613 75.2063 122.659 75.7019 123.049 76.1751C123.438 76.6482 123.874 77.0538 124.355 77.4368C125.959 78.721 127.518 80.0278 129.099 81.3345C130.084 82.1681 130.13 82.5512 129.191 83.4298C126.166 86.2687 121.559 87.6655 117.09 85.9307C112.553 84.1733 109.826 80.1855 109.688 75.6343C109.528 70.4073 113.355 64.3692 120.986 64.1439C125.363 64.0087 129.443 66.2392 131.551 70.7678C131.597 70.8804 131.643 70.9706 131.689 71.0832C132.514 73.0884 132.743 73.2011 134.897 73.0659C135.653 73.0208 135.814 72.7279 135.63 72.052C135.08 70.0243 134.232 68.1768 132.949 66.487C127.953 59.9082 117.663 58.5113 111.063 64.572C106.548 68.7175 105.059 73.9671 106.961 79.7799C108.863 85.5928 113.126 89.0399 119.267 89.851C124.218 90.5044 128.526 88.9047 132.009 85.3224C132.491 84.8267 132.995 84.5113 133.591 85.0295C134.851 86.111 136.226 87.0798 137.418 88.2513C137.601 88.5217 137.807 88.747 137.785 89.085Z" fill="#ECE9E9"/>
<path d="M135.47 32.5563C135.447 32.2184 135.424 31.8804 135.424 31.5425C135.424 21.6066 135.424 11.6482 135.401 1.71231C135.401 0.878686 135.562 0.563263 136.501 0.563263C173.65 0.585793 210.799 0.585793 247.948 0.563263C248.842 0.563263 249.094 0.811097 249.094 1.68978C249.071 19.6014 249.071 37.4905 249.094 55.4021C249.094 56.1456 249.025 56.5286 248.086 56.5286C238.735 56.4836 229.385 56.5061 220.035 56.4836C219.049 51.3241 217.17 50.2877 211.693 49.2964C208.645 48.7331 205.597 49.1837 202.595 49.6569C200.097 50.0624 199.111 51.1664 198.653 53.6447C198.722 54.7037 198.997 55.7851 198.08 56.6638C197.599 56.844 197.095 56.799 196.613 56.799C184.398 56.799 172.184 56.799 159.969 56.799C159.74 56.799 159.51 56.7765 159.281 56.799C158.387 56.844 157.975 56.5061 158.021 55.5373C158.135 53.5997 157.929 51.6395 158.135 49.7019C158.594 49.3414 159.144 49.409 159.671 49.409C163.269 49.409 166.844 49.409 170.442 49.409C171.748 49.409 171.817 49.364 171.817 48.0797C171.817 35.0572 171.817 22.0347 171.817 9.01214C171.817 7.75044 171.748 7.70538 170.442 7.70538C162.49 7.70538 154.56 7.70538 146.608 7.70538C145.256 7.70538 145.21 7.75044 145.21 9.12479C145.21 16.3796 145.21 23.6118 145.21 30.8666C145.21 31.4524 145.37 32.0832 144.889 32.5789C141.704 32.5563 138.587 32.5563 135.47 32.5563Z" fill="#FEFEFE"/>
<path d="M158.135 49.2738C157.906 47.7418 158.067 46.2097 158.044 44.7002C158.021 42.4471 158.067 40.2166 158.021 37.9636C157.952 34.6742 155.821 32.6239 152.475 32.6014C150.16 32.6014 147.846 32.6014 145.508 32.5789C145.05 32.331 145.073 31.9029 145.073 31.4974C145.073 23.9272 145.073 16.3345 145.05 8.76429C145.05 7.88561 145.394 7.59271 146.264 7.59271C154.4 7.61524 162.513 7.61524 170.648 7.59271C171.611 7.59271 171.886 7.9532 171.886 8.85441C171.863 21.9896 171.863 35.1023 171.886 48.2374C171.886 49.1161 171.633 49.5217 170.648 49.5217C166.844 49.4766 163.017 49.4991 159.212 49.4991C158.846 49.4991 158.433 49.5442 158.135 49.2738Z" fill="#FEFEFE"/>
<path d="M44.6948 175.218C42.2198 175.241 39.7447 175.263 37.2696 175.286C31.5861 175.286 25.9026 175.263 20.2191 175.309C19.3253 175.309 19.0732 175.083 19.0732 174.182C19.0962 164.584 19.0962 154.964 19.0962 145.366C19.0962 144.712 19.0503 144.239 20.0129 144.239C28.1485 144.284 36.2612 144.262 44.3969 144.262C44.5115 144.262 44.6261 144.307 44.7407 144.307C44.6948 154.626 44.6948 164.922 44.6948 175.218Z" fill="#FEFEFE"/>
<path d="M44.6719 143.676C30.3256 143.676 15.9563 143.676 1.61006 143.699C0.899617 143.699 0.624597 143.541 0.624597 142.775C0.578762 139.823 0.555856 139.823 3.55803 139.823C17.2626 139.823 30.9672 139.846 44.6719 139.846C44.6719 141.13 44.6719 142.392 44.6719 143.676Z" fill="#FEFEFE"/>
<path d="M135.905 198.199C136.89 198.087 137.899 198.109 138.884 198.199C139.182 198.605 139.091 199.056 139.091 199.506C139.091 214.286 139.091 229.066 139.091 243.846C139.091 245.265 139.045 245.288 137.601 245.288C137.372 245.288 137.142 245.265 136.913 245.288C135.974 245.4 135.63 244.995 135.63 244.071C135.653 229.134 135.653 214.218 135.653 199.281C135.676 198.898 135.63 198.515 135.905 198.199Z" fill="#FEFEFE"/>
<path d="M44.6487 139.35C41.8527 138.9 40.8672 137.773 40.8672 134.979C40.8672 130.338 40.8672 125.697 40.8672 121.055C40.8672 119.636 40.8672 119.636 42.3798 119.636C43.1361 119.636 43.8924 119.636 44.6716 119.614C44.6487 126.192 44.6487 132.771 44.6487 139.35Z" fill="#FEFEFE"/>
<path d="M44.6722 119.118C43.6409 119.118 42.6096 119.118 41.5783 119.14C41.0283 119.163 40.845 118.96 40.845 118.419C40.9137 113.733 40.7304 109.047 40.9595 104.361C40.9825 103.752 41.2346 103.594 41.7846 103.617C42.7471 103.64 43.6868 103.617 44.6493 103.617C44.6722 108.776 44.6722 113.936 44.6722 119.118Z" fill="#FEFEFE"/>
<path d="M158.135 49.2738C162.26 49.2513 166.385 49.2063 170.51 49.2513C171.496 49.2513 171.702 48.9584 171.702 48.0572C171.679 35.0347 171.679 22.0121 171.702 8.9896C171.702 8.06586 171.496 7.79549 170.51 7.81802C162.535 7.86308 154.56 7.86308 146.585 7.81802C145.668 7.81802 145.347 7.99827 145.347 8.96707C145.393 16.4697 145.37 23.9723 145.37 31.4749C145.37 31.8579 145.324 32.2184 145.53 32.5789C145.301 32.5789 145.072 32.5789 144.843 32.5563C144.843 24.6482 144.866 16.74 144.866 8.80936C144.866 7.16464 144.659 7.34489 146.424 7.34489C154.628 7.34489 162.833 7.34489 171.037 7.32236C171.908 7.32236 172.206 7.5026 172.206 8.42634C172.183 21.8094 172.183 35.2149 172.206 48.5979C172.206 49.4541 172 49.7695 171.06 49.747C166.752 49.7019 162.443 49.7244 158.135 49.7019C158.112 49.5667 158.112 49.409 158.135 49.2738Z" fill="#5882AF"/>
<path d="M135.906 198.199C135.906 213.362 135.906 228.525 135.929 243.688C135.929 244.116 135.631 244.837 136.226 244.972C137.029 245.13 137.9 245.085 138.702 244.927C139.068 244.86 138.885 244.251 138.885 243.891C138.885 238.934 138.885 233.978 138.885 229.021C138.885 218.747 138.885 208.451 138.885 198.177C139.046 198.177 139.206 198.199 139.366 198.199C139.366 205.792 139.389 213.362 139.389 220.955C139.389 228.683 139.389 236.433 139.389 244.161C139.389 244.612 139.366 245.062 139.343 245.513C138.037 245.513 136.754 245.491 135.447 245.491C135.424 245.31 135.401 245.108 135.401 244.927C135.401 229.359 135.401 213.768 135.401 198.199C135.585 198.199 135.745 198.199 135.906 198.199Z" fill="#5A83AF"/>
<path d="M44.6724 103.121C44.0307 103.121 43.389 103.144 42.7245 103.144C40.9141 103.144 40.8912 103.144 40.8682 101.341C40.8453 99.8094 40.8911 98.2773 40.8453 96.7453C40.8224 96.0919 41.0516 95.8891 41.6932 95.9117C42.6786 95.9567 43.664 95.9342 44.6495 95.9342C44.6724 98.3224 44.6724 100.711 44.6724 103.121Z" fill="#FEFEFE"/>
<path d="M158.112 49.7244C158.112 51.5719 158.181 53.3969 158.112 55.2444C158.066 56.2357 158.319 56.5511 159.396 56.5511C168.471 56.5061 177.546 56.5286 186.621 56.5286C190.471 56.5286 194.321 56.5511 198.172 56.5511C198.447 56.9567 198.126 57.0693 197.851 57.2045C197.301 57.3848 196.705 57.3397 196.155 57.3397C183.825 57.3397 171.496 57.3397 159.144 57.3622C158.8 57.3622 158.456 57.3397 158.112 57.2721C158.089 57.182 158.044 57.1144 158.021 57.0243C157.883 54.5685 157.746 52.1352 158.112 49.7244Z" fill="#5881AE"/>
<path d="M224.779 205.86C221.57 205.837 218.385 205.792 215.176 205.837C214.283 205.86 214.054 205.589 214.008 204.711C213.733 198.312 213.412 191.936 213.091 185.537C212.999 183.735 212.885 181.955 212.793 180.153C212.472 173.168 212.128 166.184 211.808 159.222C212.885 159.447 213.504 160.281 214.237 160.934C215.887 162.421 217.514 163.953 219.233 165.373C220.447 166.364 221.57 166.274 222.625 165.102C224.985 162.466 227.414 159.875 229.866 157.307C230.164 156.991 230.394 156.361 231.035 156.856C231.608 158.411 231.7 160.078 231.929 161.7C232.914 168.662 234.014 175.624 235 182.608C235.091 183.284 235.252 183.938 235.825 184.388C235.825 184.546 235.825 184.636 236.054 184.636C247.054 184.478 258.077 184.614 269.078 184.569C269.536 184.569 269.994 184.501 270.384 184.839C270.384 185.402 269.926 185.357 269.582 185.425C269.101 185.515 268.596 185.47 268.092 185.47C257.986 185.47 247.856 185.47 237.75 185.47C237.567 185.47 237.36 185.47 237.177 185.47C235.527 185.492 235.481 185.537 235.71 187.137C235.871 188.331 236.077 189.503 236.214 190.697C236.329 191.621 236.787 192.026 237.727 191.958C238.117 191.936 238.483 191.958 238.873 191.958C248.842 191.958 258.788 191.958 268.757 191.981C269.399 191.981 270.246 191.643 270.59 192.589C270.063 192.815 269.536 192.657 269.009 192.657C258.559 192.679 248.108 192.657 237.658 192.657C237.292 192.657 236.925 192.725 236.421 192.544C236.925 192.725 237.292 192.657 237.635 192.657C248.086 192.657 258.536 192.657 268.986 192.679C269.376 192.679 269.903 192.387 270.201 192.972C269.651 193.536 268.917 193.355 268.253 193.355C258.536 193.378 248.842 193.355 239.125 193.355C238.781 193.355 238.437 193.355 238.094 193.355C236.787 193.378 236.764 193.423 236.787 194.685C236.787 194.887 236.787 195.09 236.81 195.27C236.971 195.879 236.994 196.51 237.177 197.118C237.223 197.321 237.246 197.523 237.269 197.704C237.589 199.979 237.979 202.232 238.254 204.508C238.415 205.837 238.162 206.13 236.81 206.153C233.212 206.175 229.637 206.175 226.039 206.153C225.604 206.198 225.145 206.153 224.779 205.86Z" fill="#6DB5DE"/>
<path d="M230.783 156.744C228.216 159.515 225.626 162.264 223.059 165.035C221.547 166.679 220.447 166.815 218.774 165.373C216.436 163.345 214.099 161.272 211.784 159.244C209.561 156.969 207.109 154.964 204.748 152.846C201.792 150.165 198.767 147.506 195.834 144.802C194.711 143.789 194.711 142.414 195.719 141.31C200.28 136.376 204.84 131.465 209.424 126.53C209.653 126.283 209.905 126.057 210.157 125.832C211.349 125.179 212.38 125.426 213.365 126.305C215.634 128.355 217.903 130.361 220.195 132.388C219.622 133.965 218.911 135.497 218.476 137.097C217.811 139.575 218.613 141.851 219.736 144.059C220.286 144.555 219.988 145.276 220.218 145.884C220.447 147.281 220.676 148.678 220.928 150.075C221.18 151.494 221.913 152.553 223.426 152.913C223.724 153.026 224.045 153.139 224.366 153.094C225.03 153.094 225.695 153.094 226.337 153.094C226.703 153.161 226.749 152.936 226.818 152.666C226.887 152.418 226.795 152.057 227.23 152.057C227.139 153.071 227.551 153.251 228.468 152.846C230.026 152.125 231.058 150.998 231.241 149.286C231.47 147.146 231.562 144.983 231.699 142.82C232.501 142.752 232.776 143.315 233.028 143.901C233.235 144.149 233.418 144.419 233.739 144.532C235.251 145.186 236.328 146.402 237.199 147.686C237.772 148.543 237.589 149.669 236.833 150.503C236.099 151.314 235.458 152.215 234.655 152.936C234.38 153.184 234.105 153.432 233.853 153.725C232.937 154.828 232.066 155.978 230.783 156.744Z" fill="#202B6D"/>
<path d="M207.224 180.355C207.43 186.596 207.636 192.815 207.843 199.056C207.865 199.506 207.843 199.957 207.843 200.407C207.499 200.768 207.04 200.79 206.582 200.79C204.772 200.79 202.961 200.835 201.151 200.768C200.944 200.768 200.715 200.768 200.509 200.768C199.455 200.7 198.355 201.061 197.369 200.43C195.834 196.555 194.299 192.702 192.786 188.827C191.663 185.965 190.586 183.082 189.509 180.22C195.169 180.22 200.83 180.22 206.468 180.243C206.697 180.243 206.949 180.31 207.224 180.355Z" fill="#6DB5DE"/>
<path d="M216.964 75.9047C217.216 75.7245 217.445 75.8371 217.697 75.9272C217.697 80.6136 217.72 85.2999 217.697 89.9862C217.697 90.7297 217.743 91.2253 218.706 91.338C219.828 91.4732 220.516 92.2392 220.768 93.3207C220.997 94.312 221.02 95.3484 220.768 96.3172C220.47 97.5789 219.439 98.3224 218.11 98.3675C218.064 98.3675 218.041 98.3675 217.995 98.3675C214.351 98.6153 213.366 97.5338 213.549 94.0416C213.641 92.5096 214.397 91.4281 215.955 91.2253C216.803 91.1127 216.803 90.7297 216.803 90.1214C216.78 85.7955 216.803 81.4922 216.803 77.1664C216.803 76.7834 216.758 76.3328 216.964 75.9047Z" fill="#FDFDFE"/>
<path d="M222.029 112.652C222.029 113.666 222.029 114.679 222.029 115.716C221.983 115.716 221.96 115.716 221.914 115.716C221.914 114.702 221.914 113.666 221.914 112.652C221.937 112.629 221.983 112.629 222.029 112.652Z" fill="#81B1D3"/>
<path d="M200.967 200.452C203.259 200.452 205.527 200.43 207.819 200.43C207.911 202.863 208.002 205.296 208.071 207.73C208.232 213.114 208.369 218.499 208.507 223.906C207.819 224.357 207.154 224.29 206.467 223.929C204.496 219.22 202.663 214.466 200.921 209.667C200.417 206.896 200.738 204.08 200.669 201.309C200.669 200.971 200.761 200.678 200.967 200.452Z" fill="#FEFEFE"/>
<path d="M197.323 200.43C198.377 200.43 199.409 200.452 200.463 200.452C200.784 200.7 200.738 201.038 200.738 201.376C200.738 203.404 200.738 205.432 200.738 207.437C200.738 207.752 200.806 208.135 200.417 208.315C199.271 205.747 198.263 203.088 197.323 200.43Z" fill="#FBFBFC"/>
<path d="M208.713 228.142C208.507 228.142 208.301 228.165 208.094 228.165C207.567 226.948 206.994 225.731 206.696 224.425C207.292 223.929 207.911 223.974 208.53 224.402C208.599 225.641 208.644 226.881 208.713 228.142Z" fill="#FBFBFC"/>
<path d="M200.417 208.338C200.44 205.702 200.44 203.088 200.463 200.452C200.623 200.452 200.807 200.452 200.967 200.452C200.944 203.517 200.944 206.581 200.921 209.645C200.761 209.194 200.577 208.766 200.417 208.338Z" fill="#5881AE"/>
<path d="M208.53 224.38C207.912 224.38 207.316 224.402 206.697 224.402C206.628 224.222 206.559 224.064 206.468 223.884C207.155 223.884 207.82 223.884 208.507 223.861C208.53 224.042 208.53 224.222 208.53 224.38Z" fill="#648AB3"/>
<path d="M158.135 57.227C158.387 56.8891 158.754 57.0017 159.097 57.0017C171.954 57.0017 184.833 57.0017 197.69 57.0017C197.805 57.0017 197.919 57.0243 198.034 57.0243C198.378 57.3848 198.309 57.8354 198.263 58.2634C198.171 58.669 198.103 59.0971 198.103 59.5251C198.171 60.539 197.873 61.5303 197.873 62.5442C197.873 66.8475 199.753 69.2357 203.992 70.2946C204.657 70.4524 205.344 70.5425 206.009 70.7227C206.467 70.8579 206.949 71.0381 206.972 71.5563C207.04 72.9983 207.338 74.4628 206.788 75.8596C205.94 75.8822 205.092 75.9047 204.244 75.9272C202.044 75.9272 199.821 75.7019 197.621 76.0624C194.138 76.6482 191.8 78.6083 190.494 81.8302C189.715 83.7678 188.363 85.3675 187.24 87.0798C183.596 92.7124 179.906 98.2773 176.262 103.91C175.781 104.653 175.437 104.653 174.75 104.248C173.1 103.302 171.404 102.468 169.777 101.477C168.791 100.868 168.058 100.688 167.531 101.927C164.712 100.215 161.916 98.4801 159.051 96.8129C158.364 96.4073 158.135 95.9793 158.135 95.2132C158.158 82.5737 158.135 69.9116 158.135 57.227Z" fill="#FEFEFE"/>
<path d="M206.742 75.8596C206.742 74.6205 206.673 73.3813 206.765 72.1647C206.834 71.2184 206.33 71.0381 205.596 70.9255C203.625 70.6101 201.746 70.0919 200.119 68.8752C198.309 67.5234 197.69 65.6083 197.552 63.4905C197.461 62.0936 197.69 60.7418 197.827 59.3674C198.102 59.2322 198.584 59.435 198.675 59.0295C198.79 58.5563 198.171 58.5789 197.988 58.286C197.988 57.8579 197.988 57.4523 197.988 57.0243C198.034 56.8666 198.102 56.6863 198.148 56.5286C198.309 55.5823 198.446 54.6135 198.607 53.6673C198.721 54.3432 199.317 54.1404 199.707 54.1629C202.136 54.3206 204.565 54.4783 207.017 54.5685C207.774 54.591 208.14 54.8614 208.415 55.5598C210.088 59.5927 211.853 63.6257 213.549 67.6586C214.122 69.0329 214.145 70.5199 214.259 71.9619C214.351 73.2686 214.259 74.5754 214.259 75.8822C211.784 75.8822 209.263 75.8596 206.742 75.8596Z" fill="#FD9993"/>
<path d="M234.38 152.913C235.091 152.125 235.778 151.336 236.489 150.57C237.589 149.354 237.566 148.047 236.374 146.92C235.526 146.132 234.655 145.343 233.784 144.555C234.151 144.262 234.586 144.419 234.999 144.419C248.658 144.419 262.339 144.419 275.998 144.374C277.144 144.374 277.35 144.69 277.35 145.749C277.327 172.763 277.327 199.776 277.35 226.813C277.35 228.007 276.983 228.187 275.883 228.187C258.856 228.165 241.828 228.165 224.801 228.165C224.801 226.903 224.801 225.641 224.801 224.38C225.305 223.816 226.015 223.997 226.634 223.997C236.901 223.974 247.168 223.997 257.458 223.997C261.285 223.997 265.089 223.997 268.916 223.997C270.269 223.997 270.314 223.952 270.314 222.577C270.314 213.227 270.314 203.877 270.314 194.527C270.314 193.851 270.246 193.175 270.566 192.544C270.2 192.116 269.719 192.341 269.283 192.341C258.627 192.319 247.993 192.319 237.337 192.341C236.397 192.341 236.007 192.161 235.939 191.17C235.778 189.413 235.457 187.678 235.136 185.965C234.976 185.064 235.503 185.109 236.122 185.109C243.868 185.109 251.614 185.109 259.36 185.109C262.637 185.109 265.914 185.109 269.214 185.109C269.627 185.109 270.062 185.244 270.429 184.952C270.269 184.433 270.314 183.915 270.314 183.397C270.314 174.024 270.314 164.652 270.314 155.279C270.314 154.896 270.314 154.536 270.314 154.153C270.314 153.567 270.085 153.229 269.421 153.274C269.077 153.296 268.733 153.274 268.389 153.274C257.641 153.274 246.87 153.274 236.122 153.274C235.526 153.229 234.884 153.387 234.38 152.913Z" fill="#FEFEFE"/>
<path d="M224.778 205.86C228.812 205.837 232.868 205.815 236.902 205.837C237.772 205.837 238.185 205.815 237.979 204.688C237.52 202.345 237.314 199.957 236.993 197.591C237.337 197.118 237.864 197.208 238.345 197.208C240.247 197.185 242.15 197.185 244.052 197.208C244.716 197.208 245.129 197.073 245.129 196.284C245.129 195.496 244.716 195.361 244.029 195.361C241.966 195.361 239.927 195.383 237.864 195.361C237.383 195.361 236.856 195.451 236.512 194.978C236.214 192.995 236.214 192.995 238.3 192.995C248.406 192.995 258.535 192.995 268.642 192.995C269.146 192.995 269.627 193.062 270.132 193.085C270.521 193.4 270.407 193.851 270.407 194.234C270.407 203.764 270.407 213.295 270.407 222.848C270.407 224.042 270.315 224.109 269.1 224.132C254.708 224.132 240.316 224.132 225.924 224.132C225.535 224.132 225.145 224.177 224.824 223.929C224.801 217.868 224.778 211.875 224.778 205.86Z" fill="#FEFEFE"/>
<path d="M224.801 223.884C239.445 223.884 254.112 223.861 268.756 223.906C269.856 223.906 270.131 223.636 270.131 222.555C270.085 212.731 270.108 202.886 270.108 193.062C269.788 192.544 269.283 192.792 268.871 192.792C258.489 192.77 248.108 192.792 237.703 192.77C237.291 192.77 236.878 192.86 236.214 192.544C247.833 192.544 259.2 192.544 270.567 192.544C270.59 192.927 270.635 193.288 270.635 193.671C270.635 203.471 270.613 213.272 270.658 223.05C270.658 224.154 270.315 224.402 269.238 224.402C254.433 224.38 239.605 224.38 224.801 224.38C224.824 224.222 224.801 224.042 224.801 223.884Z" fill="#5F87B2"/>
<path d="M215.222 66.1941C215.222 63.896 215.222 61.643 215.222 59.4125C217.468 59.6378 219.118 60.922 219.278 62.5217C219.439 64.1664 218.041 65.4731 215.222 66.1941Z" fill="#FC9993"/>
<path d="M137.784 89.085C136.318 87.8233 134.828 86.6066 133.407 85.3224C132.811 84.7817 132.559 85.2323 132.238 85.5702C129.901 88.026 127.036 89.5356 123.644 90.1439C115.555 91.6084 107.35 85.9082 106.113 77.8874C105.15 71.6014 108.061 65.5407 113.492 62.4991C119.13 59.3674 125.799 59.9082 130.817 63.9411C133.636 66.2167 135.309 69.1681 136.065 72.6603C136.203 73.2687 136.043 73.494 135.401 73.3813C135.355 73.3813 135.332 73.3813 135.286 73.3813C133.247 73.5841 132.009 73.1109 131.161 70.8354C129.328 66.0364 123.69 63.4905 118.648 64.6846C113.148 65.9914 109.711 70.5875 109.986 76.2201C110.238 81.2219 114.363 85.5477 119.519 86.2461C123.255 86.7418 126.417 85.6153 129.122 83.0694C129.649 82.5737 129.786 82.2583 129.099 81.7175C127.105 80.1629 125.18 78.4957 123.232 76.8735C122.246 76.0624 122.086 75.1837 122.774 74.4628C123.461 73.6967 124.332 73.7193 125.294 74.5304C127.105 76.0399 128.892 77.5494 130.703 79.0364C130.955 79.2617 131.115 79.487 131.734 79.1941C132.857 78.6759 134.278 79.104 135.561 79.2392C135.813 79.2617 135.745 79.5321 135.699 79.7123C135.653 79.9376 135.561 80.1404 135.493 80.3432C134.759 82.461 134.782 82.4385 136.547 83.903C138.838 85.8181 141.13 87.7331 143.422 89.6482C141.978 90.4368 141.772 91.0902 142.414 92.7349C140.855 91.5182 139.32 90.3016 137.784 89.085Z" fill="black"/>
<path d="M143.72 93.4108C146.837 94.8527 149.976 96.2947 153.093 97.7817C154.17 98.2773 154.468 99.2236 153.918 100.08C153.368 100.936 152.405 101.049 151.466 100.328C150.641 99.6742 149.793 99.0208 149.014 98.2999C148.51 97.8267 148.235 97.8267 147.96 98.4801C147.776 98.8856 147.547 99.2687 147.318 99.6742C147.157 99.922 146.951 100.08 146.653 99.8995C146.424 99.7643 146.424 99.539 146.539 99.3137C146.562 99.2461 146.607 99.1785 146.653 99.111C147.57 97.1508 147.57 97.1508 145.897 95.7089C145.095 95.0104 144.293 94.3345 143.491 93.6586C143.422 93.4333 143.468 93.3207 143.72 93.4108Z" fill="#010101"/>
<path d="M143.721 93.4108C143.629 93.4784 143.56 93.5685 143.468 93.6361C143.17 93.546 142.964 93.3432 142.758 93.0278C143.193 93.0052 143.468 93.1629 143.721 93.4108Z" fill="#36211F"/>
<path d="M15.5894 194.707C15.5894 178.35 15.5894 161.971 15.6123 145.614C15.6123 145.185 15.2686 144.487 15.9331 144.352C16.7352 144.194 17.606 144.172 18.408 144.419C18.4997 144.442 18.5455 144.757 18.5455 144.915C18.5684 145.185 18.5455 145.433 18.5455 145.704C18.5455 178.35 18.5455 211.019 18.5226 243.666C18.5226 244.116 18.8205 244.815 18.2476 244.95C17.4456 245.108 16.5748 245.062 15.7498 244.927C15.4061 244.882 15.5665 244.341 15.5665 244.004C15.5665 241.12 15.5665 238.213 15.5665 235.329C15.5894 221.789 15.5894 208.248 15.5894 194.707Z" fill="#FEFEFE"/>
<path d="M27.4606 123.984C27.4606 120.132 27.4835 116.257 27.4377 112.404C27.4147 111.435 27.7356 111.21 28.6752 111.232C30.3482 111.3 32.0441 111.277 33.717 111.232C34.4275 111.21 34.6108 111.458 34.6108 112.133C34.5879 119.974 34.6108 127.815 34.5879 135.655C34.5879 137.728 33.0295 139.283 31.0357 139.305C29.0419 139.328 27.5064 137.773 27.4835 135.678C27.4377 131.78 27.4606 127.882 27.4606 123.984Z" fill="#FEFEFE"/>
<path d="M33.1211 139.283C35.0232 137.931 35.1149 136.196 35.1149 134.326C35.0691 125.179 35.092 116.009 35.092 106.861C35.092 106.231 34.9545 105.6 35.9629 105.532C36.5129 105.487 36.49 104.856 36.4441 104.406C36.3295 103.459 36.9942 103.549 37.5442 103.64C38.0942 103.707 39.0567 103.166 38.988 104.406C38.9421 105.081 39.1026 105.6 39.9505 105.622C40.5005 105.645 40.363 106.073 40.363 106.388C40.3859 107.47 40.363 108.574 40.363 109.655C40.363 117.834 40.3859 126.012 40.3401 134.191C40.3401 136.083 40.3859 137.863 42.3339 139.26C39.1713 139.283 36.3295 139.283 33.1211 139.283Z" fill="#FEFEFE"/>
<path d="M27.4605 99.4038C27.4605 98.5026 27.5063 97.6014 27.4375 96.7002C27.3917 96.0468 27.6667 95.8666 28.2855 95.8891C30.1189 95.9116 31.9294 95.9116 33.7628 95.8891C34.2212 95.8891 34.5879 95.9116 34.565 96.52C34.5191 98.435 34.4962 100.328 34.4962 102.243C34.4962 102.874 34.2899 103.166 33.5795 103.144C31.8377 103.099 30.0731 103.099 28.3313 103.144C27.6896 103.166 27.4605 102.964 27.4834 102.333C27.5292 101.364 27.5063 100.395 27.5063 99.4264C27.4834 99.4038 27.4834 99.4038 27.4605 99.4038Z" fill="#FEFEFE"/>
<path d="M27.5066 107.154C27.5066 106.321 27.5525 105.51 27.4837 104.676C27.415 103.865 27.667 103.549 28.5379 103.595C30.1651 103.662 31.8152 103.64 33.4424 103.595C34.107 103.572 34.4278 103.685 34.4966 104.496C34.6341 106.321 34.4966 108.168 34.5883 109.993C34.6112 110.601 34.382 110.759 33.7861 110.759C31.9527 110.737 30.1422 110.714 28.3087 110.759C27.5525 110.782 27.4149 110.466 27.4379 109.835C27.4837 108.934 27.4379 108.033 27.4379 107.132C27.4837 107.154 27.4837 107.154 27.5066 107.154Z" fill="#FEFEFE"/>
<path d="M35.0918 104.428C35.1605 104.158 34.9085 103.707 35.4584 103.662C35.9626 103.617 35.9855 104 35.9626 104.361C35.9397 104.676 36.0772 105.104 35.5501 105.149C35.0001 105.194 35.1147 104.766 35.0918 104.428Z" fill="#F7F9FB"/>
<path d="M40.3635 104.428C40.3177 104.698 40.4781 105.104 39.997 105.104C39.4242 105.127 39.4929 104.676 39.4929 104.315C39.47 103.955 39.5158 103.594 39.997 103.64C40.5468 103.707 40.2948 104.158 40.3635 104.428Z" fill="#FDFDFE"/>
<path d="M40.3635 102.513C40.3405 102.806 40.4322 103.144 39.951 103.144C39.5385 103.144 39.4697 102.896 39.4697 102.558C39.4697 102.243 39.5156 101.95 39.9051 101.905C40.3635 101.86 40.3635 102.198 40.3635 102.513Z" fill="#F0F3F7"/>
<path d="M26.0859 104.338C26.1089 104.045 26.0172 103.662 26.4527 103.662C26.9799 103.64 26.8882 104.09 26.8653 104.383C26.8653 104.676 27.0028 105.149 26.4527 105.104C25.9713 105.081 26.1318 104.631 26.0859 104.338Z" fill="#F6F8FA"/>
<path d="M35.4821 101.905C35.9175 101.95 35.9863 102.22 35.9634 102.536C35.9634 102.851 35.9405 103.121 35.505 103.121C35.0466 103.121 35.0695 102.806 35.0695 102.513C35.0924 102.22 35.0695 101.927 35.4821 101.905Z" fill="#EFF3F7"/>
<path d="M26.4984 101.95C26.8652 101.995 26.8652 102.265 26.8652 102.536C26.8652 102.851 26.8652 103.166 26.4067 103.121C26.0169 103.076 26.0857 102.761 26.0857 102.513C26.0857 102.243 26.1316 101.972 26.4984 101.95Z" fill="#FEFEFE"/>
<path d="M233.051 143.924C232.616 143.563 232.157 143.203 231.722 142.842C231.607 141.513 231.882 140.206 231.928 138.877C248.039 138.877 264.15 138.877 280.261 138.9C282.14 138.9 281.865 138.652 281.865 140.522C281.865 141.603 282.346 143.023 281.682 143.676C280.971 144.397 279.504 143.901 278.382 143.901C263.279 143.924 248.177 143.924 233.051 143.924Z" fill="#FEFEFE"/>
<path d="M224.389 153.116C223.931 153.747 223.655 153.499 223.449 152.936C223.541 150.908 223.633 148.903 223.724 146.875C223.747 146.537 223.724 146.199 223.77 145.861C223.793 145.568 223.793 145.208 224.206 145.185C224.733 145.185 224.641 145.614 224.641 145.929C224.572 147.957 224.48 149.962 224.412 151.99C224.366 152.373 224.389 152.733 224.389 153.116Z" fill="#050303"/>
<path d="M220.218 145.906C219.393 145.478 219.92 144.69 219.737 144.082C219.828 142.189 219.897 140.274 219.989 138.381C220.012 138.043 219.874 137.525 220.447 137.548C220.997 137.57 220.882 138.066 220.882 138.426C220.814 140.589 220.722 142.752 220.63 144.915C220.63 145.298 220.539 145.659 220.218 145.906Z" fill="#060404"/>
<path d="M227.253 152.08C227.024 152.373 227.161 152.733 227.116 153.049C227.093 153.274 227.093 153.522 226.795 153.544C226.497 153.567 226.428 153.319 226.359 153.116C226.451 150.841 226.52 148.565 226.634 146.267C226.657 145.906 226.451 145.298 227.07 145.298C227.689 145.298 227.528 145.861 227.505 146.244C227.436 148.205 227.345 150.142 227.253 152.08Z" fill="#070404"/>
<path d="M265.342 236.884C265.342 234.518 265.365 232.153 265.319 229.809C265.296 229.066 265.48 228.751 266.328 228.773C268.001 228.841 269.674 228.818 271.369 228.773C272.149 228.751 272.332 229.043 272.309 229.742C272.286 234.541 272.286 239.34 272.309 244.139C272.309 244.792 272.149 245.063 271.415 245.063C269.674 245.017 267.909 245.017 266.144 245.063C265.48 245.085 265.319 244.815 265.319 244.206C265.365 241.751 265.342 239.317 265.342 236.884Z" fill="#FEFEFE"/>
<path d="M69.0789 67.0954C69.2393 67.2305 69.3081 67.2981 69.3997 67.3882C70.1789 68.1543 71.2102 68.8077 71.6685 69.7314C72.1269 70.6777 71.0727 71.6014 70.8206 72.5702C69.2164 78.6083 72.9061 84.6465 79.1167 86.1335C85.0523 87.5529 91.1942 83.7678 92.5463 77.8648C93.8985 71.8943 90.0254 65.9688 83.9294 64.7071C81.5459 64.2115 79.2084 64.4368 77.0312 65.4957C76.3208 65.8337 75.8624 65.7886 75.4041 65.1803C75.1749 64.8874 74.877 64.6395 74.602 64.3692C73.1353 62.9272 73.1123 62.8596 74.9686 62.0486C80.7897 59.4801 86.3586 59.9758 91.2629 63.9636C96.3506 68.0867 98.0236 73.5841 96.1444 79.7574C94.311 85.7955 89.9337 89.4454 83.5627 90.234C77.3062 91.0226 72.1956 88.6794 68.8039 83.4073C65.4808 78.2253 65.6183 72.8406 68.7351 67.546C68.8497 67.3882 68.9414 67.2756 69.0789 67.0954Z" fill="black"/>
<path d="M124.172 119.952C120.666 118.915 118.374 116.73 117.434 113.35C116.449 109.768 117.343 106.568 120.07 103.977C122.934 101.251 127.243 100.62 130.795 102.31C134.462 104.045 136.593 107.718 136.204 111.66C135.814 115.626 133.087 118.848 129.191 119.929C127.862 120.289 127.908 120.289 127.976 118.938C128.022 118.149 128.114 117.631 129.053 117.315C132.308 116.211 134.072 113.17 133.614 109.768C133.201 106.726 130.589 104.315 127.358 103.977C124.08 103.64 121.032 105.577 119.978 108.641C118.924 111.705 120.116 115.13 123.026 116.707C124.218 117.361 124.562 118.036 124.264 119.231C124.218 119.411 124.218 119.636 124.172 119.952Z" fill="black"/>
<path d="M68.1616 105.645C68.2303 105.69 68.2991 105.712 68.3449 105.757C69.3533 106.614 69.9949 107.335 69.3303 108.979C68.1616 111.863 69.7658 115.288 72.4699 116.797C75.4033 118.419 78.8867 117.946 81.1784 115.581C83.3555 113.328 83.7221 109.835 82.0492 107.154C80.3534 104.451 76.9617 103.144 73.9137 104.27C72.7679 104.698 72.1033 104.496 71.4387 103.64C71.2554 103.414 70.9804 103.279 70.7054 103.076C74.6471 100.237 80.3305 101.094 83.493 104.856C86.7243 108.686 86.3117 114.296 82.5534 117.766C78.9783 121.055 73.1804 121.101 69.6512 117.834C66.0303 114.522 65.3657 108.957 68.1616 105.645Z" fill="black"/>
<path d="M95.1813 118.307C95.4333 118.081 95.6167 117.969 95.7542 117.789C96.4875 116.887 97.198 116.73 98.4126 117.248C102.194 118.848 106.457 116.775 107.694 112.945C108.932 109.137 106.617 105.059 102.675 104.09C98.7563 103.144 94.7458 105.69 94.0354 109.61C93.8291 110.692 93.7833 111.841 94.2646 112.832C94.7229 113.756 94.4021 114.274 93.6916 114.77C93.3937 114.995 93.1187 115.243 92.8208 115.49C90.3457 112.314 91.2165 106.659 94.5854 103.82C98.573 100.44 104.165 100.62 107.832 104.248C111.384 107.763 111.521 113.418 108.198 117.113C104.807 120.785 99.146 121.348 95.1813 118.307Z" fill="black"/>
<path d="M73.273 156.676C76.8023 156.653 79.7357 159.177 80.1941 162.624C80.6295 165.891 78.3836 169.135 75.1522 169.991C71.8063 170.848 68.2083 169.135 66.9937 166.026C66.8332 165.643 66.329 164.99 66.9249 164.787C67.4749 164.607 68.3229 164.359 68.7125 165.373C69.2854 166.882 70.4542 167.806 72.0125 168.234C74.6022 168.932 77.3294 167.491 78.1315 165.012C78.9565 162.534 77.719 159.875 75.2897 158.861C72.8147 157.848 69.9729 158.861 68.827 161.295C68.4833 162.016 68.0708 162.151 67.3603 162.151C66.6728 162.151 66.627 161.903 66.7874 161.34C67.5666 158.681 70.3167 156.698 73.273 156.676Z" fill="black"/>
<path d="M73.2728 144.825C70.454 144.802 67.8644 143.045 66.9248 140.477C66.8102 140.139 66.2831 139.553 66.9477 139.395C67.4748 139.283 68.254 138.967 68.6665 139.913C69.5144 141.941 71.1415 143 73.3874 143C75.8854 143 77.9709 141.175 78.3376 138.697C78.6813 136.421 77.1688 134.056 74.9229 133.312C72.6083 132.546 70.0186 133.582 68.8498 135.7C68.6665 136.038 68.7123 136.601 68.2081 136.669C67.7269 136.737 67.1081 136.804 66.7644 136.579C66.4206 136.354 66.8331 135.813 66.9706 135.452C68.1852 132.388 71.6916 130.676 75.0375 131.487C78.3605 132.298 80.6064 135.52 80.1939 138.877C79.7584 142.302 76.7792 144.848 73.2728 144.825Z" fill="black"/>
<path d="M132.399 158.005C131.712 158.929 131.116 159.312 129.924 158.771C127.93 157.87 125.409 158.794 124.172 160.574C122.82 162.511 122.98 165.102 124.584 166.792C126.12 168.437 128.618 168.865 130.635 167.828C132.697 166.77 133.774 164.517 133.224 162.354C133.041 161.655 132.857 161.114 133.591 160.529C134.301 159.965 134.416 160.281 134.645 160.844C135.814 163.548 135.012 166.747 132.651 168.662C130.314 170.555 126.945 170.735 124.447 169.068C121.88 167.355 120.757 164.224 121.697 161.362C122.637 158.523 125.341 156.631 128.389 156.676C129.924 156.698 131.047 157.081 132.399 158.005Z" fill="black"/>
<path d="M109.642 144.825C105.976 144.825 103.111 142.166 102.767 138.471C102.469 135.182 104.967 132.095 108.497 131.397C111.82 130.744 115.234 132.816 116.22 136.083C116.311 136.421 116.724 137.007 116.174 137.097C115.624 137.187 114.776 137.548 114.455 136.556C113.951 135.002 112.874 133.92 111.315 133.38C108.772 132.501 106.021 133.718 104.967 136.151C103.936 138.562 105.013 141.4 107.419 142.549C109.826 143.699 112.69 142.82 114.065 140.499C114.249 140.184 114.249 139.621 114.845 139.688C115.28 139.733 115.876 139.575 116.128 139.936C116.357 140.251 115.991 140.702 115.807 141.062C114.684 143.383 112.301 144.825 109.642 144.825Z" fill="black"/>
<path d="M85.7859 134.078C86.7714 134.709 86.9318 135.407 86.4505 136.579C85.5796 138.719 86.6109 141.13 88.6047 142.324C90.5298 143.473 93.1195 143.203 94.7466 141.648C96.3279 140.161 96.7404 137.638 95.732 135.745C94.632 133.718 92.2715 132.568 90.0256 133.289C88.7881 133.695 88.4214 132.952 87.8485 132.298C90.1631 130.496 94.2883 131.149 96.4425 133.65C98.8717 136.466 98.5967 140.544 95.8237 143.068C93.2111 145.433 89.0173 145.388 86.4964 142.955C83.9067 140.477 83.5859 136.466 85.7859 134.078Z" fill="black"/>
<path d="M132.421 132.704C131.734 133.672 131.001 133.853 129.832 133.38C127.7 132.523 125.225 133.537 123.988 135.497C122.819 137.367 123.094 139.891 124.675 141.513C126.28 143.158 128.823 143.518 130.863 142.369C132.857 141.243 133.911 138.945 133.155 136.804C132.742 135.61 133.613 135.34 134.14 134.754C135.974 136.939 135.424 140.837 132.994 143.045C130.336 145.501 126.096 145.433 123.484 142.887C120.917 140.409 120.756 136.331 123.117 133.605C125.432 130.946 129.557 130.541 132.421 132.704Z" fill="black"/>
<path d="M87.8251 157.577C91.1481 155.842 94.9524 156.721 96.9462 159.65C98.8942 162.489 98.3213 166.364 95.6629 168.595C93.0044 170.825 88.9939 170.712 86.4959 168.324C83.9292 165.868 83.5854 162.128 85.6938 159.492C86.9314 160.393 86.9313 160.393 86.4501 161.745C85.6709 163.908 86.473 166.296 88.421 167.581C90.3002 168.82 92.8211 168.662 94.5628 167.175C96.2587 165.756 96.7629 163.21 95.7774 161.227C94.7691 159.222 92.3857 157.983 90.1398 158.636C88.9023 158.974 88.421 158.478 87.8251 157.577Z" fill="black"/>
<path d="M109.665 156.676C112.69 156.676 115.303 158.546 116.197 161.385C116.311 161.723 116.815 162.354 116.128 162.466C115.601 162.556 114.753 162.804 114.432 161.835C113.745 159.898 112.347 158.749 110.261 158.478C107.786 158.163 105.403 159.74 104.761 162.083C104.097 164.539 105.357 167.04 107.717 167.986C110.078 168.955 112.782 168.054 114.065 165.868C114.272 165.508 114.295 165.035 114.959 165.012C116.334 164.967 116.472 165.125 115.899 166.319C114.455 169.293 110.926 170.848 107.74 169.879C104.394 168.865 102.401 165.733 102.928 162.286C103.386 159.064 106.274 156.653 109.665 156.676Z" fill="black"/>
<path d="M213.022 47.4939C204.176 47.4939 195.307 47.4714 186.461 47.5165C185.429 47.5165 185.2 47.2236 185.2 46.2548C185.246 36.5442 185.246 26.8111 185.2 17.1005C185.2 16.1993 185.406 15.8839 186.392 15.8839C204.176 15.9064 221.982 15.9064 239.766 15.8839C240.752 15.8839 240.958 16.1768 240.958 17.078C240.935 26.7886 240.912 36.5217 240.958 46.2322C240.958 47.3137 240.591 47.4939 239.606 47.4939C230.714 47.4939 221.868 47.4939 213.022 47.4939Z" fill="#5983AF"/>
<path d="M213.022 11.9411C204.245 11.9411 195.444 11.9411 186.667 11.9411C185.2 11.9411 185.2 11.9411 185.2 10.4541C185.2 9.7331 185.246 9.01213 185.178 8.31369C185.109 7.48007 185.453 7.32236 186.232 7.32236C204.107 7.34489 221.983 7.34489 239.858 7.32236C240.752 7.32236 240.981 7.59272 240.935 8.40381C240.867 9.25997 240.867 10.1386 240.935 10.9948C240.981 11.7608 240.683 11.9636 239.95 11.9411C237.589 11.896 235.206 11.9185 232.845 11.9185C226.222 11.9411 219.622 11.9411 213.022 11.9411Z" fill="#5882AE"/>
<path d="M230.783 156.744C231.769 155.685 232.754 154.603 233.74 153.544C234.267 153.274 234.817 153.251 235.412 153.251C246.436 153.251 257.482 153.251 268.505 153.251C270.315 153.251 270.407 153.341 270.407 155.076C270.407 164.381 270.407 173.686 270.407 182.991C270.407 184.659 270.407 184.659 268.688 184.659C267.474 184.659 266.236 184.659 265.022 184.659C263.624 184.659 263.463 184.523 263.463 183.104C263.44 178.035 263.394 172.965 263.486 167.896C263.532 165.215 262.478 163.255 260.003 162.106C259.155 161.7 258.834 161.114 258.88 160.213C258.903 159.425 258.88 158.636 258.88 157.848C258.88 157.284 258.628 157.059 258.032 157.059C254.915 157.082 255.373 156.811 255.442 159.402C255.488 160.889 255.03 161.813 253.678 162.579C251.89 163.593 251.019 165.283 251.019 167.355C251.042 172.38 251.019 177.404 251.019 182.451C251.019 182.789 251.019 183.127 251.019 183.465C251.019 184.298 250.675 184.704 249.782 184.681C248.521 184.636 247.261 184.681 246 184.659C244.877 184.636 244.694 184.478 244.671 183.307C244.648 180.896 244.671 178.508 244.648 176.097C244.648 174.971 244.625 173.844 244.671 172.718C244.717 171.816 244.419 171.411 243.434 171.433C241.44 171.478 239.469 171.478 237.475 171.433C236.604 171.411 236.352 171.771 236.352 172.582C236.375 176.075 236.375 179.567 236.352 183.059C236.352 183.577 236.558 184.231 235.802 184.456C235.252 184.478 234.954 184.343 234.84 183.667C234.129 178.598 233.35 173.529 232.594 168.459C231.998 164.584 231.402 160.664 230.783 156.744Z" fill="#FEFEFE"/>
<path d="M235.802 184.478C236.145 184.118 235.985 183.69 235.985 183.307C236.008 179.634 236.031 175.962 235.962 172.267C235.939 171.343 236.26 171.14 237.131 171.14C239.377 171.208 241.646 171.208 243.892 171.14C244.785 171.118 245.06 171.366 245.06 172.267C245.015 175.984 245.06 179.702 245.015 183.42C245.015 184.253 245.221 184.546 246.092 184.501C247.26 184.433 248.452 184.433 249.644 184.501C250.492 184.546 250.767 184.321 250.744 183.465C250.675 180.31 250.675 177.156 250.675 174.002C250.675 171.861 250.767 169.721 250.698 167.581C250.606 164.854 251.981 163.03 254.296 161.813C254.915 161.497 255.121 161.182 255.098 160.529C255.052 159.627 255.121 158.726 255.075 157.825C255.029 157.059 255.258 156.766 256.084 156.766C259.223 156.721 259.292 156.699 259.2 159.763C259.177 160.912 259.475 161.497 260.552 162.083C262.615 163.187 263.761 164.945 263.738 167.4C263.692 172.718 263.738 178.057 263.692 183.397C263.692 184.276 263.898 184.569 264.815 184.523C266.19 184.456 267.565 184.456 268.94 184.523C269.834 184.569 270.109 184.298 270.109 183.397C270.063 178.846 270.086 174.317 270.086 169.766C270.086 164.764 270.063 159.785 270.109 154.783C270.109 153.815 269.88 153.522 268.848 153.522C257.138 153.567 245.404 153.544 233.693 153.544C233.9 153.341 234.129 153.116 234.335 152.913C234.839 152.936 235.32 152.981 235.825 152.981C246.94 152.981 258.031 153.004 269.146 152.958C270.269 152.958 270.636 153.184 270.613 154.378C270.567 164.134 270.59 173.889 270.567 183.645C270.567 184.073 270.728 184.546 270.384 184.929C266.075 184.907 261.767 184.907 257.459 184.884C250.354 184.884 243.273 184.884 236.168 184.884C235.802 184.884 235.435 184.884 234.816 184.884C235.366 184.681 235.573 184.591 235.802 184.478Z" fill="#5A83AF"/>
<path d="M236.971 197.095C236.535 196.645 236.879 196.014 236.535 195.541C236.787 195.248 237.131 195.27 237.475 195.27C239.675 195.27 241.875 195.27 244.075 195.27C244.808 195.27 245.221 195.473 245.221 196.284C245.221 197.073 244.854 197.321 244.098 197.321C242.012 197.298 239.927 197.321 237.841 197.321C237.521 197.276 237.223 197.276 236.971 197.095Z" fill="#FEFEFE"/>
<path d="M236.971 197.095C239.331 197.095 241.669 197.073 244.029 197.095C244.625 197.095 245.015 197.095 245.015 196.307C245.015 195.541 244.671 195.473 244.052 195.496C241.554 195.541 239.033 195.541 236.535 195.563C236.535 195.361 236.535 195.18 236.535 194.978C239.171 194.978 241.806 195.045 244.442 194.978C245.61 194.932 245.496 195.563 245.496 196.307C245.496 197.05 245.587 197.659 244.419 197.636C241.944 197.546 239.446 197.614 236.971 197.636C236.971 197.433 236.971 197.253 236.971 197.095Z" fill="#5E86B1"/>
<path d="M217.124 97.5338C214.855 97.5338 214.466 97.1283 214.466 94.8076C214.466 92.5546 214.947 92.104 217.285 92.104C219.439 92.104 219.989 92.7123 219.989 95.0104C220.012 97.0832 219.485 97.5338 217.124 97.5338Z" fill="#6DB5DE"/>
<path d="M183 82.8666C183.183 83.5875 182.748 83.7678 182.427 84.0607C181.35 85.0069 180.25 85.9307 179.15 86.877C179.012 86.9896 178.852 87.1699 178.669 87.0121C178.462 86.8544 178.6 86.6742 178.737 86.539C180.158 85.3224 181.579 84.1057 183 82.8666Z" fill="#648BB4"/>
<path d="M198.011 58.286C198.424 58.1958 198.836 58.1508 199.088 58.6014C199.226 58.8943 199.18 59.1647 198.951 59.4125C198.561 59.7955 198.218 59.5702 197.851 59.3674C197.691 58.9844 197.736 58.6239 198.011 58.286Z" fill="#0F0A09"/>
<path d="M206.811 59.007C206.766 59.4125 206.559 59.6829 206.101 59.7054C205.689 59.7054 205.437 59.4801 205.391 59.1196C205.345 58.6915 205.62 58.3761 206.032 58.331C206.491 58.286 206.743 58.5563 206.811 59.007Z" fill="#0F0909"/>
<path d="M213.091 47.0208C204.383 47.0208 195.697 46.9983 186.988 47.0433C186.049 47.0433 185.751 46.8406 185.774 45.8718C185.82 36.409 185.797 26.9688 185.774 17.5061C185.774 16.6274 186.003 16.3795 186.92 16.3795C204.405 16.4021 221.891 16.4021 239.354 16.3795C240.179 16.3795 240.454 16.5598 240.454 17.4159C240.431 26.9012 240.408 36.409 240.454 45.8943C240.454 46.8856 240.111 47.0433 239.217 47.0208C230.485 46.9983 221.8 47.0208 213.091 47.0208Z" fill="#FEFEFE"/>
<path d="M212.999 11.4454C204.336 11.4454 195.674 11.4229 187.011 11.4679C185.98 11.4679 185.728 11.1975 185.75 10.2287C185.819 7.84054 185.773 7.84054 188.226 7.84054C205.184 7.84054 222.12 7.86307 239.079 7.81801C240.202 7.81801 240.477 8.1109 240.431 9.19235C240.34 11.4679 240.408 11.4679 238.071 11.4679C229.729 11.4454 221.364 11.4454 212.999 11.4454Z" fill="#FEFEFE"/>
<path d="M257.343 169.721C259.016 169.721 260.712 169.744 262.385 169.721C263.027 169.698 263.256 169.901 263.256 170.555C263.233 173.213 263.233 175.894 263.256 178.553C263.256 179.161 263.004 179.319 262.431 179.319C258.948 179.296 255.487 179.296 252.004 179.319C251.431 179.319 251.179 179.161 251.202 178.553C251.225 175.894 251.225 173.213 251.202 170.555C251.202 169.901 251.431 169.721 252.072 169.721C253.837 169.744 255.602 169.721 257.343 169.721Z" fill="#FEFEFE"/>
<path d="M257.253 169.158C255.74 169.158 254.205 169.158 252.692 169.158C251.248 169.158 251.34 169.158 251.226 167.693C250.973 165.035 253.082 162.421 255.946 161.768C258.605 161.159 261.424 162.511 262.753 164.967C263.395 166.161 263.257 167.445 263.257 168.707C263.257 169.293 262.753 169.158 262.409 169.158C260.667 169.158 258.972 169.158 257.253 169.158Z" fill="#FEFEFE"/>
<path d="M240.408 184.478C239.377 184.478 238.346 184.433 237.314 184.501C236.65 184.523 236.466 184.276 236.489 183.667C236.512 181.64 236.512 179.612 236.489 177.584C236.489 177.021 236.65 176.796 237.268 176.796C239.446 176.818 241.623 176.818 243.8 176.796C244.419 176.796 244.579 176.998 244.579 177.584C244.556 179.612 244.556 181.64 244.579 183.667C244.579 184.298 244.419 184.546 243.754 184.501C242.608 184.433 241.508 184.478 240.408 184.478Z" fill="#FEFEFE"/>
<path d="M257.207 184.478C255.488 184.478 253.769 184.456 252.05 184.501C251.386 184.523 251.179 184.298 251.202 183.667C251.248 182.699 251.248 181.707 251.202 180.738C251.156 180.017 251.5 179.86 252.165 179.86C255.557 179.882 258.971 179.882 262.363 179.86C263.073 179.86 263.303 180.108 263.28 180.783C263.234 181.685 263.234 182.586 263.28 183.487C263.325 184.253 263.096 184.546 262.271 184.523C260.575 184.433 258.902 184.478 257.207 184.478Z" fill="#FEFEFE"/>
<path d="M240.522 171.659C241.599 171.659 242.654 171.681 243.731 171.636C244.395 171.614 244.602 171.861 244.556 172.492C244.51 173.506 244.51 174.52 244.556 175.534C244.579 176.097 244.395 176.322 243.777 176.322C241.599 176.3 239.445 176.3 237.268 176.322C236.649 176.322 236.466 176.12 236.489 175.534C236.535 174.295 236.099 172.74 236.695 171.929C237.291 171.118 238.964 171.771 240.179 171.659C240.293 171.659 240.408 171.659 240.522 171.659Z" fill="#FDFEFE"/>
<path d="M258.742 159.402C258.628 159.898 259.063 160.776 258.513 160.979C257.78 161.25 256.886 161.092 256.038 161.069C255.694 161.069 255.671 160.754 255.671 160.484C255.671 159.988 255.648 159.515 255.671 159.019C255.694 157.127 255.419 157.352 257.367 157.352C259.017 157.374 258.719 157.104 258.742 159.402Z" fill="#FAFBFC"/>
</svg>
