<svg width="300" height="300" viewBox="0 0 300 300" fill="none" xmlns="http://www.w3.org/2000/svg">
<path d="M84.888 153.96L86.088 154.092C96.144 155.202 106.068 150.858 111.666 142.542C112.387 141.472 113.029 140.351 113.586 139.188C115.549 134.927 116.43 130.248 116.151 125.565C115.872 120.882 114.44 116.341 111.984 112.344C109.05 107.652 104.652 103.584 103.62 98.172C102.288 91.134 107.088 84.618 111.6 79.11C116.112 73.602 120.9 67.074 119.532 60.036C118.68 55.632 115.458 51.966 111.732 49.404C101.886 42.63 88.362 42.714 77.706 47.862C67.05 53.01 59.106 62.592 53.874 73.188C46.578 88.032 44.274 105.732 49.626 121.53C54.978 137.328 68.508 150.708 84.888 153.96Z" fill="#F5F5F5"/>
<path d="M229.254 43.374C220.098 30.732 206.496 21.6 190.668 22.596L191.55 22.554C189.339 22.3758 187.115 22.664 185.022 23.4L184.866 23.43H184.968C177.866 25.5613 171.875 30.3787 168.27 36.858C165.895 41.4098 164.795 46.5192 165.086 51.6452C165.378 56.7711 167.05 61.7228 169.926 65.976C173.382 70.944 178.506 74.88 180.6 80.556C182.958 86.946 180.954 94.152 182.322 100.824C184.878 113.346 199.68 120.816 212.148 118.008C224.616 115.2 234.12 104.37 238.446 92.34C244.368 75.852 239.508 57.54 229.254 43.374Z" fill="#F5F5F5"/>
<path d="M191.988 176.208C203.629 176.208 213.066 166.771 213.066 155.13C213.066 143.489 203.629 134.052 191.988 134.052C180.347 134.052 170.91 143.489 170.91 155.13C170.91 166.771 180.347 176.208 191.988 176.208Z" fill="#F5F5F5"/>
<path d="M103.818 255.714H67.44V260.712H103.818V255.714Z" fill="#263238"/>
<path d="M103.884 260.772H67.38V255.648H103.884V260.772ZM67.506 260.646H103.758V255.774H67.506V260.646Z" fill="#263238"/>
<path d="M70.812 259.044L76.05 284.88H95.424L100.488 260.712L70.812 259.044Z" fill="#263238"/>
<path d="M70.812 282.438L73.608 286.278H97.158L100.488 282.438H70.812Z" fill="#455A64"/>
<path d="M84.264 259.8C84.192 259.8 84.102 247.83 84.06 233.07C84.018 218.31 84.06 206.34 84.114 206.34C84.168 206.34 84.276 218.304 84.318 233.07C84.36 247.836 84.336 259.8 84.264 259.8Z" fill="#263238"/>
<path d="M92.4 229.848C92.3747 229.945 92.3405 230.039 92.298 230.13L91.974 230.904L91.74 231.462C91.662 231.672 91.584 231.9 91.494 232.14C91.404 232.38 91.314 232.644 91.218 232.92C91.122 233.196 91.044 233.52 90.948 233.808C90.5162 235.269 90.1755 236.756 89.928 238.26C89.6457 240.107 89.4575 241.968 89.364 243.834C89.2302 247.237 89.3264 250.644 89.652 254.034C89.772 255.33 89.886 256.38 89.976 257.106C90.012 257.442 90.042 257.706 90.066 257.94C90.074 258.038 90.074 258.136 90.066 258.234C90.0281 258.142 90.0058 258.045 90 257.946C89.958 257.73 89.916 257.454 89.856 257.118C89.742 256.398 89.592 255.348 89.454 254.052C89.0742 250.666 88.9519 247.256 89.088 243.852C89.1837 241.976 89.384 240.107 89.688 238.254C89.9433 236.741 90.3042 235.247 90.768 233.784C90.87 233.472 90.948 233.184 91.056 232.896C91.164 232.608 91.26 232.362 91.356 232.122C91.452 231.882 91.536 231.654 91.62 231.444C91.704 231.234 91.8 231.06 91.878 230.892C92.028 230.586 92.148 230.334 92.25 230.136C92.2845 230.033 92.3351 229.935 92.4 229.848Z" fill="#263238"/>
<path d="M91.44 220.2C91.4082 220.334 91.3681 220.467 91.32 220.596C91.23 220.872 91.104 221.244 90.942 221.706C90.858 221.952 90.768 222.222 90.666 222.51C90.564 222.798 90.48 223.11 90.372 223.476C90.162 224.172 89.916 224.958 89.694 225.84C89.58 226.284 89.454 226.746 89.328 227.226C89.202 227.706 89.106 228.216 88.986 228.738C88.734 229.782 88.554 230.91 88.314 232.092C87.918 234.492 87.564 237.096 87.318 239.892C87.072 242.688 86.988 245.292 86.952 247.728C86.916 250.164 86.952 252.318 87.078 254.136C87.108 255.048 87.168 255.87 87.216 256.596C87.264 257.322 87.3 257.94 87.348 258.45C87.396 258.96 87.414 259.332 87.438 259.62C87.4486 259.758 87.4486 259.896 87.438 260.034C87.4034 259.9 87.3813 259.764 87.372 259.626C87.336 259.338 87.294 258.948 87.234 258.462C87.174 257.976 87.114 257.328 87.06 256.608C87.006 255.888 86.922 255.06 86.88 254.148C86.76 252.348 86.706 250.146 86.7 247.728C86.694 245.31 86.82 242.652 87.048 239.874C87.276 237.096 87.648 234.474 88.068 232.074C88.308 230.874 88.5 229.758 88.764 228.714C88.888 228.19 89.008 227.686 89.124 227.202C89.256 226.722 89.382 226.26 89.508 225.816C89.736 224.934 89.994 224.148 90.222 223.458C90.336 223.116 90.438 222.792 90.534 222.492C90.63 222.192 90.744 221.94 90.834 221.7C91.014 221.238 91.158 220.872 91.26 220.602C91.3063 220.462 91.3666 220.328 91.44 220.2Z" fill="#263238"/>
<path d="M81.966 261.918C81.96 261.872 81.96 261.826 81.966 261.78C81.966 261.672 81.954 261.534 81.93 261.366C81.93 260.982 81.87 260.454 81.828 259.782C81.738 258.384 81.612 256.398 81.462 253.95C81.144 249.03 80.688 242.232 79.86 234.75C79.44 231.012 78.948 227.46 78.438 224.238C78.168 222.636 77.922 221.106 77.64 219.684C77.358 218.262 77.106 216.936 76.854 215.73C76.602 214.524 76.35 213.438 76.134 212.484C75.918 211.53 75.72 210.684 75.534 210.036C75.348 209.388 75.246 208.866 75.156 208.494C75.114 208.332 75.084 208.2 75.06 208.092C75.036 207.984 75.06 207.954 75.06 207.954C75.0851 207.995 75.1033 208.039 75.114 208.086L75.228 208.482L75.6 210C75.786 210.666 76.002 211.482 76.2 212.436C76.398 213.39 76.704 214.47 76.956 215.676C77.208 216.882 77.508 218.202 77.772 219.63C78.036 221.058 78.318 222.582 78.594 224.19C79.116 227.412 79.614 230.964 80.04 234.708C80.868 242.19 81.294 249 81.564 253.908C81.702 256.374 81.792 258.366 81.846 259.746C81.876 260.418 81.894 260.946 81.906 261.336C81.906 261.504 81.906 261.636 81.906 261.744C81.9301 261.801 81.9501 261.859 81.966 261.918Z" fill="#263238"/>
<path d="M84 212.094C83.838 210.402 82.128 209.094 80.4 209.094C79.5473 209.134 78.7146 209.366 77.9644 209.773C77.2142 210.181 76.5659 210.753 76.068 211.446C75.0874 212.845 74.379 214.417 73.98 216.078C72.7412 220.059 72.3068 224.246 72.702 228.396C73.188 232.524 74.862 236.586 77.826 239.502C78.306 239.976 78.93 240.45 79.59 240.306C79.9486 240.194 80.27 239.986 80.52 239.706C83.4202 237.053 85.7194 233.81 87.2634 230.196C88.8074 226.581 89.5604 222.678 89.472 218.748C89.424 217.176 89.22 215.544 88.35 214.236C87.48 212.928 85.452 211.542 83.976 212.064" fill="#455A64"/>
<path d="M84.114 206.34L62.514 193.578C62.2765 193.474 62.0877 193.283 61.986 193.044C61.902 192.726 62.142 192.444 62.376 192.18C63.8627 190.637 65.6645 189.433 67.6587 188.649C69.6529 187.865 71.7926 187.52 73.932 187.638C76.071 187.791 78.1405 188.462 79.9617 189.594C81.7828 190.727 83.3007 192.285 84.384 194.136C86.472 197.868 86.538 202.8 84.144 206.34" fill="#455A64"/>
<path d="M65.604 189.504L65.886 189.468C66.072 189.468 66.348 189.426 66.702 189.432C67.7071 189.416 68.7116 189.494 69.702 189.666C73.0009 190.225 76.0715 191.714 78.5524 193.959C81.0334 196.204 82.8214 199.111 83.706 202.338C83.9734 203.306 84.1521 204.296 84.24 205.296C84.2504 205.496 84.2504 205.696 84.24 205.896C84.2241 206.065 84.1686 206.227 84.078 206.37C84.1335 206.008 84.1335 205.64 84.078 205.278C83.958 204.289 83.7573 203.312 83.478 202.356C82.5703 199.181 80.7914 196.323 78.3428 194.106C75.8943 191.89 72.8739 190.404 69.624 189.816C68.6339 189.631 67.6308 189.525 66.624 189.498C66 189.516 65.604 189.528 65.604 189.504Z" fill="#263238"/>
<path d="M81.186 197.532C80.8424 197.74 80.476 197.907 80.094 198.03C79.404 198.3 78.444 198.63 77.364 198.99C76.284 199.35 75.3 199.59 74.58 199.782C74.1904 199.904 73.7875 199.979 73.38 200.004C73.7437 199.833 74.1236 199.698 74.514 199.602L77.268 198.744L80.016 197.856C80.3931 197.706 80.7854 197.597 81.186 197.532Z" fill="#263238"/>
<path d="M77.778 188.4C77.973 189.185 78.0598 189.992 78.036 190.8C78.0957 191.602 78.0513 192.409 77.904 193.2C77.7998 192.404 77.7576 191.602 77.778 190.8C77.7139 190.001 77.7139 189.199 77.778 188.4Z" fill="#263238"/>
<path d="M62.298 193.338C62.8038 193.106 63.3301 192.921 63.87 192.786C64.848 192.48 66.216 192.096 67.746 191.73C69.276 191.364 70.662 191.082 71.676 190.902C72.2181 190.778 72.7704 190.704 73.326 190.68C72.7984 190.853 72.259 190.987 71.712 191.082C70.71 191.304 69.312 191.616 67.806 191.982C66.3 192.348 64.914 192.702 63.918 192.96C63.3878 193.125 62.8464 193.251 62.298 193.338Z" fill="#263238"/>
<path d="M75 208.416C73.14 207.006 71.178 206.73 68.844 206.82C66.5073 206.975 64.2201 207.565 62.1 208.56C58.452 210.156 55.026 212.514 52.848 215.844C50.67 219.174 49.908 223.59 51.54 227.244C51.6668 227.623 51.9298 227.942 52.278 228.138C52.6765 228.247 53.1002 228.215 53.478 228.048C57.624 226.692 61.8 225.33 65.616 223.206C69.432 221.082 72.9 218.142 74.946 214.29C75.4748 213.383 75.8099 212.375 75.93 211.332C75.9859 210.81 75.9298 210.282 75.7653 209.783C75.6007 209.284 75.3317 208.826 74.976 208.44" fill="#455A64"/>
<path d="M75.03 207.978C74.9331 208.025 74.8328 208.065 74.73 208.098L73.86 208.398L73.26 208.608L72.528 208.896C72 209.106 71.394 209.322 70.728 209.628L69.708 210.096C69.354 210.258 69.006 210.456 68.628 210.648C67.878 211.014 67.116 211.488 66.306 211.968C62.8274 214.124 59.7329 216.845 57.15 220.02C56.55 220.758 56.01 221.454 55.548 222.156C55.308 222.498 55.068 222.822 54.858 223.152C54.648 223.482 54.462 223.8 54.258 224.1C53.868 224.7 53.58 225.3 53.304 225.768C53.166 226.02 53.034 226.248 52.926 226.464L52.638 227.064C52.47 227.406 52.338 227.664 52.23 227.886C52.1882 227.985 52.1359 228.08 52.074 228.168C52.0976 228.064 52.1339 227.963 52.182 227.868L52.548 227.022C52.628 226.834 52.718 226.634 52.818 226.422C52.92 226.206 53.046 225.972 53.178 225.72C53.442 225.216 53.718 224.634 54.102 224.028L54.702 223.062C54.906 222.726 55.146 222.402 55.38 222.048C55.842 221.34 56.4 220.638 56.976 219.882C58.2665 218.282 59.6787 216.783 61.2 215.4C62.7547 214.057 64.4117 212.837 66.156 211.752C66.978 211.278 67.746 210.81 68.508 210.444C68.886 210.258 69.24 210.06 69.6 209.904L70.626 209.448C71.28 209.148 71.898 208.95 72.426 208.746C72.696 208.65 72.942 208.554 73.17 208.482L73.812 208.29L74.694 208.038C74.8039 208.008 74.9164 207.988 75.03 207.978Z" fill="#263238"/>
<path d="M60.492 215.85C59.0111 216.417 57.501 216.903 55.968 217.308C54.4589 217.791 52.9246 218.192 51.372 218.508C52.8533 217.943 54.3634 217.456 55.896 217.05C57.4041 216.564 58.9386 216.163 60.492 215.85Z" fill="#263238"/>
<path d="M60.306 225.834C60.2329 225.368 60.2008 224.896 60.21 224.424C60.21 223.554 60.21 222.348 60.21 221.016C60.21 219.684 60.324 218.484 60.396 217.614C60.409 217.142 60.4673 216.671 60.57 216.21C60.6102 216.681 60.6102 217.155 60.57 217.626C60.57 218.58 60.504 219.738 60.468 221.022C60.432 222.306 60.402 223.47 60.378 224.424C60.4019 224.895 60.3778 225.368 60.306 225.834Z" fill="#263238"/>
<path d="M68.862 221.472C68.79 221.472 68.562 219.03 68.352 216.006C68.142 212.982 68.034 210.528 68.106 210.522C68.178 210.516 68.406 212.964 68.61 215.988C68.814 219.012 68.934 221.472 68.862 221.472Z" fill="#263238"/>
<path d="M58.2 210.282C58.6818 210.225 59.1677 210.211 59.652 210.24C60.546 210.24 61.782 210.27 63.144 210.318C64.506 210.366 65.742 210.42 66.636 210.468C67.1214 210.471 67.6055 210.52 68.082 210.612C67.6002 210.669 67.1143 210.683 66.63 210.654C65.736 210.654 64.5 210.618 63.138 210.576C61.776 210.534 60.54 210.474 59.646 210.42C59.1607 210.42 58.6765 210.374 58.2 210.282Z" fill="#263238"/>
<path d="M78.75 240.072C78.7217 239.979 78.7096 239.881 78.714 239.784C78.714 239.568 78.702 239.292 78.678 238.956C78.678 238.23 78.636 237.186 78.678 235.89C78.72 234.594 78.792 233.058 78.942 231.354C79.092 229.65 79.356 227.784 79.704 225.84C80.052 223.896 80.496 222.06 80.934 220.404C81.372 218.748 81.852 217.278 82.284 216.054C82.716 214.83 83.094 213.852 83.376 213.186C83.514 212.874 83.622 212.616 83.706 212.418C83.7421 212.326 83.7863 212.238 83.838 212.154C83.8221 212.251 83.7939 212.346 83.754 212.436C83.682 212.64 83.586 212.898 83.472 213.222C83.214 213.894 82.872 214.884 82.458 216.114C82.044 217.344 81.606 218.814 81.168 220.464C80.73 222.114 80.316 223.944 79.968 225.864C79.62 227.784 79.368 229.662 79.188 231.36C79.008 233.058 78.912 234.588 78.864 235.878C78.816 237.168 78.798 238.212 78.798 238.932C78.798 239.274 78.798 239.532 78.798 239.766C78.7911 239.869 78.775 239.972 78.75 240.072Z" fill="#263238"/>
<path d="M79.89 225.912C79.6358 226.257 79.3462 226.575 79.026 226.86C78.468 227.418 77.67 228.168 76.764 228.96C75.858 229.752 75.012 230.448 74.364 230.928C74.0423 231.21 73.6902 231.456 73.314 231.66C73.5973 231.341 73.9108 231.049 74.25 230.79L76.578 228.768L78.882 226.728C79.1904 226.424 79.528 226.15 79.89 225.912Z" fill="#263238"/>
<path d="M86.736 231.426C86.3916 231.031 86.0843 230.605 85.818 230.154L83.676 227.034L81.498 223.95C81.1716 223.538 80.8786 223.101 80.622 222.642C80.9969 223.011 81.3383 223.413 81.642 223.842C82.242 224.604 83.046 225.678 83.892 226.896C84.738 228.114 85.464 229.236 85.968 230.064C86.2644 230.494 86.5215 230.95 86.736 231.426Z" fill="#263238"/>
<path d="M83.148 214.086C83.184 214.146 80.91 215.676 78.066 217.506C75.222 219.336 72.888 220.764 72.852 220.704C72.816 220.644 75.084 219.114 77.928 217.284C80.772 215.454 83.106 214.026 83.148 214.086Z" fill="#263238"/>
<path d="M89.562 221.004C88.3545 220.012 87.2046 218.953 86.118 217.83C84.974 216.766 83.8865 215.642 82.86 214.464C84.0666 215.459 85.2164 216.52 86.304 217.644C87.4487 218.706 88.5363 219.827 89.562 221.004Z" fill="#263238"/>
<path d="M91.2 220.866L93.156 220.704C94.5414 220.594 95.8863 220.185 97.098 219.504C97.6901 219.158 98.3033 218.849 98.934 218.58C101.334 217.614 104.04 217.788 106.638 217.656C110.892 217.442 115.06 216.377 118.896 214.524C119.12 214.421 119.306 214.251 119.43 214.038C119.832 213.306 119.088 212.658 118.446 212.238C115.158 210.21 111.81 208.158 108.078 207.15C104.346 206.142 100.116 206.316 96.93 208.506C93.198 211.08 91.836 216.36 91.2 220.848" fill="#455A64"/>
<path d="M119.442 213.792C119.328 213.749 119.217 213.697 119.112 213.636L118.188 213.15C117.384 212.73 116.226 212.106 114.768 211.41C113.069 210.572 111.298 209.889 109.476 209.37C107.245 208.724 104.907 208.53 102.6 208.8C100.296 209.058 98.1206 209.994 96.348 211.488C94.9616 212.774 93.8529 214.33 93.09 216.06C92.406 217.518 91.986 218.766 91.674 219.618L91.326 220.602C91.2922 220.718 91.248 220.83 91.194 220.938C91.2076 220.817 91.2358 220.698 91.278 220.584C91.356 220.332 91.458 219.984 91.578 219.582C91.9579 218.357 92.4086 217.155 92.928 215.982C93.6771 214.214 94.7867 212.622 96.186 211.308C98.0008 209.77 100.235 208.81 102.6 208.554C104.935 208.284 107.3 208.488 109.554 209.154C111.384 209.693 113.162 210.398 114.864 211.26C116.316 211.986 117.462 212.634 118.248 213.06L119.148 213.588C119.252 213.646 119.351 213.715 119.442 213.792Z" fill="#263238"/>
<path d="M114.756 216.312C114.714 216.372 112.164 214.716 109.05 212.622C105.936 210.528 103.452 208.776 103.494 208.716C103.536 208.656 106.086 210.312 109.2 212.406C112.314 214.5 114.792 216.252 114.756 216.312Z" fill="#263238"/>
<path d="M112.032 208.584C111.432 208.786 110.805 208.899 110.172 208.92C109.542 209.007 108.903 208.997 108.276 208.89C108.894 208.781 109.52 208.719 110.148 208.704C110.772 208.617 111.402 208.577 112.032 208.584Z" fill="#263238"/>
<path d="M100.854 207.126C100.645 207.604 100.361 208.045 100.014 208.434C99.7218 208.883 99.3661 209.287 98.958 209.634C99.1632 209.156 99.4449 208.714 99.792 208.326C100.087 207.878 100.445 207.474 100.854 207.126Z" fill="#263238"/>
<path d="M103.14 217.8C102.707 217.623 102.295 217.4 101.91 217.134C101.178 216.69 100.176 216.03 99.114 215.262C98.052 214.494 97.11 213.756 96.432 213.222C96.0521 212.952 95.6986 212.646 95.376 212.31C95.7891 212.527 96.1809 212.782 96.546 213.072L99.264 215.052C100.326 215.82 101.304 216.498 102.012 216.984C102.41 217.225 102.787 217.498 103.14 217.8Z" fill="#263238"/>
<path d="M94.05 229.164C92.184 228.672 89.964 230.478 89.58 232.368C89.196 234.258 89.904 236.184 90.732 237.924C92.5072 241.82 95.141 245.264 98.436 247.998C101.758 250.73 105.907 252.259 110.208 252.336C109.422 248.676 110.418 244.86 109.98 241.146C109.593 237.873 108.107 234.827 105.765 232.508C103.423 230.189 100.363 228.733 97.086 228.378C95.886 228.252 94.524 228.066 94.05 229.164Z" fill="#455A64"/>
<path d="M110.208 252.336C110.116 252.304 110.027 252.262 109.944 252.21C109.698 252.076 109.465 251.919 109.248 251.742C108.465 251.063 107.837 250.224 107.406 249.282C107.112 248.682 106.806 248.082 106.458 247.386C106.11 246.69 105.804 245.952 105.456 245.172C105.091 244.36 104.679 243.571 104.22 242.808C103.716 241.998 103.15 241.227 102.528 240.504C101.256 239.004 99.888 237.708 98.7 236.472C97.6249 235.394 96.6489 234.221 95.784 232.968C95.1996 232.121 94.7201 231.206 94.356 230.244C94.2587 229.982 94.1746 229.716 94.104 229.446C94.0703 229.356 94.052 229.26 94.05 229.164C94.05 229.164 94.176 229.542 94.446 230.208C94.8447 231.145 95.3436 232.036 95.934 232.866C96.8167 234.092 97.8001 235.242 98.874 236.304C100.074 237.504 101.436 238.824 102.726 240.336C103.357 241.071 103.931 241.853 104.442 242.676C104.9 243.45 105.311 244.252 105.672 245.076L106.65 247.296C106.962 247.986 107.286 248.622 107.574 249.198C107.977 250.131 108.57 250.971 109.314 251.664C109.854 252.132 110.226 252.306 110.208 252.336Z" fill="#263238"/>
<path d="M100.578 249.294C100.59 248.871 100.648 248.45 100.752 248.04C100.896 247.272 101.136 246.24 101.46 245.076C101.784 243.912 102.126 242.904 102.402 242.178C102.528 241.774 102.699 241.386 102.912 241.02C102.836 241.429 102.724 241.831 102.576 242.22C102.348 242.964 102.03 243.99 101.706 245.136C101.382 246.282 101.106 247.314 100.932 248.07C100.854 248.488 100.735 248.898 100.578 249.294Z" fill="#263238"/>
<path d="M109.854 240.318C109.41 240.258 108.972 240.157 108.546 240.018C107.742 239.808 106.632 239.52 105.402 239.244C104.172 238.968 103.044 238.752 102.228 238.596C101.783 238.537 101.343 238.44 100.914 238.308C101.365 238.295 101.815 238.331 102.258 238.416C103.086 238.524 104.22 238.71 105.456 239.016C106.692 239.322 107.802 239.616 108.594 239.868C109.029 239.973 109.451 240.124 109.854 240.318Z" fill="#263238"/>
<path d="M93.672 242.928C93.6894 242.439 93.7558 241.952 93.87 241.476C94.032 240.588 94.296 239.364 94.644 238.032C94.992 236.7 95.364 235.5 95.652 234.648C95.7893 234.177 95.968 233.719 96.186 233.28C96.1091 233.763 95.9906 234.239 95.832 234.702C95.58 235.566 95.232 236.766 94.896 238.098C94.56 239.43 94.26 240.636 94.05 241.518C93.9612 241.997 93.8348 242.469 93.672 242.928Z" fill="#263238"/>
<path d="M105.6 232.5C105.6 232.572 103.272 232.38 100.41 232.08C97.548 231.78 95.238 231.48 95.244 231.402C96.982 231.453 98.7163 231.594 100.44 231.822C102.17 231.96 103.893 232.186 105.6 232.5Z" fill="#263238"/>
<path d="M103.878 260.688C103.878 260.76 95.712 260.82 85.632 260.82C75.552 260.82 67.38 260.76 67.38 260.688C67.38 260.616 75.552 260.562 85.632 260.562C95.712 260.562 103.878 260.616 103.878 260.688Z" fill="#455A64"/>
<path d="M98.196 271.2C98.196 271.272 92.688 271.326 85.902 271.326C79.116 271.326 73.602 271.272 73.602 271.2C73.602 271.128 79.11 271.068 85.902 271.068C92.694 271.068 98.196 271.134 98.196 271.2Z" fill="#455A64"/>
<path d="M97.98 272.706C97.98 272.778 92.58 272.838 85.902 272.838C79.224 272.838 73.818 272.778 73.818 272.706C73.818 272.634 79.218 272.58 85.902 272.58C92.586 272.58 97.98 272.634 97.98 272.706Z" fill="#455A64"/>
<path d="M98.4 269.964C98.4 270.036 92.706 270.096 85.68 270.096C78.654 270.096 72.96 270.036 72.96 269.964C72.96 269.892 78.654 269.838 85.68 269.838C92.706 269.838 98.4 269.892 98.4 269.964Z" fill="#455A64"/>
<path d="M189.798 64.128L194.328 56.148C191.528 51.6027 190.53 46.1746 191.529 40.9306C192.529 35.6867 195.453 31.0061 199.728 27.8089C204.003 24.6117 209.32 23.1292 214.632 23.6526C219.945 24.1761 224.87 26.6676 228.438 30.6377C232.007 34.6077 233.962 39.769 233.919 45.1072C233.875 50.4453 231.837 55.5742 228.204 59.4858C224.571 63.3973 219.607 65.8086 214.286 66.2458C208.966 66.6829 203.675 65.1142 199.452 61.848L189.798 64.128Z" fill="white"/>
<path d="M189.798 64.128L199.44 61.8L199.404 61.908C199.397 61.9013 199.392 61.8934 199.388 61.8846C199.385 61.8759 199.383 61.8665 199.383 61.857C199.383 61.8475 199.385 61.8381 199.388 61.8294C199.392 61.8206 199.397 61.8127 199.404 61.806C199.416 61.7972 199.431 61.7925 199.446 61.7925C199.461 61.7925 199.476 61.7972 199.488 61.806C200.84 62.8424 202.308 63.7182 203.862 64.416C205.716 65.2296 207.675 65.7789 209.682 66.048C210.791 66.1975 211.912 66.2497 213.03 66.204C213.63 66.168 214.194 66.156 214.782 66.102L216.582 65.826C221.903 64.774 226.623 61.7337 229.782 57.324C231.536 54.8889 232.75 52.1066 233.34 49.164C233.946 46.0572 233.858 42.8548 233.082 39.786C232.287 36.5761 230.738 33.6019 228.564 31.11L227.7 30.162C227.418 29.844 227.1 29.562 226.77 29.292C226.468 28.9966 226.149 28.7182 225.816 28.458L224.808 27.702C224.468 27.4416 224.109 27.2069 223.734 27L222.666 26.352L221.544 25.8C221.178 25.6099 220.802 25.4416 220.416 25.296C217.413 24.1092 214.181 23.611 210.96 23.838C207.911 24.0425 204.944 24.9173 202.272 26.4C197.468 29.0689 193.869 33.4771 192.216 38.718C191.556 40.9512 191.239 43.2716 191.274 45.6C191.378 49.3173 192.455 52.9422 194.4 56.112C194.406 56.1231 194.409 56.1355 194.409 56.148C194.409 56.1605 194.406 56.1729 194.4 56.184C191.478 61.248 190.05 63.714 189.81 64.128L194.28 56.112V56.184C192.299 53 191.196 49.3484 191.082 45.6C191.032 43.2468 191.342 40.8998 192 38.64C193.655 33.3336 197.285 28.8657 202.14 26.16C204.846 24.6585 207.849 23.7715 210.936 23.562C214.206 23.3194 217.488 23.8221 220.536 25.032C220.929 25.1759 221.312 25.3463 221.682 25.542L222.816 26.094L223.902 26.748C224.269 26.9617 224.624 27.1961 224.964 27.45L225.972 28.2C226.308 28.4657 226.63 28.748 226.938 29.046C227.25 29.34 227.592 29.61 227.88 29.928L228.75 30.894C230.955 33.4151 232.524 36.4268 233.328 39.678C234.117 42.7941 234.203 46.0466 233.58 49.2C232.981 52.1769 231.754 54.9916 229.98 57.456C226.772 61.9104 221.987 64.9761 216.6 66.03L214.8 66.3C214.2 66.348 213.6 66.366 213.03 66.396C211.899 66.4408 210.767 66.3846 209.646 66.228C207.625 65.9494 205.653 65.3858 203.79 64.554C202.228 63.8427 200.755 62.9528 199.398 61.902L199.494 61.806C199.501 61.8127 199.506 61.8206 199.51 61.8294C199.513 61.8381 199.515 61.8475 199.515 61.857C199.515 61.8665 199.513 61.8759 199.51 61.8846C199.506 61.8934 199.501 61.9013 199.494 61.908L189.798 64.128Z" fill="#263238"/>
<path d="M208.86 42.366H210.252L213.288 38.166V35.364C213.288 35.364 215.436 35.226 215.184 38.862C214.932 42.498 215.184 41.568 215.184 41.568C215.184 41.568 219.744 41.568 220.122 41.982C220.398 42.27 220.524 46.782 220.572 49.26C220.602 49.8531 220.433 50.4391 220.091 50.925C219.75 51.4109 219.256 51.7689 218.688 51.942C218.527 51.9846 218.362 52.0067 218.196 52.008C217.056 52.008 211.242 51.084 211.242 51.084H208.842L208.86 42.366Z" fill="#65ADC3"/>
<path d="M204.882 41.604L205.74 51.108H208.116V41.796L204.882 41.604Z" fill="#65ADC3"/>
<path d="M138.534 62.016C135.189 64.1493 131.294 65.2606 127.326 65.214C126.071 65.137 124.814 65.123 123.558 65.172C122.293 65.2241 121.082 65.6948 120.114 66.51C119.638 66.9254 119.299 67.4746 119.141 68.0859C118.982 68.6971 119.012 69.3419 119.226 69.936C119.934 71.556 122.226 72.198 122.574 73.932C122.826 75.18 121.896 76.368 120.846 77.094C119.796 77.82 118.572 78.294 117.69 79.218C117.158 79.7711 116.782 80.4555 116.6 81.2015C116.419 81.9474 116.439 82.7281 116.658 83.4638C116.877 84.1996 117.287 84.864 117.847 85.3894C118.407 85.9147 119.096 86.2821 119.844 86.454C120.738 86.664 121.836 86.67 122.322 87.45C122.58 88.0424 122.626 88.7054 122.454 89.328C122.218 90.6652 122.396 92.0426 122.964 93.276C123.256 93.8867 123.712 94.4046 124.281 94.7721C124.85 95.1396 125.509 95.3424 126.186 95.358C126.714 95.358 127.23 95.178 127.758 95.19C128.021 95.1737 128.283 95.2379 128.51 95.374C128.736 95.5101 128.915 95.7116 129.024 95.952C129.08 96.3116 129.064 96.6787 128.976 97.032C128.784 98.802 130.548 100.188 132.258 100.692C135.672 101.712 139.458 100.728 142.362 98.628C145.266 96.528 147.252 93.42 148.602 90.12C149.952 86.82 150.678 83.316 151.398 79.824" fill="#263238"/>
<path d="M176.67 150.27C176.287 149.325 175.713 148.469 174.984 147.756C170.466 142.956 163.62 140.646 157.038 141.024C150.456 141.402 144.15 144.264 139.038 148.41C136.308 150.624 132.624 154.89 131.664 158.274C135.672 159.24 141.66 157.896 145.464 156.246C149.268 154.596 152.988 152.604 157.086 152.184C161.838 151.698 166.506 153.384 171.186 154.338C172.122 154.566 173.088 154.643 174.048 154.566C174.528 154.523 174.993 154.379 175.413 154.143C175.833 153.907 176.198 153.585 176.484 153.198C176.736 152.756 176.883 152.263 176.915 151.756C176.948 151.248 176.864 150.74 176.67 150.27Z" fill="#65ADC3"/>
<g opacity="0.3">
<path d="M176.67 150.27C176.287 149.325 175.713 148.469 174.984 147.756C170.466 142.956 163.62 140.646 157.038 141.024C150.456 141.402 144.15 144.264 139.038 148.41C136.308 150.624 132.624 154.89 131.664 158.274C135.672 159.24 141.66 157.896 145.464 156.246C149.268 154.596 152.988 152.604 157.086 152.184C161.838 151.698 166.506 153.384 171.186 154.338C172.122 154.566 173.088 154.643 174.048 154.566C174.528 154.523 174.993 154.379 175.413 154.143C175.833 153.907 176.198 153.585 176.484 153.198C176.736 152.756 176.883 152.263 176.915 151.756C176.948 151.248 176.864 150.74 176.67 150.27Z" fill="black"/>
</g>
<path d="M173.4 207.51L184.842 200.1C184.842 200.1 196.242 209.238 198.468 208.074L184.884 185.4L166.578 196.2L173.4 207.51Z" fill="#65ADC3"/>
<path d="M179.652 193.668C179.587 193.41 179.619 193.136 179.743 192.9C179.867 192.664 180.074 192.483 180.324 192.39C180.58 192.315 180.855 192.342 181.092 192.465C181.329 192.588 181.509 192.798 181.596 193.05C181.663 193.323 181.627 193.612 181.494 193.86C181.361 194.108 181.141 194.298 180.876 194.394C180.601 194.444 180.318 194.386 180.085 194.231C179.852 194.077 179.689 193.839 179.628 193.566" fill="#E0E0E0"/>
<g opacity="0.6">
<path d="M184.884 185.4L183.084 186.564L196.8 207.864C196.8 207.864 197.844 208.614 198.486 208.074L184.884 185.4Z" fill="white"/>
</g>
<path d="M184.938 200.532C185.046 200.466 184.764 199.878 184.794 199.122C184.824 198.366 185.118 197.796 185.016 197.718C184.914 197.64 184.368 198.192 184.35 199.11C184.332 200.028 184.854 200.622 184.938 200.532Z" fill="#263238"/>
<path d="M187.35 202.326C187.47 202.29 187.35 201.726 187.614 201.036C187.878 200.346 188.292 199.974 188.214 199.866C188.136 199.758 187.476 200.064 187.188 200.886C186.9 201.708 187.242 202.386 187.35 202.326Z" fill="#263238"/>
<path d="M191.01 201.972C190.968 201.858 190.326 202.038 189.888 202.686C189.45 203.334 189.522 203.994 189.642 203.988C189.762 203.982 189.894 203.466 190.242 202.938C190.59 202.41 191.064 202.092 191.01 201.972Z" fill="#263238"/>
<path d="M182.142 201.936C182.22 201.828 181.758 201.408 181.428 200.736C181.098 200.064 181.002 199.476 180.87 199.476C180.738 199.476 180.63 200.178 181.032 200.946C181.434 201.714 182.088 202.044 182.142 201.936Z" fill="#263238"/>
<path opacity="0.3" d="M175.206 191.094L180.408 202.962L178.662 204.198L172.662 192.624L175.206 191.094Z" fill="black"/>
<path d="M168.39 144.528C167.922 144.528 152.532 144.186 144.222 149.676L137.622 153.384L137.796 160.044C137.796 160.044 136.386 162.396 136.698 163.806C137.01 165.216 136.656 171.174 136.656 171.174C136.656 171.174 134.19 171.33 133.878 175.566C133.878 175.566 130.458 176.976 128.958 179.484C127.458 181.992 112.086 210.21 111.15 214.758C110.214 219.306 109.578 227.298 113.028 229.962C116.478 232.626 124.2 231.684 124.2 231.684C124.2 231.684 125.298 234.978 132.042 235.134C138.786 235.29 149.124 227.454 149.124 227.454L180.168 206.292L172.8 190.566L161.958 197.196L173.556 183.714C173.556 183.714 178.89 174.624 177.318 165.06C176.16 157.962 168.39 144.528 168.39 144.528Z" fill="#263238"/>
<path d="M171.048 149.4H170.682H169.638C168.726 149.4 167.418 149.4 165.798 149.4C164.178 149.4 162.246 149.478 160.122 149.706C157.817 149.926 155.543 150.401 153.342 151.122C148.656 152.706 144.888 155.22 142.206 157.014L139.05 159.198L138.192 159.798C138.097 159.874 137.992 159.937 137.88 159.984C137.88 159.984 137.964 159.894 138.15 159.744L138.978 159.108C139.704 158.556 140.778 157.77 142.08 156.834C144.738 154.992 148.506 152.43 153.24 150.834C155.463 150.105 157.762 149.632 160.092 149.424C161.989 149.248 163.893 149.17 165.798 149.19C167.418 149.19 168.732 149.25 169.638 149.298L170.682 149.358C170.805 149.356 170.928 149.37 171.048 149.4Z" fill="#455A64"/>
<path d="M139.374 154.296C139.128 154.543 138.96 154.855 138.888 155.196C138.857 155.371 138.871 155.551 138.927 155.72C138.984 155.889 139.082 156.041 139.212 156.162C139.371 156.308 139.566 156.408 139.777 156.453C139.989 156.497 140.208 156.484 140.412 156.414C140.608 156.324 140.776 156.183 140.898 156.006C141.021 155.828 141.093 155.621 141.108 155.406C141.12 155.228 141.087 155.049 141.013 154.887C140.938 154.725 140.825 154.583 140.682 154.476C140.395 154.276 140.054 154.167 139.704 154.164C139.704 154.164 139.794 154.086 139.998 154.074C140.286 154.057 140.571 154.138 140.808 154.302C140.997 154.419 141.152 154.584 141.257 154.78C141.362 154.976 141.414 155.196 141.408 155.418C141.413 155.698 141.332 155.974 141.177 156.207C141.022 156.441 140.799 156.622 140.538 156.725C140.277 156.829 139.991 156.85 139.718 156.787C139.445 156.724 139.197 156.579 139.008 156.372C138.854 156.217 138.741 156.026 138.681 155.816C138.62 155.607 138.613 155.385 138.66 155.172C138.723 154.89 138.874 154.636 139.092 154.446C139.26 154.302 139.368 154.278 139.374 154.296Z" fill="#455A64"/>
<path d="M144.9 155.106C144.87 155.136 144.654 154.974 144.348 154.662C143.902 154.272 143.589 153.752 143.454 153.175C143.32 152.598 143.37 151.993 143.598 151.446C143.736 151.026 143.862 150.786 143.898 150.798C143.934 150.81 143.898 151.08 143.814 151.5C143.687 152.025 143.669 152.57 143.76 153.102C143.916 153.619 144.173 154.101 144.516 154.518C144.768 154.86 144.93 155.076 144.9 155.106Z" fill="#455A64"/>
<path d="M146.202 154.308C146.202 154.338 145.962 154.206 145.68 153.912C145.318 153.515 145.049 153.041 144.894 152.526C144.653 151.811 144.642 151.039 144.864 150.318C144.972 150.318 144.864 151.314 145.194 152.436C145.453 153.098 145.792 153.727 146.202 154.308Z" fill="#455A64"/>
<path d="M162.816 149.4C162.768 149.4 162.75 149.118 162.708 148.674C162.662 148.109 162.535 147.553 162.33 147.024C162.105 146.505 161.788 146.032 161.394 145.626C161.094 145.302 160.902 145.098 160.932 145.062C160.962 145.026 161.202 145.17 161.532 145.464C161.996 145.853 162.362 146.347 162.6 146.904C162.823 147.465 162.929 148.065 162.912 148.668C162.938 148.916 162.905 149.167 162.816 149.4Z" fill="#455A64"/>
<path d="M164.832 149.4C164.784 149.4 164.778 149.118 164.784 148.68C164.818 148.124 164.772 147.566 164.646 147.024C164.445 146.503 164.183 146.008 163.866 145.548C163.632 145.176 163.506 144.948 163.542 144.906C163.578 144.864 163.77 145.08 164.046 145.422C164.432 145.87 164.737 146.381 164.946 146.934C165.09 147.511 165.109 148.113 165 148.698C164.94 149.106 164.874 149.4 164.832 149.4Z" fill="#455A64"/>
<path d="M138.294 217.548C138.358 217.303 138.453 217.067 138.576 216.846C138.786 216.396 139.11 215.742 139.536 214.908C140.388 213.234 141.642 210.828 143.214 207.864C146.358 201.936 150.75 193.77 155.64 184.776L159.24 178.206C160.334 176.172 161.182 174.015 161.766 171.78C162.757 167.981 162.961 164.02 162.366 160.14C161.973 157.526 161.229 154.977 160.152 152.562C159.774 151.704 159.444 151.056 159.216 150.618L158.952 150.12C158.921 150.064 158.895 150.006 158.874 149.946C158.915 149.996 158.951 150.051 158.982 150.108L159.27 150.588C159.516 151.014 159.87 151.656 160.266 152.508C163.069 158.56 163.682 165.398 162 171.852C161.417 174.114 160.565 176.297 159.462 178.356C158.31 180.474 157.116 182.67 155.898 184.92L143.4 207.966L139.632 214.962L138.618 216.87L138.366 217.374C138.347 217.434 138.323 217.492 138.294 217.548Z" fill="#455A64"/>
<path d="M172.92 197.244C172.814 197.333 172.702 197.413 172.584 197.484L171.588 198.084L167.91 200.4C164.808 202.32 160.536 204.99 155.862 208.014C151.188 211.038 147 213.816 144 215.844L140.4 218.244L139.41 218.88C139.298 218.96 139.18 219.031 139.056 219.09C139.152 218.992 139.259 218.906 139.374 218.832L140.328 218.142L143.868 215.664C146.868 213.594 151.068 210.762 155.718 207.732C160.368 204.702 164.688 202.062 167.82 200.196C169.386 199.26 170.664 198.516 171.546 198.012L172.572 197.412C172.683 197.346 172.8 197.29 172.92 197.244Z" fill="#455A64"/>
<path d="M177.774 207.9C177.658 207.71 177.561 207.509 177.486 207.3L176.736 205.596C176.088 204.162 175.164 202.194 174.126 200.028C173.088 197.862 172.188 195.96 171.48 194.472L170.694 192.78C170.586 192.578 170.501 192.365 170.442 192.144C170.588 192.327 170.709 192.529 170.802 192.744C171.018 193.134 171.318 193.692 171.678 194.394C172.398 195.792 173.376 197.742 174.408 199.914C175.44 202.086 176.34 204.066 176.94 205.53C177.24 206.256 177.462 206.856 177.6 207.276C177.68 207.477 177.738 207.687 177.774 207.9Z" fill="#455A64"/>
<path d="M138.294 217.548C138.24 217.482 143.544 212.79 150.15 207.066C156.756 201.342 162.15 196.758 162.21 196.824C162.27 196.89 156.96 201.6 150.354 207.3C143.748 213 138.354 217.614 138.294 217.548Z" fill="#455A64"/>
<path d="M131.718 228.546C132.203 228.128 132.632 227.651 132.996 227.124C133.638 226.128 134.424 224.664 135.312 223.074C136.2 221.484 136.95 220.002 137.502 218.94C137.77 218.351 138.083 217.783 138.438 217.242C138.246 217.863 137.999 218.465 137.7 219.042C137.196 220.134 136.464 221.622 135.588 223.242C134.712 224.862 133.884 226.278 133.188 227.268C132.909 227.661 132.573 228.011 132.192 228.306C132.052 228.417 131.89 228.498 131.718 228.546Z" fill="#455A64"/>
<path d="M137.34 230.244C137.292 230.244 137.634 229.566 138.012 228.444C138.484 226.972 138.809 225.456 138.984 223.92C139.198 222.391 139.198 220.841 138.984 219.312C138.913 218.855 138.778 218.411 138.582 217.992C138.48 217.855 138.392 217.708 138.318 217.554C138.318 217.554 138.474 217.656 138.684 217.932C138.934 218.344 139.108 218.797 139.2 219.27C139.49 220.816 139.531 222.398 139.32 223.956C139.147 225.516 138.784 227.05 138.24 228.522C138.072 228.966 137.872 229.397 137.64 229.812C137.46 230.1 137.358 230.256 137.34 230.244Z" fill="#455A64"/>
<path d="M130.842 221.13C131.226 220.956 131.628 220.827 132.042 220.746C132.988 220.49 133.913 220.161 134.808 219.762C136.89 218.79 138.252 217.452 138.324 217.548C138.063 217.879 137.751 218.167 137.4 218.4C136.64 219.053 135.794 219.598 134.886 220.02C133.975 220.431 133.021 220.739 132.042 220.938C131.653 221.056 131.249 221.121 130.842 221.13Z" fill="#455A64"/>
<path d="M138.78 177.534C138.757 177.579 138.729 177.622 138.696 177.66L138.432 178.014C138.198 178.326 137.862 178.788 137.46 179.4C136.33 181.144 135.377 182.998 134.616 184.932C133.515 187.81 132.599 190.756 131.874 193.752C130.98 197.118 130.074 200.868 128.568 204.612C127.062 208.356 125.106 211.68 123.87 214.932C122.708 217.784 122.076 220.823 122.004 223.902C122.004 225.079 122.136 226.253 122.4 227.4C122.611 228.266 122.898 229.111 123.258 229.926C123.487 230.442 123.746 230.945 124.032 231.432C124.116 231.588 124.188 231.714 124.248 231.816C124.274 231.86 124.296 231.906 124.314 231.954C124.277 231.918 124.245 231.878 124.218 231.834L123.978 231.468C123.669 230.99 123.39 230.493 123.144 229.98C122.762 229.164 122.457 228.314 122.232 227.442C121.947 226.281 121.796 225.091 121.782 223.896C121.814 220.786 122.424 217.71 123.582 214.824C124.812 211.542 126.714 208.188 128.256 204.486C129.798 200.784 130.656 197.034 131.568 193.686C132.311 190.683 133.253 187.732 134.388 184.854C135.169 182.916 136.157 181.067 137.334 179.34C137.754 178.74 138.108 178.278 138.36 177.984L138.648 177.648C138.738 177.6 138.774 177.528 138.78 177.534Z" fill="#455A64"/>
<path d="M139.8 158.598C139.713 158.849 139.608 159.093 139.488 159.33C139.201 159.99 139 160.683 138.888 161.394C138.754 162.449 138.79 163.519 138.996 164.562C139.182 165.762 139.68 166.962 140.016 168.366C140.186 169.044 140.245 169.745 140.19 170.442C140.138 171.083 140.036 171.719 139.884 172.344C139.63 173.394 139.32 174.429 138.954 175.446C138.648 176.316 138.354 177.006 138.186 177.486C138.103 177.739 137.993 177.983 137.856 178.212C137.904 177.95 137.977 177.693 138.072 177.444C138.252 176.898 138.474 176.202 138.744 175.374C139.014 174.546 139.344 173.46 139.602 172.278C139.946 171.025 139.983 169.708 139.71 168.438C139.386 167.1 138.882 165.834 138.714 164.61C138.513 163.537 138.497 162.437 138.666 161.358C138.794 160.635 139.031 159.935 139.368 159.282C139.455 159.104 139.553 158.931 139.662 158.766C139.734 158.652 139.8 158.592 139.8 158.598Z" fill="#455A64"/>
<path d="M140.52 176.652C141.187 175.908 141.701 175.039 142.032 174.096C142.366 173.07 142.524 171.995 142.5 170.916C142.453 169.588 142.288 168.267 142.008 166.968C141.717 165.659 141.494 164.335 141.342 163.002C141.246 161.903 141.268 160.797 141.408 159.702C141.494 158.963 141.672 158.238 141.936 157.542C142.007 157.354 142.091 157.172 142.188 156.996C142.26 156.876 142.296 156.816 142.308 156.816C142.32 156.816 142.206 157.092 142.05 157.584C141.834 158.283 141.691 159.003 141.624 159.732C141.522 160.81 141.522 161.894 141.624 162.972C141.738 164.172 142.038 165.51 142.308 166.908C142.593 168.226 142.752 169.568 142.782 170.916C142.794 172.024 142.607 173.126 142.23 174.168C141.978 174.874 141.6 175.529 141.114 176.1C140.98 176.251 140.835 176.394 140.682 176.526C140.586 176.616 140.526 176.658 140.52 176.652Z" fill="#455A64"/>
<path d="M155.736 171.924C155.499 171.991 155.256 172.035 155.01 172.056C154.542 172.116 153.864 172.224 153.036 172.368C150.872 172.743 148.742 173.289 146.664 174C144.589 174.72 142.572 175.601 140.634 176.634C139.89 177.036 139.296 177.366 138.888 177.606C138.684 177.745 138.465 177.86 138.234 177.948C138.417 177.778 138.618 177.629 138.834 177.504C139.224 177.234 139.806 176.868 140.538 176.442C144.384 174.238 148.612 172.78 153 172.146C153.84 172.032 154.524 171.96 154.998 171.936C155.243 171.902 155.49 171.898 155.736 171.924Z" fill="#455A64"/>
<path d="M156.714 165.378C156.714 165.438 155.826 165.426 154.428 165.642C153.615 165.772 152.813 165.96 152.028 166.206C150.09 166.814 148.278 167.765 146.676 169.014C146.022 169.524 145.407 170.082 144.834 170.682C143.862 171.708 143.37 172.446 143.322 172.41C143.4 172.216 143.505 172.034 143.634 171.87C143.946 171.399 144.293 170.951 144.672 170.532C145.221 169.9 145.824 169.316 146.472 168.786C147.28 168.147 148.144 167.581 149.052 167.094C149.972 166.623 150.932 166.233 151.92 165.93C152.726 165.692 153.551 165.523 154.386 165.426C154.949 165.351 155.516 165.319 156.084 165.33C156.295 165.321 156.507 165.338 156.714 165.378Z" fill="#455A64"/>
<path d="M158.052 179.106C157.838 179.217 157.613 179.303 157.38 179.364C156.936 179.508 156.306 179.724 155.52 180C153.489 180.726 151.5 181.565 149.562 182.514C147.63 183.469 145.755 184.535 143.946 185.706C143.25 186.156 142.692 186.528 142.308 186.792C142.122 186.939 141.921 187.066 141.708 187.17C141.871 186.991 142.054 186.832 142.254 186.696C142.614 186.402 143.154 186 143.838 185.496C145.621 184.26 147.495 183.159 149.442 182.202C151.381 181.245 153.386 180.428 155.442 179.76C156.234 179.514 156.882 179.328 157.332 179.22C157.566 179.152 157.808 179.114 158.052 179.106Z" fill="#455A64"/>
<path d="M177 163.404C176.793 163.361 176.592 163.295 176.4 163.206C176.028 163.062 175.482 162.858 174.774 162.606C172.823 161.967 170.813 161.527 168.774 161.292L168.924 161.154C168.996 163.74 168.978 166.806 168.75 170.076C168.535 173.262 168.112 176.431 167.484 179.562V179.496C168.039 181.312 168.706 183.091 169.482 184.824C169.764 185.424 170.022 185.916 170.196 186.24C170.3 186.396 170.394 186.558 170.478 186.726C170.347 186.588 170.23 186.437 170.13 186.276C169.842 185.83 169.579 185.367 169.344 184.89C168.517 183.17 167.813 181.394 167.238 179.574V179.544V179.508C167.824 176.382 168.225 173.225 168.438 170.052C168.666 166.794 168.696 163.74 168.66 161.16V161.004H168.816C170.862 161.259 172.874 161.738 174.816 162.432C175.518 162.69 176.052 162.924 176.418 163.086C176.621 163.174 176.816 163.281 177 163.404Z" fill="#455A64"/>
<path d="M177.456 166.008C177.027 165.928 176.605 165.812 176.196 165.66C175.428 165.432 174.354 165.132 173.16 164.856C170.76 164.292 168.804 163.932 168.816 163.842C169.255 163.825 169.694 163.863 170.124 163.956C170.928 164.07 172.026 164.262 173.232 164.556C175.65 165.096 177.498 165.924 177.456 166.008Z" fill="#455A64"/>
<path d="M174.6 156.774C174.6 156.816 173.868 156.606 172.698 156.33C171.174 155.974 169.626 155.727 168.066 155.592C166.505 155.47 164.938 155.45 163.374 155.532C162.724 155.593 162.071 155.617 161.418 155.604C161.583 155.539 161.757 155.498 161.934 155.484C162.27 155.43 162.756 155.364 163.356 155.31C164.93 155.165 166.514 155.155 168.09 155.28C169.667 155.412 171.227 155.692 172.752 156.114C173.352 156.282 173.802 156.432 174.114 156.558C174.286 156.604 174.45 156.677 174.6 156.774Z" fill="#455A64"/>
<path d="M162.366 159.48C162.108 159.587 161.841 159.67 161.568 159.726C161.052 159.864 160.296 160.032 159.348 160.2C156.883 160.631 154.374 160.756 151.878 160.572C150.432 160.428 148.986 160.272 147.858 159.564C147.326 159.232 146.893 158.764 146.604 158.208C146.365 157.708 146.293 157.144 146.4 156.6C146.522 155.847 146.746 155.114 147.066 154.422C147.167 154.16 147.311 153.917 147.492 153.702C147.492 153.702 147.372 153.972 147.18 154.464C146.91 155.162 146.72 155.889 146.616 156.63C146.54 157.124 146.619 157.63 146.844 158.076C147.128 158.577 147.543 158.992 148.044 159.276C149.094 159.924 150.504 160.08 151.938 160.218C154.413 160.398 156.9 160.303 159.354 159.936C160.296 159.804 161.058 159.666 161.58 159.564C161.839 159.513 162.102 159.484 162.366 159.48Z" fill="#455A64"/>
<path d="M160.836 51.936C157.968 45.72 150.87 46.944 147.474 48.594C144.061 50.2053 141.381 53.044 139.968 56.544C138.972 58.944 138.168 61.68 136.164 63.144C135.243 63.6912 134.291 64.186 133.314 64.626C132.812 64.8694 132.372 65.2229 132.026 65.6603C131.68 66.0977 131.437 66.6077 131.316 67.152C131.016 69.222 133.116 70.656 134.844 71.49C133.806 72.198 133.536 73.8 133.902 75.09C134.345 76.3227 135.044 77.4474 135.954 78.39C139.015 81.7695 142.516 84.7219 146.364 87.168C149.64 89.208 151.764 89.448 155.28 87.984C156.708 87.384 158.04 86.412 159.564 86.238C161.334 86.04 163.026 86.946 164.778 87.312C166.53 87.678 168.738 87.174 169.308 85.332C169.449 84.5979 169.529 83.8533 169.548 83.106C169.638 82.368 170.004 81.564 170.67 81.396C171.21 81.258 171.75 81.588 172.278 81.762C173.544 82.182 175.452 91.578 176.664 91.008C176.664 91.008 178.428 75.084 175.032 65.766C173.946 62.766 171.63 56.454 169.782 53.988C167.238 50.604 161.142 51.354 160.836 51.954" fill="#263238"/>
<path d="M157.2 52.968C152.682 51.39 146.586 54.858 145.2 59.436C143.658 64.518 141.984 70.788 141.69 74.784C141.09 82.818 146.808 85.2 146.808 85.2L144.486 97.758L164.064 91.428L170.898 61.836L171.534 59.352L157.2 52.968Z" fill="#FFBE9D"/>
<path d="M145.2 65.628C145.266 65.802 146.196 65.55 147.216 65.952C148.236 66.354 148.788 67.152 148.944 67.08C149.1 67.008 148.992 66.78 148.758 66.414C148.437 65.9327 147.973 65.5636 147.432 65.358C146.902 65.1427 146.317 65.1048 145.764 65.25C145.362 65.4 145.2 65.55 145.2 65.628Z" fill="#263238"/>
<path d="M155.334 68.298C155.454 68.436 156.264 67.92 157.356 67.998C158.448 68.076 159.216 68.676 159.348 68.55C159.48 68.424 159.3 68.244 158.964 67.95C158.512 67.5929 157.961 67.3834 157.386 67.35C156.815 67.3091 156.246 67.4498 155.76 67.752C155.4 67.998 155.28 68.232 155.334 68.298Z" fill="#263238"/>
<path d="M150.786 72.792C150.265 72.4822 149.706 72.2402 149.124 72.072C148.86 71.976 148.614 71.862 148.614 71.664C148.655 71.3774 148.785 71.1109 148.986 70.902L150.276 69.012C152.076 66.318 153.474 64.074 153.366 64.002C153.258 63.93 151.698 66.054 149.88 68.748C149.442 69.42 149.022 70.05 148.62 70.662C148.368 70.9494 148.227 71.3177 148.224 71.7C148.242 71.805 148.283 71.9046 148.344 71.9918C148.406 72.0789 148.485 72.1514 148.578 72.204C148.722 72.2768 148.873 72.3351 149.028 72.378C149.594 72.5903 150.185 72.7294 150.786 72.792Z" fill="#263238"/>
<path d="M146.814 85.2C150.531 86.1358 154.434 86.0383 158.1 84.918C158.1 84.918 154.302 89.754 146.448 87.162L146.814 85.2Z" fill="#EB996E"/>
<path d="M150.204 76.38C150.102 76.248 150.252 76.542 150.204 76.38V76.38Z" fill="#EB996E"/>
<path d="M153.69 75.858C153.572 75.6109 153.405 75.3907 153.199 75.211C152.992 75.0314 152.751 74.8963 152.49 74.814C152.137 74.6874 151.757 74.6524 151.387 74.7122C151.017 74.772 150.667 74.9247 150.372 75.156C150.251 75.3284 150.171 75.5263 150.139 75.7343C150.107 75.9424 150.123 76.1551 150.186 76.356C150.564 76.842 150.6 77.25 151.128 77.556C151.508 77.6814 151.911 77.7227 152.309 77.6771C152.707 77.6315 153.09 77.5002 153.432 77.292C153.617 77.1082 153.741 76.8721 153.787 76.6156C153.833 76.3591 153.799 76.0947 153.69 75.858Z" fill="#EB996E"/>
<path d="M153.762 74.268C153.588 74.22 153.312 75.378 152.13 75.966C150.948 76.554 149.73 76.14 149.688 76.302C149.688 76.368 149.91 76.59 150.432 76.728C151.108 76.8976 151.822 76.8232 152.448 76.518C153.051 76.2227 153.516 75.7041 153.744 75.072C153.906 74.598 153.84 74.28 153.762 74.268Z" fill="#263238"/>
<path d="M157.542 62.64C157.482 62.946 158.376 63.24 159.282 63.924C160.188 64.608 160.806 65.31 161.082 65.124C161.202 65.04 161.196 64.722 161.016 64.296C160.773 63.7668 160.394 63.3114 159.918 62.976C159.455 62.6338 158.907 62.4261 158.334 62.376C157.86 62.4 157.572 62.496 157.542 62.64Z" fill="#263238"/>
<path d="M145.86 61.518C146.094 61.746 146.916 61.404 147.924 61.296C148.932 61.188 149.814 61.296 149.988 61.008C150.06 60.87 149.904 60.636 149.502 60.408C148.962 60.166 148.366 60.0807 147.78 60.162C147.195 60.2233 146.639 60.4502 146.178 60.816C145.842 61.14 145.752 61.404 145.86 61.518Z" fill="#263238"/>
<path d="M172.638 59.334C172.301 58.7333 171.773 58.2624 171.138 57.996C167.243 55.8584 163.21 53.9823 159.066 52.38L157.362 53.346C157.138 55.0058 157.412 56.6946 158.149 58.1985C158.886 59.7025 160.053 60.9538 161.502 61.794C162.666 62.442 164.178 63.054 164.328 64.38C164.478 65.706 163.044 66.69 162.234 67.806C161.739 68.5027 161.461 69.3306 161.437 70.1851C161.412 71.0395 161.642 71.882 162.096 72.606C162.618 73.416 163.41 74.028 163.896 74.862C164.197 75.428 164.368 76.0542 164.396 76.6947C164.424 77.3352 164.309 77.9739 164.058 78.564C163.572 79.764 162.762 81.342 161.658 82.008C163.148 82.343 164.706 82.2045 166.114 81.6119C167.522 81.0192 168.71 80.002 169.512 78.702C170.424 77.154 170.496 75.276 170.616 73.482C170.891 69.4013 171.54 65.3544 172.554 61.392C172.81 60.7343 172.839 60.0103 172.638 59.334Z" fill="#263238"/>
<path d="M159.336 52.566C158.287 53.9547 157.025 55.1695 155.598 56.166C154.122 57.084 152.238 57.516 150.624 56.868C151.026 56.424 151.434 55.98 151.824 55.53C148.952 57.4968 145.7 58.8415 142.278 59.478C144.426 56.868 146.64 54.204 149.574 52.518C152.508 50.832 156.354 50.316 159.216 52.11" fill="#263238"/>
<path d="M173.034 67.74L163.89 74.844C164.94 75.99 164.532 78.906 163.5 80.064C162.468 81.222 161.1 82.212 160.698 83.712C160.254 85.35 161.124 87.048 161.148 88.746C161.184 91.146 159.57 93.21 158.322 95.262C157.074 97.314 156.174 100.062 157.566 102.024C159.132 104.232 162.678 103.914 164.82 102.264C166.962 100.614 168.186 98.064 169.776 95.88C171.366 93.696 173.85 92.022 176.544 92.28C177.379 83.9364 176.175 75.5148 173.034 67.74Z" fill="#263238"/>
<path d="M174.564 87.546C174.51 87.444 175.05 87.054 175.974 86.31C177.278 85.3028 178.441 84.1242 179.43 82.806C180.083 81.9076 180.602 80.9193 180.972 79.872C181.398 78.697 181.582 77.4479 181.512 76.2C181.416 74.84 180.986 73.5249 180.258 72.372C179.445 71.1091 178.415 70 177.216 69.096C174.756 67.182 171.816 66.096 169.248 64.95C166.858 64.0267 164.602 62.7877 162.54 61.266C161.133 60.2161 159.969 58.8757 159.126 57.336C158.568 56.226 158.478 55.536 158.562 55.536C158.646 55.536 158.964 56.094 159.642 57.042C160.622 58.3596 161.824 59.4965 163.194 60.402C165.266 61.7182 167.482 62.7912 169.8 63.6C171.108 64.122 172.506 64.662 173.934 65.322C175.448 66.0031 176.879 66.8546 178.2 67.86C179.546 68.882 180.695 70.1405 181.59 71.574C182.429 72.9505 182.906 74.5173 182.976 76.128C183.016 77.5663 182.754 78.9969 182.208 80.328C181.747 81.4692 181.111 82.5319 180.324 83.478C179.203 84.8147 177.854 85.9421 176.34 86.808C175.254 87.42 174.6 87.63 174.564 87.546Z" fill="#263238"/>
<path d="M174.738 66C174.463 65.9431 174.196 65.8566 173.94 65.742C173.436 65.556 172.74 65.274 171.822 64.902C169.481 63.9741 167.281 62.7219 165.288 61.182C163.286 59.6092 161.78 57.4927 160.95 55.086C160.709 54.3583 160.565 53.6016 160.524 52.836C160.513 52.6361 160.513 52.4358 160.524 52.236C160.514 52.1643 160.514 52.0917 160.524 52.02C160.616 53.0386 160.817 54.0443 161.124 55.02C162.007 57.3487 163.504 59.3951 165.456 60.942C167.433 62.4593 169.591 63.7232 171.882 64.704L173.958 65.628C174.229 65.7276 174.49 65.8522 174.738 66Z" fill="#455A64"/>
<path d="M175.026 75.084C174.99 75.084 175.176 74.724 175.272 74.052C175.379 73.0908 175.21 72.1191 174.786 71.25C174.166 69.9563 173.208 68.8537 172.014 68.058C170.7 67.104 169.068 66.348 167.436 65.37C165.893 64.4529 164.511 63.2895 163.344 61.926C162.388 60.8134 161.581 59.581 160.944 58.26C160.519 57.3734 160.184 56.4469 159.942 55.494C159.846 55.158 159.81 54.894 159.774 54.714C159.746 54.6248 159.734 54.5314 159.738 54.438C159.863 54.7738 159.969 55.1163 160.056 55.464C160.342 56.3928 160.705 57.2959 161.142 58.164C161.787 59.4601 162.594 60.6697 163.542 61.764C164.697 63.0963 166.058 64.2348 167.574 65.136C169.182 66.096 170.826 66.87 172.158 67.854C173.382 68.6875 174.354 69.8416 174.966 71.19C175.386 72.0987 175.526 73.1116 175.368 74.1C175.322 74.3646 175.243 74.6225 175.134 74.868C175.08 75 175.038 75.09 175.026 75.084Z" fill="#455A64"/>
<path d="M124.464 69C124.464 69 124.464 68.964 124.518 68.904C124.578 68.8117 124.644 68.7235 124.716 68.64C124.991 68.3107 125.341 68.0515 125.736 67.884C126.372 67.661 127.042 67.5455 127.716 67.542C128.49 67.5 129.378 67.44 130.356 67.44C131.414 67.4588 132.47 67.3602 133.506 67.146C134.675 66.8455 135.758 66.2764 136.668 65.484C137.671 64.5937 138.54 63.563 139.248 62.424C140.001 61.1893 140.688 59.9155 141.306 58.608C141.937 57.2914 142.659 56.0203 143.466 54.804C144.229 53.6609 145.188 52.6616 146.298 51.852C148.211 50.5178 150.476 49.7789 152.808 49.728C154.368 49.6737 155.921 49.9476 157.368 50.532L158.04 50.826L158.502 51.09C158.634 51.1575 158.761 51.2358 158.88 51.324C158.74 51.2779 158.606 51.2176 158.478 51.144L157.998 50.91L157.326 50.646C155.884 50.1148 154.349 49.8782 152.814 49.95C150.536 50.0327 148.331 50.7747 146.466 52.086C145.387 52.881 144.457 53.86 143.718 54.978C142.926 56.1775 142.218 57.4305 141.6 58.728C140.975 60.0461 140.28 61.3299 139.518 62.574C138.791 63.7343 137.897 64.7815 136.866 65.682C135.918 66.4982 134.792 67.0799 133.578 67.38C132.521 67.5894 131.445 67.678 130.368 67.644C129.39 67.644 128.514 67.644 127.734 67.698C127.077 67.6852 126.422 67.7805 125.796 67.98C125.408 68.1268 125.059 68.3608 124.776 68.664C124.679 68.7822 124.575 68.8945 124.464 69Z" fill="#455A64"/>
<path d="M120.792 60.906C117.192 51.816 112.392 42.906 111.732 36.132L104.562 36.42C104.712 39.042 105.654 60.864 110.736 69.492C115.818 78.12 132.786 98.292 132.786 98.292L138.756 82.938C138.756 82.938 124.398 70.002 120.792 60.906Z" fill="#FFBE9D"/>
<path d="M108.84 22.02H105.702C105.702 22.02 106.008 23.868 107.43 23.97C108.852 24.072 108.576 23.748 108.576 23.748L108.258 24.042L106.302 24.426C106.302 24.426 106.398 25.95 107.688 26.19L109.59 24.426L108.84 22.02Z" fill="#FFBE9D"/>
<path d="M117.432 21.744C117.144 24.108 117.114 23.964 117.114 23.964L114.246 26.328L113.514 22.848C113.467 22.6174 113.345 22.4089 113.167 22.2548C112.989 22.1007 112.765 22.0097 112.53 21.996L111.228 21.912C111.228 21.912 111.732 20.112 110.094 20.262C110.094 20.262 109.194 20.016 108.468 23.028C107.676 26.322 104.268 34.062 104.562 36.648L111.834 36.942C111.756 34.542 113.736 31.98 114.714 30.876C115.009 30.5473 115.216 30.1487 115.314 29.718C115.449 29.1262 115.729 28.5776 116.13 28.122C117.03 27.126 118.92 25.332 118.92 25.332V19.854C118.92 19.854 117.708 19.464 117.432 21.744ZM111.6 27.036L110.106 27.714L110.358 26.19L111.6 26.07V27.036Z" fill="#FFBE9D"/>
<path d="M110.028 27.876C110.027 27.6599 110.051 27.4445 110.1 27.234C110.172 26.82 110.274 26.232 110.412 25.5L110.916 22.944C111.034 22.4527 111.117 21.9533 111.162 21.45C111.162 20.964 110.982 20.406 110.46 20.376C109.938 20.346 109.554 20.7 109.302 21.126C109.182 21.3473 109.085 21.5806 109.014 21.822L108.78 22.536L108 25.02C107.766 25.728 107.55 26.292 107.4 26.676C107.332 26.8892 107.233 27.0913 107.106 27.276C107.141 27.0693 107.201 26.8677 107.286 26.676C107.412 26.28 107.598 25.71 107.802 25.002C108.006 24.294 108.252 23.418 108.516 22.494C108.594 22.254 108.666 22.014 108.744 21.768C108.817 21.5052 108.92 21.2516 109.05 21.012C109.195 20.7588 109.387 20.535 109.614 20.352C109.741 20.2522 109.886 20.179 110.042 20.1367C110.198 20.0945 110.36 20.084 110.52 20.106C110.681 20.132 110.835 20.1868 110.976 20.268C111.111 20.3626 111.222 20.4881 111.3 20.634C111.431 20.9026 111.493 21.1995 111.48 21.498C111.43 22.0183 111.34 22.5338 111.21 23.04L110.61 25.59C110.448 26.31 110.31 26.898 110.202 27.3C110.169 27.4987 110.111 27.6923 110.028 27.876Z" fill="#EB996E"/>
<path d="M111.516 27.054C111.443 26.469 111.413 25.8794 111.426 25.29C111.426 25.05 111.39 24.822 111.372 24.612C111.382 24.454 111.332 24.298 111.234 24.174C111.03 24.024 110.784 24.024 110.796 23.97C110.808 23.916 110.85 23.928 110.946 23.916C111.091 23.8956 111.238 23.923 111.366 23.994C111.456 24.0663 111.528 24.1577 111.578 24.2615C111.628 24.3653 111.654 24.4789 111.654 24.594C111.699 24.8257 111.727 25.0603 111.738 25.296C111.822 25.8913 111.745 26.4982 111.516 27.054Z" fill="#EB996E"/>
<path d="M115.08 25.716C115.08 25.716 114.882 25.98 114.48 26.316C113.972 26.7661 113.407 27.1473 112.8 27.45C112.167 27.7244 111.491 27.8849 110.802 27.924C110.523 27.9785 110.235 27.9785 109.956 27.924C110.215 27.8135 110.491 27.7466 110.772 27.726C111.424 27.6276 112.062 27.4461 112.668 27.186C113.265 26.8969 113.835 26.5556 114.372 26.166C114.78 25.854 115.05 25.68 115.08 25.716Z" fill="#EB996E"/>
<path d="M172.098 93.864C172.098 93.864 180.174 93.624 185.01 92.184C189.846 90.744 208.41 86.328 208.41 86.328L238.2 81.36L238.8 89.064C238.8 89.064 211.122 97.158 205.746 99C200.37 100.842 175.8 109.272 171.156 108.204L168.276 102.282L172.098 93.864Z" fill="#FFBE9D"/>
<path d="M252.522 72.3C252.036 72.192 249.624 73.29 249.624 73.29C249.854 73.0112 249.983 72.6634 249.992 72.3023C250.001 71.9411 249.888 71.5875 249.672 71.298L246.36 72.924C245.485 73.8118 244.561 74.6511 243.594 75.438C242.07 76.8415 240.666 78.3687 239.394 80.004L237.414 81.846L238.644 89.136C239.51 89.2082 240.382 89.0937 241.2 88.8C242.226 88.326 243.726 86.4 243.726 86.4L246.552 86.16C246.881 86.136 247.195 86.0126 247.452 85.806C247.707 85.5576 247.902 85.2548 248.024 84.9203C248.146 84.5858 248.19 84.2281 248.154 83.874C249.954 82.854 248.904 81.558 248.904 81.558C249.472 81.4881 249.992 81.2024 250.356 80.76C250.51 80.5203 250.584 80.2379 250.568 79.9534C250.552 79.6689 250.446 79.3967 250.266 79.176C249.93 78.576 247.338 78.762 247.338 78.762L247.2 78C247.2 78 251.16 74.856 252.048 74.172C252.936 73.488 252.978 72.402 252.522 72.3Z" fill="#FFBE9D"/>
<path d="M249.672 73.2C249.387 73.7686 248.977 74.2651 248.472 74.652C247.959 75.0909 247.476 75.564 247.026 76.068C246.527 76.716 246.165 77.4592 245.964 78.252C245.755 79.0817 245.458 79.8864 245.076 80.652C244.749 81.2642 244.346 81.8327 243.876 82.344C243.559 82.6846 243.211 82.9958 242.838 83.274C242.708 83.3845 242.56 83.4718 242.4 83.532C242.364 83.49 242.964 83.076 243.714 82.194C244.147 81.6802 244.519 81.1185 244.824 80.52C245.182 79.7733 245.468 78.9937 245.676 78.192C245.887 77.3596 246.273 76.5821 246.81 75.912C247.279 75.4057 247.789 74.9382 248.334 74.514C248.806 74.1034 249.253 73.6646 249.672 73.2Z" fill="#EB996E"/>
<path d="M248.214 83.856C247.811 84.1291 247.365 84.332 246.894 84.456C246.385 84.6271 245.857 84.7359 245.322 84.78C245.004 84.8039 244.686 84.8039 244.368 84.78C244.005 84.7548 243.656 84.6348 243.354 84.432C243.197 84.3204 243.07 84.1728 242.982 84.0015C242.894 83.8302 242.849 83.6404 242.85 83.448C242.917 83.1028 243.104 82.7924 243.378 82.572C243.597 82.3627 243.865 82.212 244.158 82.134C244.422 82.062 244.662 82.008 244.884 81.966C245.354 81.8238 245.846 81.7669 246.336 81.798C246.336 81.834 245.796 81.942 244.932 82.176L244.236 82.38C243.986 82.4565 243.759 82.5948 243.576 82.782C243.367 82.9595 243.22 83.1991 243.156 83.466C243.157 83.6072 243.193 83.7461 243.26 83.8705C243.327 83.9949 243.423 84.1011 243.54 84.18C244.082 84.4621 244.697 84.575 245.304 84.504C245.819 84.4739 246.33 84.3895 246.828 84.252C247.686 84.03 248.196 83.808 248.214 83.856Z" fill="#EB996E"/>
<path d="M249 81.558C248.686 81.7332 248.338 81.8377 247.98 81.864C247.598 81.9294 247.21 81.9575 246.822 81.948C246.567 81.9662 246.312 81.9284 246.073 81.8372C245.835 81.7459 245.619 81.6035 245.442 81.42C245.29 81.204 245.204 80.9487 245.193 80.6848C245.182 80.4209 245.248 80.1596 245.382 79.932C245.584 79.5752 245.893 79.2901 246.264 79.116C246.578 78.9332 246.933 78.8321 247.296 78.822C247.296 78.87 246.918 78.99 246.372 79.308C246.062 79.4859 245.808 79.748 245.64 80.064C245.539 80.2419 245.489 80.4445 245.497 80.6489C245.504 80.8534 245.568 81.0518 245.682 81.222C245.834 81.3694 246.015 81.4843 246.213 81.5596C246.411 81.6349 246.622 81.6691 246.834 81.66C247.208 81.6847 247.582 81.6847 247.956 81.66C248.301 81.5999 248.65 81.5658 249 81.558Z" fill="#EB996E"/>
<path d="M247.044 86.058C246.782 86.189 246.5 86.2761 246.21 86.316C245.527 86.506 244.819 86.591 244.11 86.568C243.99 86.5736 243.87 86.5522 243.758 86.5055C243.647 86.4588 243.548 86.3879 243.468 86.298C243.338 86.1256 243.273 85.9135 243.282 85.698C243.296 85.522 243.348 85.3512 243.435 85.1977C243.522 85.0442 243.642 84.9118 243.786 84.81C244.314 84.492 244.698 84.69 244.674 84.714C244.403 84.7427 244.144 84.8374 243.918 84.99C243.813 85.0792 243.728 85.1893 243.668 85.3133C243.608 85.4373 243.575 85.5724 243.57 85.71C243.567 85.8588 243.613 86.0044 243.702 86.124C243.756 86.1811 243.823 86.2249 243.897 86.252C243.971 86.279 244.05 86.2886 244.128 86.28C244.811 86.2954 245.495 86.2432 246.168 86.124C246.453 86.0463 246.75 86.0239 247.044 86.058Z" fill="#EB996E"/>
<path d="M158.4 119.442C158.228 119.575 158.038 119.684 157.836 119.766C157.305 120.014 156.752 120.215 156.186 120.366C154.3 120.917 152.31 121.016 150.378 120.654C148.449 120.29 146.636 119.467 145.092 118.254C144.628 117.892 144.197 117.49 143.802 117.054C143.649 116.899 143.516 116.726 143.406 116.538C143.454 116.496 144.042 117.21 145.206 118.086C146.753 119.226 148.534 120.007 150.42 120.372C152.307 120.726 154.248 120.663 156.108 120.186C157.542 119.82 158.364 119.4 158.4 119.442Z" fill="#65ADC3"/>
<path d="M144.762 97.254C144.762 97.254 163.746 91.182 164.454 90.99C165.162 90.798 181.908 92.292 181.908 92.292C181.908 92.292 181.2 103.386 185.4 106.98L173.082 111.42L169.2 122.106C169.2 122.106 167.034 126.462 168.756 130.548C172.014 138.282 177.666 150.486 176.832 151.884C176.742 152.028 176.232 147.684 168.198 145.38C165.762 144.69 161.34 144.678 157.338 145.488C140.118 148.956 133.47 156.888 131.538 158.274C131.538 158.274 135.084 130.452 133.41 126.108C131.736 121.764 129.96 118.908 131.34 115.062C132.72 111.216 134.79 105 134.79 105L128.004 97.32L137.484 81.558L146.16 88.758L144.762 97.254Z" fill="#65ADC3"/>
<path d="M151.074 123.03C150.857 123.058 150.637 123.058 150.42 123.03C149.824 123.006 149.232 122.93 148.65 122.802C146.712 122.381 144.924 121.441 143.478 120.084C142.037 118.717 141.022 116.963 140.556 115.032C140.418 114.441 140.337 113.838 140.316 113.232C140.297 113.015 140.309 112.797 140.352 112.584C140.446 113.379 140.586 114.169 140.772 114.948C141.287 116.81 142.296 118.498 143.694 119.832C145.107 121.148 146.831 122.086 148.704 122.556C150.144 123 151.074 123 151.074 123.03Z" fill="#263238"/>
<path d="M133.248 99.51C133.987 100.454 134.445 101.587 134.568 102.78C134.793 103.958 134.685 105.176 134.256 106.296C134.373 105.143 134.373 103.981 134.256 102.828C134.033 101.691 133.695 100.579 133.248 99.51Z" fill="#263238"/>
<path d="M173.538 102.798C173.538 102.846 173.148 103.116 172.572 103.674C171.827 104.396 171.226 105.253 170.802 106.2C170.381 107.146 170.153 108.165 170.13 109.2C170.13 109.998 170.208 110.49 170.13 110.502C169.959 110.09 169.876 109.646 169.884 109.2C169.839 108.122 170.045 107.048 170.484 106.062C170.919 105.075 171.569 104.198 172.386 103.494C172.719 103.187 173.111 102.95 173.538 102.798Z" fill="#263238"/>
<g opacity="0.3">
<path d="M148.254 122.616C146.423 122.252 144.757 121.31 143.502 119.928C142.65 119.109 141.953 118.144 141.444 117.078C141.012 118.962 143.634 122.304 146.19 123.534C147.486 124.138 148.904 124.432 150.333 124.392C151.762 124.352 153.162 123.981 154.422 123.306C152.348 123.284 150.282 123.053 148.254 122.616Z" fill="black"/>
</g>
<path d="M171.504 136.404C171.504 136.44 171.006 136.062 170.022 135.618C168.622 135.014 167.113 134.699 165.588 134.694C163.319 134.68 161.072 135.136 158.988 136.032C156.46 137.171 154.048 138.553 151.788 140.16C147.621 143.048 143.177 145.514 138.522 147.522C136.722 148.284 135.258 148.83 134.232 149.184C133.722 149.37 133.32 149.496 133.032 149.58C132.896 149.633 132.756 149.671 132.612 149.694C132.739 149.621 132.874 149.563 133.014 149.52L134.178 149.07C135.192 148.68 136.65 148.11 138.42 147.318C143.041 145.263 147.461 142.78 151.62 139.902C153.896 138.281 156.331 136.894 158.886 135.762C161.009 134.866 163.296 134.427 165.6 134.472C167.151 134.498 168.678 134.851 170.082 135.51C170.591 135.748 171.069 136.048 171.504 136.404Z" fill="white"/>
<path d="M168.072 126.456C167.712 126.136 167.331 125.839 166.932 125.568C165.812 124.882 164.541 124.482 163.23 124.404C161.283 124.312 159.341 124.669 157.554 125.448C155.357 126.402 153.212 127.472 151.128 128.652C149.024 129.821 146.855 130.866 144.63 131.784C142.798 132.518 140.884 133.03 138.93 133.308C137.614 133.492 136.28 133.514 134.958 133.374C134.599 133.335 134.243 133.276 133.89 133.2C133.765 133.182 133.642 133.15 133.524 133.104C133.524 133.074 134.04 133.176 134.97 133.254C136.282 133.344 137.6 133.289 138.9 133.092C140.828 132.784 142.714 132.256 144.522 131.52C146.728 130.596 148.883 129.554 150.978 128.4C153.074 127.216 155.233 126.149 157.446 125.202C159.276 124.423 161.263 124.082 163.248 124.206C164.588 124.304 165.879 124.746 166.998 125.49C167.409 125.748 167.772 126.074 168.072 126.456Z" fill="white"/>
<path d="M142.728 118.896C142.728 118.896 142.602 119.022 142.344 119.208C142.188 119.324 142.023 119.428 141.852 119.52C141.633 119.654 141.407 119.774 141.174 119.88C140.568 120.165 139.935 120.388 139.284 120.546C138.485 120.736 137.669 120.84 136.848 120.858C136.025 120.856 135.205 120.77 134.4 120.6C133.745 120.465 133.106 120.264 132.492 120C132.256 119.901 132.025 119.789 131.802 119.664C131.628 119.578 131.461 119.478 131.304 119.364C131.04 119.19 130.902 119.082 130.914 119.064C130.926 119.046 131.514 119.394 132.576 119.796C133.186 120.026 133.814 120.204 134.454 120.33C135.246 120.475 136.049 120.545 136.854 120.54C137.651 120.522 138.445 120.427 139.224 120.258C139.862 120.113 140.487 119.913 141.09 119.658C142.116 119.244 142.692 118.848 142.728 118.896Z" fill="white"/>
<path d="M170.934 117.39C170.865 117.468 170.787 117.536 170.7 117.594C170.462 117.773 170.209 117.932 169.944 118.068C168.967 118.576 167.898 118.884 166.8 118.974C165.176 119.102 163.543 118.952 161.97 118.53C160.17 118.098 158.304 117.396 156.294 116.826C152.847 115.868 149.239 115.635 145.698 116.142C144.624 116.295 143.56 116.513 142.512 116.796C141.774 116.994 141.366 117.12 141.36 117.096C141.354 117.072 141.45 117.042 141.642 116.97C141.834 116.898 142.11 116.79 142.482 116.682C143.522 116.352 144.585 116.1 145.662 115.926C149.235 115.347 152.892 115.551 156.378 116.526C158.406 117.126 160.278 117.81 162.036 118.248C163.579 118.678 165.183 118.848 166.782 118.752C167.858 118.682 168.912 118.414 169.89 117.96C170.58 117.63 170.916 117.36 170.934 117.39Z" fill="white"/>
<path d="M170.436 108.384C170.311 108.418 170.182 108.438 170.052 108.444C169.8 108.444 169.452 108.516 168.942 108.552C167.578 108.585 166.213 108.487 164.868 108.258C163.164 107.982 161.172 107.478 158.976 106.884C156.622 106.186 154.213 105.684 151.776 105.384C151.135 105.331 150.493 105.311 149.85 105.324C149.532 105.324 149.22 105.324 148.908 105.354L147.99 105.462C146.821 105.628 145.673 105.915 144.564 106.32C142.428 107.076 140.562 107.946 138.924 108.498C137.642 108.968 136.301 109.263 134.94 109.374C134.571 109.407 134.199 109.407 133.83 109.374C133.699 109.378 133.568 109.365 133.44 109.338C133.57 109.328 133.7 109.328 133.83 109.338C134.197 109.34 134.564 109.318 134.928 109.272C136.271 109.116 137.59 108.792 138.852 108.306C140.466 107.736 142.314 106.848 144.468 106.068C145.592 105.65 146.756 105.35 147.942 105.174L148.884 105.06C149.202 105.06 149.52 105.06 149.844 105.06C150.497 105.047 151.149 105.067 151.8 105.12C154.259 105.422 156.688 105.934 159.06 106.65C161.25 107.25 163.224 107.79 164.916 108.09C166.246 108.337 167.595 108.466 168.948 108.474L170.052 108.432C170.178 108.401 170.307 108.385 170.436 108.384Z" fill="white"/>
<path d="M176.4 92.286C176.454 92.316 175.842 93.192 175.266 94.782C174.512 96.8565 174.305 99.0904 174.666 101.268C175.058 103.439 175.99 105.475 177.378 107.19C178.446 108.504 179.304 109.14 179.262 109.188C179.046 109.068 178.844 108.923 178.662 108.756C178.139 108.323 177.655 107.846 177.216 107.328C175.748 105.617 174.762 103.546 174.36 101.328C173.988 99.1066 174.225 96.826 175.044 94.728C175.292 94.1024 175.595 93.5001 175.95 92.928C176.074 92.6971 176.225 92.4816 176.4 92.286Z" fill="white"/>
<path d="M144.75 94.2C144.582 94.27 144.404 94.3106 144.222 94.32C143.731 94.4016 143.237 94.4557 142.74 94.482C141.997 94.5299 141.252 94.4713 140.526 94.308C139.612 94.1001 138.778 93.631 138.126 92.958C137.43 92.274 136.926 91.53 136.368 90.912C135.906 90.3607 135.359 89.8867 134.748 89.508C134.174 89.1786 133.531 88.9895 132.87 88.956C133.045 88.894 133.232 88.8735 133.416 88.896C133.922 88.9247 134.414 89.0683 134.856 89.316C135.511 89.6798 136.096 90.1572 136.584 90.726C137.142 91.326 137.676 92.082 138.342 92.736C138.951 93.3644 139.721 93.8129 140.568 94.032C141.267 94.2003 141.985 94.277 142.704 94.26C144 94.2 144.75 94.122 144.75 94.2Z" fill="white"/>
<path d="M143.544 276.912C143.46 276.912 143.388 270.624 143.388 262.866C143.388 255.108 143.46 248.82 143.544 248.82C143.628 248.82 143.7 255.108 143.7 262.866C143.7 270.624 143.634 276.912 143.544 276.912Z" fill="#263238"/>
<path d="M146.202 269.694C146.112 269.694 146.046 263.406 146.046 255.648C146.046 247.89 146.112 241.602 146.202 241.602C146.292 241.602 146.358 247.89 146.358 255.648C146.358 263.406 146.286 269.694 146.202 269.694Z" fill="#263238"/>
<path d="M270.192 286.278C270.192 286.362 216.372 286.434 150.006 286.434C83.64 286.434 29.808 286.362 29.808 286.278C29.808 286.194 83.616 286.122 150.006 286.122C216.396 286.122 270.192 286.2 270.192 286.278Z" fill="#263238"/>
</svg>
