<svg width="299" height="246" viewBox="0 0 299 246" fill="none" xmlns="http://www.w3.org/2000/svg">
<path d="M173.363 15.4684C176.296 13.2923 179.497 11.6931 183.257 11.4047C183.923 11.3522 184.59 11.2998 185.257 11.2998C213.205 11.2998 241.179 11.2998 269.127 11.2998C279.048 11.2998 286.861 18.9291 286.888 28.6821C286.915 33.7945 286.915 38.8807 286.941 43.9932C287.021 44.2816 287.208 44.5437 287.235 44.8321C287.261 45.3565 287.288 45.8808 287.261 46.4314C287.261 46.746 287.261 47.0606 287.261 47.3752C287.341 55.3454 287.341 63.3156 287.261 71.2595C287.261 71.6528 287.235 72.046 287.261 72.4655C287.288 72.9374 287.261 73.3831 287.235 73.855C287.235 74.1697 287.101 74.4318 286.941 74.7202C286.915 75.0611 286.888 75.4281 286.888 75.7689C286.888 102.458 286.888 129.148 286.888 155.838C286.888 156.178 286.915 156.545 286.941 156.886C287.075 157.096 287.181 157.306 287.208 157.568C287.315 159.429 287.261 161.265 287.235 163.126C287.235 163.362 287.235 163.624 287.235 163.86C287.315 167.321 287.261 170.755 287.261 174.216C287.261 192.464 287.315 210.711 287.235 228.959C287.208 234.202 285.101 238.607 281.021 242.067C280.434 242.487 279.821 242.88 279.101 243.064C275.661 245.213 271.927 246 267.847 246C240.113 245.948 212.351 245.974 184.617 245.974C175.763 245.974 168.056 238.921 167.389 230.269C167.229 229.798 167.309 229.326 167.309 228.854C167.309 217.659 167.309 206.464 167.309 195.243C167.309 194.64 167.363 194.01 167.016 193.46C167.069 184.86 167.043 176.287 167.043 167.688C167.043 156.991 167.069 146.321 167.016 135.624C167.016 133.71 167.123 131.796 166.963 129.882C166.909 129.725 166.856 129.568 166.829 129.384C166.776 129.122 166.776 128.886 166.723 128.624C166.669 127.89 166.696 127.129 166.696 126.395C166.696 106.391 166.696 86.3871 166.696 66.383C166.696 65.6489 166.669 64.8886 166.776 64.1545C167.229 61.9522 167.043 59.75 166.936 57.5215C166.909 57.3642 166.909 57.1806 166.936 57.0233C167.069 56.3679 167.016 55.7124 167.016 55.057C167.016 45.8022 167.016 36.5474 167.016 27.3188C166.963 25.536 167.469 23.8318 168.136 22.1801C168.243 21.9441 168.376 21.7082 168.509 21.4722C169.523 19.401 170.723 17.4871 172.483 15.9403C172.803 15.7044 173.123 15.6519 173.363 15.4684Z" fill="black"/>
<path d="M79.2521 11.2736C79.2788 9.28104 79.2788 7.26228 79.3055 5.26974C79.3322 2.14985 81.4922 0 84.6657 0C104.427 0 124.161 0 143.922 0C147.042 0 149.149 2.12363 149.175 5.21731C149.202 8.6256 149.229 12.0077 149.229 15.416C149.335 15.6257 149.442 15.8617 149.469 16.0976C149.575 17.8542 149.522 19.637 149.495 21.4198C149.495 21.6558 149.495 21.9179 149.495 22.1539C149.522 30.124 149.415 38.0942 149.549 46.0906C149.602 49.2891 147.229 51.9109 143.655 52.0158C140.508 52.0944 137.361 52.042 134.215 52.042C130.534 52.042 126.854 52.0944 123.174 52.0158C123.014 52.0158 122.827 52.0158 122.667 52.0158C120.854 52.042 119.014 52.0682 117.201 52.0158C110 52.042 102.827 52.042 95.6262 52.0158C94.2661 52.0158 93.2528 52.409 92.3461 53.3529C89.1193 56.7087 85.9725 60.1694 82.639 63.4204C82.1856 63.8399 81.7856 64.3118 81.2256 64.6264C80.2389 65.177 79.3855 64.8362 79.0388 63.7875C78.9055 63.368 78.8788 62.9223 78.8788 62.5028C78.8788 50.2067 78.8521 37.8845 78.8788 25.5884C78.7988 21.2887 78.8521 16.989 78.8521 12.6893C78.8521 12.1388 78.8788 11.6668 79.2521 11.2736Z" fill="#E74F4F"/>
<path d="M79.2522 11.2736C79.2522 16.0714 79.2522 20.8954 79.2522 25.6933C78.7722 26.1127 78.1588 26.0341 77.5988 26.0341C65.5716 26.0341 53.5444 26.0603 41.5172 26.0341C37.3837 26.0341 33.9168 22.888 33.6235 18.8242C33.5435 17.7755 33.1968 17.3823 32.1034 17.3823C28.0766 17.4347 24.0231 17.3561 19.9962 17.4085C15.596 17.4871 11.3025 20.9479 9.96912 25.3524C9.75577 26.0341 9.64909 26.7158 9.46242 27.3974C9.27574 27.948 9.30242 28.5248 9.30242 29.0753C9.30242 74.9038 9.27574 120.732 9.32908 166.534C9.32908 179.224 9.38241 191.939 9.35574 204.629C9.32907 212.363 9.35575 220.071 9.32908 227.805C9.32908 228.408 9.27575 229.037 9.43576 229.614C9.99578 233.206 11.6492 236.116 14.8493 238.082C16.6094 239.183 18.5295 239.786 20.6363 239.786C24.3964 239.786 28.1833 239.786 31.9434 239.786C32.1034 239.786 32.2634 239.76 32.4234 239.76C39.8638 239.734 47.2774 239.708 54.7178 239.76C56.2645 239.734 57.8112 239.708 59.358 239.76C67.2783 239.682 75.2254 239.734 83.1457 239.734C90.7727 239.76 98.3997 239.813 106.053 239.734C111.787 239.682 116.694 234.595 116.747 228.749C116.801 221.775 116.747 214.801 116.747 207.801C116.747 207.277 116.747 206.752 116.774 206.228C116.667 199.333 116.747 192.437 116.747 185.542C116.747 179.486 116.694 173.403 116.774 167.347C116.694 166.508 116.747 165.695 116.747 164.856C116.747 140.291 116.747 115.751 116.747 91.1849C116.747 90.3459 116.721 89.5332 116.801 88.6942C116.854 88.2485 116.987 87.829 117.334 87.5406C118.801 86.256 120.401 85.0762 121.947 83.8964C122.374 83.5818 122.881 83.5294 123.068 84.211C123.174 84.8664 123.148 85.5219 123.148 86.1773C123.148 121.23 123.281 156.257 123.068 191.31C122.988 204.052 123.041 216.767 122.908 229.509C122.908 229.719 122.907 229.955 122.854 230.165C122.107 238.816 114.587 245.843 105.733 245.843C77.3321 245.895 48.9309 245.869 20.5296 245.843C17.6495 245.843 14.9293 245.056 12.4225 243.64C11.8892 243.352 11.3292 243.116 10.7958 242.828C10.5025 242.434 9.91577 242.565 9.59576 242.198C6.23561 239.603 4.28885 236.168 3.35547 232.131C3.06213 230.794 2.98212 229.457 2.98212 228.093C2.98212 161.71 2.98212 95.3535 2.98212 28.9705C2.98212 24.0153 4.71553 19.7681 8.18235 16.1763C8.52903 15.8617 8.90239 15.5733 9.35574 15.416C11.8092 13.6856 14.3693 12.165 17.3828 11.5882C18.6895 11.3522 19.9962 11.1949 21.3296 11.1949C40.5838 11.2736 59.918 11.2736 79.2522 11.2736Z" fill="black"/>
<path d="M9.9958 242.303C10.3425 242.382 10.6358 242.539 10.7158 242.906C7.56901 242.906 4.42221 242.906 1.24874 242.959C0.368698 242.985 -0.111317 242.749 0.0220224 241.805C0.0486902 241.543 0.0220224 241.281 0.0220224 241.019C0.0220224 166.456 0.0220224 91.8928 0.0220224 17.3561C0.0220224 15.2062 -0.217995 15.4684 1.91543 15.4684C4.3422 15.4684 6.79565 15.5208 9.22242 15.547C9.08908 15.8354 8.90243 16.0714 8.60908 16.2287C6.66233 16.622 4.71557 16.386 2.76882 16.4384C1.22209 16.4909 1.08874 16.5958 1.06207 18.0902C1.06207 18.5359 1.06207 18.9553 1.06207 19.401C1.06207 92.5744 1.06207 165.722 1.06207 238.895C1.06207 242.251 0.848719 241.831 4.1822 241.936C6.12895 241.936 8.10238 241.517 9.9958 242.303Z" fill="#5882AE"/>
<path d="M286.941 157.463C286.941 157.253 286.941 157.07 286.941 156.86C290.328 156.86 293.688 156.886 297.075 156.86C297.982 156.86 298.355 157.122 298.302 158.04C298.249 159.613 298.275 161.186 298.302 162.759C298.302 163.493 298.035 163.755 297.289 163.755C295.102 163.729 292.942 163.782 290.755 163.729C290.008 163.703 289.688 163.965 289.795 164.699C289.822 164.988 289.795 165.302 289.795 165.617C289.795 190.786 289.795 215.981 289.795 241.15C289.795 243.037 289.795 243.037 287.821 243.037C284.941 243.037 282.061 243.037 279.154 243.037C279.581 242.723 280.008 242.382 280.434 242.067C282.595 241.753 284.781 241.962 286.941 241.884C288.408 241.831 288.542 241.727 288.568 240.311C288.595 239.655 288.568 239 288.568 238.344C288.568 214.67 288.568 190.969 288.568 167.295C288.568 167.032 288.542 166.77 288.568 166.508C288.755 165.145 288.381 164.149 286.915 163.755C286.915 163.546 286.915 163.362 286.915 163.152C287.448 162.707 288.088 162.811 288.702 162.785C290.995 162.759 293.315 162.759 295.609 162.785C296.675 162.811 297.129 162.418 297.102 161.343C297.022 157.28 297.582 157.883 293.608 157.83C291.928 157.804 290.248 157.83 288.568 157.83C288.008 157.83 287.421 157.883 286.941 157.463Z" fill="#688EB6"/>
<path d="M122.774 230.217C122.774 229.142 122.774 228.041 122.774 226.966C122.774 179.591 122.774 132.216 122.774 84.8403C122.774 84.4994 122.774 84.1324 122.747 83.7915C122.774 83.4245 122.934 83.5032 123.121 83.6867C123.361 84.1848 123.307 84.7092 123.334 85.2073C123.334 85.5219 123.334 85.8365 123.334 86.1511C123.414 91.7093 123.414 97.2674 123.334 102.799C123.334 103.062 123.334 103.297 123.334 103.56C123.414 109.878 123.361 116.17 123.361 122.489C123.254 124.062 123.334 125.635 123.334 127.208C123.307 127.706 123.334 128.204 123.334 128.702C123.307 132.819 123.467 136.935 123.361 141.077C123.361 141.339 123.387 141.575 123.361 141.837C123.467 144.748 123.414 147.684 123.414 150.594C123.414 162.497 123.441 174.4 123.414 186.302C123.334 186.696 123.414 187.115 123.387 187.508C123.414 188.793 123.387 190.104 123.414 191.389C123.414 191.887 123.334 192.437 123.894 192.778C124.454 193.014 125.041 192.909 125.601 192.909C138.801 192.909 151.975 192.909 165.176 192.936C165.896 192.936 166.696 192.726 167.336 193.329C167.389 193.748 167.496 194.194 167.496 194.613C167.523 206.385 167.523 218.157 167.523 229.955C167.523 230.033 167.496 230.112 167.469 230.217C167.123 229.64 167.283 229.037 167.256 228.434C167.256 217.397 167.229 206.359 167.283 195.295C167.283 193.984 166.909 193.748 165.656 193.748C151.842 193.801 138.028 193.801 124.214 193.748C123.227 193.748 122.987 193.932 122.987 194.928C123.014 206.097 123.014 217.265 122.987 228.434C122.987 229.037 123.147 229.666 122.774 230.217Z" fill="#5881AE"/>
<path d="M286.941 44.8059C286.941 44.5437 286.941 44.2553 286.941 43.9932C298.355 51.5176 298.595 66.9598 287.421 74.4843C287.288 74.5892 287.101 74.6416 286.941 74.694C286.941 74.4056 286.915 74.1435 286.915 73.8551C288.355 72.4918 289.901 71.2595 291.128 69.6865C293.582 66.5666 294.568 63.0272 294.568 59.0683C294.542 54.0083 292.462 49.9708 288.861 46.5625C288.221 45.9857 287.341 45.6449 286.941 44.8059Z" fill="#5C85B1"/>
<path d="M149.202 15.9928C149.202 15.8092 149.202 15.5995 149.202 15.416C156.776 15.416 164.349 15.416 171.923 15.4422C172.403 15.4422 172.883 15.4684 173.39 15.4946C173.256 15.7306 173.096 15.9665 172.803 16.019C172.27 16.3598 171.656 16.4122 171.016 16.4122C164.296 16.4122 157.576 16.4122 150.855 16.4122C150.242 16.386 149.655 16.4385 149.202 15.9928Z" fill="#5881AE"/>
<path d="M290.515 103.219C292.168 101.803 293.822 100.387 295.475 98.9716C295.608 98.8667 295.768 98.7618 295.955 98.8929C296.142 99.024 296.115 99.2075 295.955 99.3386C294.275 100.781 292.595 102.223 290.915 103.665C290.808 103.507 290.675 103.35 290.515 103.219Z" fill="#648BB4"/>
<path d="M173.123 167.452C173.096 166.98 173.096 166.482 173.096 166.01C173.096 120.365 173.096 74.694 173.096 29.0491C173.096 22.0228 178.163 16.989 185.284 16.989C189.15 16.989 193.017 17.0152 196.884 16.9628C197.684 16.9628 197.898 17.1201 197.924 17.9591C198.031 22.5734 201.311 25.7457 205.978 25.7457C220.005 25.7719 234.032 25.7719 248.086 25.7457C252.7 25.7457 255.953 22.6782 256.167 18.1426C256.22 17.1201 256.54 16.9628 257.473 16.989C261.26 17.0415 265.02 17.0152 268.807 17.0152C275.741 17.0152 280.541 21.3149 281.181 28.0791C281.181 74.1172 281.181 120.155 281.181 166.167C281.181 167.583 281.075 167.793 279.768 167.793C273.821 167.845 267.874 167.845 261.927 167.793C261.607 167.793 261.314 167.74 261.02 167.636C260.46 167.373 260.407 166.797 260.327 166.298C258.327 156.178 255.553 146.242 252.993 136.279C252.7 135.099 252.647 134.025 253.18 132.845C253.82 131.481 253.873 130.039 253.82 128.493C253.687 124.586 253.393 120.654 253.153 116.747C252.833 111.451 252.593 106.129 252.22 100.833C252.06 98.7618 251.847 96.6644 251.9 94.567C252.007 88.5632 247.9 85.1024 243.073 85.1811C242.886 85.1811 242.726 85.1286 242.54 85.1024C241.526 84.8402 240.513 84.9976 239.499 84.9451C238.059 84.8927 237.793 84.6567 237.713 83.2934C237.686 82.6904 237.713 82.0874 237.713 81.4844C237.686 80.4619 238.113 79.8327 239.179 79.6754C241.366 79.3345 242.94 78.1285 243.926 76.2409C246.833 70.6565 246.62 65.0459 243.66 59.5402C241.686 55.8698 238.353 54.454 234.272 54.0083C230.699 53.615 227.152 53.7461 223.659 54.3491C219.338 55.1095 216.245 57.3642 215.258 61.8474C214.592 64.9673 213.898 68.0872 213.925 71.2857C213.952 72.5704 214.192 73.8026 214.698 74.9824C216.032 78.0499 218.698 79.1772 221.899 78.0761C222.485 77.8664 223.019 77.5255 223.659 77.4731C225.312 77.7091 226.885 78.3383 228.539 78.6005C229.286 78.7315 229.632 79.2821 229.659 80.0162C229.712 81.1436 229.712 82.2709 229.659 83.3983C229.606 84.6305 229.312 84.8665 228.032 84.9189C226.059 84.9976 224.059 84.7878 222.085 85.05C220.699 85.1024 219.498 85.889 218.112 85.9414C217.712 85.6006 217.632 85.1024 217.445 84.6305C216.512 82.0088 215.312 81.1173 212.458 80.9863C211.045 80.9338 209.631 80.9338 208.218 80.9863C204.911 81.1436 202.618 83.4245 202.458 86.6493C202.431 87.1212 202.458 87.6193 202.244 88.065C202.084 88.3796 201.818 88.6156 201.578 88.8778C200.698 89.9265 200.644 90.8179 201.658 91.7355C202.538 92.522 202.804 93.4396 202.751 94.5146C202.618 96.5071 202.991 98.4996 202.538 100.466C202.298 100.807 201.898 100.885 201.524 101.017C199.578 101.672 199.284 102.091 199.258 104.058C199.258 104.346 199.258 104.661 199.258 104.949C199.231 105.421 199.258 105.893 199.151 106.365C198.938 107.387 198.538 108.331 197.844 109.144C197.471 109.511 197.471 109.957 197.577 110.429C197.444 112.316 198.058 113.889 199.471 115.174C199.711 115.384 199.871 115.646 199.951 115.934C200.458 119.657 200.538 123.433 200.831 127.182C200.938 128.597 201.178 130.013 201.258 131.429C200.884 133.054 200.164 134.601 200.271 136.384C200.458 139.556 202.884 141.575 206.085 141.156C207.125 141.025 208.138 140.631 209.231 140.841C209.365 140.894 209.498 140.972 209.578 141.077C209.738 141.654 209.551 142.204 209.391 142.755C207.311 150.594 205.178 158.433 203.178 166.298C203.044 166.823 202.884 167.321 202.298 167.531C201.658 167.74 200.991 167.688 200.324 167.688C191.951 167.688 183.577 167.688 175.203 167.688C174.563 167.793 173.79 167.95 173.123 167.452Z" fill="#ECE9E9"/>
<path d="M260.86 167.4C267.287 167.426 273.741 167.426 280.168 167.452C280.834 167.452 281.154 167.242 281.101 166.561C281.074 166.167 281.101 165.774 281.101 165.381C281.101 119.683 281.074 73.9861 281.074 28.2888C281.074 28.2102 281.128 28.1315 281.128 28.0529C281.154 28.5248 281.234 28.9967 281.234 29.4686C281.234 75.0349 281.234 120.627 281.234 166.194C281.234 186.67 281.234 207.145 281.234 227.621C281.234 228.277 281.341 228.932 281.101 229.562C280.408 229.011 280.594 228.198 280.594 227.49C280.568 221.565 280.594 215.64 280.594 209.689C280.594 209.295 280.568 208.902 280.594 208.509C280.674 207.434 280.168 207.067 279.101 207.067C275.608 207.093 272.087 207.093 268.594 207.067C267.847 207.067 267.074 207.093 266.327 206.988C265.394 206.831 264.46 206.805 263.527 206.805C242.566 206.805 221.605 206.805 200.644 206.805C199.791 206.805 198.964 206.805 198.111 206.962C197.364 207.093 196.617 207.067 195.844 207.067C188.964 207.067 182.083 207.067 175.203 207.067C174.483 207.067 173.683 207.224 173.096 206.569C173.096 193.774 173.07 180.98 173.07 168.212C173.07 167.95 173.096 167.688 173.096 167.426C182.51 167.426 191.924 167.426 201.364 167.426C201.818 167.426 202.244 167.4 202.698 167.373C203.204 166.901 203.844 166.954 204.458 166.954C222.672 166.954 240.859 166.954 259.073 166.954C259.713 166.954 260.327 166.98 260.86 167.4Z" fill="#E98F27"/>
<path d="M149.202 15.9928C157.069 15.9928 164.936 15.9928 172.776 15.9928C171.23 17.6707 169.843 19.4535 168.83 21.4985C168.296 21.8917 167.656 21.8393 167.043 21.8393C163.923 21.8393 160.829 21.8655 157.709 21.8393C156.749 21.8393 156.376 22.1277 156.376 23.1239C156.402 33.978 156.402 44.8584 156.376 55.7125C156.376 56.6825 156.749 57.0233 157.709 57.0233C160.322 56.9971 162.936 56.9971 165.576 57.0233C166.136 57.0233 166.749 56.9447 167.203 57.3904C167.496 59.2518 167.309 61.1133 167.309 63.001C167.309 63.8924 166.483 63.7613 165.896 63.7875C163.309 63.8137 160.749 63.7875 158.162 63.8137C156.402 63.8137 156.402 63.8137 156.402 65.5441C156.429 88.065 156.402 110.586 156.402 133.107C156.402 150.384 156.402 167.688 156.376 184.965C156.376 187.01 156.189 187.194 154.082 187.194C153.282 187.194 152.482 187.22 151.682 187.194C150.375 187.141 150.082 186.853 150.029 185.516C150.002 184.992 150.029 184.467 150.029 183.943C150.029 144.695 150.029 105.447 150.029 66.2257C150.029 65.5441 150.162 64.8362 149.869 64.1545C149.362 63.6302 148.695 63.8137 148.109 63.8137C140.375 63.7875 132.668 63.8137 124.934 63.8137C122.721 63.8137 122.588 63.7088 122.588 61.5328C122.588 60.6676 122.588 59.7762 122.588 58.911C122.614 57.338 122.854 57.0758 124.428 57.0496C126.774 57.0233 129.121 57.0496 131.495 57.0496C137.095 57.0496 142.668 57.0496 148.269 57.0496C149.949 57.0496 150.029 56.9709 150.029 55.3716C150.029 44.7273 150.029 34.0829 150.055 23.4386C150.055 22.6258 149.895 21.9966 149.175 21.5247C149.202 19.637 149.202 17.828 149.202 15.9928Z" fill="#FEFEFE"/>
<path d="M173.123 206.595C181.443 206.621 189.79 206.621 198.111 206.647C198.804 207.539 198.564 208.561 198.431 209.531C198.191 211.209 198.324 212.913 198.271 214.591C198.244 215.588 198.697 215.85 199.657 215.771C201.018 215.64 202.378 215.745 203.738 215.535C204.351 215.43 204.991 215.404 205.471 215.902C205.844 216.558 205.764 217.265 205.764 217.947C205.764 223.61 205.764 229.299 205.764 234.962C205.764 236.142 205.764 237.322 205.951 238.476C206.058 239.079 206.058 239.708 205.551 240.206C203.551 240.232 201.578 240.285 199.577 240.285C194.777 240.285 190.004 240.311 185.203 240.285C178.163 240.258 173.07 235.225 173.07 228.303C173.096 221.067 173.096 213.831 173.123 206.595Z" fill="#ECE9E9"/>
<path d="M266.354 206.647C270.967 206.621 275.581 206.621 280.168 206.569C281.128 206.569 281.101 207.093 281.101 207.749C281.075 214.906 281.075 222.037 281.075 229.195C281.075 229.326 281.101 229.457 281.128 229.588C280.541 235.67 275.848 240.075 269.661 240.285C268.194 240.337 266.754 240.258 265.287 240.232C263.66 238.502 262.567 236.378 261.287 234.412C256.967 227.674 252.567 220.988 248.273 214.224C247.926 213.7 247.206 213.176 247.953 212.415C249.286 211.865 250.726 211.97 252.14 211.812C256.193 211.367 260.247 211.052 264.3 210.632C266.327 210.423 266.327 210.37 266.087 208.378C266.007 207.775 265.874 207.172 266.354 206.647Z" fill="#ECE9E9"/>
<path d="M167.229 63.9186C167.283 64.3381 167.336 64.7838 167.336 65.2032C167.336 86.0463 167.336 106.889 167.336 127.706C167.336 128.099 167.283 128.493 167.229 128.86C166.243 129.489 165.149 129.174 164.109 129.2C163.176 129.227 162.696 129.515 162.803 130.511C162.829 130.852 162.829 131.219 162.803 131.56C162.723 132.766 162.403 133.107 161.202 133.159C160.056 133.212 158.909 133.159 157.736 133.159C156.669 133.159 156.189 132.687 156.269 131.613C156.296 131.298 156.269 131.01 156.269 130.695C156.269 109.17 156.269 87.6193 156.269 66.0946C156.269 65.6227 156.242 65.1246 156.296 64.6527C156.349 64.0497 156.669 63.6564 157.309 63.6302C160.509 63.604 163.683 63.4991 166.883 63.6826C167.016 63.7351 167.123 63.8661 167.229 63.9186Z" fill="#FEFEFE"/>
<path d="M247.713 212.677C250.193 216.584 252.673 220.49 255.18 224.397C258.327 229.299 261.5 234.15 264.647 239.052C264.887 239.419 265.047 239.839 265.234 240.232C260.194 240.258 255.153 240.285 250.14 240.311C247.713 240.311 245.286 240.258 242.859 240.232C242.353 239.944 241.979 239.524 241.686 239.026C239.046 234.7 236.299 230.427 233.632 226.101C231.819 223.217 230.592 220.097 229.659 216.872C229.392 215.928 228.966 215.116 228.592 214.224C228.832 214.014 229.152 213.962 229.446 213.936C234.992 213.516 240.539 212.913 246.086 212.363C246.646 212.284 247.26 212.258 247.713 212.677Z" fill="#FD9993"/>
<path d="M205.551 240.206C205.151 232.105 205.445 223.977 205.365 215.876C206.378 215.168 207.551 215.247 208.671 215.194C212.751 214.985 216.805 214.722 220.858 214.46C222.112 214.382 223.419 214.093 224.619 214.801C224.992 215.378 224.939 216.059 224.939 216.715C224.939 223.899 224.939 231.056 224.939 238.24C224.939 238.921 225.019 239.655 224.512 240.232C218.192 240.311 211.871 240.337 205.551 240.206Z" fill="#FD9993"/>
<path d="M168.536 22.0228C168.163 23.7008 167.469 25.2738 167.443 27.0304C167.283 27.5023 167.363 27.9742 167.363 28.4461C167.363 37.4388 167.363 46.4052 167.363 55.3978C167.363 57.102 167.363 57.102 165.576 57.102C162.989 57.102 160.429 57.102 157.842 57.102C156.402 57.102 156.296 56.9971 156.296 55.6338C156.296 44.8584 156.296 34.0829 156.296 23.3075C156.296 21.9966 156.536 21.7344 157.816 21.7344C161.016 21.7082 164.216 21.7344 167.389 21.7344C167.789 21.7344 168.216 21.682 168.536 22.0228Z" fill="#FEFEFE"/>
<path d="M167.229 63.9186C164.083 63.9448 160.936 63.971 157.789 63.9448C156.856 63.9448 156.589 64.2332 156.589 65.1246C156.616 87.3047 156.616 109.511 156.589 131.691C156.589 132.609 156.882 132.897 157.789 132.845C159.016 132.766 160.269 132.792 161.522 132.845C162.296 132.871 162.483 132.583 162.509 131.875C162.616 128.86 162.643 128.86 165.789 128.86C166.269 128.86 166.776 128.86 167.256 128.886C167.256 129.043 167.256 129.227 167.229 129.384C166.509 129.961 165.629 129.751 164.803 129.751C163.736 129.751 163.603 130.354 163.603 131.193C163.576 132.084 163.976 132.399 164.856 132.425C166.643 132.451 166.749 132.399 166.829 130.721C166.856 130.249 166.856 129.751 167.229 129.384C167.843 131.036 167.443 132.714 167.443 134.365C167.496 151.59 167.496 168.815 167.443 186.04C167.443 188.452 167.736 190.891 167.283 193.329C152.589 193.329 137.895 193.303 123.227 193.303C123.307 192.7 123.814 192.726 124.241 192.673C124.801 192.595 125.388 192.621 125.974 192.621C138.801 192.621 151.629 192.621 164.456 192.621C166.803 192.621 166.803 192.621 166.803 190.288C166.803 187.954 166.803 187.954 164.456 187.954C151.415 187.954 138.348 187.954 125.308 187.954C124.534 187.954 123.707 188.111 123.014 187.561C123.014 187.194 123.014 186.853 123.014 186.486C123.654 186.224 124.321 186.381 124.988 186.355C127.414 186.276 129.148 184.729 129.441 182.344C129.494 181.872 129.494 181.374 129.494 180.902C129.494 168.763 129.494 156.65 129.494 144.512C129.494 144.171 129.494 143.804 129.468 143.463C129.468 142.703 129.068 142.388 128.294 142.362C127.094 142.362 125.894 142.388 124.694 142.336C124.081 142.309 123.441 142.336 123.014 141.759C123.014 141.549 123.014 141.313 122.987 141.103C123.841 140.762 124.081 140.186 123.974 139.268C123.547 135.781 123.227 132.294 123.094 128.781C123.067 128.309 123.174 127.811 123.014 127.339C123.014 125.714 123.014 124.062 123.041 122.436C123.787 122.856 123.707 123.642 123.787 124.298C124.214 127.968 124.561 131.665 124.961 135.362C125.121 136.83 125.254 138.324 125.494 139.792C125.574 140.238 125.681 140.658 126.268 140.684C126.801 140.71 127.094 140.422 127.281 139.976C127.468 139.53 127.574 139.058 127.681 138.586C130.214 128.152 132.775 117.717 135.388 107.283C135.495 106.811 135.548 106.339 135.708 105.867C136.081 104.766 135.868 104.032 134.775 103.35C133.201 102.38 132.615 100.781 132.961 99.024C133.361 97.0052 133.868 95.0127 134.561 93.0726C135.201 91.316 136.535 90.1887 138.348 89.6905C139.308 89.4283 140.028 89.0875 140.402 88.0912C140.722 87.1736 141.468 86.7017 142.508 86.9901C143.415 87.2523 143.895 88.065 143.628 89.1924C143.388 90.2149 143.815 90.6343 144.722 90.8965C146.215 91.3684 147.469 92.1288 148.055 93.6756C148.242 94.1737 148.455 94.7243 148.055 95.17C147.629 95.6157 147.148 95.1962 146.722 95.0127C145.735 94.5146 145.202 94.9865 144.855 95.8254C144.402 96.979 144.188 98.185 143.922 99.3648C143.335 102.039 141.762 103.743 138.988 104.163C137.735 104.346 137.308 105.002 137.041 106.103C134.348 117.14 131.654 128.178 128.908 139.189C128.694 140.055 128.614 140.736 129.814 140.841C130.454 140.894 130.668 141.392 130.748 141.942C130.828 142.519 130.801 143.07 130.801 143.646C130.801 155.785 130.801 167.924 130.801 180.036C130.801 182.213 130.828 184.336 129.121 186.014C129.601 186.46 130.081 186.302 130.481 186.302C136.081 186.302 141.682 186.302 147.255 186.302C149.415 186.302 149.415 186.302 149.415 184.205C149.415 165.512 149.415 146.845 149.415 128.152C149.415 107.859 149.415 87.5669 149.415 67.2744C149.415 66.9336 149.415 66.5666 149.415 66.2257C149.415 64.2594 149.389 64.2332 147.442 64.2332C145.122 64.2332 142.828 64.2332 140.508 64.2332C135.361 64.2332 130.214 64.2332 125.068 64.2332C124.401 64.2332 123.627 64.4429 123.121 63.7088C123.307 63.3418 123.654 63.4467 123.947 63.4467C132.508 63.4467 141.095 63.4467 149.655 63.4467C149.869 63.4467 150.109 63.4467 150.295 63.5778C150.322 64.1545 150.375 64.7051 150.375 65.2819C150.375 105.211 150.375 145.167 150.375 185.096C150.375 186.774 150.375 186.774 152.082 186.774C153.095 186.774 154.135 186.748 155.149 186.774C155.709 186.774 155.976 186.591 155.922 186.014C155.896 185.621 155.922 185.228 155.922 184.834C155.922 144.905 155.922 104.949 155.922 65.0197C155.922 63.3156 155.922 63.3156 157.629 63.3156C160.482 63.3156 163.309 63.2894 166.163 63.3418C166.909 63.3418 167.176 63.1321 167.149 62.398C167.096 60.6938 167.123 58.9897 167.123 57.2855C167.656 59.5402 167.603 61.7425 167.229 63.9186Z" fill="#5882AE"/>
<path d="M224.512 240.206C224.512 231.711 224.512 223.217 224.512 214.749C225.819 213.647 227.205 214.093 228.619 214.46C229.125 214.513 229.499 214.565 229.632 215.221C230.646 220.071 232.886 224.397 235.552 228.539C238.033 232.393 240.459 236.3 242.886 240.206C236.752 240.337 230.619 240.337 224.512 240.206Z" fill="#ECE9E9"/>
<path d="M286.941 163.755C287.021 163.755 287.128 163.755 287.208 163.755C289.475 163.729 289.075 163.624 289.075 165.512C289.075 190.55 289.075 215.588 289.075 240.625C289.075 242.303 289.075 242.303 287.368 242.303C285.448 242.303 283.555 242.303 281.634 242.303C281.208 242.303 280.728 242.487 280.408 242.067C284.808 238.344 286.915 233.652 286.888 227.91C286.835 207.014 286.861 186.093 286.861 165.197C286.888 164.699 286.915 164.227 286.941 163.755Z" fill="#FEFEFE"/>
<path d="M286.915 71.4955C286.915 63.3942 286.915 55.293 286.941 47.1655C288.621 47.585 289.475 48.9745 290.382 50.2068C291.928 52.3042 292.862 54.69 293.262 57.2855C293.528 59.0683 293.208 59.4354 291.368 59.4354C290.968 59.4354 290.568 59.4616 290.328 59.4354C290.782 59.4616 291.368 59.4616 291.982 59.4354C293.075 59.3567 293.422 59.9597 293.315 60.9035C292.862 64.9411 291.128 68.4018 288.061 71.1546C287.768 71.4692 287.421 71.8101 286.915 71.4955Z" fill="#FEFEFE"/>
<path d="M286.941 157.463C290.142 157.463 293.315 157.489 296.515 157.437C297.315 157.437 297.608 157.647 297.582 158.459C297.528 159.665 297.528 160.898 297.582 162.104C297.608 162.916 297.342 163.152 296.515 163.126C293.315 163.1 290.142 163.126 286.941 163.126C286.941 161.265 286.941 159.351 286.941 157.463Z" fill="#FEFEFE"/>
<path d="M286.941 44.8059C291.502 47.585 294.088 51.7274 294.808 56.8398C295.715 63.3156 293.528 68.7688 288.408 73.0423C287.981 73.4093 287.581 73.855 286.941 73.8813C286.941 73.4356 286.941 72.9899 286.941 72.5442C287.235 71.7839 287.901 71.2857 288.488 70.7614C295.155 64.574 295.022 53.5626 287.875 47.4277C287.501 47.1131 287.101 46.8247 286.968 46.3266C286.941 45.8284 286.941 45.3303 286.941 44.8059Z" fill="#FDFDFE"/>
<path d="M168.536 22.0228C165.043 22.049 161.523 22.0752 158.029 22.049C156.962 22.0228 156.589 22.2588 156.589 23.4123C156.642 34.1354 156.642 44.8584 156.589 55.5814C156.589 56.6301 156.882 56.9185 157.922 56.8923C160.616 56.8136 163.336 56.8136 166.029 56.8923C167.069 56.9185 167.256 56.5776 167.256 55.6338C167.229 46.6412 167.229 37.6747 167.229 28.6821C167.229 28.1315 167.096 27.5547 167.443 27.0304C167.443 36.7833 167.469 46.5101 167.469 56.263C167.469 56.6563 167.416 57.0496 167.203 57.3904C163.789 57.4166 160.376 57.4166 156.962 57.469C156.056 57.4953 156.002 57.0233 156.002 56.3417C156.029 52.9072 156.002 49.4464 156.002 46.0119C156.002 38.304 156.029 30.596 155.976 22.8618C155.976 21.7869 156.242 21.4722 157.362 21.4722C161.176 21.5509 164.989 21.4985 168.803 21.4985C168.83 21.7344 168.75 21.9179 168.536 22.0228Z" fill="#5982AF"/>
<path d="M286.941 46.3528C295.475 52.6974 295.982 64.5478 288.035 71.6003C287.661 71.9149 287.315 72.2296 286.941 72.5442C286.941 72.2033 286.941 71.8625 286.941 71.5217C289.021 70.2895 290.328 68.3756 291.422 66.3306C292.302 64.6527 292.755 62.8436 293.022 60.9822C293.155 60.0646 292.968 59.6189 291.875 59.6975C290.888 59.7762 289.822 59.8811 288.861 59.4354C289.875 58.9634 290.915 59.147 291.928 59.147C292.755 59.147 293.155 58.9897 293.048 58.072C292.515 53.6413 290.648 49.9183 286.968 47.1917C286.941 46.9033 286.941 46.6149 286.941 46.3528Z" fill="#5C85B0"/>
<path d="M9.14243 27.2663C9.83579 21.5509 14.4227 17.225 20.2362 16.989C24.5031 16.8317 28.7433 16.9628 33.0102 16.9104C33.7302 16.9104 33.9435 17.1463 33.8902 17.828C33.6768 21.8917 37.2237 25.8244 42.5039 25.7457C54.7444 25.5884 67.0116 25.6933 79.2522 25.6933C79.2789 34.0305 79.2789 42.3415 79.3055 50.6787C79.3055 54.7424 79.3055 58.7799 79.3055 62.8436C79.3055 63.4991 79.2789 64.1807 80.0789 64.4953C80.879 64.7837 81.3056 64.2594 81.759 63.7875C85.4391 59.9597 89.1193 56.1319 92.7995 52.2779C93.1728 51.8847 93.5195 51.5701 94.1329 51.5701C101.813 51.5963 109.467 51.6225 117.147 51.6225C117.467 51.9633 117.547 52.409 117.547 52.8547C117.547 58.8323 117.654 64.81 117.494 70.7876C117.467 71.1022 117.387 71.4168 117.147 71.6265C115.467 73.121 113.574 74.3532 111.707 75.5854C111.12 75.9787 110.774 75.6903 110.88 75.0086C110.987 74.2221 111.227 73.488 111.414 72.7277C111.787 71.2071 111.307 70.1846 110.134 69.8962C109.147 69.6864 108.427 70.2894 107.973 71.7314C107.227 74.1434 106.533 76.5817 105.787 78.9937C105.573 79.7016 105.307 80.3832 104.88 81.0125C101.573 85.8103 98.3997 90.6868 95.1463 95.5108C94.9862 95.773 94.7996 96.0089 94.5329 96.1925C94.3729 96.2449 94.1595 96.2973 94.0262 96.1925C93.0928 95.6157 92.5861 96.0876 92.1061 96.8217C90.9061 98.552 89.5993 100.204 88.3726 101.934C87.4126 103.297 87.0659 103.324 85.7325 102.301C80.6389 98.4734 75.9987 94.1737 71.5719 89.6643C71.1985 89.2972 70.8785 88.8777 70.5585 88.432C68.3717 85.2335 65.2516 83.7653 61.4381 83.6342C59.4913 83.5818 57.5446 83.5818 55.5712 83.6604C54.6911 83.6342 53.7844 83.8177 52.9577 83.4245C52.1843 81.7203 52.5577 79.9375 52.691 78.181C52.7444 77.5255 53.4644 77.4206 54.0244 77.2896C55.2778 77.0274 56.5312 76.7128 57.7312 76.2933C61.1447 75.0873 62.9581 72.7015 63.1715 69.1621C63.1982 68.7688 63.1982 68.3756 63.3315 68.0085C63.5182 67.5628 63.9182 67.3793 64.3182 67.1696C65.9449 66.3044 66.825 64.9935 66.665 63.1583C66.505 61.2968 65.3849 60.1957 63.6515 59.5664C63.4382 59.4878 63.2248 59.4091 63.0382 59.3043C62.1314 58.6488 62.2115 57.6263 62.0781 56.7087C61.8114 54.821 61.5981 52.9072 60.0247 51.4652C58.9846 50.4951 57.7846 49.9708 56.3445 49.9184C51.5977 49.7611 46.8774 50.1281 42.1306 50.233C39.8104 50.2854 38.1304 51.7798 37.7304 54.0607C37.3303 56.3155 37.4637 58.5702 37.6503 60.8249C37.3837 63.8923 37.2237 66.986 36.877 70.0535C36.5836 72.4655 35.7303 74.694 34.4502 76.7914C34.2369 77.1322 34.0235 77.4469 33.8635 77.8139C33.0635 79.3607 33.7569 80.4619 35.5436 80.2521C37.837 79.99 40.1571 80.1473 42.4506 80.0948C43.0106 80.0948 43.624 80.0424 44.1306 80.4095C44.6373 81.2746 44.4773 82.1922 44.3173 83.0836C44.264 83.2147 44.184 83.3458 44.0773 83.4507C43.1973 83.8702 42.2639 83.608 41.3572 83.7653C40.8238 83.7391 40.2905 84.0799 39.7571 83.8964C35.1969 83.6342 30.5834 83.1623 26.3699 85.5481C22.6364 87.6455 20.2629 90.5294 20.5029 95.0389C20.7163 99.1288 20.9829 103.219 21.2229 107.309C21.4363 110.743 21.623 114.178 21.8363 117.612C22.0763 121.624 22.263 125.609 22.583 129.62C22.7163 131.193 22.6363 132.766 22.8497 134.313C23.2764 137.38 24.9564 139.399 28.0232 140.028C30.85 140.605 30.6634 140.579 30.2634 143.306C29.1433 150.83 28.0766 158.354 26.9032 165.853C26.7965 166.534 26.7699 167.268 26.0498 167.662C25.5431 167.871 25.0098 167.845 24.4764 167.871C19.9962 167.871 15.516 167.898 11.0358 167.871C9.16909 167.871 9.06241 167.767 9.06241 165.984C9.06241 120.26 9.06241 74.5105 9.06241 28.787C9.06241 28.2364 8.98242 27.7382 9.14243 27.2663Z" fill="#ECE9E9"/>
<path d="M123.014 51.6749C123.494 51.6487 123.974 51.5701 124.454 51.5701C130.721 51.5701 136.961 51.4914 143.228 51.5963C146.695 51.6487 149.255 49.3153 149.175 45.776C149.015 38.4088 149.122 31.0417 149.122 23.6483C149.122 23.1239 149.149 22.5996 149.175 22.0752C149.709 21.682 149.975 21.9442 150.109 22.4685C150.189 22.8093 150.135 23.1764 150.135 23.5172C150.135 34.1091 150.135 44.701 150.135 55.293C150.135 57.102 150.135 57.102 148.269 57.102C140.375 57.102 132.481 57.102 124.588 57.102C122.667 57.102 122.534 57.0233 122.587 55.0832C122.641 53.9559 122.241 52.7236 123.014 51.6749Z" fill="#FEFEFE"/>
<path d="M117.147 71.1809C117.147 64.6527 117.121 58.1245 117.121 51.5963C119.014 51.5438 120.907 51.4652 122.801 51.6487C122.881 56.9971 122.747 62.3455 123.041 67.6677C122.987 68.1396 122.774 68.5067 122.294 68.6115C120.801 68.9524 119.627 69.87 118.454 70.7352C118.081 71.0235 117.707 71.3644 117.147 71.1809Z" fill="black"/>
<path d="M122.827 68.061C122.827 62.5815 122.827 57.102 122.801 51.6487C122.854 51.6225 122.934 51.6487 122.987 51.6487C122.987 53.0907 123.014 54.5327 122.987 55.9746C122.961 56.6563 123.174 56.866 123.867 56.866C132.241 56.8398 140.615 56.8398 149.015 56.866C149.762 56.866 149.895 56.5776 149.895 55.9484C149.869 44.9632 149.895 33.978 149.895 22.9929C149.895 22.4947 149.975 21.9704 149.202 22.0752C149.202 21.8655 149.202 21.682 149.202 21.4722C150.135 21.3411 150.509 21.6295 150.509 22.652C150.455 33.8207 150.455 44.9894 150.509 56.1844C150.509 57.3117 150.055 57.4428 149.095 57.4428C140.828 57.4166 132.561 57.4428 124.321 57.4166C123.307 57.4166 122.907 57.6263 122.987 58.7013C123.094 59.8811 123.094 61.0609 122.987 62.2407C122.907 63.2631 123.281 63.4467 124.241 63.4467C132.508 63.3942 140.775 63.4204 149.015 63.4467C149.469 63.4467 150.002 63.2107 150.375 63.6826C141.842 63.6826 133.308 63.6826 124.774 63.6826C124.268 63.6826 123.707 63.4991 123.254 63.8924C123.414 65.2295 123.494 66.5403 123.201 67.8774C123.121 68.0085 122.987 68.061 122.827 68.061Z" fill="#5A83AF"/>
<path d="M113.707 13.4234C106.907 13.4234 100.106 13.4234 93.3328 13.4234C93.0128 13.4234 92.7194 13.4234 92.3994 13.4234C92.0794 13.4234 91.7327 13.371 91.706 13.004C91.6794 12.6107 92.0261 12.532 92.3461 12.532C92.6128 12.532 92.8794 12.532 93.1461 12.532C106.907 12.532 120.694 12.532 134.455 12.532C134.988 12.532 135.895 12.2436 135.921 12.9777C135.948 13.7905 135.015 13.4234 134.535 13.4497C127.574 13.4234 120.641 13.4234 113.707 13.4234Z" fill="#FEFEFE"/>
<path d="M109.547 30.4387C104.08 30.4387 98.6397 30.4387 93.1728 30.4387C92.8261 30.4387 92.4527 30.4387 92.1061 30.4124C91.8661 30.3862 91.6794 30.2289 91.6794 29.993C91.6794 29.757 91.8394 29.5735 92.0794 29.5473C92.4261 29.5211 92.7994 29.5211 93.1461 29.5211C104.107 29.5211 115.04 29.5211 126.001 29.5473C126.508 29.5473 127.414 29.2327 127.441 29.993C127.441 30.8057 126.534 30.4387 126.054 30.4387C120.534 30.4649 115.04 30.4387 109.547 30.4387Z" fill="#FEFEFE"/>
<path d="M103.467 21.9966C99.9198 21.9966 96.373 21.9966 92.7995 21.9966C92.3461 21.9966 91.6528 22.2063 91.6795 21.4722C91.7061 20.7643 92.3995 21.0003 92.8528 21.0003C99.9465 21.0003 107.067 21.0003 114.16 21.0003C114.614 21.0003 115.334 20.7906 115.334 21.4722C115.361 22.285 114.56 22.0228 114.107 22.0228C110.56 21.9966 107.013 21.9966 103.467 21.9966Z" fill="#FDF7F7"/>
<path d="M97.6797 39.0118C95.9996 39.0118 94.3196 39.0118 92.6395 39.0118C92.2395 39.0118 91.7328 39.0905 91.7061 38.5661C91.6528 37.9107 92.2394 37.9894 92.6661 37.9894C96.133 37.9894 99.5731 37.9894 103.04 37.9894C103.44 37.9894 103.947 37.9369 104 38.4613C104.053 39.1167 103.467 39.0118 103.04 39.0118C101.227 39.0118 99.4398 39.0118 97.6797 39.0118Z" fill="#FDF6F6"/>
<path d="M9.14243 27.2663C9.14243 27.9218 9.16909 28.5772 9.16909 29.2326C9.16909 74.7464 9.16909 120.234 9.16909 165.748C9.16909 167.662 8.92906 167.452 10.8491 167.452C15.996 167.452 21.1429 167.426 26.2898 167.4C26.8765 166.849 27.6232 166.98 28.3166 166.98C33.9168 166.98 39.4904 166.954 45.0907 166.98C46.1307 166.98 47.0108 166.797 47.7041 166.01C48.3975 166.901 49.3309 167.032 50.3976 166.98C51.5443 166.928 52.691 166.954 53.8377 166.98C56.5578 166.928 59.278 166.928 62.0247 166.98C70.1051 166.928 78.1588 166.901 86.2392 166.98C94.4529 166.901 102.667 166.954 110.854 166.928C112.374 166.928 113.867 166.928 115.387 166.928C116 166.928 116.64 166.901 117.147 167.373C117.174 178.306 117.174 189.239 117.174 200.172C117.174 202.269 117.12 204.34 117.094 206.438C116.694 206.778 116.214 206.805 115.707 206.805C108.56 206.805 101.386 206.857 94.2395 206.778C87.9459 206.857 81.6789 206.805 75.3853 206.805C74.3719 206.805 73.3586 206.805 72.3452 206.883C66.9316 206.7 61.4914 206.857 56.0778 206.805C55.4645 206.805 54.8511 206.805 54.2377 206.778C47.9975 206.857 41.7305 206.805 35.4902 206.805C35.1702 206.805 34.8769 206.805 34.5569 206.805C32.6368 206.805 32.5834 206.857 32.5834 208.823C32.5834 218.55 32.5834 228.277 32.5834 237.977C32.5834 238.738 32.7435 239.577 32.1034 240.206H32.0234L31.9968 240.153C31.3034 239.577 31.4901 238.79 31.4901 238.082C31.4634 228.565 31.4901 219.074 31.4901 209.557C31.4901 209.164 31.4901 208.771 31.4901 208.378C31.4367 206.936 31.3301 206.805 29.8633 206.805C23.7031 206.778 17.5428 206.778 11.3558 206.805C9.83577 206.805 9.70245 206.936 9.70245 208.456C9.67578 214.906 9.70245 221.355 9.67579 227.805C9.67579 228.513 9.83577 229.299 9.22241 229.902C8.84906 229.378 9.00909 228.801 9.00909 228.251C9.00909 220.228 9.06241 212.205 9.06241 204.157C9.03574 145.849 9.03576 87.5669 9.00909 29.2589C8.90242 28.6296 8.74241 27.9218 9.14243 27.2663Z" fill="#459257"/>
<path d="M117.094 167.4C106.8 167.4 96.4796 167.4 86.1858 167.4C85.6791 166.98 85.5457 166.377 85.4124 165.774C84.239 160.871 83.0123 155.969 81.8122 151.092C81.6789 150.515 81.4922 149.912 81.8656 149.336C82.4256 148.837 83.0923 148.916 83.759 148.916C86.5058 148.89 89.2526 148.916 91.9994 148.916C94.5328 148.89 95.3595 148.077 95.3595 145.455C95.3862 136.83 95.3595 128.204 95.3595 119.579C95.3595 118.845 95.3329 118.11 95.4396 117.376C96.2129 115.489 97.6797 114.047 98.9064 112.447C100.72 110.114 102.56 107.833 104.373 105.5C104.8 104.949 105.093 104.399 104.987 103.717C105.12 103.14 105.493 102.721 105.813 102.249C108.64 98.2112 111.52 94.2262 114.374 90.1887C115.014 89.271 115.627 88.1699 117.067 88.2486C117.094 88.5632 117.121 88.8516 117.121 89.1662C117.121 114.991 117.121 140.815 117.121 166.639C117.121 166.875 117.121 167.137 117.094 167.4Z" fill="#ECE9E9"/>
<path d="M94.2129 206.516C101.84 206.49 109.467 206.49 117.094 206.464C117.094 214.198 117.254 221.906 117.067 229.64C116.934 235.093 111.894 240.049 106.4 240.18C98.7197 240.337 91.0394 240.206 83.3591 240.206C83.0124 239.524 83.4124 238.921 83.5991 238.318C86.7192 229.168 89.6527 219.966 92.8262 210.842C93.1462 209.898 93.4128 208.928 93.6262 207.932C93.7062 207.408 93.7595 206.883 94.2129 206.516Z" fill="#ECE9E9"/>
<path d="M94.2128 206.516C93.6261 210.554 91.9461 214.277 90.6927 218.131C88.2926 225.498 85.7858 232.839 83.3324 240.18C75.3054 240.18 67.2784 240.18 59.2514 240.18C58.9047 239.603 59.2514 239.079 59.4647 238.554C63.4915 228.356 67.4117 218.104 71.4119 207.88C71.5986 207.381 71.7585 206.883 72.2919 206.621C72.4519 206.569 72.6119 206.464 72.7719 206.464C79.9189 206.49 87.0659 206.49 94.2128 206.516Z" fill="#8F3600"/>
<path d="M32.0502 240.232C32.0502 229.509 32.1035 218.76 32.0502 208.037C32.0502 206.647 32.4769 206.385 33.7569 206.411C40.5839 206.49 47.4108 206.49 54.2645 206.49C54.6912 206.962 54.6378 207.539 54.6645 208.089C55.0378 215.116 54.9045 222.142 54.9578 229.142C54.9845 232.183 55.3312 235.225 55.1978 238.292C55.1712 238.947 55.2512 239.603 54.7445 240.153C47.1708 240.206 39.5972 240.232 32.0502 240.232Z" fill="#8F3600"/>
<path d="M9.14252 229.955C9.14252 222.64 9.16918 215.299 9.14252 207.984C9.14252 206.857 9.35585 206.411 10.6359 206.438C17.2495 206.516 23.8631 206.49 30.4501 206.438C31.5968 206.438 31.9435 206.674 31.9435 207.88C31.8902 218.655 31.9168 229.404 31.9168 240.18C27.81 240.18 23.6765 240.363 19.5696 240.153C14.2627 239.891 9.75588 235.329 9.14252 229.955Z" fill="#ECE9E9"/>
<path d="M9.99582 242.303C7.19571 242.303 4.39559 242.303 1.59548 242.33C0.875451 242.33 0.502116 242.172 0.608787 241.386C0.635454 241.097 0.608787 240.783 0.608787 240.468C0.608787 166.246 0.608787 92.0239 0.608787 17.8017C0.608787 15.7043 0.342083 15.9665 2.44883 16.0189C4.50225 16.0714 6.58236 15.7568 8.63577 16.2025C4.95562 19.8729 3.30222 24.2513 3.30222 29.4162C3.32889 95.0127 3.35554 160.583 3.24887 226.179C3.24887 232.603 4.95562 238.03 9.99582 242.303Z" fill="#FDFDFD"/>
<path d="M117.094 88.2485C115.841 88.7467 115.094 89.743 114.374 90.7917C111.307 95.1176 108.214 99.4435 105.12 103.796C104.533 103.953 104.107 103.56 103.68 103.271C100.827 101.226 97.9997 99.1551 95.1463 97.1101C94.7996 96.8741 94.3462 96.6644 94.3996 96.1138C97.1464 91.9714 99.7865 87.7242 102.72 83.6867C104.72 80.9338 105.893 77.9188 106.747 74.694C107.067 73.5142 107.413 72.3607 107.814 71.2071C108.267 69.8438 109.28 69.2145 110.374 69.5554C111.6 69.9224 112.16 70.9973 111.84 72.3344C111.6 73.3831 111.334 74.4319 110.987 75.8214C113.2 74.1697 115.201 72.7015 117.174 71.2333C119.014 70.1059 120.587 68.5329 122.854 68.1134C122.934 68.1134 122.988 68.1134 123.041 68.0872C124.374 67.5104 125.521 68.0872 126.641 68.7164C127.068 69.3981 126.428 69.634 126.054 69.9224C124.454 71.076 122.854 72.2296 121.227 73.3569C120.827 73.6191 120.401 73.8551 120.187 74.3532C121.521 73.6978 122.694 72.7539 123.921 71.915C125.121 71.1022 126.161 70.1059 127.548 69.5554C128.668 69.87 129.468 70.5779 130.028 71.5479C129.974 72.1247 129.468 72.282 129.094 72.5704C127.174 73.9861 125.201 75.297 123.414 76.8701C124.134 76.6341 124.721 76.2146 125.308 75.7689C126.694 74.7465 128.108 73.7502 129.521 72.7801C129.921 72.518 130.294 72.2034 130.828 72.1771C133.175 72.5966 133.708 75.9787 131.895 77.2634C129.094 79.2035 126.401 81.2484 123.788 83.3983C123.574 83.5556 123.334 83.6867 123.068 83.6867C122.988 83.7391 122.907 83.7915 122.854 83.844C120.774 85.1549 118.881 86.623 117.094 88.2485Z" fill="#FD9993"/>
<path d="M54.7445 240.206C54.5845 228.985 54.4245 217.737 54.2645 206.516C59.9714 206.516 65.7049 206.49 71.4119 206.49C71.7052 206.49 72.0252 206.595 72.3185 206.647C67.9717 217.842 63.6249 229.011 59.278 240.206C57.758 240.206 56.2379 240.206 54.7445 240.206Z" fill="#ECE9E9"/>
<path d="M122.987 83.6342C125.388 81.3795 128.001 79.4132 130.721 77.578C133.281 75.8476 133.361 73.8026 130.748 72.282C130.428 72.0723 130.161 71.8101 129.894 71.5217C129.121 70.8925 128.454 70.1321 127.574 69.6602C127.281 69.4505 126.988 69.2407 126.748 68.9524C125.574 68.4018 124.321 68.1396 123.041 68.0347C123.148 66.6452 122.774 65.2295 123.254 63.8661C123.788 63.8924 124.321 63.971 124.828 63.971C132.695 63.971 140.562 63.9972 148.402 63.9448C149.495 63.9448 149.922 64.0759 149.922 65.3343C149.869 105.369 149.895 145.403 149.922 185.437C149.922 186.591 149.629 186.879 148.455 186.879C141.708 186.827 134.961 186.853 128.214 186.853C128.188 186.722 128.108 186.591 128.134 186.565C130.134 184.992 130.508 182.894 130.481 180.482C130.401 167.871 130.428 155.261 130.454 142.624C130.454 141.654 130.348 140.972 129.121 141.182C127.948 141.392 128.108 140.71 128.294 139.976C130.748 130.118 133.175 120.26 135.601 110.376C136.028 108.593 136.481 106.811 136.881 105.028C137.041 104.267 137.308 103.874 138.241 103.848C141.228 103.717 142.882 102.196 143.522 99.2599C143.815 97.9491 144.135 96.612 144.562 95.3535C145.042 93.9902 145.788 93.8329 146.989 94.7243C147.255 94.9078 147.549 95.2224 147.789 95.0651C148.135 94.8554 147.895 94.4359 147.815 94.1213C147.495 92.9415 146.775 92.1287 145.628 91.6568C145.068 91.4209 144.455 91.2373 143.868 91.0538C143.042 90.8179 142.615 90.4508 143.122 89.5856C143.228 89.4021 143.255 89.1661 143.335 88.9564C143.628 88.1437 143.255 87.5407 142.535 87.2523C141.762 86.9377 140.962 87.1998 140.828 87.9864C140.588 89.5594 139.575 89.8216 138.215 90.11C136.508 90.4508 135.335 91.6568 134.828 93.3085C134.295 95.0913 133.761 96.9003 133.335 98.7356C132.828 100.885 133.708 102.616 135.815 103.533C136.481 103.822 136.508 104.084 136.348 104.687C133.441 116.511 130.534 128.309 127.681 140.133C127.388 141.365 126.614 141.103 125.814 141.156C124.828 141.208 125.094 140.474 125.041 139.976C124.268 134.129 123.974 128.257 123.014 122.436C123.014 116.144 123.014 109.826 122.987 103.533C123.441 102.826 124.321 102.773 124.908 102.275C126.668 100.781 127.441 98.9191 126.961 96.6906C126.321 93.7542 125.414 90.8965 124.641 87.9864C124.348 86.8852 123.414 86.0725 122.961 85.05C122.987 84.6043 122.987 84.1324 122.987 83.6342Z" fill="#FEFEFE"/>
<path d="M123.041 141.785C124.961 141.811 126.854 141.864 128.774 141.864C129.575 141.864 129.948 141.995 129.948 142.912C129.921 155.969 129.948 168.999 129.921 182.055C129.921 185.542 126.534 187.666 123.041 186.486C123.014 171.594 123.014 156.703 123.041 141.785Z" fill="#FEFEFE"/>
<path d="M123.014 187.561C126.161 187.535 129.308 187.508 132.455 187.508C143.602 187.508 154.722 187.535 165.869 187.482C166.963 187.482 167.363 187.744 167.256 188.846C167.149 189.842 167.149 190.864 167.256 191.861C167.363 192.936 166.909 193.145 165.896 193.145C152.189 193.119 138.482 193.119 124.774 193.145C124.268 193.145 123.708 192.962 123.228 193.329C122.721 191.415 123.148 189.475 123.014 187.561Z" fill="#FDFDFD"/>
<path d="M123.014 102.93C123.014 97.2936 123.014 91.6568 123.014 86.02C124.161 86.0987 124.348 87.1212 124.561 87.829C125.601 90.9752 126.454 94.1475 127.174 97.3723C127.601 99.3386 125.974 102.039 124.108 102.878C123.761 103.035 123.388 103.245 123.014 102.93Z" fill="#FEFEFE"/>
<path d="M123.014 102.93C125.468 102.301 127.361 99.8105 126.828 97.4247C126.134 94.1999 125.174 91.0276 124.241 87.829C124.054 87.1474 123.681 86.4657 123.014 86.02C123.014 85.7316 123.014 85.417 122.987 85.1286C124.027 85.8889 124.668 86.9376 125.014 88.1174C125.841 90.9489 126.641 93.8067 127.334 96.6906C128.081 99.7581 126.108 102.852 123.014 103.612C123.014 103.376 123.014 103.14 123.014 102.93Z" fill="#5F87B2"/>
<path d="M123.201 128.624C123.627 132.478 124.027 136.332 124.507 140.186C124.694 141.706 123.707 141.103 123.014 141.129C123.014 136.961 123.014 132.792 123.041 128.624C123.094 128.624 123.147 128.624 123.201 128.624Z" fill="#F9FAFB"/>
<path d="M123.201 128.624H123.121H123.041C123.041 128.204 123.041 127.811 123.041 127.391C123.387 127.759 123.227 128.204 123.201 128.624Z" fill="#CED7E2"/>
<path d="M260.86 167.4C260.407 167.426 259.98 167.452 259.527 167.452C241.073 167.452 222.619 167.452 204.164 167.452C203.684 167.452 203.178 167.426 202.698 167.4C204.778 158.617 207.285 149.965 209.525 141.234C209.605 141.077 209.738 140.946 209.898 140.867C214.112 139.452 217.552 136.699 221.339 134.549C222.512 133.893 223.552 133.657 224.832 134.156C226.725 134.89 228.699 135.467 230.672 135.938C232.859 136.437 234.939 136.148 236.939 135.099C236.699 134.601 236.273 134.523 235.926 134.365C231.579 132.216 227.205 130.066 222.805 127.994C222.112 127.654 221.552 127.837 220.912 127.968C220.538 126.553 219.205 126.29 218.112 125.714C217.898 125.609 217.685 125.504 217.445 125.399C216.698 124.979 215.872 124.691 215.098 124.272C214.858 124.036 214.752 123.747 214.805 123.406C217.178 120.418 219.338 117.298 221.712 114.335C222.325 113.549 222.379 112.998 221.632 112.211C220.165 110.638 218.832 108.96 216.805 108.017C216.565 107.912 216.378 107.702 216.352 107.414C216.272 106.68 216.138 105.945 216.032 105.238C215.738 103.14 214.805 101.541 212.618 100.912C212.405 100.859 212.218 100.702 212.165 100.492C212.245 100.099 212.431 99.7581 212.458 99.3648C212.565 98.5783 213.152 98.3423 213.818 98.1064C217.178 96.979 218.218 95.4584 218.272 91.9976C218.298 90.4246 218.005 88.8777 217.898 87.3047C217.872 86.8328 217.685 86.3608 218.112 85.9676C219.312 85.3646 220.619 84.9975 221.952 84.814C228.779 84.7616 235.606 84.2372 242.433 84.7878C243.206 85.1024 244.006 84.8665 244.78 85.0238C248.993 85.8103 251.82 88.8515 252.087 93.1774C252.593 101.279 253.02 109.354 253.473 117.455C253.687 121.335 253.9 125.189 254.14 129.069C254.22 130.59 254.06 132.058 253.313 133.369C252.887 134.129 252.887 134.785 253.073 135.598C255.447 144.931 258.06 154.186 260.007 163.624C260.354 164.83 260.594 166.115 260.86 167.4Z" fill="#202B6D"/>
<path d="M223.419 77.7353C219.045 80.3046 214.751 78.4169 213.845 73.4618C213.071 69.3194 214.138 65.3081 215.018 61.323C215.738 57.9934 217.952 55.8698 221.178 54.69C223.579 53.7986 226.112 53.615 228.619 53.4577C231.606 53.2742 234.566 53.615 237.473 54.218C240.246 54.7948 242.273 56.499 243.633 58.8323C246.886 64.3643 247.206 70.1321 244.513 75.9787C243.499 78.1547 241.873 79.6754 239.339 79.99C238.379 79.8851 237.446 80.357 236.459 79.9638C234.886 79.3345 233.899 78.2858 233.526 76.6603C232.992 74.327 232.832 71.9149 232.459 69.5554C232.192 67.7988 231.872 66.016 231.526 64.2856C230.992 61.5852 229.099 59.6975 227.392 57.6788C226.752 56.9447 226.005 56.3155 225.339 55.6338C224.592 54.8997 223.845 54.8735 222.939 55.3716C221.525 56.1581 220.752 57.3642 220.272 58.8323C219.872 60.0384 219.818 61.323 219.605 62.5552C219.525 63.0272 219.712 63.368 220.032 63.735C220.938 64.7575 220.912 65.0197 219.818 65.78C219.365 66.0946 219.098 66.4355 219.072 66.9336C218.965 68.664 218.805 70.4205 219.178 72.1509C219.605 74.0124 220.645 75.4805 222.245 76.5817C222.725 76.8963 223.392 77.0536 223.419 77.7353Z" fill="black"/>
<path d="M223.419 77.7353C221.072 76.3982 219.205 74.6678 218.778 71.8887C218.458 69.9486 218.592 67.9823 218.832 66.016C218.885 65.4654 219.098 65.413 219.578 65.4916C220.058 65.5965 220.352 65.2557 220.432 64.8362C220.512 64.3905 220.219 63.9972 219.819 63.971C219.072 63.9186 219.125 63.4991 219.178 63.001C219.392 61.4803 219.552 59.9859 220.005 58.4915C220.565 56.6563 221.792 55.4241 223.499 54.6113C224.059 54.3491 224.432 54.3754 224.912 54.7948C226.859 56.5252 228.619 58.4129 230.192 60.4841C231.792 62.5815 232.086 65.0459 232.486 67.4842C232.912 70.0535 233.232 72.649 233.606 75.2446C234.086 78.7315 235.419 79.8327 239.339 79.9638C238.193 80.0162 238.059 80.6716 238.086 81.6679C238.139 84.5781 238.113 84.5781 241.073 84.6043C241.553 84.6043 242.033 84.4732 242.486 84.7091C235.659 84.9451 228.832 84.7878 221.979 84.7354C224.005 84.447 226.032 84.6305 228.059 84.6305C229.072 84.6305 229.392 84.3421 229.312 83.372C229.232 82.2971 229.259 81.196 229.312 80.0948C229.339 79.4132 229.126 78.9937 228.406 78.9413C226.699 78.8102 225.099 78.1285 223.419 77.7353Z" fill="#FD9993"/>
<path d="M216.538 107.466C219.125 108.541 220.725 110.743 222.539 112.71C222.805 112.998 222.885 113.26 222.619 113.627C220.138 116.878 217.685 120.103 215.232 123.354C215.178 123.406 215.072 123.433 214.992 123.459C214.458 123.616 214.058 123.302 213.632 123.092C209.605 121.125 205.551 119.159 201.524 117.14C200.858 116.8 200.138 116.537 199.791 115.803C197.817 114.44 197.044 112.578 197.364 110.245C197.844 109.931 198.191 110.298 198.564 110.507C200.324 111.425 202.004 112.447 203.738 113.391C204.164 113.627 204.538 113.942 205.124 113.863C204.431 113.286 203.631 112.841 202.831 112.421C201.338 111.661 199.924 110.796 198.457 109.983C198.111 109.799 197.711 109.642 197.631 109.196C198.057 108.357 198.617 107.597 198.857 106.653C201.311 108.436 204.084 109.695 206.858 111.294C206.778 110.717 206.404 110.638 206.138 110.481C204.191 109.354 202.191 108.305 200.244 107.178C199.711 106.863 199.097 106.601 199.338 105.788C200.591 104.136 202.351 103.691 204.804 104.399C206.778 105.002 208.698 105.841 210.778 106.077C212.005 106.208 213.231 106.286 214.458 106.522C215.205 106.706 216.058 106.68 216.538 107.466Z" fill="#FD9993"/>
<path d="M218.138 85.8889C218.298 87.9339 218.698 89.9527 218.698 91.9976C218.672 95.4584 217.232 97.4509 213.845 98.421C213.285 98.5783 212.672 98.6045 212.618 99.3648C211.925 99.1813 211.338 99.2075 211.151 100.046C211.071 100.361 210.831 100.518 210.511 100.597C208.351 100.676 206.191 100.964 204.031 100.964C203.471 100.964 202.858 101.017 202.404 100.571C202.404 98.3161 202.378 96.0352 202.378 93.7804C202.378 93.3085 202.404 92.889 201.951 92.4696C199.844 90.6081 199.898 89.6118 202.164 87.9339C203.204 86.9376 204.564 86.4395 205.871 86.02C208.565 85.1811 211.071 84.0537 213.232 82.2185C213.818 81.6941 214.378 81.6941 215.018 82.166C216.005 82.9001 217.018 83.5818 217.845 84.4994C217.925 85.0238 218.032 85.4432 218.138 85.8889Z" fill="#FD9993"/>
<path d="M218.192 125.478C219.072 125.609 219.792 126.133 220.565 126.5C221.152 126.762 221.259 127.208 220.832 127.732C220.245 128.624 219.205 128.912 218.378 129.436C216.858 130.407 215.258 131.219 213.818 132.294C214.298 132.399 214.645 132.084 214.992 131.901C216.778 130.852 218.565 129.803 220.378 128.755C220.672 128.571 221.019 128.362 221.365 128.624C221.659 128.886 221.659 129.253 221.579 129.594C221.339 130.538 220.859 131.377 220.192 132.111C217.392 135.126 214.032 137.511 210.965 140.212C210.485 140.631 209.925 140.867 209.338 141.103C207.605 141.182 205.925 141.916 204.111 141.47C201.818 140.92 200.244 139.294 200.031 136.961C199.871 135.099 200.164 133.317 201.151 131.691C201.418 131.062 201.898 130.616 202.484 130.302C206.298 128.257 210.138 126.264 214.032 124.35C214.432 124.167 214.805 123.878 215.285 124.062C216.192 124.141 216.912 124.586 217.605 125.084C217.392 125.635 216.885 125.818 216.432 126.081C214.805 127.051 213.178 127.994 211.551 128.991C211.205 129.2 210.725 129.305 210.538 129.987C213.205 128.545 215.712 127.051 218.192 125.478Z" fill="#FD9993"/>
<path d="M215.258 124.114C211.018 126.264 206.778 128.414 202.564 130.616C202.031 130.905 201.604 131.35 201.124 131.744C200.431 129.777 200.618 127.706 200.458 125.687C200.191 122.41 200.004 119.107 199.791 115.829C204.751 118.582 209.925 120.942 214.992 123.485C215.072 123.669 215.152 123.904 215.258 124.114Z" fill="black"/>
<path d="M209.311 141.129C211.658 139.216 213.952 137.249 216.325 135.388C217.738 134.26 219.018 133.002 220.192 131.639C220.885 130.852 221.365 129.908 221.285 128.597C219.498 129.646 217.818 130.616 216.138 131.613C215.498 131.98 214.858 132.399 214.192 132.766C213.872 132.923 213.471 133.29 213.178 132.74C212.938 132.294 213.338 132.137 213.632 131.953C213.978 131.744 214.298 131.534 214.645 131.35C216.698 130.171 218.752 128.965 220.805 127.785C221.419 126.972 222.059 127.26 222.805 127.654C227.365 129.908 231.952 132.111 236.513 134.339C236.913 134.523 237.366 134.628 237.713 135.099C235.152 136.568 232.512 136.935 229.712 136.069C227.845 135.493 225.979 134.968 224.139 134.313C223.339 134.025 222.752 134.129 222.059 134.549C218.992 136.41 215.898 138.167 212.858 140.055C211.818 140.71 210.645 140.92 209.498 141.261C209.445 141.208 209.365 141.182 209.311 141.129Z" fill="black"/>
<path d="M202.378 100.597C205.231 100.649 208.058 100.335 210.911 100.23C211.391 99.9678 211.871 99.9154 212.298 100.361C215.898 101.305 216.592 103.822 216.538 107.44C215.018 106.915 213.445 106.68 211.871 106.601C209.311 106.496 207.018 105.5 204.644 104.739C202.564 104.084 200.831 104.372 199.391 106.05C198.724 105.919 199.284 105.316 198.991 105.028C198.911 104.163 198.751 103.324 199.071 102.458C199.658 100.964 201.044 100.807 202.378 100.597Z" fill="black"/>
<path d="M217.818 84.5781C216.645 84.0537 215.738 83.1361 214.725 82.3758C214.245 82.0087 213.978 81.9825 213.525 82.402C211.391 84.2897 208.938 85.5481 206.138 86.2822C204.751 86.6493 203.471 87.3834 202.164 87.9601C201.871 83.4769 204.218 80.8814 208.751 80.6454C209.951 80.593 211.151 80.6192 212.325 80.6716C215.498 80.829 216.778 81.7203 217.818 84.5781Z" fill="black"/>
<path d="M198.991 105.054C199.124 105.395 199.258 105.736 199.391 106.077C199.471 106.732 200.111 106.784 200.538 107.02C202.618 108.226 204.751 109.38 206.858 110.56C207.178 110.743 207.685 110.901 207.471 111.399C207.231 111.949 206.805 111.661 206.485 111.477C204.111 110.166 201.738 108.829 199.338 107.518C198.964 107.309 198.831 107.073 198.858 106.68C199.178 106.155 198.831 105.578 198.991 105.054Z" fill="#060303"/>
<path d="M197.631 109.223C200.164 110.638 202.724 112.028 205.258 113.444C205.604 113.627 206.058 113.837 205.818 114.309C205.551 114.781 205.151 114.519 204.778 114.309C202.298 112.946 199.844 111.608 197.364 110.271C197.044 109.799 197.071 109.432 197.631 109.223Z" fill="#070404"/>
<path d="M228.592 214.46C227.232 214.565 225.845 214.408 224.485 214.749C218.085 214.985 211.711 215.43 205.338 215.876C203.231 215.981 201.098 216.033 198.991 216.217C198.084 216.295 197.818 216.086 197.871 215.221C197.978 212.363 198.031 209.505 198.084 206.647C198.538 206.411 199.044 206.516 199.524 206.516C221.259 206.516 242.993 206.516 264.727 206.516C265.26 206.516 265.794 206.595 266.301 206.647C266.381 207.644 266.381 208.64 266.541 209.636C266.701 210.659 266.301 210.842 265.34 210.921C259.74 211.393 254.167 211.97 248.566 212.52C248.273 212.546 247.953 212.651 247.66 212.704C243.206 213.097 238.779 213.49 234.326 213.91C232.459 214.067 230.539 214.277 228.592 214.46Z" fill="#202B6D"/>
<path d="M260.54 187.115C260.514 194.037 254.78 199.621 247.713 199.621C240.646 199.621 234.912 193.879 234.966 186.905C235.019 180.036 240.806 174.452 247.9 174.478C254.913 174.478 260.54 180.115 260.54 187.115Z" fill="#FEFEFD"/>
<path d="M210.165 174.452C217.178 174.478 222.912 180.141 222.912 187.063C222.885 193.958 217.125 199.621 210.111 199.595C203.044 199.569 197.337 193.958 197.337 187.037C197.311 180.01 203.018 174.426 210.165 174.452Z" fill="#FEFEFD"/>
<path d="M167.229 160.321C167.229 168.737 167.203 177.152 167.256 185.568C167.256 186.617 166.963 186.905 165.923 186.879C163.309 186.801 160.696 186.801 158.056 186.879C156.882 186.905 156.562 186.617 156.562 185.437C156.616 174.269 156.589 163.1 156.589 151.931C156.589 146.268 156.616 140.579 156.562 134.916C156.536 133.71 156.909 133.448 158.056 133.5C160.669 133.579 163.283 133.579 165.923 133.5C166.963 133.474 167.256 133.762 167.256 134.811C167.203 143.306 167.229 151.826 167.229 160.321Z" fill="#FEFEFE"/>
<path d="M147.015 93.7018C145.015 93.4658 144.535 93.7542 143.922 95.5108C143.468 96.7955 143.202 98.1064 142.962 99.4435C142.348 102.799 137.841 104.608 135.255 102.563C134.081 101.62 133.628 100.387 133.975 98.9453C134.401 97.1625 134.881 95.406 135.415 93.6494C135.948 91.919 137.175 90.8703 139.015 90.5819C139.762 90.4508 139.975 90.6868 139.735 91.4209C139.148 93.0726 138.615 94.7243 138.055 96.376C137.735 97.3198 137.575 98.2637 138.801 98.6307C139.948 98.9716 140.348 98.1588 140.642 97.2412C141.175 95.537 141.788 93.8591 142.322 92.155C142.508 91.552 142.775 91.2636 143.442 91.552C144.695 92.0763 146.215 92.1287 147.015 93.7018Z" fill="#FEFEFE"/>
<path d="M138.481 96.9266C139.415 94.1213 140.402 91.1849 141.415 88.2485C141.575 87.8028 141.922 87.6455 142.375 87.8291C142.882 88.0388 142.882 88.4583 142.748 88.9302C142.108 90.8703 141.468 92.8366 140.828 94.7767C140.535 95.6943 140.215 96.5857 139.895 97.5034C139.735 97.9228 139.442 98.1588 138.962 98.0277C138.428 97.8704 138.348 97.5034 138.481 96.9266Z" fill="#FCFDFD"/>
<path d="M167.229 129.384C167.229 129.567 167.229 129.725 167.229 129.908C167.283 133.159 167.283 133.159 163.976 132.897C163.336 132.845 163.203 132.609 163.149 132.032C162.989 129.463 162.989 129.463 165.656 129.463C166.163 129.436 166.696 129.41 167.229 129.384Z" fill="#FBFBFB"/>
<path d="M47.7575 166.115C47.7041 167.268 47.0375 167.478 45.9441 167.452C39.3838 167.4 32.8235 167.4 26.2632 167.4C27.0366 162.156 27.8366 156.913 28.61 151.669C29.1167 148.366 29.57 145.036 30.1034 141.732C30.2367 140.946 30.1567 140.684 29.25 140.605C26.2099 140.317 23.8631 138.98 22.7164 136.043C22.3164 135.047 22.343 133.972 22.2897 132.95C21.943 127.654 21.7297 122.331 21.4097 117.035C21.0097 110.507 20.5563 104.005 20.1563 97.4771C19.9429 94.1999 19.8363 90.9751 22.2897 88.2223C25.0365 85.1548 28.4766 83.608 32.5302 83.372C34.7436 83.2409 36.957 83.3458 39.1971 83.3458C39.5971 83.3458 40.0238 83.2934 40.1571 83.8177C40.5838 84.2897 40.5038 84.8927 40.5038 85.4432C40.5038 90.0575 40.4772 94.6718 40.5305 99.2861C40.5305 100.571 40.1571 101.384 38.8237 101.855C37.0903 102.458 36.4237 104.215 36.877 106.47C37.2237 108.253 38.2904 109.065 40.2638 109.092C43.864 109.144 44.584 108.41 44.5307 104.818C44.504 103.193 43.8106 102.144 42.2639 101.698C41.1972 101.384 40.7972 100.754 40.7972 99.6794C40.7972 94.7505 40.7972 89.8216 40.7972 84.9189C40.7972 84.447 40.7705 83.9488 41.1705 83.5818C42.1306 83.1623 43.1439 83.372 44.1306 83.4507C44.7173 84.0799 44.6907 84.9189 44.744 85.6792C45.1707 91.4209 45.704 97.1363 46.1841 102.852C46.5574 107.414 46.9841 111.949 47.3841 116.511C47.6508 119.631 47.9175 122.751 48.1575 125.897C48.1841 126.212 48.1575 126.5 47.9975 126.788C47.4641 127.313 46.7708 127.182 46.1041 127.208C44.1573 127.234 42.2106 127.182 40.2638 127.444C39.3838 127.549 39.0904 127.863 39.2504 128.702C39.8371 131.691 40.3172 134.706 40.9038 137.695C41.0905 138.639 41.5705 139.032 42.5306 139.006C44.1306 138.98 45.7307 138.98 47.3308 139.006C47.9441 139.006 48.5842 138.927 49.0909 139.425C49.6242 140.92 49.4642 142.467 49.3042 143.961C49.0109 146.425 49.0375 148.916 48.9042 151.407C48.6642 155.759 48.3975 160.111 48.2908 164.463C48.2108 165.014 48.3175 165.669 47.7575 166.115Z" fill="#6DB5DE"/>
<path d="M47.8109 126.736C46.5575 112.29 45.3308 97.8442 44.0774 83.4245L44.1307 83.3458C44.4507 83.005 44.8774 82.9264 45.3308 82.9001C47.4375 82.8739 49.5443 82.8739 51.651 82.9001C52.1044 82.9001 52.5311 82.9788 52.8511 83.3196C53.8378 83.3459 54.7978 83.3721 55.7845 83.3983C56.2112 83.608 56.3712 84.0275 56.5312 84.447C59.4114 92.5482 62.6382 100.518 65.9183 108.489C66.0783 108.856 66.2117 109.223 66.2383 109.616C65.945 113.758 66.1583 117.874 66.105 122.017C66.105 122.699 66.185 123.406 65.8916 124.088C65.785 124.324 65.5983 124.56 65.3583 124.639C63.1182 125.451 60.9581 126.684 58.5847 126.841C55.4912 127.024 52.3977 127.365 49.3043 127.182C48.7443 127.129 48.2109 127.208 47.8109 126.736Z" fill="black"/>
<path d="M65.9449 109.249C62.9848 102.432 60.2647 95.4846 57.6779 88.5369C57.0378 86.8328 56.4245 85.1024 55.7844 83.3983C58.3179 83.3458 60.8247 83.2147 63.3581 83.5294C66.2382 83.8964 68.585 85.2597 70.2918 87.5144C72.6919 90.6868 75.6787 93.2823 78.5855 95.9565C80.9589 98.1588 83.6257 100.073 86.1058 102.196C86.9859 102.957 87.4125 102.826 88.0259 101.908C89.226 100.125 90.5594 98.4472 91.8128 96.7168C92.9061 95.2224 92.8795 95.2224 94.4262 96.1138C97.9464 98.7094 101.467 101.357 105.12 103.769C105.547 104.163 105.573 104.477 105.173 104.975C102.027 108.908 98.9331 112.867 95.8129 116.826C95.3596 116.38 95.4396 115.777 95.4129 115.226C95.3863 113.837 95.4662 112.447 95.3862 111.058C95.2796 109.118 94.3462 108.226 92.3728 108.095C91.6527 108.043 90.9594 108.069 90.2393 108.069C84.6124 108.069 78.9855 108.069 73.3586 108.069C70.8251 108.069 68.2117 107.702 65.9449 109.249Z" fill="#6DB5DE"/>
<path d="M37.437 60.7987C37.2237 60.6676 37.1437 60.4841 37.1437 60.2481C37.1704 58.1245 36.9837 55.9747 37.3837 53.851C37.837 51.5177 39.6504 49.8397 42.0505 49.7873C46.7974 49.6562 51.5443 49.5776 56.2645 49.4989C59.0646 49.4727 61.2514 51.2293 61.9448 53.9035C62.2381 55.0046 62.4781 56.1057 62.5314 57.2331C62.5581 57.8885 62.5048 58.6488 63.1981 59.1208C62.4514 59.8024 61.438 59.514 60.5847 59.8024C59.198 59.75 57.8379 60.2219 56.4512 60.0646C54.5844 59.3829 52.7177 59.3829 50.9043 60.3006C49.5709 60.4054 48.2642 60.7463 46.9308 60.6414C44.2107 60.7987 41.4905 60.8773 38.7971 61.0871C38.3171 61.1133 37.837 61.1395 37.437 60.7987Z" fill="#6DB5DE"/>
<path d="M47.064 60.2743C48.3708 60.1957 49.6775 60.117 50.9842 60.0384C51.1442 60.5627 50.7176 60.8249 50.4776 61.192C49.2242 63.1321 49.6508 65.5441 51.4643 66.7501C53.491 68.0872 55.8911 67.6415 57.2779 65.6752C58.1579 64.4167 58.1846 64.4167 59.0913 65.6752C59.918 66.8025 60.9847 67.4842 62.4248 67.5366C62.8248 67.5628 63.2248 67.5366 63.5181 67.8774C63.5448 73.5667 60.958 76.4244 54.7444 77.578C52.451 77.9974 52.9043 77.5517 52.851 79.8327C52.8243 81.0125 52.851 82.1923 52.851 83.3721C49.9442 83.3721 47.0374 83.3983 44.1306 83.3983C44.1039 82.4282 44.1039 81.432 44.0773 80.4619C44.0773 80.3308 44.1039 80.1997 44.1039 80.0686C43.6506 75.4019 45.9173 71.1546 46.2107 66.5928C46.3174 64.9935 46.4774 63.3942 46.6107 61.7687C46.664 61.2182 46.6107 60.6676 47.064 60.2743Z" fill="#FD9993"/>
<path d="M47.0641 60.2743C46.9041 63.8399 46.6374 67.4055 45.9707 70.8925C45.8641 71.4168 45.8374 71.9674 45.5974 72.4131C44.3707 74.5367 44.664 76.8439 44.6373 79.1248C44.6373 79.5967 44.8774 80.2259 44.104 80.3833C41.2772 80.4357 38.4237 80.4619 35.5969 80.5406C34.7435 80.5668 33.8902 80.6454 33.3301 79.8065C32.7435 78.9151 33.1702 78.1548 33.6768 77.3944C35.8369 74.1697 36.6903 70.5516 36.8503 66.7501C36.9303 64.7313 37.117 62.7388 37.437 60.7725C40.6372 60.6152 43.8373 60.4316 47.0641 60.2743Z" fill="black"/>
<path d="M63.5448 67.8512C61.0647 68.061 59.2513 67.1433 58.2113 64.6264C57.7579 65.6227 57.3312 66.383 56.5845 66.9336C54.7978 68.2969 52.2377 68.1134 50.6376 66.5665C49.1176 65.0721 48.9575 62.5552 50.2909 60.8249C50.5043 60.5627 50.7443 60.3005 50.9843 60.0384C52.7177 58.8586 54.5045 58.8586 56.3445 59.75C57.1712 60.0121 57.6246 60.72 58.1846 61.4017C58.9313 60.6414 59.438 59.7237 60.5047 59.4878C61.3847 59.1732 62.2648 59.0421 63.1982 59.0945C65.4382 59.5927 66.8517 61.0608 67.0117 63.0272C67.1983 65.2819 66.105 66.7763 63.5448 67.8512Z" fill="#010101"/>
<path d="M41.1172 83.5556C41.1172 89.0089 41.1439 94.4621 41.1172 99.9154C41.1172 100.728 41.2772 101.121 42.1839 101.279C44.0507 101.62 44.8774 102.721 44.8774 104.608C44.8774 105.185 44.8774 105.736 44.8774 106.312C44.824 108.357 43.6507 109.511 41.5439 109.537C41.4106 109.537 41.2772 109.537 41.1439 109.537C37.2237 109.537 35.917 108.069 36.397 104.215C36.5837 102.747 37.437 101.646 38.9304 101.384C39.9705 101.2 40.1038 100.676 40.1038 99.7843C40.0772 94.4621 40.1038 89.1399 40.1305 83.8178C40.3972 83.4507 40.6905 83.1886 41.1172 83.5556Z" fill="#FDFDFE"/>
<path d="M47.7574 166.115C48.1308 158.04 48.5308 149.965 48.9042 141.89C48.9308 141.077 48.9042 140.238 48.8775 139.425C49.2508 138.927 49.8109 138.953 50.3442 138.953C55.0111 138.927 59.6513 138.927 64.3182 138.953C64.7715 138.953 65.1982 138.98 65.5982 139.216C66.1583 139.661 66.0783 140.317 66.0783 140.92C66.1049 142.493 66.0516 144.066 66.1049 145.639C66.1849 148.077 67.0916 148.942 69.5184 148.942C72.9852 148.969 76.4254 148.942 79.8922 148.969C80.5589 148.969 81.359 148.811 81.8123 149.545C83.2791 155.497 84.7191 161.474 86.1858 167.426C78.1055 167.426 70.0251 167.426 61.9448 167.426C60.958 166.508 60.958 165.224 60.5847 164.07C59.998 162.34 59.998 162.287 58.2112 162.287C57.2779 162.287 56.3445 162.261 55.4111 162.313C54.4777 162.34 54.0511 162.785 54.0777 163.703C54.1044 164.437 54.0777 165.171 54.0777 165.931C54.0777 166.456 54.1044 166.98 53.7044 167.426C52.211 167.426 50.6909 167.373 49.1975 167.478C48.1041 167.531 47.6507 167.164 47.7574 166.115Z" fill="#8F3600"/>
<path d="M94.5329 187.01C94.5063 194.037 88.7726 199.621 81.6523 199.595C74.6653 199.569 68.8784 193.801 68.9318 186.958C69.0118 180.01 74.7187 174.452 81.7857 174.452C88.8526 174.452 94.5596 180.063 94.5329 187.01Z" fill="#FDFEFD"/>
<path d="M56.8779 187.089C56.8512 193.984 51.0909 199.621 44.0506 199.595C37.0103 199.569 31.3033 193.906 31.3033 186.984C31.3033 180.063 37.0369 174.426 44.0773 174.426C51.2243 174.426 56.9045 180.036 56.8779 187.089Z" fill="#FDFEFD"/>
<path d="M53.7044 167.373C53.7044 165.879 53.731 164.411 53.651 162.916C53.6244 162.235 53.8644 161.973 54.5311 161.973C56.2111 161.946 57.8912 161.894 59.5713 161.789C60.238 161.763 60.398 162.104 60.5313 162.602C60.9847 164.201 61.4647 165.774 61.918 167.373C59.1979 167.373 56.4512 167.373 53.7044 167.373Z" fill="#6DB5DE"/>
<path d="M81.8124 149.493C80.1056 149.178 78.3722 149.388 76.6388 149.362C74.1053 149.309 71.5719 149.362 69.0651 149.362C66.825 149.362 65.7583 148.313 65.7316 146.085C65.705 143.856 65.7316 141.628 65.7316 139.425C66.2117 138.875 66.8783 139.006 67.465 139.006C70.6652 138.98 73.8387 138.98 77.0388 139.006C78.3455 139.006 79.6256 138.901 80.879 138.665C83.0924 138.272 84.3191 136.856 84.8525 134.759C84.9325 133.92 84.2658 134.26 83.9458 134.26C81.8657 134.234 79.7856 134.26 77.7055 134.234C77.1188 134.234 76.4521 134.392 75.9988 133.789C76.3721 133.081 77.0655 133.238 77.6521 133.238C79.3856 133.212 81.119 133.238 82.8524 133.212C83.1991 133.212 83.5724 133.238 83.9191 133.186C84.3458 133.133 84.8791 133.133 84.8258 132.504C84.7991 131.98 84.3191 131.953 83.9191 131.953C81.9723 131.901 79.9989 131.953 78.0522 131.901C77.3321 131.875 76.5054 132.137 75.9988 131.35C76.4254 130.721 77.0922 130.878 77.6788 130.878C79.7056 130.852 81.7323 130.878 83.7591 130.852C84.1324 130.852 84.6658 131.141 84.8525 130.485C84.4258 128.912 83.3324 128.099 81.7857 127.732C80.1589 127.339 78.4789 127.182 76.8521 126.684C76.2388 126.028 75.3854 126.159 74.612 125.949C72.0253 124.717 69.3585 123.905 66.425 124.403C66.1583 124.455 65.8916 124.403 65.705 124.167C65.705 119.946 65.6783 115.698 65.705 111.477C65.705 110.743 65.8383 110.009 65.9183 109.275C66.7983 108.069 67.9984 107.676 69.4651 107.702C76.9855 107.728 84.5058 107.728 92.0528 107.728C94.7196 107.728 95.7063 108.724 95.733 111.372C95.733 113.208 95.7596 115.017 95.7863 116.852C95.7596 118.451 95.733 120.077 95.7063 121.676C95.7063 129.646 95.7063 137.616 95.7063 145.587C95.7063 148.654 94.9329 149.388 91.7595 149.414C88.4526 149.441 85.1192 149.231 81.8124 149.493Z" fill="#202B6D"/>
<path d="M129.868 71.5217C130.534 71.3381 130.881 71.5479 130.721 72.282C128.454 73.8813 126.188 75.4543 123.894 77.0536C123.574 77.2895 123.201 77.8401 122.774 77.342C122.294 76.7652 122.961 76.5292 123.334 76.2671C125.494 74.6678 127.681 73.0947 129.868 71.5217Z" fill="#050303"/>
<path d="M126.721 68.9524C127.308 68.8213 127.548 69.0834 127.548 69.6602C125.254 71.2857 122.961 72.9374 120.641 74.5629C120.294 74.7989 119.894 75.297 119.494 74.7989C119.014 74.1959 119.734 73.9861 120.081 73.724C122.294 72.1247 124.508 70.5516 126.721 68.9524Z" fill="#060404"/>
<path d="M110.614 80.4357C110.694 80.4881 110.854 80.5405 110.987 80.6454C112.32 81.5892 113.627 82.5593 114.934 83.5031C115.2 83.7129 115.574 83.9488 115.28 84.3421C114.934 84.8664 114.56 84.4732 114.267 84.2634C112.987 83.3458 111.707 82.402 110.427 81.4582C110.187 81.2746 109.867 81.0911 110 80.7241C110.08 80.5667 110.267 80.4094 110.614 80.4357Z" fill="#0A0606"/>
<path d="M240.806 118.871C240.379 115.095 239.979 111.504 239.579 107.912C239.499 107.178 239.419 106.444 239.339 105.709C239.286 105.342 239.339 104.949 239.766 104.897C240.246 104.844 240.273 105.29 240.326 105.631C240.646 108.436 240.966 111.268 241.286 114.073C241.473 115.725 241.633 117.376 241.846 119.002C241.953 119.946 241.713 120.339 240.699 119.919C239.393 119.395 238.059 118.897 236.752 118.399C236.406 118.268 236.086 118.058 236.246 117.639C236.432 117.193 236.806 117.35 237.153 117.481C238.273 117.927 239.446 118.346 240.806 118.871Z" fill="#FBFBFC"/>
<path d="M218.192 125.478C218.218 125.897 217.898 126.081 217.578 126.264C215.392 127.549 213.178 128.86 210.991 130.144C210.671 130.328 210.271 130.721 209.951 130.223C209.578 129.672 210.138 129.463 210.511 129.253C212.858 127.863 215.232 126.5 217.578 125.111C217.818 125.189 218.032 125.268 218.192 125.478Z" fill="#060404"/>
<path d="M212.298 100.361C211.845 100.309 211.391 100.256 210.911 100.23C210.911 99.627 210.778 99.024 211.685 98.8667C212.245 98.7618 212.538 98.8142 212.618 99.391C212.698 99.7581 212.938 100.204 212.298 100.361Z" fill="#DFD9DC"/>
<path d="M239.019 69.3194C239.019 68.2707 239.046 67.222 239.019 66.1733C238.993 65.5178 239.233 65.2819 239.873 65.5178C240.486 65.7538 241.153 65.9111 241.713 66.2257C242.939 66.9074 243.766 67.8774 243.766 69.3456C243.766 70.84 242.859 71.7838 241.686 72.4655C239.233 73.855 239.019 73.724 239.019 71.0235C239.019 70.473 239.019 69.8962 239.019 69.3194Z" fill="#FC9993"/>
<path d="M229.312 65.0459C229.259 65.5441 228.965 65.8325 228.459 65.8062C228.005 65.78 227.712 65.5703 227.685 65.0984C227.685 64.6002 227.952 64.2332 228.459 64.2332C228.965 64.2069 229.259 64.5478 229.312 65.0459Z" fill="#0E0908"/>
<path d="M217.285 111.268C217.178 111.687 216.965 111.949 216.458 111.661C213.925 110.245 211.391 108.856 208.858 107.44C208.565 107.283 208.378 106.994 208.645 106.706C208.991 106.339 209.365 106.601 209.711 106.784C212.005 108.069 214.325 109.328 216.618 110.612C216.912 110.769 217.205 110.901 217.285 111.268Z" fill="#0A0606"/>
<path d="M216.778 88.4845C216.778 88.8515 216.592 89.0875 216.245 89.1137C215.898 89.1399 215.631 88.9564 215.578 88.6418C215.525 88.2748 215.738 87.9864 216.165 87.9864C216.538 87.9864 216.725 88.1961 216.778 88.4845Z" fill="#170E0E"/>
<path d="M210.298 88.7729C210.245 89.1137 210.058 89.3497 209.685 89.3497C209.338 89.3497 209.098 89.1137 209.098 88.7729C209.071 88.3796 209.338 88.2223 209.685 88.2223C210.031 88.1961 210.245 88.4058 210.298 88.7729Z" fill="#1C1110"/>
<path d="M259.5 187.168C259.42 193.696 254.167 198.651 247.366 198.572C241.019 198.494 235.899 193.198 235.979 186.801C236.059 180.456 241.393 175.396 247.953 175.448C254.433 175.527 259.58 180.744 259.5 187.168Z" fill="#E98F27"/>
<path d="M198.351 187.037C198.351 180.587 203.498 175.501 210.031 175.475C216.592 175.448 221.872 180.613 221.845 187.089C221.818 193.486 216.592 198.599 210.058 198.572C203.524 198.572 198.377 193.486 198.351 187.037Z" fill="#E98F27"/>
<path d="M76.1587 131.272C77.6788 131.691 79.2255 131.377 80.7456 131.455C81.839 131.508 82.959 131.508 84.0524 131.455C84.9591 131.403 85.3858 131.534 85.3858 132.609C85.3858 133.71 84.7724 133.631 84.0524 133.631C81.839 133.605 79.6256 133.605 77.4121 133.631C76.9854 133.631 76.5321 133.474 76.132 133.789C76.3987 134.365 76.9321 134.234 77.4121 134.234C79.4389 134.26 81.4923 134.234 83.519 134.26C84.0791 134.26 84.6924 134.182 85.1191 134.68C84.9058 137.04 83.039 138.901 80.5322 139.137C76.3987 139.504 72.2385 139.294 68.0784 139.347C67.2783 139.373 66.4783 139.373 65.7049 139.399C60.078 139.399 54.451 139.399 48.8508 139.425C46.5307 139.425 44.2373 139.373 41.9171 139.425C41.0371 139.452 40.6904 139.163 40.5304 138.298C39.9704 134.863 39.3304 131.429 38.6637 128.021C38.5037 127.156 38.6903 126.998 39.517 126.972C42.2638 126.946 45.0106 126.815 47.7574 126.736C51.3842 126.657 55.0644 126.867 58.6379 126.421C61.038 126.133 63.3315 124.927 65.6516 124.14C68.905 123.38 71.8918 124.036 74.692 125.714C74.1853 126.212 73.5453 126.107 72.9319 126.107C71.3318 126.133 69.7584 126.081 68.1583 126.238C71.0385 126.526 73.9453 126.264 76.8254 126.448C78.5855 126.788 80.3722 127.051 82.1323 127.47C83.6791 127.837 84.7991 128.729 85.0658 130.406C84.6391 130.931 84.0257 130.826 83.4657 130.826C81.439 130.852 79.3855 130.826 77.3588 130.852C76.9587 130.852 76.3987 130.669 76.1587 131.272Z" fill="#FD9993"/>
<path d="M60.5047 59.514C59.598 60.1957 58.7179 60.9298 58.3179 62.2669C57.6779 61.2968 57.1445 60.4316 56.3445 59.75C57.7312 59.6713 59.118 59.5927 60.5047 59.514Z" fill="#F4948F"/>
<path d="M42.984 71.9936C40.1571 71.5741 38.237 69.9224 38.2903 68.0085C38.317 66.0684 40.2638 64.4954 42.984 64.207C42.984 66.8025 42.984 69.3981 42.984 71.9936Z" fill="#FC9993"/>
<path d="M57.2511 63.4729C57.2244 65.3868 55.7311 66.8287 53.7843 66.8287C51.8643 66.8287 50.3709 65.3343 50.3976 63.3942C50.4242 61.559 51.9443 60.0646 53.7843 60.0646C55.6777 60.0646 57.2778 61.6114 57.2511 63.4729Z" fill="#FC9993"/>
<path d="M63.7849 66.5928C62.1048 67.0647 60.8514 66.7239 59.8914 65.5441C59.038 64.4954 58.9313 62.9223 59.6247 61.7425C60.3714 60.5103 61.6248 59.9597 63.2249 60.1957C63.0649 61.0609 63.5449 61.926 63.1982 62.7912C62.4248 63.4729 62.7182 64.0234 63.4382 64.4954C63.6516 65.177 63.8115 65.8587 63.7849 66.5928Z" fill="#FC9993"/>
<path d="M63.7848 66.5928C63.1714 65.9898 63.3314 65.2032 63.2781 64.4692C63.3581 63.8924 63.3314 63.3418 63.0381 62.8174C62.9581 62.2669 62.9047 61.6901 62.8247 61.1395C62.7714 60.7462 62.6647 60.353 63.2248 60.1957C64.8782 60.5627 65.8383 61.5852 65.9716 63.0534C66.1317 64.7838 65.4649 65.8587 63.7848 66.5928Z" fill="#EBE8E8"/>
<path d="M43.8906 105.474C43.8906 108.069 43.4106 108.515 40.6638 108.515C38.0237 108.515 37.437 107.938 37.437 105.264C37.437 102.826 38.157 102.17 40.8772 102.17C43.3306 102.17 43.8906 102.773 43.8906 105.474Z" fill="#6DB5DE"/>
<path d="M81.7856 175.475C88.3192 175.475 93.4928 180.561 93.5194 187.01C93.5461 193.434 88.3459 198.572 81.8123 198.599C75.332 198.625 69.9984 193.434 69.9717 187.115C69.9451 180.639 75.1986 175.475 81.7856 175.475Z" fill="#459257"/>
<path d="M55.8645 187.063C55.8645 193.46 50.5843 198.599 44.0773 198.572C37.5437 198.546 32.3434 193.407 32.3434 187.01C32.3434 180.508 37.5437 175.448 44.184 175.448C50.691 175.475 55.8645 180.613 55.8645 187.063Z" fill="#459257"/>
<path d="M76.8789 126.448C76.6122 126.841 76.1855 126.788 75.8121 126.788C73.252 126.788 70.6652 126.788 68.1051 126.788C67.6784 126.788 67.0917 126.893 67.0917 126.29C67.0917 125.687 67.6784 125.766 68.1051 125.766C70.3185 125.74 72.532 125.74 74.7454 125.74C75.4655 125.976 76.5322 125.189 76.8789 126.448Z" fill="#040203"/>
<path d="M85.1458 134.68C82.399 134.68 79.6522 134.68 76.9321 134.654C76.3988 134.654 75.5987 134.785 76.1588 133.789C79.0389 133.789 81.919 133.815 84.7991 133.815C85.1458 133.815 85.5991 133.71 85.7324 134.129C85.8658 134.549 85.4391 134.601 85.1458 134.68Z" fill="#0E0908"/>
<path d="M76.1587 131.272C76.0254 130.459 76.0254 130.433 76.9054 130.433C79.6522 130.406 82.3723 130.406 85.1191 130.406C85.3858 130.485 85.6791 130.538 85.6258 130.878C85.5458 131.403 85.1191 131.245 84.7724 131.245C81.919 131.272 79.0388 131.272 76.1587 131.272Z" fill="#0E0908"/>
<path d="M251.393 186.224C252.567 185.332 253.527 184.625 254.647 183.759C254.647 185.988 254.647 188.007 254.647 190.261C253.527 189.422 252.567 188.688 251.607 187.98C251.5 188.112 251.393 188.164 251.393 188.216C251.26 190.995 251.18 191.048 248.38 191.048C246.966 191.048 245.553 191.074 244.113 191.048C242.593 191.022 242.113 190.576 242.086 189.108C242.059 187.718 242.059 186.329 242.086 184.913C242.113 183.471 242.593 182.999 244.113 182.973C245.766 182.947 247.393 182.973 249.046 182.973C250.966 182.973 251.34 183.366 251.393 185.28C251.393 185.516 251.393 185.726 251.393 186.224Z" fill="#FEFEFE"/>
<path d="M213.952 194.089C213.151 194.01 212.271 193.696 211.471 193.25C207.391 190.995 204.538 187.718 203.364 183.209C202.938 181.61 203.764 180.22 205.391 180.168C206.751 180.115 206.805 181.793 207.631 182.58C207.925 182.868 208.191 183.156 207.765 183.681C206.538 185.254 206.591 185.857 207.845 187.351C208.618 188.269 209.445 189.108 210.431 189.816C211.231 190.392 212.111 190.524 212.858 189.816C213.365 189.317 213.738 189.422 214.218 189.789C214.645 190.104 215.152 190.314 215.525 190.681C215.978 191.1 217.045 191.074 216.725 192.097C216.325 193.355 215.285 194.168 213.952 194.089Z" fill="#FEFEFE"/>
<path d="M55.2778 63.735C55.2245 64.2594 54.9044 64.5478 54.3978 64.5478C53.9711 64.5478 53.651 64.3118 53.6244 63.8137C53.5977 63.2894 53.8644 62.9747 54.3978 62.9485C54.9311 62.8961 55.1978 63.2631 55.2778 63.735Z" fill="#110A0A"/>
<path d="M63.0382 62.8174C63.9715 63.2369 63.9982 63.8137 63.2782 64.4691C62.7715 64.4953 62.2648 64.4691 62.1581 63.8399C62.0248 63.1845 62.4248 62.8961 63.0382 62.8174Z" fill="#121111"/>
<path d="M88.7193 183.707C88.7193 185.988 88.7193 188.033 88.7193 190.314C87.5725 189.422 86.5858 188.662 85.5991 187.902C85.4925 188.033 85.4125 188.085 85.4125 188.164C85.3058 190.969 85.2524 191.022 82.4523 191.022C80.9323 191.022 79.4389 190.995 77.9188 191.022C76.6921 191.048 76.1321 190.392 76.1054 189.265C76.0787 187.744 76.0787 186.224 76.1054 184.677C76.1321 183.497 76.7988 182.92 77.9455 182.92C79.6256 182.894 81.3323 182.894 83.0124 182.92C84.9325 182.92 85.3591 183.366 85.3858 185.228C85.3858 185.49 85.3858 185.752 85.3858 186.25C86.5592 185.332 87.5725 184.572 88.7193 183.707Z" fill="#FEFEFE"/>
<path d="M48.1308 194.089C46.4507 193.853 44.8507 193.119 43.4639 191.992C40.5305 189.632 38.157 186.879 37.357 183.078C37.037 181.478 37.7303 180.535 39.3304 180.063C39.9971 179.853 40.1838 180.299 40.3171 180.639C40.7438 181.662 42.3705 182.344 41.7572 183.523C40.7171 185.49 40.5571 185.831 42.0505 187.508C42.6372 188.164 43.2772 188.767 43.9173 189.37C44.904 190.288 45.944 190.628 47.0908 189.606C47.3574 189.37 47.5975 189.317 47.9175 189.527C48.7975 190.13 49.6775 190.681 50.5843 191.258C50.7709 191.389 50.9043 191.52 50.8776 191.782C50.7443 192.831 49.3309 194.115 48.1308 194.089Z" fill="#FEFEFE"/>
</svg>
