<svg width="263" height="246" viewBox="0 0 263 246" fill="none" xmlns="http://www.w3.org/2000/svg">
<path d="M4.70381 183.958C2.16061 183.692 0.360111 181.944 0.0675297 179.378C0.0225172 178.935 0.0225008 178.493 0.0225008 178.05C0.0225008 124.239 0.0225063 70.4501 0 16.639C0 13.8289 1.0578 11.8155 3.80356 10.7976C4.36622 10.3551 5.01889 10.4879 5.64906 10.4879C18.1625 10.4879 30.6535 10.4879 43.167 10.4879C43.8872 10.4879 44.5849 10.4879 45.2826 10.2887C46.3404 10.2002 47.3982 10.2224 48.4785 10.2445C48.681 10.2445 48.9061 10.2445 49.1087 10.2445C50.1665 10.2224 51.2242 10.1781 52.3045 10.2887C53.0022 10.4879 53.6999 10.4879 54.4201 10.4879C67.3612 10.4657 80.3248 10.5321 93.2659 10.4436C93.4685 10.4436 93.626 10.4657 93.7836 10.5985C94.2787 10.6206 94.7513 10.6428 95.2465 10.6428C148.901 10.6428 202.579 10.6428 256.234 10.6428C260.172 10.6428 262.198 12.6341 262.198 16.462C262.198 70.428 262.198 124.394 262.198 178.338C262.198 181.546 260.465 183.626 257.539 183.936C257.359 184.002 257.179 183.98 256.976 184.002C248.244 184.268 239.534 184.201 230.802 184.201C213.269 184.201 195.714 184.378 178.182 184.157C149.959 183.825 121.759 184.046 93.536 184.046C87.3918 184.046 81.2701 184.113 75.1258 184.201C74.7207 184.201 74.2931 184.201 73.888 184.179C73.1453 184.157 72.7852 183.737 72.8528 183.029C73.1003 180.351 73.4154 177.674 73.798 175.019C73.9105 174.2 74.4282 173.824 75.2834 173.846C75.8461 173.868 76.4087 173.846 76.9714 173.846C132.854 173.846 188.737 173.846 244.62 173.846C245.228 173.846 245.903 174.045 246.421 173.492C246.669 173.005 246.601 172.474 246.601 171.965C246.601 122.27 246.601 72.5742 246.601 22.8786C246.601 22.5467 246.601 22.2148 246.578 21.8829C246.556 21.3961 246.286 21.1527 245.791 21.1306C245.386 21.1085 244.958 21.1085 244.553 21.1085C167.537 21.1085 90.5202 21.1085 13.5038 21.1085C11.4107 21.1085 11.4107 21.1085 11.4107 23.1662C11.4107 72.707 11.4107 122.27 11.4107 171.811C11.4107 172.364 11.3657 172.917 11.5232 173.47C11.8158 173.935 12.2884 173.868 12.7161 173.868C14.2465 173.868 15.7769 173.846 17.3073 173.89C18.5677 173.913 18.9052 174.311 18.5226 175.461C17.7124 177.984 16.9022 180.506 16.1145 183.051C15.8669 183.869 15.3268 184.223 14.449 184.223C11.2081 184.223 7.94471 184.29 4.70381 183.958Z" fill="black"/>
<path d="M4.70389 183.958C7.92228 183.936 11.1407 183.892 14.359 183.914C15.2368 183.914 15.5969 183.648 15.8445 182.829C16.5872 180.285 17.4199 177.763 18.2526 175.262C18.5227 174.444 18.4327 174.134 17.4874 174.156C15.6869 174.2 13.8864 174.178 12.0859 174.156C11.7484 174.156 11.3207 174.333 11.0506 173.957C11.4783 173.536 12.0184 173.625 12.5361 173.603C14.1115 173.581 15.6869 173.581 17.2624 173.603C18.0501 173.603 18.5227 173.293 18.7478 172.563C19.9181 168.868 21.1784 165.217 22.2362 161.5C22.5963 160.216 22.4838 158.867 22.5514 157.561C22.6864 154.508 22.9115 151.477 23.114 148.423C23.3391 145.126 23.2941 141.807 23.9017 138.555C24.3293 138.024 24.4644 138.511 24.5769 138.776C24.847 139.462 25.072 140.17 25.2746 140.878C25.8147 142.759 26.4449 144.617 27.1426 146.432C27.9078 148.445 29.6858 149.485 31.8239 149.242C32.139 149.175 32.4541 149.087 32.7692 149.043C33.4669 148.888 34.1196 148.622 34.7723 148.357C35.0423 148.224 35.1548 147.892 35.4249 147.781C36.5052 147.25 36.9779 146.299 36.7978 144.817C36.6628 143.688 36.4602 142.56 36.3026 141.431C36.2576 141.099 36.1676 140.767 36.2802 140.458C36.8203 139.683 36.0551 139.019 36.1001 138.289C36.5052 136.475 36.4152 134.705 35.695 132.979C35.2674 131.939 35.0873 131.873 34.007 132.271C30.9237 133.421 27.8403 134.55 24.757 135.7C24.2618 135.877 23.7892 136.099 23.249 136.099C22.7539 135.988 22.6639 135.568 22.5514 135.192C20.3682 128.642 18.2302 122.093 16.1371 115.521C15.7095 114.172 15.732 112.778 15.9795 111.362C17.4424 102.976 18.9504 94.612 20.4133 86.2261C20.7058 84.5445 20.9984 82.9072 21.9212 81.4026C23.4516 78.9466 25.6797 77.619 28.5605 77.5084C31.7789 77.3977 34.9973 77.4862 38.2157 77.4862C40.6238 77.442 43.0095 77.442 45.4177 77.4862C47.2857 77.442 49.1762 77.442 51.0442 77.4862C55.8155 77.5969 59.7992 81.4911 59.9792 86.1819C60.2043 92.1117 60.5194 98.0194 60.6994 103.927C60.7444 105.697 60.857 107.445 60.902 109.215C60.9245 110.211 61.1046 111.207 61.4422 112.136C65.6283 123.465 69.8145 134.771 74.0456 146.078C76.1837 151.808 76.6338 157.694 75.8686 163.712C75.5085 166.567 75.1934 169.421 74.8558 172.275C74.6983 173.536 74.7884 173.603 76.0712 173.625C76.4763 173.625 76.9039 173.625 77.3091 173.625C133.102 173.625 188.917 173.625 244.71 173.625C245.476 173.625 246.308 173.404 246.984 173.979C246.578 174.355 246.061 174.178 245.588 174.178C189.03 174.178 132.494 174.178 75.9361 174.178C74.1357 174.178 74.2032 174.178 74.0231 176.015C73.8206 178.249 73.618 180.484 73.2354 182.675C73.0554 183.737 73.3254 183.914 74.3157 183.914C85.6589 183.892 97.0245 183.892 108.368 183.892C130.446 183.892 152.525 183.892 174.581 183.892C199.27 183.892 223.982 183.892 248.672 183.892C251.62 183.892 254.591 183.936 257.539 183.958C255.648 184.268 253.758 184.024 251.867 184.091C251.417 184.113 250.967 184.113 250.517 184.113C250.292 184.356 249.999 184.4 249.707 184.423C247.119 184.533 244.553 184.423 241.965 184.423C222.947 184.4 203.929 184.4 184.911 184.423C182.323 184.423 179.757 184.555 177.169 184.4C176.944 184.356 176.742 184.268 176.562 184.135C176.179 184.113 175.819 184.069 175.436 184.069C148.001 184.069 120.566 184.069 93.1309 184.069C92.7483 184.069 92.3882 184.113 92.0056 184.113C91.848 184.246 91.668 184.334 91.4655 184.356C90.5427 184.445 89.5975 184.4 88.6747 184.4C88.4046 184.423 88.1345 184.4 87.8645 184.4C83.5883 184.445 79.3346 184.4 75.0584 184.423C73.4605 184.423 73.4154 184.511 73.2129 186.082C73.0778 187.277 72.9653 188.494 72.7178 189.689C72.5377 190.175 72.5827 190.729 72.2676 191.193C71.5699 196.924 70.8723 202.655 70.1521 208.407C69.792 208.761 69.3418 208.739 68.8917 208.739C64.3454 208.784 59.7767 209.115 55.2304 208.961C54.6452 208.938 54.0376 209.005 53.4749 208.673C48.2084 208.739 42.942 208.806 37.6755 208.894C36.7753 209.071 36.6853 208.651 37.0003 207.987C37.4055 207.124 37.9456 206.305 38.4183 205.487C40.2638 202.19 42.3793 199.048 43.7522 195.53C45.3277 191.547 46.1379 187.41 45.6203 183.095C45.5302 182.409 45.2826 181.635 45.8228 180.971C46.3179 180.506 46.0478 179.909 45.9803 179.4C45.3051 173.713 44.6075 168.027 43.8873 162.341C43.2571 157.318 42.6719 152.273 41.9967 147.25C41.9742 147.029 42.2668 146.432 41.5466 146.587C38.0131 150.68 34.3221 154.641 30.6761 158.645C30.1584 159.221 29.6858 159.84 29.1457 160.393C28.8306 160.725 28.673 161.146 28.6505 161.588C28.6505 161.765 28.628 161.964 28.6505 162.141C28.7855 171.257 28.2679 180.373 28.4254 189.512C28.448 190.552 28.1554 191.437 27.5927 192.322C24.3518 197.411 21.201 202.544 18.0051 207.633C17.5775 208.319 17.2624 209.093 16.4521 209.492C14.6066 209.735 12.7611 209.58 10.8931 209.602C10.623 209.602 10.3529 209.624 10.0829 209.602C9.22762 209.58 8.34991 209.735 7.49467 209.425C7.08956 209.138 7.26959 208.739 7.31461 208.385C8.12483 205.73 8.89003 203.053 9.8578 200.442C10.1054 199.579 10.3079 198.694 10.668 197.875C11.3432 195.641 12.0859 193.406 12.7611 191.171C12.8061 190.95 12.9187 190.729 12.9637 190.507C13.5263 188.804 14.1115 187.1 14.6292 185.374C14.8542 184.644 14.6742 184.356 13.8864 184.378C12.8512 184.4 11.7933 184.378 10.758 184.378C10.5105 184.4 10.263 184.378 10.0154 184.378C9.16015 184.4 8.3274 184.423 7.47217 184.356C7.20209 184.334 6.95451 184.268 6.72945 184.069C6.07677 184.002 5.37908 184.246 4.70389 183.958Z" fill="#202B6D"/>
<path d="M16.5872 209.315C20.3232 203.363 24.0367 197.411 27.7727 191.481C28.0653 191.016 28.1103 190.529 28.1103 190.021C28.1553 180.86 28.2229 171.678 28.2454 162.518C28.2454 161.389 28.5379 160.526 29.3482 159.685C33.2642 155.437 37.1353 151.123 41.0064 146.83C41.0964 146.719 41.2315 146.653 41.344 146.542C41.8391 146.941 41.8391 147.516 41.9066 148.047C43.1895 158.181 44.4048 168.337 45.6877 178.471C45.8002 179.356 46.1153 180.263 45.8452 181.192C45.8677 183.316 46.1603 185.418 46.0028 187.564C45.6427 192.3 43.9547 196.548 41.6141 200.619C40.1511 203.141 38.7108 205.664 37.2253 208.164C36.8202 208.828 37.0903 208.938 37.698 208.961C36.7752 208.961 36.3926 209.58 36.01 210.266C33.962 213.961 31.9139 217.656 29.7758 221.285C29.3031 222.104 29.1006 223.144 28.1779 223.697C27.6377 223.896 27.2326 223.542 26.8275 223.321C22.2587 220.732 17.69 218.099 13.0987 215.576C13.0087 215.532 12.9186 215.444 12.8511 215.355C12.8286 215.311 12.8061 215.267 12.8286 215.244C13.8414 213.165 14.9667 211.085 16.5872 209.315Z" fill="#FD9993"/>
<path d="M53.4523 208.762C55.9505 208.717 58.4486 208.695 60.9468 208.651C64.0077 208.607 67.0685 208.54 70.1294 208.474C70.1069 215.067 70.1069 221.639 70.0169 228.233C70.0169 229.162 70.3319 229.671 71.0746 230.202C75.2158 233.034 79.3344 235.91 83.4081 238.831C85.6137 240.424 86.4464 242.747 86.6715 245.336C86.7165 245.823 86.4915 246 86.0188 245.978C85.8388 245.956 85.6362 245.978 85.4562 245.978C74.4506 245.978 63.4451 245.956 52.417 246C51.4042 246 51.1567 245.757 51.2467 244.783C51.7193 239.871 52.1919 234.959 52.507 230.047C52.7996 225.356 52.8671 220.643 53.0697 215.93C53.1822 213.519 53.3173 211.129 53.4523 208.762Z" fill="#8F3600"/>
<path d="M12.8736 215.311C15.0792 216.174 16.9922 217.523 19.0403 218.652C22.0786 220.311 25.0944 222.015 28.1103 223.697C27.8627 225.002 26.9625 225.976 26.3773 227.126C26.0847 227.702 25.9947 228.011 26.6474 228.454C32.544 232.459 35.8749 238.035 37.0227 244.938C37.1577 245.712 36.9101 245.845 36.1899 245.845C28.2453 245.823 20.3006 245.823 12.356 245.845C11.7708 245.845 11.4107 245.69 11.0281 245.248C8.05731 241.553 5.06396 237.858 2.04813 234.229C1.50799 233.587 1.57552 233.167 1.98063 232.525C3.62358 229.981 5.19901 227.392 6.81945 224.847C6.84196 224.316 7.20204 223.94 7.44961 223.52C8.23732 222.148 9.13757 220.865 9.92528 219.493C10.1729 219.05 10.533 218.674 10.7805 218.232C11.4332 217.214 11.8383 216.041 12.8736 215.311Z" fill="#8F3600"/>
<path d="M249.887 184.157C250.089 184.157 250.292 184.157 250.517 184.135C250.495 184.577 250.472 185.02 250.472 185.463C250.472 202.101 250.472 218.763 250.472 235.402C250.472 236.928 250.472 236.928 248.874 236.928C247.119 236.928 245.341 236.884 243.585 236.95C242.707 236.973 242.437 236.751 242.437 235.844C242.482 231.065 242.437 226.263 242.482 221.484C242.505 220.466 242.167 220.289 241.222 220.289C222.699 220.311 204.199 220.311 185.677 220.289C184.664 220.289 184.439 220.577 184.439 221.528C184.484 226.286 184.439 231.021 184.484 235.778C184.484 236.707 184.214 236.973 183.291 236.95C181.423 236.884 179.532 236.884 177.664 236.95C176.697 236.995 176.494 236.641 176.494 235.756C176.516 218.563 176.516 201.349 176.516 184.157C176.674 184.157 176.854 184.157 177.012 184.157C177.484 184.732 177.349 185.418 177.349 186.06C177.349 196.481 177.349 206.903 177.349 217.324C177.349 219.338 177.349 219.338 179.375 219.338C202.084 219.338 224.792 219.338 247.479 219.338C249.459 219.338 249.482 219.338 249.482 217.413C249.482 206.991 249.482 196.57 249.482 186.148C249.504 185.463 249.347 184.754 249.887 184.157Z" fill="#5C85B1"/>
<path d="M93.7611 10.5985C93.1984 10.6427 92.6583 10.7534 92.0956 10.7534C79.3571 10.7534 66.6185 10.7534 53.8575 10.7534C53.2948 10.7534 52.7547 10.6649 52.192 10.5985C51.7644 10.156 51.8094 9.58069 51.8094 9.02753C51.7869 6.70427 51.8094 4.40313 51.8094 2.07987C51.8094 0.907177 51.5844 0.752293 50.4365 0.752293C49.5588 0.752293 49.3788 1.21695 49.3788 1.94711C49.3788 4.2925 49.3788 6.66001 49.3788 9.0054C49.3788 9.55856 49.4463 10.1117 49.0412 10.5764C48.8836 10.5764 48.7261 10.5764 48.5685 10.5764C48.1634 10.1117 48.2309 9.53643 48.2309 9.0054C48.2084 6.66001 48.2309 4.31463 48.2309 1.96924C48.2309 1.23907 48.0059 0.796547 47.1507 0.77442C46.0704 0.752294 45.8228 0.929304 45.8003 2.01349C45.7778 4.35888 45.8003 6.70427 45.7778 9.04965C45.7778 9.60281 45.8453 10.156 45.4176 10.6206C44.8325 10.7755 44.2248 10.7755 43.6397 10.7755C32.1615 10.7755 20.7058 10.7755 9.22764 10.7755C7.42714 10.7755 5.62662 10.7976 3.82612 10.8198C3.82612 7.61144 3.87114 4.40313 3.80362 1.21695C3.78111 0.221263 4.07369 0 5.06396 0C24.7794 0.0221263 44.4949 0.022126 64.1879 0.022126C73.6405 0.022126 83.0706 0.0442526 92.5232 0C93.536 0 93.7836 0.287641 93.7836 1.23907C93.7161 4.33675 93.7611 7.47869 93.7611 10.5985Z" fill="#5E86B1"/>
<path d="M72.245 191.26C72.2225 190.795 72.0424 190.308 72.38 189.866C72.9427 190.286 73.5729 190.419 74.2706 190.419C78.2317 190.397 82.2153 190.419 86.1764 190.419C87.4818 190.419 87.5718 190.33 87.5718 189.025C87.5943 187.852 87.5718 186.679 87.5718 185.485C87.5718 184.998 87.5718 184.511 87.9544 184.135C88.157 184.135 88.382 184.135 88.5846 184.135C88.9672 184.511 88.9447 184.998 88.9447 185.485C88.9672 186.724 88.9672 187.985 88.9447 189.224C88.9222 190.021 89.1922 190.441 90.0925 190.419C90.9477 190.419 91.1728 189.998 91.1728 189.246C91.1503 188.007 91.1503 186.746 91.1728 185.507C91.1728 185.042 91.1278 184.533 91.4879 184.157C91.6455 184.157 91.803 184.157 91.9605 184.135C91.9605 197.831 91.9606 211.527 91.9381 225.246C91.9381 226.02 91.9381 226.374 92.9959 226.219C95.8092 225.821 98.4199 228.011 98.8475 230.976C99.2076 233.477 97.2271 236.198 94.6388 236.729C91.6905 237.327 88.8772 235.645 88.1345 232.835C87.9769 232.237 87.9319 231.618 87.9319 230.976C87.9319 218.187 87.9319 205.42 87.9319 192.631C87.9319 191.237 87.9319 191.237 86.469 191.237C81.7427 191.26 76.9938 191.26 72.245 191.26Z" fill="#5B84B0"/>
<path d="M7.53959 223.741C7.29202 224.095 7.04446 224.449 6.81939 224.803C6.79689 224.316 6.77436 223.852 6.77436 223.365C6.77436 210.288 6.75186 197.212 6.75186 184.135C6.95442 184.135 7.1795 184.135 7.38206 184.113C7.80968 184.511 7.74215 185.064 7.76466 185.573C7.78716 186.834 7.78716 188.073 7.76466 189.335C7.76466 190.065 8.03475 190.419 8.82248 190.419C9.58771 190.397 9.76775 189.976 9.76775 189.335C9.76775 188.073 9.76775 186.834 9.76775 185.573C9.76775 185.064 9.72272 184.533 10.1503 184.113C10.3529 184.113 10.578 184.113 10.7805 184.135C11.1857 184.555 11.1181 185.086 11.1181 185.595C11.1407 186.768 11.1407 187.941 11.1181 189.113C11.0956 189.954 11.3432 190.463 12.2885 190.419C12.6261 190.397 12.9637 190.485 13.2113 190.729C13.1212 190.906 13.0537 191.06 12.9637 191.237C12.8736 191.304 12.7836 191.37 12.6936 191.414C11.0956 191.835 11.0731 191.835 11.1181 193.45C11.1407 194.977 11.0281 196.481 10.9381 198.008C10.668 198.827 10.3754 199.668 10.1053 200.486C9.63271 200.044 9.74525 199.468 9.72275 198.937C9.70024 196.88 9.72272 194.822 9.70022 192.742C9.70022 192.277 9.79026 191.746 9.09255 191.591C8.28231 191.392 7.78718 191.702 7.71966 192.543C7.67464 192.985 7.69715 193.428 7.69715 193.87C7.69715 197.256 7.67465 200.641 7.69715 204.026C7.69715 205.487 7.65212 206.947 7.53959 208.407C7.47207 208.717 7.40455 209.027 7.33703 209.337C7.74215 209.757 7.69715 210.288 7.69715 210.797C7.71966 214.536 7.69715 218.254 7.71966 221.993C7.78718 222.613 7.60711 223.166 7.53959 223.741Z" fill="#658BB5"/>
<path d="M120.634 209.359C120.521 209.27 120.341 209.182 120.228 209.049C119.171 207.876 118.113 206.682 117.078 205.509C116.92 205.332 116.605 205.133 116.875 204.867C117.168 204.602 117.325 204.978 117.483 205.133C118.54 206.305 119.598 207.5 120.634 208.673C120.769 208.828 120.971 208.983 120.859 209.226C120.859 209.293 120.746 209.315 120.634 209.359Z" fill="#658BB4"/>
<path d="M158.421 185.02C156.914 186.303 155.428 187.587 153.92 188.87C153.808 188.737 153.695 188.627 153.583 188.494C155.068 187.21 156.576 185.927 158.061 184.644C158.174 184.777 158.309 184.909 158.421 185.02Z" fill="#648BB4"/>
<path d="M37.968 77.7518C34.9747 77.7739 31.9813 77.8624 28.988 77.7739C25.1619 77.6633 21.6735 80.4733 20.9308 84.6773C19.783 91.3816 18.5901 98.0858 17.4198 104.79C17.0147 107.069 16.6096 109.348 16.2045 111.649C15.9569 113.132 16.0919 114.57 16.5645 116.008C18.6576 122.358 20.7057 128.731 22.7988 135.103C22.8888 135.413 22.8213 135.9 23.3614 135.944C24.1491 136.63 24.3742 137.471 24.0817 138.466C23.7216 144.042 23.1589 149.618 23.0464 155.216C22.9563 160.084 21.786 164.642 20.1881 169.178C19.7154 170.505 19.2653 171.811 18.9052 173.16C18.7027 173.89 18.3425 174.045 17.6449 174.023C15.4392 173.979 13.2336 174.001 11.0055 174.001C10.983 173.603 10.983 173.182 10.983 172.784C10.983 122.535 10.983 72.2866 10.9605 22.0378C10.9605 20.8872 11.2756 20.6881 12.3559 20.6881C90.0925 20.7102 167.829 20.7102 245.566 20.6881C246.668 20.6881 246.961 20.9093 246.961 22.0378C246.916 72.2866 246.939 122.535 246.939 172.784C246.939 173.182 246.916 173.603 246.894 174.001C189.885 174.001 132.877 174.001 75.846 174.001C75.5535 174.001 75.2384 173.979 74.9458 174.001C74.3381 174.045 74.203 173.868 74.2931 173.249C74.7432 169.709 75.1258 166.146 75.5534 162.606C76.2962 156.566 75.3734 150.746 73.2128 145.06C69.0266 133.975 64.953 122.845 60.8118 111.738C60.5643 111.096 60.5418 110.432 60.5193 109.791C60.2042 101.98 59.8666 94.1916 59.574 86.381C59.394 81.6017 55.6579 77.9288 50.774 77.8181C48.9735 77.7739 47.173 77.796 45.3725 77.7739C44.8099 76.3135 45.08 74.809 45.17 73.3265C45.215 72.7955 45.7327 72.707 46.1828 72.6185C47.2406 72.3972 48.2984 72.1538 49.3337 71.7998C52.6196 70.6271 54.06 68.6136 54.06 65.2062C54.06 64.0335 54.1275 62.8386 53.9249 61.6881C53.9699 61.1128 53.9024 60.5596 53.6999 60.0286C53.6548 59.6746 53.6548 59.3206 53.8574 58.9887C54.7576 58.347 55.7704 57.816 55.6579 56.4441C55.5228 54.8732 54.7802 53.7005 53.4748 52.8818C51.0666 51.3772 48.3884 50.9568 45.5976 51.2223C43.8646 51.3772 43.8196 51.2887 43.7071 49.5629C43.5271 46.8413 43.4595 44.1198 43.2344 41.4204C43.0769 39.3405 41.3214 37.3049 39.1383 36.7739C37.4278 36.3535 35.6949 36.4199 34.0969 37.2385C32.2289 38.2121 31.1486 39.7609 31.0811 41.8408C31.0136 44.4075 31.2836 46.9741 31.4187 49.5629C31.4637 50.3594 31.4412 51.1781 31.5537 51.9968C31.6888 52.8154 31.9814 53.5899 32.5215 54.2094C33.2642 55.0502 33.0842 55.7361 32.5215 56.5769C31.2612 58.4134 30.5635 60.4711 30.6085 62.7059C30.6535 66.1355 32.2514 68.6579 35.2673 70.3616C36.145 70.8484 37.1803 71.0475 37.9455 71.7113C38.5757 73.0831 38.1706 74.5213 38.2606 75.9374C38.3731 76.5127 38.5082 77.2207 37.968 77.7518Z" fill="#ECE9E9"/>
<path d="M49.0412 10.5985C49.0412 7.58931 49.0637 4.55801 49.0412 1.54883C49.0412 0.752288 49.1987 0.464645 50.0764 0.464645C52.2145 0.508898 52.2145 0.464646 52.2145 2.54452C52.2145 5.2218 52.2145 7.9212 52.2145 10.5985C51.1342 10.687 50.0764 10.7091 49.0412 10.5985Z" fill="#FEFEFE"/>
<path d="M45.3951 10.5985C45.3951 7.54506 45.4176 4.49163 45.3726 1.46033C45.3726 0.685908 45.5976 0.464645 46.3853 0.464645C48.5459 0.486772 48.5234 0.442519 48.5459 2.54452C48.5459 5.2218 48.5684 7.89908 48.5684 10.5985C47.5106 10.7091 46.4529 10.687 45.3951 10.5985Z" fill="#FDFEFE"/>
<path d="M249.887 184.157C249.887 195.729 249.887 207.301 249.932 218.851C249.932 219.869 249.392 219.758 248.739 219.758C230.194 219.758 211.626 219.758 193.081 219.758C188.13 219.758 183.178 219.736 178.25 219.78C177.214 219.802 177.034 219.493 177.034 218.541C177.057 207.08 177.057 195.618 177.034 184.179C179.802 184.157 182.571 184.135 185.339 184.135C206.405 184.135 227.471 184.113 248.536 184.113C248.987 184.113 249.437 184.135 249.887 184.157Z" fill="#FEFEFE"/>
<path d="M54.1726 61.3562C54.6227 63.1263 54.5777 64.9628 54.3526 66.7329C54.0151 69.388 52.2821 71.0696 49.7839 71.9768C48.7036 72.3751 47.5782 72.7291 46.4304 72.8397C45.4627 72.9282 45.3727 73.3486 45.3952 74.1009C45.4402 75.3179 45.4177 76.5348 45.3952 77.7518C42.9195 77.7518 40.4438 77.7518 37.9456 77.7518C37.8781 75.7161 38.1482 73.6805 37.7881 71.667C38.1257 70.9369 38.8009 70.4943 39.3185 69.9191C41.6817 67.1754 42.5144 63.9007 42.8745 60.449C43.3021 56.5548 45.8228 54.0545 48.9512 52.0189C49.4013 51.7312 49.8514 51.7534 50.3465 51.9525C51.2468 52.3065 51.967 52.9039 52.5522 53.612C53.835 55.1829 54.1726 57.0194 53.97 58.9887C53.97 59.3648 53.97 59.741 53.97 60.1392C53.1373 60.8694 53.1373 60.8694 54.1726 61.3562Z" fill="#FD9993"/>
<path d="M24.0817 138.444C23.9467 137.581 23.6991 136.74 23.3615 135.922C27.12 134.506 30.8786 133.112 34.6372 131.696C35.0873 131.519 35.3123 131.585 35.5149 132.005C36.5952 134.063 36.9328 136.209 36.2126 138.466C35.4024 137.67 35.3349 136.563 34.8847 135.612C34.5472 134.882 34.4346 134.063 33.917 133.399C34.5696 135.811 35.5149 138.134 36.3477 140.48C36.5727 141.896 36.7978 143.312 37.0003 144.706C37.1804 145.856 36.9553 146.896 36.1451 147.781C35.92 148.025 35.6949 148.423 35.2898 147.958C34.7722 147.671 34.7272 147.118 34.5696 146.653C33.9395 144.927 33.3543 143.201 32.5216 141.52C32.5216 142.073 32.7241 142.582 32.9267 143.091C33.5118 144.529 33.962 146.011 34.5246 147.427C34.6822 147.804 34.8622 148.18 34.7497 148.6C34.097 148.888 33.4668 149.264 32.7241 149.264C32.229 148.954 32.1615 148.423 32.0039 147.936C31.3738 146.1 30.6535 144.286 29.9108 142.471C29.8208 142.958 30.0008 143.4 30.1809 143.843C30.7436 145.325 31.3062 146.808 31.8239 148.29C31.9589 148.667 32.1615 149.043 32.0039 149.463C29.9559 150.149 27.6152 148.91 26.76 146.565C25.9947 144.507 25.3871 142.405 24.6894 140.325C24.5318 139.661 24.3068 139.064 24.0817 138.444Z" fill="#FD9993"/>
<path d="M87.9544 184.135C87.9544 186.082 87.9544 188.029 87.9994 189.976C88.0219 190.596 87.7968 190.795 87.1666 190.795C82.5079 190.773 77.8491 190.751 73.1678 190.817C72.3351 190.817 72.3801 190.419 72.3576 189.888C72.5602 188.206 72.7402 186.547 72.9427 184.865C72.9877 184.4 73.1003 184.091 73.753 184.091C78.4793 184.135 83.2281 184.135 87.9544 184.135Z" fill="#FEFEFE"/>
<path d="M7.60707 208.43C7.17944 208.186 7.3595 207.766 7.3595 207.434C7.33699 202.389 7.38199 197.366 7.33697 192.322C7.33697 191.414 7.65209 191.215 8.48486 191.237C10.443 191.304 10.1729 191.06 10.1729 192.875C10.1729 195.419 10.1504 197.942 10.1279 200.486C9.29514 203.141 8.46235 205.774 7.60707 208.43Z" fill="#FEFEFE"/>
<path d="M7.53962 223.741C7.4721 223.564 7.35959 223.409 7.35959 223.232C7.35959 218.608 7.40459 213.983 7.40459 209.359C8.30481 209.359 9.18251 209.359 10.0827 209.337C10.4428 209.691 10.4428 210.133 10.4428 210.576C10.4428 213.032 10.4204 215.488 10.4654 217.944C10.4654 218.475 10.2178 218.94 10.2403 219.448C9.34009 220.887 8.43984 222.325 7.53962 223.741Z" fill="#FDFDFD"/>
<path d="M45.8226 181.192C45.215 179.356 45.2375 177.431 44.9674 175.55C44.4273 171.589 43.9546 167.629 43.4595 163.668C42.9644 159.73 42.5143 155.813 42.0192 151.875C41.7941 150.083 41.5465 148.312 41.3215 146.542C41.4115 146.233 41.1189 145.702 41.6816 145.657C42.1992 145.613 42.1767 146.1 42.2217 146.454C43.3695 155.747 44.4948 165.04 45.6426 174.333C45.8901 176.302 46.1377 178.271 46.3853 180.241C46.4753 180.705 46.6553 181.236 45.8226 181.192Z" fill="#FDFDFD"/>
<path d="M12.8736 215.311C12.221 216.351 11.5458 217.413 10.8932 218.453C10.4656 218.165 10.4656 217.7 10.4656 217.28C10.4656 215.001 10.4656 212.744 10.4656 210.465C10.4656 210.045 10.488 209.647 10.8256 209.359C12.7611 209.337 14.674 209.337 16.6095 209.315C15.3492 211.328 14.1114 213.32 12.8736 215.311Z" fill="#FCFDFD"/>
<path d="M13.2337 190.751C10.7806 190.839 10.7806 190.839 10.7806 188.427C10.7806 187.011 10.7806 185.573 10.7806 184.157C12.0859 184.135 13.3913 184.135 14.6741 184.091C15.3043 184.069 15.3267 184.312 15.1692 184.799C14.5165 186.79 13.8864 188.759 13.2337 190.751Z" fill="#FEFEFE"/>
<path d="M29.0106 112.003C29.4382 110.056 29.8658 108.153 30.2935 106.273C30.8336 103.861 31.3512 101.471 31.8689 99.0594C31.9364 98.7054 31.9364 98.2186 32.4541 98.3071C32.9942 98.3956 32.7691 98.8602 32.7016 99.2143C31.8238 103.241 30.9686 107.268 30.0684 111.273C29.9334 111.848 30.0009 112.335 30.1809 112.866C31.0136 115.145 31.8239 117.424 32.6341 119.725C32.7691 120.079 33.1067 120.566 32.5441 120.765C31.9814 120.964 31.9589 120.345 31.8464 119.991C30.9912 117.645 30.1359 115.3 29.2807 112.955C29.1907 112.601 29.1006 112.291 29.0106 112.003Z" fill="#FCFCFD"/>
<path d="M91.5104 184.179C91.5104 186.06 91.4654 187.919 91.5104 189.799C91.5329 190.552 91.3304 190.817 90.5201 190.795C88.5621 190.773 88.5621 190.817 88.5621 188.892C88.5621 187.321 88.562 185.728 88.5845 184.157C89.5523 184.091 90.5426 184.046 91.5104 184.179Z" fill="#FDFDFE"/>
<path d="M10.1504 184.135C10.1504 186.06 10.1279 187.963 10.1954 189.888C10.2179 190.662 9.90288 190.817 9.20518 190.795C6.95454 190.729 7.38215 191.038 7.33714 189.003C7.31463 187.388 7.35967 185.772 7.35967 184.135C8.30494 184.135 9.22768 184.135 10.1504 184.135Z" fill="#FEFEFE"/>
<path d="M10.9605 198.008C10.5553 196.747 10.8704 195.464 10.7804 194.202C10.7579 193.981 10.7804 193.76 10.7804 193.539C10.7804 191.282 10.7804 191.282 13.0086 191.237C12.5134 193.561 11.5682 195.729 10.9605 198.008Z" fill="#FBFCFC"/>
<path d="M36.3927 140.436C35.9651 140.391 35.92 139.993 35.8075 139.705C35.0648 137.714 34.3447 135.7 33.6245 133.687C33.4895 133.333 33.1969 132.846 33.7595 132.669C34.2772 132.492 34.2997 133.045 34.4122 133.355C35.0198 135.037 35.6275 136.74 36.2576 138.444C36.4377 138.865 36.5952 139.307 36.7753 139.727C36.9328 140.104 36.7753 140.325 36.3927 140.436Z" fill="#050303"/>
<path d="M32.0489 149.419C31.2161 147.184 30.3834 144.949 29.5731 142.692C29.4606 142.361 29.213 141.918 29.6631 141.741C30.1583 141.542 30.2483 142.051 30.3609 142.383C31.1711 144.662 31.9814 146.941 32.7916 149.22C32.5666 149.375 32.319 149.463 32.0489 149.419Z" fill="#060403"/>
<path d="M34.7947 148.578C33.7369 146.321 33.0617 143.931 32.1615 141.608C32.0489 141.321 31.8914 140.922 32.3865 140.79C32.7916 140.679 32.8817 141.033 32.9717 141.298C33.7594 143.511 34.5471 145.702 35.3349 147.914C35.3124 148.268 35.2448 148.578 34.7947 148.578Z" fill="#060303"/>
<path d="M10.8254 209.359C10.7804 212.39 10.6679 215.421 10.893 218.453C10.6679 218.785 10.4653 219.117 10.2402 219.448C10.2177 216.506 10.2177 213.585 10.1952 210.664C10.1952 210.222 10.1277 209.801 10.1052 209.359C10.3303 209.359 10.5778 209.359 10.8254 209.359Z" fill="#5881AD"/>
<path d="M242.955 228.321C242.955 225.976 242.977 223.608 242.932 221.263C242.932 220.577 243.112 220.289 243.878 220.311C245.566 220.356 247.254 220.356 248.919 220.311C249.617 220.289 249.909 220.466 249.909 221.219C249.887 225.954 249.887 230.711 249.909 235.446C249.909 236.132 249.752 236.419 248.987 236.397C247.299 236.353 245.611 236.353 243.945 236.397C243.135 236.419 242.932 236.11 242.955 235.379C242.977 233.012 242.955 230.667 242.955 228.321Z" fill="#FEFEFE"/>
<path d="M183.966 228.432C183.966 230.777 183.944 233.145 183.989 235.49C183.989 236.132 183.831 236.397 183.111 236.375C181.4 236.331 179.667 236.331 177.957 236.375C177.304 236.397 177.034 236.242 177.034 235.512C177.057 230.733 177.057 225.954 177.034 221.174C177.034 220.511 177.237 220.267 177.912 220.289C179.622 220.334 181.355 220.334 183.066 220.289C183.854 220.267 183.989 220.599 183.966 221.263C183.944 223.652 183.966 226.042 183.966 228.432Z" fill="#FEFEFE"/>
<path d="M24.5993 10.5764C18.23 10.5764 11.8608 10.5542 5.49153 10.5985C4.61378 10.5985 4.25367 10.4436 4.29868 9.47005C4.3662 6.8149 4.3437 4.15974 4.29868 1.52671C4.27618 0.685907 4.54626 0.464645 5.379 0.464645C18.1851 0.486772 30.9911 0.486772 43.7972 0.464645C44.5624 0.464645 44.8325 0.663782 44.8325 1.46033C44.7875 4.18187 44.7875 6.9034 44.8325 9.62494C44.855 10.4436 44.5399 10.5764 43.7972 10.5764C37.4054 10.5542 30.9911 10.5764 24.5993 10.5764Z" fill="#FEFEFE"/>
<path d="M72.9877 10.5764C66.6184 10.5764 60.2492 10.5542 53.8799 10.5985C53.0021 10.5985 52.7321 10.3994 52.7546 9.51432C52.8221 6.85917 52.7996 4.20401 52.7546 1.57099C52.7321 0.774443 52.9346 0.486801 53.8123 0.486801C66.5959 0.508927 79.357 0.508927 92.1406 0.486801C92.9958 0.486801 93.2208 0.730191 93.1983 1.54886C93.1533 4.20401 93.1533 6.85916 93.1983 9.49219C93.2208 10.333 92.9958 10.5985 92.0956 10.5985C85.7263 10.5542 79.357 10.5764 72.9877 10.5764Z" fill="#FEFEFE"/>
<path d="M88.5845 228.764C88.5845 228.432 88.5845 228.1 88.5845 227.79C88.5845 216.041 88.6071 204.292 88.5621 192.543C88.5621 191.414 88.9222 191.171 89.9575 191.237C90.8352 191.304 91.5554 191.127 91.5329 192.477C91.4654 203.495 91.4879 214.492 91.5104 225.511C91.5104 226.219 91.3303 226.64 90.6551 226.971C89.8449 227.37 89.2597 228.056 88.5845 228.764Z" fill="#FEFEFE"/>
<path d="M93.4684 226.75C96.2367 226.75 98.3524 228.852 98.3299 231.596C98.3074 234.273 96.2142 236.331 93.491 236.331C90.7002 236.331 88.5845 234.273 88.5845 231.552C88.5845 228.83 90.7001 226.75 93.4684 226.75Z" fill="#FEFEFE"/>
<path d="M98.7799 109.215C86.0189 104.171 78.3217 95.0324 76.7238 81.5796C74.6532 64.1441 86.1764 48.6778 103.709 45.204C123.267 41.3319 140.619 54.4307 143.747 71.9989C144.738 77.5084 144.355 82.9072 142.622 88.2396C142.487 88.6158 142.33 88.9919 142.172 89.3681C141.654 89.6115 141.227 89.3238 140.799 89.1247C138.638 88.0848 136.388 87.6201 133.98 87.6422C130.131 87.6865 126.283 87.598 122.456 87.8414C121.984 87.7086 121.511 87.8635 121.039 87.8856C119.913 87.7529 118.743 88.0847 117.64 87.6201C117.28 87.2218 117.325 86.7351 117.325 86.2704C117.303 83.8586 117.348 81.4247 117.303 79.013C117.28 78.0173 117.573 77.3092 118.585 76.9774C119.013 76.8446 119.373 76.5791 119.711 76.2693C120.926 75.2073 120.971 73.7469 119.846 72.5963C119.553 72.3087 119.216 72.0653 118.946 71.7556C118.608 71.313 118.653 70.782 118.675 70.2731C118.743 68.8791 118.518 67.4852 118.36 66.0912C117.955 62.5953 114.489 60.0729 110.911 60.7588C109.425 61.0464 108.458 60.7588 107.535 59.6303C106.184 57.993 104.316 57.1743 102.223 57.1965C98.7799 57.2186 96.7093 61.0243 98.2623 64.2769C98.5774 64.9407 99.05 65.5159 99.3876 66.1797C99.4776 66.5559 99.7477 66.6665 100.108 66.755C100.355 66.8214 100.648 66.8878 100.558 67.2418C100.22 67.5294 99.7927 67.4852 99.3876 67.4852C97.9922 67.5073 97.047 68.2153 96.5968 69.4765C96.1242 70.7377 96.1692 71.9768 97.1595 73.0831C97.6771 73.6584 98.4874 73.9018 98.915 74.5656C99.1175 75.2294 99.185 75.9374 99.3201 76.6233C99.7702 79.0351 101.233 80.6503 103.529 81.5132C104.834 82 106.185 82.2213 107.58 82.3762C108.795 82.5089 108.975 82.6638 108.975 83.9029C108.953 85.0977 109.178 86.3146 108.795 87.5095C108.638 87.7307 108.413 87.775 108.165 87.775C107.692 87.6644 107.287 87.9299 106.815 87.9077C105.284 87.8414 103.731 87.9077 102.201 87.8856C99.1175 88.483 98.1498 89.9434 98.3523 93.041C98.5999 96.8468 98.9375 100.652 99.1175 104.48C99.185 105.808 99.4101 107.113 99.3201 108.441C99.2525 108.729 99.5226 109.282 98.7799 109.215Z" fill="#202B6D"/>
<path d="M170.777 104.193C163.463 98.4177 159.142 90.9612 157.926 81.823C155.631 64.5202 168.189 47.9477 185.744 45.0491C204.424 41.9736 221.777 53.8554 225.017 72.2423C226.885 82.7302 223.96 92.0453 216.915 100.121C216.825 100.232 216.69 100.321 216.578 100.409C216.15 100.321 216.24 99.9665 216.263 99.701C216.308 98.4841 216.24 97.2893 216.42 96.0723C217.005 92.0011 214.575 88.2617 210.298 86.6023C209.038 86.1155 207.733 85.8279 206.36 85.85C204.199 85.8721 202.016 85.9164 199.856 85.8279C199.45 85.7393 199.023 85.6951 198.618 85.8057C197.807 85.85 196.952 86.0934 196.255 85.4074C195.894 84.5445 196.052 83.5931 195.849 82.708C196.007 82.531 196.232 82.4868 196.457 82.5089C198.843 82.7744 201.251 82.4425 203.637 82.708C204.222 82.7744 204.762 82.6638 205.144 82.177C205.55 81.6239 205.302 81.115 204.987 80.6503C202.804 77.3314 202.174 73.6363 202.084 69.7863C202.039 68.149 201.769 66.5559 201.318 64.9849C200.373 61.6217 198.28 59.9401 194.769 59.564C192.586 59.3427 190.38 59.2321 188.175 58.9444C185.564 58.6125 183.021 59.2321 180.77 60.6481C179.307 61.5553 178.542 62.8386 178.632 64.6309C178.722 66.1133 178.497 66.2461 176.967 66.1576C176.652 66.1355 176.246 65.8921 176.021 66.224C175.819 66.5559 176.179 66.8435 176.359 67.109C177.057 68.1932 177.664 69.3438 178.61 70.2731C179.082 70.7377 179.915 70.7156 180.208 71.4015C179.532 75.3842 181.423 78.3934 185.001 79.5661C185.924 79.8759 186.869 80.0971 187.837 80.2299C188.76 80.3627 189.278 80.8273 189.21 81.7787C189.12 82.9957 189.525 84.279 188.917 85.4738C188.085 85.8721 187.139 85.5845 186.262 85.85C185.429 85.9385 184.596 85.9606 183.786 85.7393C183.538 85.6951 183.291 85.6951 183.066 85.7172C182.301 85.9385 181.513 85.8721 180.725 85.8942C176.719 85.9164 173.366 88.8149 172.803 92.7534C172.33 96.1387 171.655 99.4798 171.385 102.887C171.363 103.352 171.25 103.861 170.777 104.193Z" fill="#202B6D"/>
<path d="M53.9925 58.9887C53.835 58.0372 53.6999 57.1079 53.4974 56.1786C53.3173 55.2715 52.9572 54.4307 52.3496 53.7005C50.7966 51.864 49.7163 51.7534 47.8033 53.1695C44.81 55.4042 43.167 58.2806 42.9195 62.0421C42.6494 65.9363 40.9614 69.211 37.8106 71.6891C34.007 70.5165 31.2387 68.326 30.4735 64.299C29.9109 61.2898 30.7886 58.5461 32.4991 56.0459C32.9042 55.4485 33.0167 55.0723 32.4315 54.4749C31.6888 53.7226 31.3287 52.7269 31.2612 51.6649C31.0812 48.5008 30.8786 45.3368 30.7886 42.1727C30.6985 39.1193 32.9717 36.619 35.9875 36.2429C39.8586 35.7782 42.7844 37.5041 43.4821 40.7345C43.7072 41.7965 43.7072 42.925 43.7522 44.0313C43.8647 46.0448 43.9997 48.0804 44.0222 50.0939C44.0448 50.9347 44.2023 51.1117 45.08 50.9568C48.0058 50.4479 50.8191 50.9347 53.4073 52.3729C54.8927 53.1916 55.838 54.3864 55.9505 56.1565C56.0856 57.8824 55.703 58.4355 53.9925 58.9887Z" fill="black"/>
<path d="M196.322 85.4517C197.132 85.4517 197.942 85.4738 198.753 85.4738C199.203 85.8279 199.135 86.3368 199.135 86.8014C199.158 90.6956 199.135 94.612 199.158 98.5062C199.158 99.4576 198.91 100.099 197.852 100.365C196.637 100.697 196.074 101.582 196.007 102.843C195.782 106.582 197.47 106.936 200.846 106.516C201.183 106.472 201.476 106.273 201.723 106.051C203.254 104.724 202.691 101.029 200.778 100.409C199.653 100.055 199.36 99.4134 199.383 98.3734C199.405 94.5456 199.383 90.7178 199.405 86.8899C199.405 86.4253 199.338 85.9164 199.72 85.5181C202.781 85.5181 205.887 85.0092 208.858 85.8057C212.842 86.8678 215.857 89.1689 216.735 93.3729C217.163 95.4749 216.51 97.6212 216.578 99.7453C216.578 99.9665 216.6 100.166 216.623 100.387C210.568 106.87 203.029 110.388 194.139 111.14C193.711 110.145 194.004 109.105 194.094 108.109C194.431 103.949 194.769 99.7674 195.152 95.6077C195.467 92.333 195.512 89.014 196.119 85.7615C196.142 85.6508 196.209 85.5402 196.322 85.4517Z" fill="#6DB5DE"/>
<path d="M110.416 122.69C114.354 122.69 118.293 122.69 122.209 122.69C125.697 122.69 128.353 125.146 128.376 128.377C128.421 131.651 125.72 134.152 122.186 134.152C114.174 134.152 106.14 134.174 98.1273 134.152C95.314 134.152 92.8833 132.138 92.4107 129.572C91.893 126.673 93.4234 124.04 96.1692 123.044C96.8894 122.779 97.6096 122.69 98.3748 122.69C102.403 122.69 106.41 122.69 110.416 122.69Z" fill="#459257"/>
<path d="M191.731 122.69C195.669 122.69 199.608 122.69 203.547 122.69C207.058 122.69 209.646 125.124 209.646 128.421C209.646 131.718 207.08 134.152 203.569 134.152C195.579 134.152 187.612 134.152 179.622 134.152C176.224 134.152 173.636 131.651 173.636 128.421C173.636 125.191 176.224 122.69 179.622 122.69C183.628 122.69 187.68 122.69 191.731 122.69Z" fill="#459257"/>
<path d="M122.119 87.5316C127.093 87.3103 132.067 87.0669 137.018 87.5095C138.863 87.6865 140.506 88.5715 142.149 89.3459C141.137 92.51 139.449 95.32 137.446 97.931C133.867 102.622 129.321 106.096 123.874 108.463C123.784 108.507 123.649 108.507 123.559 108.529C123.379 108.441 123.267 108.286 123.244 108.109C122.997 106.273 122.546 104.458 122.727 102.577C122.839 102.423 122.997 102.334 123.154 102.246C125.112 101.206 125.787 98.9045 124.662 97.0016C124.257 96.3157 123.627 95.9617 122.862 95.8068C122.299 95.6962 121.849 95.4528 121.849 94.8333C121.781 92.5543 121.759 90.2753 121.871 88.0184C121.871 87.8192 121.961 87.6643 122.119 87.5316Z" fill="#6DB5DE"/>
<path d="M122.794 102.6C123.042 104.569 123.289 106.56 123.537 108.529C120.318 110.056 116.852 110.72 113.319 111.118C112.644 111.185 112.846 110.698 112.846 110.388C112.824 108.773 112.846 107.158 112.824 105.542C112.824 105.188 112.936 104.812 112.689 104.48C112.419 104.325 112.306 104.038 112.171 103.772C111.586 102.511 110.573 101.914 109.178 101.803C107.76 101.692 107.58 101.493 107.58 100.121C107.557 96.3378 107.557 92.5764 107.58 88.7928C107.58 88.3502 107.535 87.9077 107.917 87.5537C108.143 87.5316 108.39 87.5316 108.615 87.5094C108.953 87.2218 109.358 87.1775 109.763 87.1775C111.991 87.1554 114.197 87.1554 116.425 87.1775C116.83 87.1775 117.235 87.1997 117.573 87.5094C118.788 87.6864 120.048 87.3103 121.241 87.7528C121.489 88.0183 121.511 88.3502 121.511 88.6821C121.534 90.6292 121.534 92.5763 121.511 94.5013C121.511 95.2094 121.174 95.6077 120.476 95.8732C118.428 96.6255 117.618 99.4134 118.878 101.183C119.373 101.892 120.093 102.223 120.971 102.246C121.624 102.246 122.299 102.046 122.794 102.6Z" fill="black"/>
<path d="M196.322 85.4296C195.579 93.9925 194.837 102.577 194.094 111.14C192.541 111.14 190.988 111.118 189.435 111.185C188.692 111.207 188.557 110.875 188.647 110.3C188.242 109.835 188.355 109.26 188.355 108.706C188.332 105.697 188.355 102.688 188.355 99.6789C188.355 96.6255 187.612 95.7847 184.551 95.3422C184.371 95.32 184.191 95.2758 184.011 95.1652C183.313 94.1031 183.516 92.9083 183.764 91.8683C184.236 89.8991 185.069 88.0405 185.722 86.1155C185.812 85.8721 186.037 85.6951 186.217 85.5181C187.072 85.1419 187.995 85.4296 188.872 85.319C191.393 85.1419 193.869 84.9871 196.322 85.4296Z" fill="black"/>
<path d="M170.777 104.193C171.138 101.847 171.475 99.4798 171.835 97.1344C172.083 95.4306 172.308 93.7048 172.6 92.0011C173.186 88.7043 176.539 85.7836 179.96 85.5181C180.995 85.4296 182.053 85.4296 183.088 85.3853C183.426 85.6951 183.403 86.1155 183.403 86.5138C183.403 88.9477 183.426 91.3815 183.403 93.8154C183.403 95.0766 183.201 95.2536 181.918 95.3864C179.645 95.6298 178.52 96.8467 178.475 99.1036C178.452 101.427 178.497 103.75 178.452 106.073C178.452 106.538 178.52 107.047 178.159 107.445C178.204 108.264 177.934 108.463 177.124 108.065C174.874 106.981 172.758 105.697 170.777 104.193Z" fill="#6DB5DE"/>
<path d="M152.907 159.73C176.741 159.73 200.576 159.73 224.41 159.752C224.927 159.752 225.895 159.376 225.873 160.172C225.85 160.947 224.882 160.57 224.365 160.57C176.764 160.593 129.186 160.593 81.5851 160.57C81.045 160.57 80.0771 160.902 80.0771 160.194C80.0771 159.309 81.09 159.752 81.6301 159.752C105.397 159.73 129.163 159.73 152.907 159.73Z" fill="#0C0C0C"/>
<path d="M187.725 110.919C184.866 110.786 182.166 109.968 179.487 109.016C178.992 108.839 179.015 108.529 179.015 108.175C179.015 107.18 178.992 106.184 178.992 105.21C178.925 105.1 178.902 104.989 178.925 104.879C179.847 101.958 181.108 99.1479 182.12 96.2715C182.211 96.0281 182.368 95.8289 182.638 95.7183C182.863 95.6298 183.066 95.6298 183.291 95.6077C186.622 95.2979 188.355 96.4927 188.197 100.077C188.04 103.175 188.175 106.295 188.152 109.414C188.13 109.945 188.242 110.521 187.725 110.919Z" fill="black"/>
<path d="M102.066 87.5316C103.394 87.5316 104.722 87.5316 106.049 87.5316C106.41 87.5316 106.792 87.4209 107.085 87.7307C107.445 88.129 107.4 88.6158 107.4 89.1025C107.4 92.7534 107.422 96.3821 107.4 100.033C107.4 101.493 107.242 101.648 105.757 101.825C103.821 102.046 102.673 103.308 102.673 105.233C102.673 106.494 102.673 107.733 102.673 108.994C102.673 109.459 102.741 109.968 102.268 110.299C102.111 110.233 101.976 110.167 101.818 110.122C101.481 109.68 101.526 109.149 101.526 108.64C101.526 103.861 101.481 99.1036 101.548 94.3243C101.571 92.4215 101.796 90.5186 101.773 88.6158C101.751 88.1954 101.796 87.8192 102.066 87.5316Z" fill="black"/>
<path d="M102.066 87.5316C101.976 95.0545 101.886 102.555 101.796 110.078C100.738 109.968 99.7477 109.569 98.7575 109.215C99.2301 108.198 98.915 107.158 98.8475 106.14C98.5999 101.914 98.2848 97.7097 97.9923 93.5057C97.9472 92.8197 97.7897 92.1117 97.8797 91.4258C98.1948 89.1468 99.5227 87.9298 102.066 87.5316Z" fill="#6DB5DE"/>
<path d="M111.969 111.162C109.313 111.317 106.657 111.118 104.024 110.654C103.371 110.543 103.079 110.322 103.101 109.614C103.169 107.844 103.146 106.073 103.169 104.325C103.124 103.263 103.776 102.4 105.059 102.157C106.68 101.847 108.368 101.847 109.965 102.135C111.293 102.378 112.081 103.463 112.216 104.746C112.419 106.649 112.306 108.574 112.261 110.477C112.284 110.742 112.171 110.985 111.969 111.162Z" fill="black"/>
<path d="M179.037 104.989C179.015 105.056 178.992 105.144 178.992 105.21C178.519 106.295 178.992 107.423 178.722 108.574C178.114 108.375 178.565 107.689 178.182 107.423C178.182 104.436 178.114 101.471 178.159 98.4841C178.182 96.537 179.757 95.0103 181.828 95.0766C182.908 95.0988 183.088 94.7226 183.066 93.7712C183.021 90.9833 183.088 88.1732 183.088 85.3853C183.313 85.2747 183.516 85.2526 183.741 85.3853C184.146 85.8942 184.079 86.4916 184.101 87.0669C184.281 89.7221 183.651 92.333 183.898 94.9881C184.349 95.0103 184.799 95.0324 185.226 95.0545C187.139 95.1651 188.67 96.6034 188.67 98.4398C188.692 102.4 188.67 106.339 188.647 110.3C188.355 110.521 188.535 111.472 187.702 110.941C187.927 106.737 187.815 102.511 187.77 98.3071C187.747 97.0238 186.577 96.0059 185.271 95.9396C184.349 95.8953 183.403 95.9617 182.481 95.9838C182.346 96.0502 182.526 95.9838 182.391 96.0281C179.375 97.1565 179.375 97.1565 179.375 100.409C179.352 101.914 179.465 103.485 179.037 104.989Z" fill="#FCFDFD"/>
<path d="M191.731 146.653C197.38 146.653 203.029 146.653 208.7 146.653C208.97 146.653 209.218 146.653 209.488 146.653C209.758 146.675 210.028 146.697 210.051 147.051C210.073 147.494 209.713 147.472 209.443 147.516C209.218 147.538 208.993 147.516 208.768 147.516C197.357 147.516 185.924 147.516 174.514 147.516C174.401 147.516 174.288 147.538 174.176 147.516C173.816 147.45 173.208 147.671 173.231 147.073C173.253 146.498 173.861 146.675 174.221 146.675C180.05 146.653 185.902 146.653 191.731 146.653Z" fill="#0D0D0D"/>
<path d="M110.303 147.516C104.654 147.516 98.9825 147.516 93.3334 147.516C92.9958 147.516 92.6582 147.516 92.3206 147.494C92.1181 147.472 91.9605 147.383 91.938 147.162C91.9155 146.919 92.028 146.719 92.2981 146.697C92.5907 146.675 92.9058 146.653 93.1984 146.653C104.632 146.653 116.065 146.653 127.498 146.653C127.723 146.653 127.948 146.653 128.173 146.653C128.488 146.653 128.826 146.741 128.781 147.14C128.758 147.45 128.466 147.516 128.173 147.516C127.881 147.516 127.565 147.516 127.273 147.516C121.624 147.516 115.975 147.516 110.303 147.516Z" fill="#0E0E0E"/>
<path d="M111.969 111.162C111.969 109.215 111.991 107.268 111.969 105.321C111.946 103.33 110.888 102.312 108.84 102.29C107.985 102.29 107.13 102.312 106.252 102.29C104.699 102.223 103.686 102.887 103.169 104.325C102.718 105.653 103.056 107.003 102.966 108.33C102.921 108.795 102.921 109.282 102.966 109.769C103.034 110.454 102.673 110.366 102.223 110.277C102.246 108.574 102.246 106.892 102.268 105.188C102.291 102.909 103.731 101.405 106.027 101.471C106.995 101.493 107.085 101.117 107.085 100.343C107.062 96.1387 107.062 91.9568 107.062 87.7528C107.287 87.4873 107.58 87.3767 107.917 87.5537C107.917 91.8462 107.962 96.1387 107.917 100.453C107.917 101.272 108.12 101.493 108.953 101.493C111.068 101.471 112.396 102.6 112.689 104.502C112.666 106.427 112.644 108.352 112.621 110.277C112.644 110.72 112.756 111.251 111.969 111.162Z" fill="#FBFBFB"/>
<path d="M110.303 143.091C107.872 143.091 105.442 143.091 103.011 143.091C102.629 143.091 102.043 143.29 102.021 142.715C101.998 142.139 102.584 142.25 102.966 142.25C107.895 142.25 112.846 142.25 117.775 142.25C118.158 142.25 118.743 142.117 118.72 142.715C118.675 143.29 118.09 143.091 117.73 143.091C115.232 143.091 112.756 143.091 110.303 143.091Z" fill="#0F0F0F"/>
<path d="M191.528 143.091C189.098 143.091 186.667 143.091 184.214 143.091C183.854 143.091 183.268 143.29 183.291 142.648C183.313 142.117 183.831 142.25 184.169 142.25C189.12 142.25 194.049 142.25 199 142.25C199.383 142.25 199.946 142.117 199.946 142.737C199.923 143.268 199.383 143.113 199.045 143.113C196.547 143.091 194.049 143.091 191.528 143.091Z" fill="#0F0F0F"/>
<path d="M216.645 35.1365C215.002 35.1365 213.359 35.1365 211.694 35.1365C211.334 35.1365 210.748 35.3357 210.748 34.694C210.771 34.1851 211.266 34.2736 211.626 34.2736C214.957 34.2736 218.288 34.2736 221.619 34.2736C221.979 34.2736 222.497 34.1851 222.497 34.694C222.497 35.3135 221.934 35.1365 221.551 35.1365C219.931 35.1365 218.288 35.1365 216.645 35.1365Z" fill="#040404"/>
<path d="M182.503 35.1365C180.815 35.1365 179.127 35.1365 177.439 35.1365C177.102 35.1365 176.674 35.2029 176.652 34.7604C176.629 34.2294 177.079 34.2736 177.462 34.2736C180.838 34.2736 184.191 34.2736 187.567 34.2736C187.927 34.2736 188.422 34.2072 188.422 34.7383C188.422 35.2914 187.905 35.1365 187.544 35.1365C185.879 35.1365 184.191 35.1365 182.503 35.1365Z" fill="#040404"/>
<path d="M199.27 35.1365C197.582 35.1365 195.917 35.1365 194.229 35.1365C193.869 35.1365 193.396 35.2472 193.419 34.6719C193.441 34.2072 193.869 34.2736 194.206 34.2736C197.56 34.2736 200.936 34.2736 204.289 34.2736C204.649 34.2736 205.144 34.163 205.144 34.694C205.167 35.2693 204.649 35.1365 204.312 35.1365C202.646 35.1365 200.958 35.1365 199.27 35.1365Z" fill="#050505"/>
<path d="M54.1725 61.3562C53.6098 61.5553 53.0471 61.5553 52.957 60.8915C52.867 60.2278 53.4072 60.0507 53.9924 60.1171C54.3751 60.4933 54.4651 60.8915 54.1725 61.3562Z" fill="#120D0D"/>
<path d="M213.427 215.975C204.019 215.975 194.612 215.953 185.204 215.997C184.236 215.997 183.944 215.798 183.944 214.78C183.989 205.022 183.989 195.242 183.944 185.485C183.944 184.467 184.259 184.29 185.204 184.29C204.064 184.312 222.924 184.312 241.762 184.29C242.685 184.29 242.955 184.511 242.955 185.44C242.91 195.242 242.91 205.044 242.955 214.846C242.955 215.798 242.662 215.997 241.762 215.997C232.332 215.975 222.879 215.975 213.427 215.975Z" fill="#5882AE"/>
<path d="M46.768 60.9358C46.7455 61.4447 46.5205 61.6881 46.0703 61.7102C45.6877 61.7102 45.4176 61.5332 45.3951 61.1349C45.3501 60.6924 45.5752 60.4048 46.0028 60.3605C46.453 60.2941 46.6555 60.6039 46.768 60.9358Z" fill="#0D0807"/>
<path d="M117.595 87.5095C114.602 87.5095 111.631 87.5095 108.638 87.5095C108.638 86.1819 108.593 84.8543 108.638 83.5488C108.66 82.8851 108.48 82.6638 107.782 82.6417C106.162 82.5974 104.587 82.2876 103.101 81.6681C99.8828 80.3405 98.78 77.7296 98.7574 74.4992C98.9825 74.2115 99.2976 74.3222 99.5902 74.3001C100.806 74.2779 101.886 73.9239 102.629 72.9282C103.169 72.1981 103.641 72.3751 104.136 72.9725C104.924 73.9239 105.959 74.3443 107.197 74.2558C108.863 74.123 110.011 73.1052 110.438 71.3573C110.731 70.1624 109.988 68.5251 108.863 67.8392C107.49 66.9984 105.937 67.0869 104.677 68.0604C104.587 68.1268 104.497 68.1932 104.429 68.2817C103.371 69.2774 103.326 69.2995 102.336 68.3038C101.796 67.7728 100.986 67.6843 100.513 67.0648C100.265 66.8656 99.9503 66.9099 99.6802 66.932C99.0951 66.9762 99.1401 66.6222 99.2076 66.2461C99.6352 65.8478 100.175 65.9363 100.693 65.9806C103.619 66.2461 106.567 66.3346 109.515 66.3567C113.679 66.3788 116.582 68.4587 118.991 71.5343C120.206 72.0653 121.016 72.9061 121.039 74.2779C121.039 75.6498 120.228 76.6233 119.013 77.0216C117.775 77.442 117.55 78.1279 117.595 79.2785C117.64 82.0664 117.595 84.7879 117.595 87.5095Z" fill="#FD9993"/>
<path d="M118.968 71.5785C118.248 71.2687 117.865 70.5828 117.325 70.0961C114.894 67.8613 112.149 66.5337 108.683 66.6001C105.509 66.6665 102.336 66.401 99.1851 66.2903C97.6321 64.4096 96.9344 62.3519 97.8122 59.9401C98.6449 57.6832 100.693 56.5548 103.124 56.9309C105.374 57.2849 107.085 58.4134 108.435 60.1171C108.863 60.6481 109.178 60.7145 109.831 60.5818C113.274 59.8737 116.132 60.9358 117.798 63.4803C118.383 64.3654 118.675 65.361 118.72 66.401C118.855 68.1268 118.9 69.8527 118.968 71.5785Z" fill="black"/>
<path d="M100.513 67.109C101.796 67.3082 102.651 68.0605 103.349 69.211C104.204 67.8613 105.352 67.0205 106.972 67.0205C108.03 67.0205 108.953 67.4188 109.695 68.149C111.293 69.7199 111.136 72.3087 109.403 73.7248C107.535 75.2515 105.172 74.7647 103.371 72.4636C102.336 74.2337 100.76 74.8532 98.7799 74.5213C96.1017 73.1938 95.269 71.1581 96.5293 68.9013C97.1595 67.7949 98.0823 67.1533 99.4101 67.1754C99.7702 67.1533 100.13 67.1311 100.513 67.109Z" fill="#010101"/>
<path d="M122.794 102.6C122.119 102.6 121.444 102.6 120.791 102.577C119.441 102.511 118.473 101.715 118.203 100.409C118.023 99.5462 118.045 98.639 118.158 97.7761C118.315 96.5149 119.261 95.6519 120.633 95.497C121.174 95.4307 121.309 95.2758 121.286 94.7669C121.264 92.4215 121.264 90.0761 121.241 87.7307C121.444 87.3324 121.714 87.1776 122.096 87.5094C122.096 89.8327 122.119 92.1339 122.119 94.4571C122.119 95.0766 122.141 95.4528 122.974 95.497C124.28 95.6077 125.09 96.4706 125.292 97.7982C125.382 98.4177 125.45 99.0373 125.405 99.6568C125.315 101.427 124.55 102.246 122.794 102.6Z" fill="#FCFCFC"/>
<path d="M180.095 71.3351C178.767 71.0254 177.912 70.1624 177.259 69.034C176.741 68.149 176.179 67.2639 175.594 66.4231C175.144 65.8036 175.414 65.6487 176.021 65.6708C176.651 65.6929 177.282 65.8036 177.912 65.8478C178.227 65.8699 178.474 65.8921 178.384 65.3832C177.799 61.843 179.892 60.3384 182.796 59.3206C185.069 58.524 187.432 58.2806 189.84 58.878C191.168 59.2099 192.586 59.0772 193.959 59.1878C198.798 59.5418 201.071 61.5111 201.971 66.224C202.354 68.1932 202.466 70.1624 202.556 72.1317C202.714 75.2072 203.682 77.9509 205.302 80.5176C205.662 81.0928 205.91 81.6017 205.527 82.2434C205.144 82.8629 204.537 83.0842 203.907 83.0178C201.746 82.7523 199.563 82.9515 197.402 82.8408C196.93 82.8187 196.457 82.7523 195.962 82.6859C195.489 82.4647 195.557 82 195.579 81.6239C195.692 79.6325 195.422 77.7075 194.702 75.8047C193.981 73.8797 193.914 71.7998 193.599 69.6093C192.473 71.1139 191.123 72.0432 189.142 71.8883C187.072 71.7334 186.194 70.251 185.271 68.7685C184.731 69.034 184.596 69.5429 184.326 69.8969C183.538 70.9147 182.548 71.5564 181.22 71.6228C180.815 71.667 180.388 71.7334 180.095 71.3351Z" fill="black"/>
<path d="M180.095 71.3351C182.818 71.844 184.056 70.0297 185.226 67.9277C186.172 69.7199 186.982 71.4679 189.255 71.667C191.506 71.8662 192.631 70.3395 193.914 68.6136C194.184 70.8705 194.296 72.8397 194.724 74.7868C194.927 75.7604 195.129 76.734 195.669 77.5969C196.029 78.15 195.827 78.7474 195.872 79.3227C195.939 80.4512 195.759 81.6017 195.962 82.7302C196.727 83.571 196.187 84.5667 196.299 85.4738V85.4517C193.824 85.4075 191.348 85.5845 188.872 85.3632C188.872 84.0799 188.827 82.7966 188.895 81.5132C188.94 80.8273 188.647 80.6282 188.04 80.5618C186.554 80.3848 185.114 80.0308 183.763 79.3891C180.298 77.7518 179.555 74.8975 179.712 71.7555C179.78 71.49 179.915 71.4015 180.095 71.3351Z" fill="#FD9993"/>
<path d="M199.698 85.5181C199.698 89.9433 199.72 94.3465 199.698 98.7717C199.698 99.4355 199.698 99.878 200.621 99.9887C201.971 100.144 202.804 101.25 202.871 102.622C202.871 102.666 202.871 102.688 202.871 102.732C203.209 107.268 200.958 107.135 197.875 106.981C197.335 106.958 196.862 106.671 196.48 106.317C195.197 105.033 195.534 103.418 195.759 101.936C195.939 100.763 196.93 100.077 198.168 99.9665C198.753 99.9223 198.82 99.6568 198.82 99.1921C198.798 94.6341 198.775 90.0761 198.775 85.5181C199.09 85.1419 199.405 85.2968 199.698 85.5181Z" fill="#FDFDFE"/>
<path d="M183.899 94.9881C183.561 94.081 183.786 93.1295 183.764 92.2002C183.741 89.9212 183.741 87.6643 183.741 85.3853C184.574 85.4296 185.406 85.496 186.239 85.5402C185.834 86.7572 185.474 87.9962 184.979 89.191C184.214 91.0497 183.718 92.9525 183.899 94.9881Z" fill="#70B5DC"/>
<path d="M37.0904 61.3119C37.0904 63.4803 37.0679 65.538 37.113 67.5958C37.113 68.2153 36.8429 68.1711 36.4377 68.0162C36.3027 67.9719 36.1676 67.9056 36.0326 67.8392C33.962 67.0648 32.9942 65.9806 33.0617 64.5645C33.1292 63.1263 34.2545 62.0863 36.3027 61.4889C36.4827 61.4226 36.7078 61.4004 37.0904 61.3119Z" fill="#FC9993"/>
<path d="M179.037 104.989C179.037 103.042 179.015 101.095 179.015 99.1479C179.015 96.8025 180.117 95.8068 182.481 95.9617C181.445 99.0151 180.298 102.024 179.037 104.989Z" fill="#6CB5DE"/>
<path d="M213.382 215.51C204.154 215.51 194.949 215.488 185.722 215.532C184.776 215.532 184.439 215.355 184.461 214.337C184.506 204.867 184.506 195.397 184.461 185.927C184.461 185.02 184.709 184.754 185.631 184.754C204.177 184.777 222.744 184.777 241.29 184.754C242.347 184.754 242.482 185.086 242.482 185.994C242.46 195.419 242.46 204.867 242.482 214.293C242.482 215.244 242.28 215.532 241.267 215.532C231.972 215.488 222.677 215.51 213.382 215.51Z" fill="#FEFEFE"/>
<path d="M106.86 67.8613C108.48 67.8392 109.898 69.1668 109.92 70.7599C109.965 72.3308 108.593 73.7469 106.972 73.7911C105.374 73.8354 103.934 72.4857 103.911 70.8926C103.889 69.2553 105.239 67.8835 106.86 67.8613Z" fill="#FC9993"/>
<path d="M98.96 68.0604C100.198 67.6843 101.391 68.0162 102.156 68.9676C102.921 69.9191 103.011 71.2024 102.403 72.2644C101.796 73.3265 100.558 73.9239 99.3876 73.7248C99.1625 73.6805 98.96 73.6142 98.7349 73.5478C98.2623 72.7955 98.3298 72.0211 98.6224 71.2466C98.8924 70.8484 99.6576 71.313 99.7252 70.782C99.8152 70.1846 98.8249 70.5828 98.7349 70.0076C98.6224 69.3438 98.4873 68.6579 98.96 68.0604Z" fill="#FC9993"/>
<path d="M98.9374 71.1581C98.5998 71.9325 98.8249 72.7512 98.7348 73.5478C97.2495 72.9061 96.7318 71.7555 96.9119 70.2509C97.0694 69.0783 97.7896 68.3481 98.9599 68.0604C98.9599 68.7906 98.9599 69.5208 98.9599 70.2509C99.1174 70.5607 99.0949 70.8705 98.9374 71.1581Z" fill="#202B6C"/>
<path d="M122.772 101.67C122.614 101.692 122.479 101.737 122.322 101.737C119.328 101.825 118.495 100.918 118.99 97.9752C119.148 97.0016 119.756 96.4042 120.813 96.36C121.286 96.3378 121.781 96.3821 122.276 96.4042C122.974 97.3114 122.749 98.4177 122.884 99.4355C122.952 100.166 123.312 100.94 122.772 101.67Z" fill="#010101"/>
<path d="M122.772 101.67C122.591 99.9223 122.434 98.1522 122.254 96.4042C123.694 96.3821 124.459 97.0016 124.527 98.3513C124.572 99.2143 124.707 100.121 124.144 100.896C123.829 101.338 123.447 101.759 122.772 101.67Z" fill="#6EB6DE"/>
<path d="M188.76 66.3567C186.284 66.4231 183.831 66.0912 181.355 66.0469C180.68 66.0248 180.388 65.9806 180.523 65.1176C181.175 60.7366 184.439 58.3912 188.895 59.1657C191.281 59.5639 193.531 62.0642 193.689 64.4538C193.801 66.3567 193.801 66.3567 191.911 66.3567C190.853 66.3567 189.795 66.3567 188.76 66.3567Z" fill="#FD9993"/>
<path d="M197.2 75.8489C197.2 73.6584 197.2 71.5564 197.2 69.4765C197.2 69.0119 197.357 68.9013 197.807 69.0783C198.077 69.1889 198.393 69.2332 198.663 69.3217C200.238 69.8748 201.296 71.0475 201.251 72.3087C201.183 73.8797 200.148 74.7205 198.798 75.2958C198.347 75.4949 197.875 75.6276 197.2 75.8489Z" fill="#FC9993"/>
<path d="M185.857 67.2197C188.557 67.2197 191.146 67.2197 193.981 67.2197C192.541 68.7021 191.933 70.8926 189.525 70.8484C187.252 70.8041 186.757 68.857 185.857 67.2197Z" fill="#FB9892"/>
<path d="M180.388 66.8214C180.478 66.8214 180.568 66.8214 180.658 66.7993C181.063 66.932 181.49 66.7771 181.896 66.8878C182.773 66.932 183.673 66.9984 184.574 67.0426C183.854 69.6757 182.278 70.8041 179.96 70.4058C179.6 69.9191 179.577 69.4323 179.938 68.9234C180.005 68.8791 180.05 68.857 180.118 68.8349C180.365 68.7464 180.793 68.8791 180.86 68.5251C180.95 68.1047 180.455 68.1268 180.208 67.9277C180.163 67.8834 180.095 67.8392 180.05 67.7728C179.892 67.3745 179.847 66.9984 180.388 66.8214Z" fill="#FB9892"/>
<path d="M180.388 66.8214C180.207 67.1311 180.162 67.4852 180.185 67.8392C180.297 68.2153 180.343 68.5915 180.14 68.9676C179.825 69.4323 179.982 69.9412 179.937 70.428C178.34 69.8748 177.867 68.3038 176.967 67.1533C176.629 66.7329 177.124 66.7107 177.394 66.7107C178.385 66.7329 179.375 66.7771 180.388 66.8214Z" fill="#202B6C"/>
<path d="M181.873 66.9099C181.445 66.9763 181.04 66.9763 180.635 66.8214C181.063 66.7329 181.49 66.6665 181.873 66.9099Z" fill="#202B6C"/>
<path d="M199.36 106.14C196.997 106.14 196.547 105.742 196.525 103.64C196.525 101.294 196.975 100.763 198.978 100.763C201.498 100.763 201.971 101.183 201.971 103.33C201.994 105.697 201.588 106.14 199.36 106.14Z" fill="#6DB5DE"/>
<path d="M213.562 189.445C210.568 189.445 207.575 189.401 204.582 189.467C203.389 189.489 203.591 188.804 203.569 188.118C203.569 187.41 203.434 186.768 204.582 186.768C210.501 186.812 216.398 186.812 222.317 186.768C223.195 186.768 223.397 187.056 223.352 187.852C223.285 189.711 223.532 189.423 221.732 189.423C219.008 189.445 216.285 189.445 213.562 189.445Z" fill="#5F87B2"/>
<path d="M106.86 70.0961C107.355 70.1182 107.625 70.3837 107.647 70.782C107.67 71.2024 107.4 71.4679 106.972 71.49C106.545 71.5122 106.252 71.2466 106.23 70.8262C106.207 70.4058 106.5 70.1846 106.86 70.0961Z" fill="#180E0E"/>
<path d="M98.9375 71.1581C98.7799 70.8484 98.8024 70.5607 98.96 70.2731C99.3651 70.0075 99.7702 69.919 100.108 70.3616C100.288 70.6271 100.31 70.8926 100.085 71.1581C99.7027 71.5564 99.3201 71.49 98.9375 71.1581Z" fill="#0C0708"/>
<path d="M188.197 69.388C187.747 69.3216 187.499 69.0783 187.522 68.6579C187.522 68.2596 187.77 68.0383 188.152 68.0383C188.58 68.0383 188.895 68.2375 188.872 68.68C188.872 69.0783 188.625 69.3438 188.197 69.388Z" fill="#080505"/>
<path d="M180.118 68.9455C179.87 68.5472 179.915 68.1932 180.163 67.8171C180.568 67.7728 180.995 67.6401 181.22 68.1268C181.355 68.3924 181.355 68.68 181.108 68.9234C180.793 69.2553 180.455 69.1668 180.118 68.9455Z" fill="#080505"/>
<path d="M213.607 187.365C216.375 187.365 219.143 187.365 221.912 187.365C222.497 187.365 222.879 187.41 222.879 188.162C222.879 188.936 222.497 188.958 221.912 188.958C216.308 188.936 210.681 188.958 205.077 188.958C204.537 188.958 204.154 188.936 204.154 188.228C204.154 187.52 204.424 187.365 205.077 187.365C207.913 187.387 210.749 187.365 213.607 187.365Z" fill="#FCFDFD"/>
</svg>
